<svg id="Layer_1" data-name="Layer 1" xmlns="http://www.w3.org/2000/svg" xmlns:xlink="http://www.w3.org/1999/xlink" viewBox="0 0 1900.1 284.97"><defs><style>.cls-1,.cls-12,.cls-16,.cls-4{fill:none;}.cls-2{fill:#fff;}.cls-3{fill:#231f20;}.cls-4{stroke:#e1136e;}.cls-12,.cls-16,.cls-4{stroke-miterlimit:10;}.cls-5{fill:#016fd0;}.cls-6{fill:#e21836;}.cls-7{fill:#00447c;}.cls-8{fill:#007b84;}.cls-9{fill:#fefefe;}.cls-10{fill:#0066b2;}.cls-11{fill:#f9a533;}.cls-12{stroke:#0066b2;stroke-width:1.07px;}.cls-13{fill:#ff5f00;}.cls-14{fill:#eb001b;}.cls-15{fill:#f79e1b;}.cls-16{stroke:#ed1d24;stroke-width:1px;}.cls-17{fill:#ed1d24;}.cls-18{fill:#dfe0e4;}.cls-19{clip-path:url(#clip-path);}.cls-20{fill:url(#linear-gradient);}.cls-21{fill:#d41d54;}.cls-22{fill:#e1136e;}.cls-23{fill:#9e1c3b;}.cls-24{fill:#eb008b;}</style><clipPath id="clip-path"><path class="cls-1" d="M1807.75,158.23h0m0,0-.13-.07.13.07m-42.42-17.94c3,4.11,6.21,8.66,9.13,13.11,16.57-3.43,31.59,3.95,33.16,4.76a84.32,84.32,0,0,1-25.45-20,66.5,66.5,0,0,0-16.84,2.18"/></clipPath><linearGradient id="linear-gradient" x1="1002.15" y1="534.98" x2="1003.03" y2="534.98" gradientTransform="matrix(48.21, 0, 0, -48.21, -46553.11, 25942.16)" gradientUnits="userSpaceOnUse"><stop offset="0" stop-color="#fff"/><stop offset="0.05" stop-color="#f9f9f9"/><stop offset="0.7" stop-color="#a2a4a6"/><stop offset="1" stop-color="#808285"/></linearGradient></defs><rect class="cls-2" width="1900.1" height="284.97" rx="35.73"/><path class="cls-3" d="M54.29,163.19V107.36q4.86-.31,8.29-.48c2.28-.11,4.22-.17,5.81-.2l3.82,0a54,54,0,0,1,11.19,1,15.79,15.79,0,0,1,7,3.1,11,11,0,0,1,3.51,5.7,33.22,33.22,0,0,1,1,8.48,31.18,31.18,0,0,1-1.11,8.88,13.33,13.33,0,0,1-3.59,6,15.2,15.2,0,0,1-6.41,3.42,35.87,35.87,0,0,1-9.6,1.11H71.3q-1.24,0-2.31,0l-2.19-.08-2.51-.12c-.93-.06-2-.08-3.07-.08v19.19Zm6.93-50.57v25.8c1.12,0,2.14,0,3.07,0l2.63.08,2.5.08c.85,0,1.81,0,2.87,0a32,32,0,0,0,7.65-.76,10.61,10.61,0,0,0,4.78-2.39,9.19,9.19,0,0,0,2.51-4.3,24.22,24.22,0,0,0,.75-6.49,21.26,21.26,0,0,0-.67-5.73A8,8,0,0,0,85,115.12a11.26,11.26,0,0,0-4.7-2.23,32.13,32.13,0,0,0-7.57-.75H70.58c-.72,0-1.5,0-2.35.08l-3,.16Q63.53,112.46,61.22,112.62Z"/><path class="cls-3" d="M98.66,152.92a11.36,11.36,0,0,1,1.63-6.33,10.86,10.86,0,0,1,4.86-4,35,35,0,0,1,8-2.27q4.78-.83,11.07-1.39v-6a6.81,6.81,0,0,0-2.39-5.62q-2.39-2-7.16-2c-1.07,0-2.27,0-3.63.16a38.67,38.67,0,0,0-4.14.56c-1.41.26-2.88.61-4.42,1l-1.2-5.34a53.14,53.14,0,0,1,7-1.59,43.92,43.92,0,0,1,6.69-.56,23.26,23.26,0,0,1,8.88,1.48,10.85,10.85,0,0,1,5.34,4.42,13.83,13.83,0,0,1,1.79,7.33v20.62a6.31,6.31,0,0,0,.76,3.67,2.46,2.46,0,0,0,2,.95,5,5,0,0,0,1-.12,5.93,5.93,0,0,0,1.11-.35l.8,4.93a11.84,11.84,0,0,1-2.51,1,10.37,10.37,0,0,1-2.75.36,6.57,6.57,0,0,1-4.54-1.51,7.53,7.53,0,0,1-2.15-4.54,34,34,0,0,1-4.22,3,22.18,22.18,0,0,1-5.1,2.23,20.87,20.87,0,0,1-6,.84,12.69,12.69,0,0,1-4.42-.72,9.25,9.25,0,0,1-3.39-2.15,9.65,9.65,0,0,1-2.19-3.46A13.71,13.71,0,0,1,98.66,152.92Zm6.77-.56a7.07,7.07,0,0,0,1.67,5.14,6.15,6.15,0,0,0,4.62,1.71,15.38,15.38,0,0,0,4.46-.68,20.49,20.49,0,0,0,4.34-1.91,16.42,16.42,0,0,0,3.7-2.91V143q-4.14.4-7.64,1a28.87,28.87,0,0,0-6,1.55,8.94,8.94,0,0,0-3.82,2.67A6.58,6.58,0,0,0,105.43,152.36Z"/><path class="cls-3" d="M147.72,179.76l5.41-16.57h-1.27l-16.41-42.61,7.25-.4,13.14,37,11.47-37,6.77.4-19.59,59.58Z"/><path class="cls-3" d="M246.4,163.19h-7.09l-11.54-44.28L215.9,163.19h-6.77L196.7,107.52l7.25-.16,9,48.27,11.71-46.2H231l11.63,46.12,9.08-48.19,7.25.16Z"/><path class="cls-3" d="M267.59,111.9a4.87,4.87,0,0,1-3.11-.8,3.49,3.49,0,0,1-1-2.79,3.66,3.66,0,0,1,.91-2.86,6.68,6.68,0,0,1,6.34,0,3.77,3.77,0,0,1,.87,2.86,3.67,3.67,0,0,1-.87,2.79A4.83,4.83,0,0,1,267.59,111.9Zm-3.34,51.29V120.5h6.69v42.69Z"/><path class="cls-3" d="M295.47,164a13,13,0,0,1-6.45-1.47,8.78,8.78,0,0,1-3.87-4.5,19.74,19.74,0,0,1-1.23-7.41V125.52h-7.33v-4.38l7.33-.64.87-10.11h5.82V120.5h14.26v4.94H290.61v24.69q0,4.31,1.63,6.25t5.38,2a18.51,18.51,0,0,0,3.78-.39,39.1,39.1,0,0,0,3.86-1l1,5.18a30.49,30.49,0,0,1-5.66,1.47A33.15,33.15,0,0,1,295.47,164Z"/><path class="cls-3" d="M311.87,163.19V104.25h6.69v19.83a40,40,0,0,1,4.78-2.38,27.81,27.81,0,0,1,4.7-1.48,24.84,24.84,0,0,1,5.18-.52,14.23,14.23,0,0,1,6.49,1.32,9.09,9.09,0,0,1,4,3.9,13.58,13.58,0,0,1,1.4,6.49v31.78H338.4V133.32a8.12,8.12,0,0,0-1.95-5.85q-2-2-5.86-2a19.38,19.38,0,0,0-4.14.44,22.62,22.62,0,0,0-3.9,1.23q-1.92.8-4,1.83v34.25Z"/><rect class="cls-4" x="474.75" y="67.57" width="314.32" height="150.16" rx="22.45"/><rect class="cls-5" x="873.27" y="90.36" width="165.08" height="108.79" rx="14.16"/><path class="cls-2" d="M905.4,174.68v-25.9h27.42l2.95,3.83,3-3.83h99.54v24.11a11.51,11.51,0,0,1-5.61,1.79H977.62l-3.32-4.09v4.09H963.43v-7a9.17,9.17,0,0,1-4.7,1H955v6H938.57l-2.93-3.92-3,3.92Zm-32-45.43,6.19-14.41h10.69l3.51,8.07v-8.07h13.3l2.09,5.83,2-5.83h59.68v2.93a12.9,12.9,0,0,1,8.3-2.93l19.36.06,3.45,8v-8h11.13l3.06,4.57v-4.57h11.23v25.9h-11.23l-2.93-4.6v4.6H996.87l-1.64-4.09h-4.4l-1.62,4.09H978.13a11,11,0,0,1-7.28-2.88v2.88H954.14l-3.32-4.09v4.09H888.67L887,136.65h-4.39L881,140.74h-7.64Z"/><path class="cls-5" d="M881.75,118l-8.35,19.39h5.44l1.53-3.88h9l1.53,3.88h5.55L888.07,118Zm3.08,4.51,2.73,6.79H882.1ZM897,137.42V118l7.72,0,4.48,12.51L913.56,118h7.66v19.39h-4.85V123.13l-5.14,14.29H907l-5.15-14.29v14.29Zm27.56,0V118h15.82v4.33H929.44v3.32H940.1v4.08H929.44v3.45h10.92v4.21ZM943.17,118v19.39H948v-6.89h2l5.81,6.89h5.93l-6.38-7.14a5.91,5.91,0,0,0,5.31-6c0-4.08-3.2-6.29-6.77-6.29Zm4.85,4.34h5.54a2.22,2.22,0,0,1,2.29,2,2.19,2.19,0,0,1-2.22,2H948Zm19.64,15h-4.95V118h4.95Zm11.74,0h-1.06c-5.18,0-8.31-4.07-8.31-9.62s3.1-9.77,9.63-9.77H985v4.59h-5.56c-2.65,0-4.52,2.07-4.52,5.23,0,3.76,2.14,5.33,5.23,5.33h1.28ZM990,118l-8.34,19.39H987l1.54-3.88h8.95l1.53,3.88h5.55L996.28,118Zm3.09,4.51,2.73,6.79H990.3Zm12.14,14.88V118h6.16l7.87,12.18V118h4.85v19.39h-6l-8.07-12.5v12.5Zm-96.46,33.94V152h15.82v4.33H913.62v3.32h10.66v4.08H913.62v3.45h10.92v4.21Zm77.52,0V152h15.82v4.33H991.14v3.32h10.62v4.08H991.14v3.45h10.92v4.21Zm-61.09,0,7.71-9.58L925,152h6.11l4.69,6.06,4.72-6.06h5.87l-7.79,9.69,7.72,9.7h-6.11l-4.56-6-4.45,6ZM946.87,152v19.39h5v-6.12H957c4.32,0,7.59-2.29,7.59-6.75,0-3.69-2.57-6.52-7-6.52Zm5,4.39h5.38a2.19,2.19,0,0,1,2.39,2.23,2.24,2.24,0,0,1-2.41,2.23h-5.36Zm14.8-4.39v19.39h4.85v-6.89h2l5.82,6.89h5.92l-6.38-7.15a5.9,5.9,0,0,0,5.32-6c0-4.08-3.2-6.29-6.78-6.29Zm4.85,4.33H977a2.23,2.23,0,0,1,2.29,2,2.19,2.19,0,0,1-2.22,2h-5.62Zm32.82,15.06v-4.21h9.7c1.44,0,2.06-.78,2.06-1.63s-.62-1.64-2.06-1.64h-4.38c-3.81,0-5.94-2.32-5.94-5.81,0-3.11,1.95-6.1,7.61-6.1h9.44l-2,4.36h-8.16c-1.56,0-2,.82-2,1.6a1.69,1.69,0,0,0,1.78,1.69h4.59c4.25,0,6.1,2.41,6.1,5.57,0,3.39-2.06,6.17-6.33,6.17Zm17.8,0v-4.21h9.7c1.43,0,2.06-.78,2.06-1.63s-.62-1.64-2.06-1.64h-4.39c-3.81,0-5.93-2.32-5.93-5.81,0-3.11,1.94-6.1,7.61-6.1h9.44l-2,4.36h-8.17c-1.56,0-2,.82-2,1.6a1.69,1.69,0,0,0,1.79,1.69h4.59c4.25,0,6.09,2.41,6.09,5.57,0,3.39-2,6.17-6.32,6.17Z"/><path class="cls-6" d="M1107.23,90.36h43.41c6.06,0,9.83,4.94,8.41,11l-20.21,86.77c-1.42,6.06-7.49,11-13.55,11h-43.41c-6.05,0-9.83-4.94-8.41-11l20.22-86.77c1.41-6.08,7.47-11,13.54-11"/><path class="cls-7" d="M1147,90.36H1197c6.06,0,3.32,4.94,1.9,11l-20.21,86.77c-1.42,6.06-1,11-7,11h-49.92c-6.08,0-9.83-4.94-8.41-11l20.21-86.77c1.43-6.08,7.49-11,13.55-11"/><path class="cls-8" d="M1195,90.36h43.41c6.06,0,9.83,4.94,8.41,11l-20.21,86.77c-1.42,6.06-7.5,11-13.56,11h-43.39c-6.07,0-9.84-4.94-8.42-11l20.21-86.77c1.42-6.08,7.48-11,13.55-11"/><path class="cls-9" d="M1118.57,118.17a47.87,47.87,0,0,1-6.21-.1c-.16.77-3.17,14.66-3.18,14.68-.65,2.81-1.12,4.81-2.72,6.11a4.86,4.86,0,0,1-3.21,1.11,3,3,0,0,1-3.32-2.85l0-.64s.6-3.76.6-3.78,3.16-12.67,3.73-14.34c0-.1,0-.15,0-.19-6.16,0-7.25,0-7.32-.1,0,.14-.2.92-.2.92l-3.22,14.27-.28,1.21-.54,4a5.83,5.83,0,0,0,.69,2.95c1.47,2.57,5.67,3,8,3a15.69,15.69,0,0,0,7.87-1.83c3.36-2,4.24-5.1,5-7.86l.36-1.42s3.26-13.15,3.81-14.86A.47.47,0,0,1,1118.57,118.17Zm11.08,10.61a8.61,8.61,0,0,0-3.51.82c-.47.24-.91.52-1.38.79l.42-1.52-.23-.25c-2.73.55-3.34.63-5.87,1l-.21.14a73.53,73.53,0,0,1-1.64,9c-.41,1.76-.84,3.53-1.27,5.29l.12.22c2.58-.13,3.37-.13,5.62-.1l.18-.19c.28-1.47.32-1.81.95-4.77.3-1.41.92-4.5,1.23-5.59a4,4,0,0,1,1.64-.52c1.26,0,1.11,1.1,1.06,1.54,0,.73-.51,3.13-1,5.2l-.32,1.33c-.22,1-.46,1.93-.68,2.91l.1.19c2.55-.13,3.33-.13,5.5-.1l.26-.19c.39-2.29.51-2.9,1.21-6.23l.35-1.53c.68-3,1-4.51.51-5.74A3,3,0,0,0,1129.65,128.78Zm12.38,3.13c-1.36.26-2.22.44-3.08.55s-1.68.26-3,.44l-.11.09-.09.08c-.14,1-.23,1.82-.42,2.81s-.39,2.19-.77,3.86a15.53,15.53,0,0,1-.62,2.18,19.1,19.1,0,0,0-.68,2.15l.08.12.06.1c1.23,0,2-.1,2.85-.1s1.68,0,3,0l.12-.09.12-.1c.19-1.14.22-1.45.34-2s.31-1.42.8-3.62c.23-1,.49-2.06.73-3.11s.51-2.09.75-3.12l0-.12Zm0-4.22a5,5,0,0,0-4.85.51c-1.45,1-1.62,2.38-.39,3.11a4.94,4.94,0,0,0,4.82-.51C1143.09,129.79,1143.27,128.41,1142.06,127.69Zm7.44,16.83a9.23,9.23,0,0,0,7-2.72,12.28,12.28,0,0,0,2.39-5.13c.77-3.35.17-4.92-.57-5.87-1.14-1.46-3.15-1.93-5.23-1.93a9.62,9.62,0,0,0-6.57,2.28,10.73,10.73,0,0,0-2.91,5.67c-.47,2.05-1,5.75,2.39,7.13A10,10,0,0,0,1149.5,144.52Zm-.19-7.55c.57-2.54,1.25-4.67,3-4.67,1.36,0,1.46,1.58.85,4.13a11.19,11.19,0,0,1-1.27,3.57,2.1,2.1,0,0,1-1.63,1.06c-.18,0-1.27,0-1.28-1.61A10.73,10.73,0,0,1,1149.31,137Zm15.78,7.22.2-.19c.27-1.47.32-1.81.93-4.77.31-1.41.94-4.5,1.24-5.59a4,4,0,0,1,1.65-.52c1.25,0,1.1,1.1,1.05,1.54a48.2,48.2,0,0,1-1,5.19l-.3,1.34c-.23,1-.48,1.93-.69,2.91l.09.19c2.56-.13,3.31-.13,5.5-.1l.26-.19c.39-2.29.49-2.9,1.21-6.23l.34-1.53c.69-3,1-4.51.53-5.74a3,3,0,0,0-3.07-1.72,8.58,8.58,0,0,0-3.51.82c-.46.24-.92.52-1.37.79l.4-1.52-.22-.25c-2.73.55-3.35.63-5.87,1l-.2.14a75.55,75.55,0,0,1-1.64,9c-.41,1.76-.84,3.53-1.27,5.29l.11.22C1162.08,144.16,1162.85,144.16,1165.09,144.19Zm18.8.1c.16-.78,1.12-5.43,1.13-5.43s.81-3.42.86-3.54a1.91,1.91,0,0,1,.51-.5h.38c3.55,0,7.56,0,10.71-2.31a11.46,11.46,0,0,0,4.26-6.78,10.23,10.23,0,0,0,.29-2.36,5,5,0,0,0-.85-3c-1.6-2.25-4.8-2.29-8.49-2.31l-1.81,0c-4.72.06-6.62,0-7.39,0l-.19,1-1.69,7.85-4.24,17.45C1181.49,144.22,1183.18,144.22,1183.89,144.29Zm3.13-13.92s1.8-7.82,1.79-7.79l.06-.4,0-.3.71.07,3.8.33c1.46.56,2.07,2,1.64,3.93a5.71,5.71,0,0,1-3,3.91,9.33,9.33,0,0,1-4.16.65h-1Zm11.2,6.75c-.48,2-1,5.72,2.36,7a6.59,6.59,0,0,0,3,.54,4.94,4.94,0,0,0,2.89-1.32l-.24.92.15.2c2.44-.1,3.19-.1,5.83-.08l.24-.18c.38-2.27.75-4.47,1.75-8.8.49-2.07,1-4.13,1.47-6.19l-.08-.23c-2.72.5-3.45.61-6.07,1l-.2.16c0,.21,0,.42-.07.62a3.75,3.75,0,0,0-1.91-1.57c-1.17-.46-3.9.13-6.26,2.27A10.64,10.64,0,0,0,1198.22,137.12Zm5.72.12c.58-2.5,1.25-4.61,3-4.61,1.1,0,1.68,1,1.56,2.74-.09.43-.19.89-.31,1.4-.17.74-.36,1.48-.55,2.21a5.08,5.08,0,0,1-.64,1.3,3,3,0,0,1-2.12,1c-.17,0-1.24,0-1.28-1.58A10.39,10.39,0,0,1,1203.94,137.24Zm29.87-8.24-.21-.24c-2.7.54-3.19.63-5.66,1l-.18.19,0,.11v0c-1.85,4.25-1.79,3.34-3.29,6.68,0-.15,0-.24,0-.41L1224,129l-.24-.24c-2.82.54-2.89.63-5.5,1l-.2.19a2,2,0,0,0,0,.28l0,0a35.68,35.68,0,0,1,.58,3.92c.15,1.29.35,2.59.5,3.86.26,2.13.4,3.18.72,6.44-1.76,2.9-2.18,4-3.87,6.55v0l-1.2,1.89a.93.93,0,0,1-.43.39,1.87,1.87,0,0,1-.78.11h-.66l-1,3.27,3.38.06a4.16,4.16,0,0,0,3.89-2.18l2.12-3.63h0l.22-.26C1223,147.61,1233.81,129,1233.81,129Zm-35.59,42.94h-1.43l5.29-17.52h1.76l.55-1.8.06,2c-.07,1.24.91,2.34,3.47,2.15h3l1-3.37h-1.11c-.64,0-.94-.16-.9-.51l-.06-2h-5.48a76.44,76.44,0,0,0-8.15.46,9.46,9.46,0,0,0-2.67,1.32l.54-1.81h-5.13l-1.07,3.58-5.37,17.78h-1l-1,3.35h10.22l-.34,1.12h5l.33-1.12h1.42Zm-4.2-14a23.48,23.48,0,0,0-2.35.92l1.36-4.48h4.08l-1,3.27A13.21,13.21,0,0,0,1194,158Zm.08,6.4s-1.28.16-2.13.35a20.45,20.45,0,0,0-2.38,1l1.4-4.65h4.1Zm-2.29,7.6h-4.09l1.19-3.93H1193Zm9.86-10.86h5.89l-.84,2.74h-6l-.9,3h5.23l-4,5.58a1.6,1.6,0,0,1-.8.67,2.36,2.36,0,0,1-1.06.3h-1.45l-1,3.29h3.8a4.6,4.6,0,0,0,4-2.08l2.72-3.71.58,3.77a1.77,1.77,0,0,0,1,1.28,3.54,3.54,0,0,0,1.32.57l1.31,0h1.87l1.12-3.67h-.74a3.07,3.07,0,0,1-1.27-.21,2.14,2.14,0,0,1-.19-.78l-.59-3.78h-2.42l1.06-1.27h6l.92-3h-5.52l.86-2.74h5.5l1-3.39h-16.41Zm-49.81,11.62,1.37-4.58h5.66l1-3.4h-5.66l.86-2.82h5.54l1-3.3h-13.84l-1,3.3H1150l-.84,2.82H1146l-1,3.46h3.15l-1.84,6.06a1.44,1.44,0,0,0,.35,1.48,1.51,1.51,0,0,0,1,.74,6.24,6.24,0,0,0,1.45.2h6.38l1.14-3.78-2.83.39C1153.2,173.31,1151.69,173.25,1151.86,172.74Zm.64-21.92-1.43,2.59a3,3,0,0,1-.83,1.08,2.71,2.71,0,0,1-1.28.19h-.75l-1,3.32h2.48a5.56,5.56,0,0,0,2.55-.66c.47-.25.6-.11,1-.46l.84-.72h7.76l1-3.46h-5.68l1-1.88Zm11.46,22c-.14-.19,0-.53.16-1.23l2.12-7h7.55c1.09,0,1.89,0,2.4-.07a5.07,5.07,0,0,0,1.82-.61,3.43,3.43,0,0,0,1.32-1.22,10.51,10.51,0,0,0,1.3-2.95l2.67-8.88-7.83,0a24.74,24.74,0,0,0-3.47.74,14.18,14.18,0,0,0-2.6,1.67l.7-2.44h-4.83l-6.77,22.45a14.4,14.4,0,0,0-.44,1.89c0,.41.52.81.86,1.12a3.13,3.13,0,0,0,1.58.3c.6,0,1.46.08,2.65.08h3.71l1.14-3.85-3.32.31A.86.86,0,0,1,1164,172.81Zm3.65-13h7.92l-.5,1.57a7.39,7.39,0,0,0-1,0h-6.86Zm1.59-5.3h8l-.58,1.9s-3.76,0-4.37.08a9,9,0,0,0-4.2,1.87Zm6,12.16a.85.85,0,0,1-.32.49,1.6,1.6,0,0,1-.81.14H1173l.07-1.92h-4.69l-.19,9.4c0,.67,0,1.07.55,1.38s2,.44,4.08.44h3l1.06-3.51-2.56.14-.86.05a1.17,1.17,0,0,1-.35-.22c-.11-.11-.29,0-.26-.72l0-2.41,2.69-.11a3.48,3.48,0,0,0,2.6-.92,3,3,0,0,0,.86-1.6l.45-2.13h-3.69Z"/><polygon class="cls-10" points="1561.68 170.69 1548.19 170.69 1556.62 118.86 1570.12 118.86 1561.68 170.69"/><path class="cls-10" d="M1536.84,118.86,1524,154.51l-1.52-7.68h0l-4.54-23.3s-.55-4.67-6.4-4.67h-21.27l-.25.88a50.26,50.26,0,0,1,14.12,5.93l11.72,45h14.06l21.46-51.83Z"/><path class="cls-10" d="M1643,170.69h12.39l-10.8-51.83H1633.7c-5,0-6.23,3.86-6.23,3.86l-20.12,48h14.07l2.81-7.7h17.15Zm-14.84-18.34,7.09-19.39,4,19.39Z"/><path class="cls-10" d="M1608.41,131.33l1.92-11.14a39.07,39.07,0,0,0-12.13-2.25c-6.7,0-22.6,2.92-22.6,17.15,0,13.39,18.66,13.56,18.66,20.59s-16.73,5.77-22.26,1.34l-2,11.63a37.75,37.75,0,0,0,15.23,2.93c9.2,0,23.09-4.77,23.09-17.74,0-13.48-18.82-14.73-18.82-20.59S1602.63,128.14,1608.41,131.33Z"/><path class="cls-11" d="M1522.46,146.83l-4.54-23.3s-.55-4.67-6.4-4.67h-21.27l-.25.88a52.38,52.38,0,0,1,20,10A40.48,40.48,0,0,1,1522.46,146.83Z"/><rect class="cls-12" x="1470.22" y="90.36" width="204.93" height="108.79" rx="9.75"/><path class="cls-13" d="M1367.52,166.48h-36.81V100.33h36.81Z"/><path class="cls-14" d="M1333,133.4a42,42,0,0,1,16.07-33.07,42.07,42.07,0,1,0,0,66.15A42,42,0,0,1,1333,133.4Z"/><path class="cls-15" d="M1417.18,133.4a42.08,42.08,0,0,1-68.07,33.08,42.07,42.07,0,0,0,0-66.15,42.07,42.07,0,0,1,68.07,33.07Z"/><path d="M1304.07,198.77v-7a4.13,4.13,0,0,0-4.36-4.41,4.31,4.31,0,0,0-3.9,2,4.09,4.09,0,0,0-3.67-2,3.66,3.66,0,0,0-3.25,1.65v-1.37h-2.42v11.1h2.44v-6.16c0-1.92,1.07-2.94,2.72-2.94s2.41,1,2.41,2.92v6.18h2.44v-6.16a2.61,2.61,0,0,1,2.72-2.94c1.65,0,2.43,1,2.43,2.92v6.18Zm36.09-11.1h-4V184.3h-2.44v3.37h-2.25v2.2h2.25v5.07c0,2.57,1,4.11,3.86,4.11a5.67,5.67,0,0,0,3-.86l-.69-2.07a4.44,4.44,0,0,1-2.14.63c-1.21,0-1.6-.75-1.6-1.86v-5h4Zm20.59-.28a3.25,3.25,0,0,0-2.92,1.63v-1.35h-2.39v11.1h2.41v-6.23c0-1.83.79-2.85,2.37-2.85a3.91,3.91,0,0,1,1.51.28l.74-2.28a5.11,5.11,0,0,0-1.72-.3Zm-31.14,1.16a8.25,8.25,0,0,0-4.52-1.16c-2.81,0-4.62,1.35-4.62,3.55,0,1.81,1.34,2.93,3.83,3.28l1.14.16c1.32.18,2,.53,2,1.16,0,.86-.89,1.35-2.54,1.35a6,6,0,0,1-3.69-1.16l-1.14,1.88a8.07,8.07,0,0,0,4.81,1.44c3.21,0,5.06-1.51,5.06-3.63,0-1.95-1.46-3-3.87-3.32l-1.14-.16c-1.05-.14-1.88-.35-1.88-1.09s.79-1.3,2.11-1.3a7.11,7.11,0,0,1,3.46.95Zm64.7-1.16a3.27,3.27,0,0,0-2.93,1.63v-1.35H1389v11.1h2.41v-6.23c0-1.83.79-2.85,2.37-2.85a3.91,3.91,0,0,1,1.51.28l.74-2.28a5.1,5.1,0,0,0-1.71-.3Zm-31.12,5.83a5.61,5.61,0,0,0,5.92,5.83,5.85,5.85,0,0,0,4-1.33l-1.16-1.95a4.9,4.9,0,0,1-2.91,1,3.56,3.56,0,0,1,0-7.1,4.89,4.89,0,0,1,2.91,1l1.16-1.95a5.85,5.85,0,0,0-4-1.32,5.61,5.61,0,0,0-5.92,5.83Zm22.62,0v-5.55h-2.42V189a4.19,4.19,0,0,0-3.5-1.63,5.84,5.84,0,0,0,0,11.66,4.19,4.19,0,0,0,3.5-1.63v1.35h2.42Zm-9,0a3.36,3.36,0,1,1,3.37,3.55,3.33,3.33,0,0,1-3.37-3.55Zm-29.14-5.83c-3.25,0-5.53,2.37-5.53,5.83a5.48,5.48,0,0,0,5.69,5.83,6.73,6.73,0,0,0,4.55-1.56l-1.18-1.79a5.24,5.24,0,0,1-3.23,1.16,3.09,3.09,0,0,1-3.32-2.71h8.24c0-.3,0-.61,0-.93,0-3.46-2.16-5.83-5.27-5.83Zm0,2.16a2.75,2.75,0,0,1,2.81,2.69h-5.76a2.87,2.87,0,0,1,3-2.69Zm60.59,3.67v-10h-2.42V189a4.22,4.22,0,0,0-3.51-1.63,5.84,5.84,0,0,0,0,11.66,4.22,4.22,0,0,0,3.51-1.63v1.35h2.42Zm2.82,4.52a.67.67,0,0,1,.28.06.86.86,0,0,1,.22.15.69.69,0,0,1,.16.22.66.66,0,0,1,0,.28.62.62,0,0,1,0,.27.6.6,0,0,1-.16.22.69.69,0,0,1-.22.16.87.87,0,0,1-.28.05.93.93,0,0,1-.29-.05.87.87,0,0,1-.23-.16.71.71,0,0,1-.15-.22.62.62,0,0,1,0-.27.66.66,0,0,1,0-.28.86.86,0,0,1,.15-.22,1.14,1.14,0,0,1,.23-.15A.72.72,0,0,1,1411,197.74Zm0,1.26a.54.54,0,0,0,.21-.05.5.5,0,0,0,.17-.11.57.57,0,0,0,.12-.18.49.49,0,0,0,0-.21.54.54,0,0,0,0-.22.66.66,0,0,0-.12-.17.5.5,0,0,0-.38-.16.54.54,0,0,0-.22,0,.43.43,0,0,0-.17.12.66.66,0,0,0-.12.17.54.54,0,0,0,0,.22.49.49,0,0,0,0,.21.57.57,0,0,0,.12.18.42.42,0,0,0,.17.11A.54.54,0,0,0,1411,199Zm0-.88a.33.33,0,0,1,.19,0,.19.19,0,0,1,.07.16.19.19,0,0,1,0,.13.26.26,0,0,1-.16.07l.22.24h-.17l-.2-.24h-.06v.24h-.14v-.65Zm-.16.12v.18h.16a.16.16,0,0,0,.09,0,.06.06,0,0,0,0-.06.09.09,0,0,0,0-.07l-.09,0Zm-11.69-5a3.36,3.36,0,1,1,3.37,3.55,3.33,3.33,0,0,1-3.37-3.55Zm-81.55,0v-5.55h-2.42V189a4.19,4.19,0,0,0-3.5-1.63,5.84,5.84,0,0,0,0,11.66,4.19,4.19,0,0,0,3.5-1.63v1.35h2.42Zm-9,0a3.36,3.36,0,1,1,3.37,3.55A3.33,3.33,0,0,1,1308.69,193.22Z"/><rect class="cls-16" x="846.24" y="67.57" width="916.27" height="150.16" rx="14.53"/><rect class="cls-2" x="1714.02" y="91.33" width="137.36" height="100.91"/><path class="cls-3" d="M1759.07,190.18v-4.25h.62v.6a1.59,1.59,0,0,1,.53-.5,1.44,1.44,0,0,1,.75-.19,1.51,1.51,0,0,1,.77.19,1.22,1.22,0,0,1,.42.55,1.51,1.51,0,0,1,1.3-.74,1.3,1.3,0,0,1,1,.35,1.51,1.51,0,0,1,.33,1.07v2.92h-.7v-2.67a2.18,2.18,0,0,0-.07-.62.56.56,0,0,0-.26-.31.74.74,0,0,0-.42-.12,1,1,0,0,0-.74.3,1.3,1.3,0,0,0-.3,1v2.47h-.7v-2.76a1.21,1.21,0,0,0-.18-.72.64.64,0,0,0-.57-.24,1.16,1.16,0,0,0-.56.16,1,1,0,0,0-.36.47,2.57,2.57,0,0,0-.12.89v2.2Z"/><path class="cls-3" d="M1768.53,189.65a2.58,2.58,0,0,1-.76.48,2.21,2.21,0,0,1-.78.14,1.56,1.56,0,0,1-1.08-.34,1.12,1.12,0,0,1-.37-.88,1.09,1.09,0,0,1,.15-.56,1.05,1.05,0,0,1,.36-.42,1.87,1.87,0,0,1,.52-.23,5.78,5.78,0,0,1,.64-.11,6.23,6.23,0,0,0,1.27-.25,1.62,1.62,0,0,0,0-.18.81.81,0,0,0-.2-.62,1.23,1.23,0,0,0-.82-.24,1.26,1.26,0,0,0-.75.18,1,1,0,0,0-.35.61l-.71-.09a1.81,1.81,0,0,1,.31-.73,1.46,1.46,0,0,1,.63-.42,2.75,2.75,0,0,1,1-.15,2.4,2.4,0,0,1,.88.13,1.13,1.13,0,0,1,.49.32,1.05,1.05,0,0,1,.22.49,3.3,3.3,0,0,1,0,.66v1a10.87,10.87,0,0,0,0,1.27,1.55,1.55,0,0,0,.18.51h-.73a1.43,1.43,0,0,1-.14-.53m0-1.61a4.94,4.94,0,0,1-1.18.27,2.76,2.76,0,0,0-.63.15.58.58,0,0,0-.28.23.63.63,0,0,0-.11.35.64.64,0,0,0,.22.48.94.94,0,0,0,.64.19,1.5,1.5,0,0,0,.74-.18,1.1,1.1,0,0,0,.48-.5,1.72,1.72,0,0,0,.11-.72Z"/><polygon class="cls-3" points="1770.27 190.18 1770.27 184.31 1770.98 184.31 1770.98 187.65 1772.67 185.93 1773.6 185.93 1771.98 187.51 1773.75 190.18 1772.88 190.18 1771.48 188 1770.98 188.5 1770.98 190.18 1770.27 190.18"/><path class="cls-3" d="M1774.3,184.31h.71v.82h-.71Zm0,1.62h.71v4.25h-.71Z"/><path class="cls-3" d="M1776.1,190.18v-4.25h.64v.6a1.49,1.49,0,0,1,1.32-.69,1.58,1.58,0,0,1,.69.14,1.13,1.13,0,0,1,.48.36,1.48,1.48,0,0,1,.22.53,5.48,5.48,0,0,1,0,.7v2.61h-.7V187.6a2.18,2.18,0,0,0-.08-.66.75.75,0,0,0-.29-.35,1,1,0,0,0-.5-.13,1.12,1.12,0,0,0-.78.3,1.43,1.43,0,0,0-.33,1.1v2.32Z"/><path class="cls-3" d="M1780.45,190.53l.69.09a.69.69,0,0,0,.24.48,1.2,1.2,0,0,0,.72.2,1.26,1.26,0,0,0,.77-.2.92.92,0,0,0,.37-.56,5.5,5.5,0,0,0,0-.92,1.47,1.47,0,0,1-1.17.56,1.57,1.57,0,0,1-1.34-.63,2.43,2.43,0,0,1-.47-1.51,2.81,2.81,0,0,1,.21-1.13,1.78,1.78,0,0,1,.63-.79,1.69,1.69,0,0,1,1-.28,1.51,1.51,0,0,1,1.23.61v-.52h.64v3.67a3.32,3.32,0,0,1-.21,1.4,1.39,1.39,0,0,1-.63.66,2.13,2.13,0,0,1-1.06.24,2,2,0,0,1-1.21-.34,1.16,1.16,0,0,1-.44-1M1781,188a1.85,1.85,0,0,0,.33,1.22,1.05,1.05,0,0,0,.83.38,1.07,1.07,0,0,0,.83-.38,1.79,1.79,0,0,0,.34-1.2,1.76,1.76,0,0,0-.35-1.17,1.06,1.06,0,0,0-.83-.39,1,1,0,0,0-.81.39A1.66,1.66,0,0,0,1781,188"/><path class="cls-3" d="M1787,188.89l.7-.09a1,1,0,0,0,.33.65,1.1,1.1,0,0,0,.76.23,1.07,1.07,0,0,0,.72-.2.59.59,0,0,0,.24-.47.45.45,0,0,0-.21-.39,3.25,3.25,0,0,0-.73-.24,5.88,5.88,0,0,1-1.08-.35,1.07,1.07,0,0,1-.46-.4,1,1,0,0,1-.16-.57,1.08,1.08,0,0,1,.14-.53,1.17,1.17,0,0,1,.34-.4,1.58,1.58,0,0,1,.45-.21,2.45,2.45,0,0,1,.62-.08,2.6,2.6,0,0,1,.87.14,1.26,1.26,0,0,1,.54.39,1.43,1.43,0,0,1,.25.66l-.69.08a.76.76,0,0,0-.28-.5,1,1,0,0,0-.63-.18,1.18,1.18,0,0,0-.71.16.48.48,0,0,0-.21.38.41.41,0,0,0,.09.26.62.62,0,0,0,.27.19l.63.19a7.06,7.06,0,0,1,1,.33,1.16,1.16,0,0,1,.47.37,1.1,1.1,0,0,1,.16.62,1.2,1.2,0,0,1-.2.68,1.4,1.4,0,0,1-.6.49,2.23,2.23,0,0,1-.88.17,1.91,1.91,0,0,1-1.24-.35,1.6,1.6,0,0,1-.55-1"/><path class="cls-3" d="M1794.2,188.81l.72.09a1.78,1.78,0,0,1-.64,1,2.15,2.15,0,0,1-2.65-.21,2.3,2.3,0,0,1-.54-1.61,2.37,2.37,0,0,1,.55-1.66,1.83,1.83,0,0,1,1.41-.59,1.78,1.78,0,0,1,1.37.58,2.32,2.32,0,0,1,.52,1.62v.2h-3.11a1.68,1.68,0,0,0,.38,1.07,1.16,1.16,0,0,0,.88.37,1.07,1.07,0,0,0,.67-.2,1.5,1.5,0,0,0,.44-.67m-2.33-1.16h2.33a1.38,1.38,0,0,0-.26-.8,1.08,1.08,0,0,0-.89-.42,1.1,1.1,0,0,0-.82.33,1.31,1.31,0,0,0-.36.89"/><path class="cls-3" d="M1795.82,190.18v-4.25h.64v.6a1.48,1.48,0,0,1,1.32-.69,1.52,1.52,0,0,1,.69.14,1.13,1.13,0,0,1,.48.36,1.48,1.48,0,0,1,.22.53,5.48,5.48,0,0,1,0,.7v2.61h-.7V187.6a2.18,2.18,0,0,0-.08-.66.7.7,0,0,0-.29-.35,1,1,0,0,0-.5-.13,1.12,1.12,0,0,0-.78.3,1.43,1.43,0,0,0-.33,1.1v2.32Z"/><path class="cls-3" d="M1800,188.89l.7-.09a1.05,1.05,0,0,0,.34.65,1.38,1.38,0,0,0,1.48,0,.59.59,0,0,0,.24-.47.47.47,0,0,0-.21-.39,3.46,3.46,0,0,0-.73-.24,5.88,5.88,0,0,1-1.08-.35,1.07,1.07,0,0,1-.46-.4,1.11,1.11,0,0,1-.16-.57,1.07,1.07,0,0,1,.13-.53,1.33,1.33,0,0,1,.35-.4,1.58,1.58,0,0,1,.45-.21,2.37,2.37,0,0,1,.61-.08,2.62,2.62,0,0,1,.88.14,1.26,1.26,0,0,1,.54.39,1.55,1.55,0,0,1,.25.66l-.69.08a.81.81,0,0,0-.28-.5,1,1,0,0,0-.64-.18,1.17,1.17,0,0,0-.7.16.47.47,0,0,0-.2.38.4.4,0,0,0,.08.26.62.62,0,0,0,.27.19l.63.19a7.49,7.49,0,0,1,1,.33,1.16,1.16,0,0,1,.47.37,1.1,1.1,0,0,1,.16.62,1.28,1.28,0,0,1-.2.68,1.34,1.34,0,0,1-.6.49,2.26,2.26,0,0,1-.88.17,2,2,0,0,1-1.25-.35,1.64,1.64,0,0,1-.55-1"/><path class="cls-3" d="M1807.19,188.81l.73.09a1.83,1.83,0,0,1-.64,1,2.15,2.15,0,0,1-2.65-.21,2.3,2.3,0,0,1-.53-1.61,2.37,2.37,0,0,1,.54-1.66,1.83,1.83,0,0,1,1.4-.59,1.75,1.75,0,0,1,1.37.58A2.28,2.28,0,0,1,1808,188a1.64,1.64,0,0,1,0,.2h-3.11a1.63,1.63,0,0,0,.39,1.07,1.13,1.13,0,0,0,.87.37,1.09,1.09,0,0,0,.67-.2,1.42,1.42,0,0,0,.43-.67m-2.32-1.16h2.33a1.37,1.37,0,0,0-.27-.8,1,1,0,0,0-.87-.42,1.07,1.07,0,0,0-.82.33,1.28,1.28,0,0,0-.37.89"/><path class="cls-3" d="M1810.8,188.05a2.2,2.2,0,0,1,.64-1.74,1.89,1.89,0,0,1,1.32-.47,1.85,1.85,0,0,1,1.4.57,2.22,2.22,0,0,1,.55,1.59,2.83,2.83,0,0,1-.24,1.28,1.78,1.78,0,0,1-.71.73,1.94,1.94,0,0,1-1,.26,1.86,1.86,0,0,1-1.42-.57,2.27,2.27,0,0,1-.54-1.65m.73,0a1.91,1.91,0,0,0,.34,1.22,1.13,1.13,0,0,0,.89.4,1.1,1.1,0,0,0,.87-.4A1.89,1.89,0,0,0,1814,188a1.76,1.76,0,0,0-.35-1.19,1.08,1.08,0,0,0-.87-.41,1.13,1.13,0,0,0-.89.4,1.91,1.91,0,0,0-.34,1.22"/><path class="cls-3" d="M1815.71,190.18v-3.69h-.63v-.56h.63v-.45a2,2,0,0,1,.07-.63.89.89,0,0,1,.36-.45,1.28,1.28,0,0,1,.72-.18,3.47,3.47,0,0,1,.67.08l-.11.62a3.07,3.07,0,0,0-.42,0,.62.62,0,0,0-.46.14.78.78,0,0,0-.13.51v.39h.82v.56h-.82v3.69Z"/><path class="cls-3" d="M1820,190.18v-4.25h.63v.6a1.47,1.47,0,0,1,.52-.5,1.43,1.43,0,0,1,.74-.19,1.46,1.46,0,0,1,.77.19,1.17,1.17,0,0,1,.43.55,1.5,1.5,0,0,1,1.29-.74,1.31,1.31,0,0,1,1,.35,1.51,1.51,0,0,1,.33,1.07v2.92h-.7v-2.67a2.18,2.18,0,0,0-.07-.62.63.63,0,0,0-.25-.31.77.77,0,0,0-.43-.12,1,1,0,0,0-.74.3,1.3,1.3,0,0,0-.3,1v2.47h-.7v-2.76a1.21,1.21,0,0,0-.18-.72.63.63,0,0,0-.56-.24,1.08,1.08,0,0,0-.56.16.91.91,0,0,0-.37.47,2.61,2.61,0,0,0-.11.89v2.2Z"/><path class="cls-3" d="M1826.48,188.05a2.2,2.2,0,0,1,.64-1.74,1.91,1.91,0,0,1,1.32-.47,1.85,1.85,0,0,1,1.4.57,2.18,2.18,0,0,1,.55,1.59,2.82,2.82,0,0,1-.25,1.28,1.65,1.65,0,0,1-.7.73,1.92,1.92,0,0,1-1,.26,1.86,1.86,0,0,1-1.42-.57,2.31,2.31,0,0,1-.54-1.65m.73,0a1.8,1.8,0,0,0,.35,1.22,1.1,1.1,0,0,0,.88.4,1.08,1.08,0,0,0,.86-.4,1.84,1.84,0,0,0,.36-1.24,1.71,1.71,0,0,0-.36-1.19,1.06,1.06,0,0,0-.86-.41,1.1,1.1,0,0,0-.88.4,1.8,1.8,0,0,0-.35,1.22"/><path class="cls-3" d="M1831.22,190.18v-4.25h.64v.6a1.5,1.5,0,0,1,1.33-.69,1.61,1.61,0,0,1,.69.14,1,1,0,0,1,.47.36,1.48,1.48,0,0,1,.22.53,5,5,0,0,1,0,.7v2.61h-.7V187.6a1.86,1.86,0,0,0-.09-.66.7.7,0,0,0-.29-.35,1,1,0,0,0-.5-.13,1.12,1.12,0,0,0-.78.3,1.43,1.43,0,0,0-.32,1.1v2.32Z"/><path class="cls-3" d="M1838.56,188.81l.73.09a1.82,1.82,0,0,1-.63,1,1.94,1.94,0,0,1-1.2.36,1.9,1.9,0,0,1-1.45-.57,2.25,2.25,0,0,1-.54-1.61,2.42,2.42,0,0,1,.54-1.66,1.83,1.83,0,0,1,1.41-.59,1.73,1.73,0,0,1,1.36.58,2.28,2.28,0,0,1,.54,1.62v.2h-3.12a1.68,1.68,0,0,0,.39,1.07,1.14,1.14,0,0,0,.87.37,1.09,1.09,0,0,0,.67-.2,1.35,1.35,0,0,0,.43-.67m-2.32-1.16h2.34a1.45,1.45,0,0,0-.28-.8,1,1,0,0,0-.87-.42,1.07,1.07,0,0,0-.82.33,1.28,1.28,0,0,0-.37.89"/><path class="cls-3" d="M1840.15,191.81l-.09-.67a1.35,1.35,0,0,0,.41.07.8.8,0,0,0,.38-.08.59.59,0,0,0,.24-.23,3.47,3.47,0,0,0,.22-.53s0-.1.06-.18l-1.6-4.26h.76l.88,2.46c.12.31.22.64.32,1a7.58,7.58,0,0,1,.28-1l.89-2.48h.71l-1.58,4.32a6.77,6.77,0,0,1-.4,1,1.28,1.28,0,0,1-.43.52,1,1,0,0,1-.59.17,1.38,1.38,0,0,1-.46-.09"/><path class="cls-17" d="M1767.89,168.53v-1.68H1763s-4.31.14-4.41,5.74c0,0,0,5.21,3.79,5.45h5.47v-1.61h-4.05s-3.23.16-3.12-4.3c0,0,.24-3.6,3.26-3.6Z"/><rect class="cls-17" x="1769.44" y="162.54" width="1.93" height="2.09"/><rect class="cls-17" x="1769.44" y="166.87" width="1.93" height="11.21"/><path class="cls-17" d="M1774.87,168.48h-2.23v-1.7h2.23v-4.24h1.9v4.3h3.38v1.64h-3.3V175s-.11,1.43,1.14,1.46h2.12v1.67h-2.88a2.34,2.34,0,0,1-2.36-2.51Z"/><path class="cls-17" d="M1783.21,166.84h-1.94V175s.06,3.28,4.13,3.28h3.49a1.3,1.3,0,0,1-1.41,1.78h-6.15v1.66H1788s2.92.27,3-3.07V166.84h-1.87v9.67h-3.65s-2.09,0-2.24-1.87Z"/><path class="cls-17" d="M1804.32,166.74h-3.85v-4.15h-2v15.69h6.19c4.61-.54,4.28-5.88,4.28-5.88-.22-5.53-4.65-5.66-4.65-5.66m2.46,5.29c.2,4.38-3.29,4.38-3.29,4.38h-3v-7.93h3a3.44,3.44,0,0,1,3.29,3.55"/><path class="cls-17" d="M1817.93,166.92h-6.88v1.61h6.1c2.46.16,2.19,2.9,2.19,2.9h-5.06c-3.85,0-3.91,3.1-3.91,3.1.16,3.81,3.5,3.6,3.5,3.6h7.24v-8.45c-.1-2.65-3.18-2.76-3.18-2.76m1.32,9.59h-5a1.66,1.66,0,0,1-1.75-1.79s-.14-1.73,2.13-1.63h4.65Z"/><path class="cls-17" d="M1824.29,168.62v9.51h-1.82V167h6.67s3.29.15,3.19,3.12v8h-1.83v-7.19s.18-2.41-2.71-2.32Z"/><path class="cls-17" d="M1835.76,173.32v5h-2V162.78h2v8.49h.42l5.55-4.21H1844l-5.34,4.52H1841a2.65,2.65,0,0,1,2.66,2.57v4H1842v-3.09a1.53,1.53,0,0,0-1.61-1.77Z"/><path class="cls-3" d="M1739.92,134.17s13.92.87,30.15-16.23c0,0,7.54,24.63,37.68,40.29,0,0-49.28-19.43-67.25,26.37,0,0,11.6-34.49-.58-50.43"/><path class="cls-17" d="M1782.18,138.11c-9.24-10.83-12.11-20.17-12.11-20.17a62.26,62.26,0,0,1-13.38,10.87c2.13,2.75,5.25,6.83,8.64,11.48a66,66,0,0,1,16.85-2.18"/><path class="cls-18" d="M1756.69,128.81c-9.81,5.78-16.77,5.36-16.77,5.36,3.31,4.33,4.86,10,5.37,16a53.74,53.74,0,0,1,20-9.92c-3.39-4.65-6.51-8.73-8.64-11.48"/><path class="cls-17" d="M1745.29,150.21c1.36,16.1-4.79,34.39-4.79,34.39,9.1-20.54,21.94-28.72,34-31.21-2.92-4.44-6.13-9-9.13-13.1a53.82,53.82,0,0,0-20,9.92"/><g class="cls-19"><rect class="cls-20" x="1765.33" y="138.11" width="42.42" height="20.11"/></g><path class="cls-17" d="M1735.76,109.08,1732,98.31l1.41-.06,3.09,9.5,3.07-9.5,1.4.06-3.71,10.77Z"/><path class="cls-17" d="M1740.84,107.09a2.25,2.25,0,0,1,.31-1.23,2.19,2.19,0,0,1,.94-.76,7.24,7.24,0,0,1,1.55-.44c.62-.11,1.34-.2,2.15-.27v-1.16a1.33,1.33,0,0,0-.46-1.08,2.13,2.13,0,0,0-1.39-.38l-.7,0a5.63,5.63,0,0,0-.81.11,7.4,7.4,0,0,0-.85.2l-.24-1a12.73,12.73,0,0,1,1.36-.31,8.79,8.79,0,0,1,1.3-.1,4.52,4.52,0,0,1,1.72.28,2.1,2.1,0,0,1,1,.86,2.69,2.69,0,0,1,.35,1.42v4a1.18,1.18,0,0,0,.15.71.45.45,0,0,0,.39.19l.2,0,.22-.07.15,1a2,2,0,0,1-.48.2,2.35,2.35,0,0,1-.54.07,1.25,1.25,0,0,1-.88-.3,1.46,1.46,0,0,1-.41-.88,6.31,6.31,0,0,1-.82.58,4.27,4.27,0,0,1-2.16.6,2.54,2.54,0,0,1-.86-.14,1.78,1.78,0,0,1-.65-.42,1.88,1.88,0,0,1-.43-.67A2.58,2.58,0,0,1,1740.84,107.09Zm1.31-.11a1.41,1.41,0,0,0,.32,1,1.22,1.22,0,0,0,.9.33,2.9,2.9,0,0,0,.86-.13,3.91,3.91,0,0,0,.84-.37,3.35,3.35,0,0,0,.72-.57v-2.08c-.54,0-1,.11-1.48.19a5.37,5.37,0,0,0-1.17.3,1.8,1.8,0,0,0-.74.51A1.29,1.29,0,0,0,1742.15,107Z"/><path class="cls-17" d="M1750.45,100.81v1a6.53,6.53,0,0,1,.87-.68,3.35,3.35,0,0,1,.82-.38,3,3,0,0,1,.87-.12,4.3,4.3,0,0,1,.62,0l.57.11L1754,102l-.58-.11a3.87,3.87,0,0,0-.56,0,2.77,2.77,0,0,0-1.1.24,4,4,0,0,0-1.18.78v6.22h-1.3v-8.27Z"/><path class="cls-17" d="M1755.85,99.14a.94.94,0,0,1-.6-.15.64.64,0,0,1-.19-.54.72.72,0,0,1,.18-.56,1,1,0,0,1,.61-.15,1,1,0,0,1,.62.15.76.76,0,0,1,.17.56.71.71,0,0,1-.17.54A1,1,0,0,1,1755.85,99.14Zm-.65,9.94v-8.27h1.3v8.27Z"/><path class="cls-17" d="M1759.09,109.08v-6.91h-1.31v-.85l1.31-.14V101a4.38,4.38,0,0,1,.38-2,2.51,2.51,0,0,1,1.13-1.17,4.12,4.12,0,0,1,1.85-.38,6.8,6.8,0,0,1,.76,0c.27,0,.54.08.83.14a3,3,0,0,1,.83.27l-.3.94a4.48,4.48,0,0,0-.52-.16l-.52-.11a4.43,4.43,0,0,0-.51-.06,3.87,3.87,0,0,0-.48,0,2.08,2.08,0,0,0-1.65.62,2.87,2.87,0,0,0-.54,1.93v.09h4.28v7.9h-1.28v-6.91h-3v6.91Z"/><path class="cls-17" d="M1769.78,109.24a4.43,4.43,0,0,1-1.51-.24,2.64,2.64,0,0,1-1.12-.72,3.3,3.3,0,0,1-.7-1.27,5.91,5.91,0,0,1-.25-1.85,6.56,6.56,0,0,1,.3-2.12,3.72,3.72,0,0,1,.81-1.4,2.94,2.94,0,0,1,1.21-.75,4.6,4.6,0,0,1,1.49-.23,3,3,0,0,1,2.36.84,3.93,3.93,0,0,1,.78,2.72c0,.06,0,.15,0,.27s0,.22,0,.32l-.88.07L1771,105l-1.59.08-1.82,0a1,1,0,0,0,0,.17v.16a3.83,3.83,0,0,0,.29,1.61,1.8,1.8,0,0,0,.83.89,2.93,2.93,0,0,0,1.34.28,6.59,6.59,0,0,0,1-.07l1-.14.87-.18.17,1a7,7,0,0,1-.93.24c-.35.07-.71.12-1.1.16A11.59,11.59,0,0,1,1769.78,109.24Zm-2.2-5c.49,0,1,0,1.42,0l1.26,0,1-.05a4.12,4.12,0,0,0,.59-.07,4.35,4.35,0,0,0-.21-1.38,1.44,1.44,0,0,0-.63-.77,2.09,2.09,0,0,0-1-.24,2.66,2.66,0,0,0-.79.12,1.94,1.94,0,0,0-.71.4,2.32,2.32,0,0,0-.56.79A3.6,3.6,0,0,0,1767.58,104.21Z"/><path class="cls-17" d="M1779.83,109.1l-.16-.74a6.61,6.61,0,0,1-1.34.66,4.17,4.17,0,0,1-1.33.22,2.38,2.38,0,0,1-2.06-1.06,5.33,5.33,0,0,1-.73-3.05,6.76,6.76,0,0,1,.4-2.54,2.89,2.89,0,0,1,1.24-1.46,4.21,4.21,0,0,1,2.08-.47l.85,0a7,7,0,0,1,.88.15V97.66H1781V109.1Zm-.17-1.72v-5.55c-.32-.07-.62-.12-.88-.16a6.7,6.7,0,0,0-.74,0,2.74,2.74,0,0,0-1.4.33,1.92,1.92,0,0,0-.82,1.08,6.42,6.42,0,0,0-.25,2,5.59,5.59,0,0,0,.22,1.71,2.19,2.19,0,0,0,.65,1,1.59,1.59,0,0,0,1,.35,3.25,3.25,0,0,0,.69-.08,3.42,3.42,0,0,0,.7-.24C1779.1,107.7,1779.37,107.56,1779.66,107.38Z"/><path class="cls-17" d="M1787,108.87V97.66h1.29v3.88a5.52,5.52,0,0,1,1.35-.68,4.53,4.53,0,0,1,1.31-.2,2.35,2.35,0,0,1,2.06,1,5.28,5.28,0,0,1,.72,3,7,7,0,0,1-.41,2.61,2.72,2.72,0,0,1-1.25,1.45,4.55,4.55,0,0,1-2.17.47,10.73,10.73,0,0,1-1.34-.1Q1787.86,109.05,1787,108.87Zm1.29-.79.88.14a4.78,4.78,0,0,0,.73.06,2.63,2.63,0,0,0,1.41-.34,2,2,0,0,0,.82-1.1,6.18,6.18,0,0,0,.27-2,5.37,5.37,0,0,0-.22-1.69,2,2,0,0,0-.65-1,1.59,1.59,0,0,0-1-.35,3.29,3.29,0,0,0-.71.08,3,3,0,0,0-.7.25,7.44,7.44,0,0,0-.8.44Z"/><path class="cls-17" d="M1796.57,112.29l1-3.21h-.25l-3.18-8.25,1.41-.08,2.54,7.16,2.22-7.16,1.32.08-3.8,11.54Z"/><rect class="cls-2" x="1172.61" y="208.05" width="259.38" height="19.35"/><path class="cls-17" d="M1195.91,221.93l4-11.85h1.63l4,11.85H1204l-1-3h-4.58l-1,3Zm2.81-4.24h4l-2-6.22Z"/><path class="cls-17" d="M1208,209.53v9.92a2.6,2.6,0,0,0,.13.9.69.69,0,0,0,.35.41,1.18,1.18,0,0,0,.5.1l.37,0c.14,0,.3-.06.46-.1l.16,1.09a3,3,0,0,1-.64.21,3.51,3.51,0,0,1-.72.07,2.35,2.35,0,0,1-1.07-.22,1.51,1.51,0,0,1-.69-.77,3.84,3.84,0,0,1-.25-1.56v-10Z"/><path class="cls-17" d="M1212.29,209.53v9.92a2.63,2.63,0,0,0,.12.9.73.73,0,0,0,.35.41,1.18,1.18,0,0,0,.5.1l.37,0,.47-.1.15,1.09a3,3,0,0,1-.64.21,3.51,3.51,0,0,1-.72.07,2.38,2.38,0,0,1-1.07-.22,1.51,1.51,0,0,1-.69-.77,3.84,3.84,0,0,1-.25-1.56v-10Z"/><path class="cls-17" d="M1221.19,209.53v9.92a2.63,2.63,0,0,0,.12.9.73.73,0,0,0,.35.41,1.18,1.18,0,0,0,.5.1l.38,0,.46-.1.15,1.09a2.83,2.83,0,0,1-.64.21,3.38,3.38,0,0,1-.72.07,2.38,2.38,0,0,1-1.07-.22,1.51,1.51,0,0,1-.69-.77,3.84,3.84,0,0,1-.25-1.56v-10Z"/><path class="cls-17" d="M1223.63,217.43a9,9,0,0,1,.21-2.08,3.69,3.69,0,0,1,.66-1.44,2.87,2.87,0,0,1,1.21-.84,6.11,6.11,0,0,1,3.72,0,2.84,2.84,0,0,1,1.22.84,3.56,3.56,0,0,1,.67,1.44,9,9,0,0,1,.21,2.08,8.58,8.58,0,0,1-.23,2.1,3.69,3.69,0,0,1-.69,1.45,2.79,2.79,0,0,1-1.22.84,6,6,0,0,1-3.62,0,2.7,2.7,0,0,1-1.21-.84,3.57,3.57,0,0,1-.7-1.45A8.58,8.58,0,0,1,1223.63,217.43Zm1.44,0a7.07,7.07,0,0,0,.26,2.11,2.06,2.06,0,0,0,.82,1.13,2.64,2.64,0,0,0,1.42.34,2.69,2.69,0,0,0,1.44-.34,2.06,2.06,0,0,0,.82-1.13,7.07,7.07,0,0,0,.26-2.11,6.92,6.92,0,0,0-.25-2.09,1.9,1.9,0,0,0-.78-1.12,3.3,3.3,0,0,0-3,0,1.87,1.87,0,0,0-.79,1.12A7.31,7.31,0,0,0,1225.07,217.43Z"/><path class="cls-17" d="M1232.77,217.58a6.37,6.37,0,0,1,.49-2.69,3.39,3.39,0,0,1,1.44-1.59,4.73,4.73,0,0,1,2.29-.52c.3,0,.61,0,.92,0l.93.11a5.83,5.83,0,0,1,.82.19l-.2,1.19a7.2,7.2,0,0,0-.78-.16c-.27,0-.53-.07-.8-.09a6.85,6.85,0,0,0-.77,0,3.09,3.09,0,0,0-1.57.38,2.41,2.41,0,0,0-1,1.16,5.3,5.3,0,0,0-.33,2,4.54,4.54,0,0,0,.33,1.85,2.37,2.37,0,0,0,1,1.09,3.2,3.2,0,0,0,1.57.36,7.63,7.63,0,0,0,.82,0,8.53,8.53,0,0,0,.85-.1l.81-.16.24,1.14a11.62,11.62,0,0,1-1.44.27,12.15,12.15,0,0,1-1.55.11,4,4,0,0,1-3-1.1A4.87,4.87,0,0,1,1232.77,217.58Z"/><path class="cls-17" d="M1240.65,219.77a2.39,2.39,0,0,1,.34-1.33,2.3,2.3,0,0,1,1-.83,7.64,7.64,0,0,1,1.69-.48c.67-.12,1.44-.21,2.33-.29v-1.26a1.43,1.43,0,0,0-.51-1.18,2.33,2.33,0,0,0-1.5-.41l-.77,0c-.28,0-.57.06-.87.12s-.6.13-.93.22l-.25-1.13a11.79,11.79,0,0,1,1.48-.33,8.93,8.93,0,0,1,1.4-.12,5,5,0,0,1,1.87.31,2.38,2.38,0,0,1,1.13.93,3,3,0,0,1,.37,1.54v4.35a1.38,1.38,0,0,0,.16.77.54.54,0,0,0,.43.2l.22,0a1.19,1.19,0,0,0,.23-.07l.17,1a2.44,2.44,0,0,1-.53.21,2.2,2.2,0,0,1-.58.07,1.32,1.32,0,0,1-1-.32,1.56,1.56,0,0,1-.46-.95,7.63,7.63,0,0,1-.88.63,5.26,5.26,0,0,1-1.08.47,4.64,4.64,0,0,1-1.27.17,2.67,2.67,0,0,1-.93-.15,1.94,1.94,0,0,1-1.17-1.18A2.8,2.8,0,0,1,1240.65,219.77Zm1.42-.12a1.52,1.52,0,0,0,.35,1.09,1.31,1.31,0,0,0,1,.36,3,3,0,0,0,.93-.15,4.14,4.14,0,0,0,.92-.4,3.9,3.9,0,0,0,.78-.61v-2.26c-.58,0-1.12.12-1.61.2a6.18,6.18,0,0,0-1.27.32,1.81,1.81,0,0,0-.8.57A1.35,1.35,0,0,0,1242.07,219.65Z"/><path class="cls-17" d="M1251.11,209.53v9.92a2.63,2.63,0,0,0,.12.9.73.73,0,0,0,.35.41,1.18,1.18,0,0,0,.5.1l.38,0c.14,0,.29-.06.46-.1l.15,1.09a2.83,2.83,0,0,1-.64.21,3.38,3.38,0,0,1-.72.07,2.31,2.31,0,0,1-1.06-.22,1.48,1.48,0,0,1-.7-.77,3.84,3.84,0,0,1-.25-1.56v-10Z"/><path class="cls-17" d="M1262.2,222.1a4.44,4.44,0,0,1-3-.92,3,3,0,0,1-1.07-2.43,3.61,3.61,0,0,1,.57-2.06,4.52,4.52,0,0,1,1.74-1.44l.69.78a3.81,3.81,0,0,0-1.23,1.09,2.63,2.63,0,0,0-.4,1.49,2.32,2.32,0,0,0,.34,1.26,2.22,2.22,0,0,0,1,.83,3.54,3.54,0,0,0,1.51.3,3.62,3.62,0,0,0,1.58-.32,2.94,2.94,0,0,0,1.07-.91l.71.86a4.18,4.18,0,0,1-1,.81,4.39,4.39,0,0,1-1.18.49A5,5,0,0,1,1262.2,222.1Zm4.71,0-6.43-6.47a5.51,5.51,0,0,1-.66-.89,3.8,3.8,0,0,1-.37-.9,3.2,3.2,0,0,1-.13-.92,3.09,3.09,0,0,1,.36-1.53,2.35,2.35,0,0,1,1.11-1,4.64,4.64,0,0,1,1.92-.35,3.64,3.64,0,0,1,2.37.66,2.29,2.29,0,0,1,.79,1.89,3.4,3.4,0,0,1-.17,1.08,2.77,2.77,0,0,1-.54.9,3.14,3.14,0,0,1-1,.7l-.59-.65a2,2,0,0,0,.74-.75,2.19,2.19,0,0,0,.23-1,1.75,1.75,0,0,0-.2-.89,1.24,1.24,0,0,0-.61-.56,2.39,2.39,0,0,0-1-.2,2.11,2.11,0,0,0-1.48.45,1.6,1.6,0,0,0-.5,1.26,2.54,2.54,0,0,0,.09.68,2.45,2.45,0,0,0,.32.68,4.68,4.68,0,0,0,.6.75l6.74,6.94Zm-.42-2-.85-1a3.77,3.77,0,0,0,.51-1.11,5,5,0,0,0,.18-1.38,3.08,3.08,0,0,0,0-.43c0-.13,0-.27-.07-.41l1.16,0a4.3,4.3,0,0,1,.07.43,4.17,4.17,0,0,1,0,.52,6.16,6.16,0,0,1-.27,1.84A5.65,5.65,0,0,1,1266.49,220.07Z"/><path class="cls-17" d="M1274.81,211.14a1.07,1.07,0,0,1-.66-.17.74.74,0,0,1-.2-.58.81.81,0,0,1,.19-.61,1.41,1.41,0,0,1,1.34,0,.81.81,0,0,1,.18.61.77.77,0,0,1-.18.58A1,1,0,0,1,1274.81,211.14Zm-.71,10.79v-9h1.41v9Z"/><path class="cls-17" d="M1277.61,221.93v-9h1.29v.79a8.89,8.89,0,0,1,1.08-.53,5.43,5.43,0,0,1,2.14-.43,3,3,0,0,1,1.37.29,2,2,0,0,1,.85.83,2.81,2.81,0,0,1,.29,1.33v6.7h-1.43v-6.3a1.72,1.72,0,0,0-.4-1.23,1.61,1.61,0,0,0-1.24-.43,4.14,4.14,0,0,0-.87.09,6.18,6.18,0,0,0-.83.27c-.27.12-.55.25-.83.4v7.2Z"/><path class="cls-17" d="M1289.78,222.1a2.71,2.71,0,0,1-1.36-.31,1.88,1.88,0,0,1-.82-.95,4.16,4.16,0,0,1-.25-1.55V214h-1.55v-.93l1.55-.13.18-2.13h1.22V213h3v1h-3v5.2a2,2,0,0,0,.35,1.31,1.4,1.4,0,0,0,1.13.41,4.15,4.15,0,0,0,.79-.08c.27-.06.54-.13.82-.22l.2,1.09a6,6,0,0,1-1.19.31A7.12,7.12,0,0,1,1289.78,222.1Z"/><path class="cls-17" d="M1296.45,222.1a5,5,0,0,1-1.65-.25,2.93,2.93,0,0,1-1.21-.79,3.49,3.49,0,0,1-.76-1.37,6.61,6.61,0,0,1-.27-2,7.06,7.06,0,0,1,.33-2.31,3.94,3.94,0,0,1,.88-1.52,3.24,3.24,0,0,1,1.31-.82,5.38,5.38,0,0,1,1.62-.25,3.31,3.31,0,0,1,2.56.92,4.28,4.28,0,0,1,.84,3c0,.07,0,.17,0,.3s0,.24,0,.34l-.95.08-1.39.1c-.53,0-1.1.06-1.73.08l-2,0a1.09,1.09,0,0,0,0,.18v.17a4.14,4.14,0,0,0,.31,1.76,1.94,1.94,0,0,0,.89,1,3.22,3.22,0,0,0,1.46.3,9.77,9.77,0,0,0,1.08-.06l1.08-.16c.35-.07.66-.13.94-.2l.19,1.06a7.55,7.55,0,0,1-1,.26c-.37.07-.77.13-1.19.17A11.14,11.14,0,0,1,1296.45,222.1Zm-2.4-5.46c.54,0,1,0,1.55,0l1.37,0,1.06-.06.65-.07a4.44,4.44,0,0,0-.24-1.5,1.49,1.49,0,0,0-.68-.84,2.34,2.34,0,0,0-1.14-.26,2.76,2.76,0,0,0-.86.13,2,2,0,0,0-.77.43,2.49,2.49,0,0,0-.61.86A3.74,3.74,0,0,0,1294.05,216.64Z"/><path class="cls-17" d="M1303,213v1.12a6.18,6.18,0,0,1,1-.74,3.38,3.38,0,0,1,.89-.41,3.19,3.19,0,0,1,.94-.14,4.91,4.91,0,0,1,.67.05c.23,0,.43.07.62.12l-.23,1.29-.63-.12a4.55,4.55,0,0,0-.61-.05,3.31,3.31,0,0,0-1.2.25,4.7,4.7,0,0,0-1.28.86v6.75h-1.41v-9Z"/><path class="cls-17" d="M1308.16,221.93v-9h1.29v.79a8.32,8.32,0,0,1,1.09-.53,5.57,5.57,0,0,1,1-.32,5.47,5.47,0,0,1,1.1-.11,3,3,0,0,1,1.38.29,1.92,1.92,0,0,1,.84.83,2.7,2.7,0,0,1,.3,1.33v6.7h-1.43v-6.3a1.72,1.72,0,0,0-.4-1.23,1.61,1.61,0,0,0-1.24-.43,4.14,4.14,0,0,0-.87.09,6.18,6.18,0,0,0-.83.27c-.28.12-.55.25-.83.4v7.2Z"/><path class="cls-17" d="M1316.59,219.77a2.39,2.39,0,0,1,.35-1.33,2.3,2.3,0,0,1,1-.83,7.33,7.33,0,0,1,1.69-.48c.67-.12,1.44-.21,2.33-.29v-1.26a1.43,1.43,0,0,0-.51-1.18A2.37,2.37,0,0,0,1320,214l-.76,0c-.28,0-.58.06-.87.12s-.61.13-.93.22l-.25-1.13a12,12,0,0,1,1.47-.33,9,9,0,0,1,1.41-.12,5,5,0,0,1,1.87.31,2.31,2.31,0,0,1,1.12.93,3,3,0,0,1,.38,1.54v4.35a1.29,1.29,0,0,0,.16.77.52.52,0,0,0,.43.2.82.82,0,0,0,.21,0,1.09,1.09,0,0,0,.24-.07l.17,1a2.66,2.66,0,0,1-.53.21,2.25,2.25,0,0,1-.58.07,1.36,1.36,0,0,1-1-.32,1.6,1.6,0,0,1-.45-.95,7.78,7.78,0,0,1-.89.63,5,5,0,0,1-1.07.47,4.64,4.64,0,0,1-1.27.17,2.67,2.67,0,0,1-.93-.15,2,2,0,0,1-.72-.45,2.11,2.11,0,0,1-.46-.73A3,3,0,0,1,1316.59,219.77Zm1.43-.12a1.52,1.52,0,0,0,.35,1.09,1.31,1.31,0,0,0,1,.36,3,3,0,0,0,.94-.15,4.35,4.35,0,0,0,.92-.4,3.9,3.9,0,0,0,.78-.61v-2.26c-.59,0-1.12.12-1.61.2a6,6,0,0,0-1.27.32,1.81,1.81,0,0,0-.8.57A1.35,1.35,0,0,0,1318,219.65Z"/><path class="cls-17" d="M1328.51,222.1a2.67,2.67,0,0,1-1.35-.31,1.88,1.88,0,0,1-.82-.95,4.15,4.15,0,0,1-.26-1.55V214h-1.54v-.93l1.54-.13.19-2.13h1.22V213h3v1h-3v5.2a2,2,0,0,0,.34,1.31,1.43,1.43,0,0,0,1.14.41,4.23,4.23,0,0,0,.79-.08c.26-.06.53-.13.81-.22l.21,1.09a6.15,6.15,0,0,1-1.19.31A7.24,7.24,0,0,1,1328.51,222.1Z"/><path class="cls-17" d="M1332.65,211.14a1,1,0,0,1-.65-.17.7.7,0,0,1-.2-.58.77.77,0,0,1,.19-.61,1,1,0,0,1,.66-.17,1,1,0,0,1,.67.17.77.77,0,0,1,.19.61.74.74,0,0,1-.19.58A1,1,0,0,1,1332.65,211.14Zm-.7,10.79v-9h1.41v9Z"/><path class="cls-17" d="M1335,217.43a9,9,0,0,1,.21-2.08,3.69,3.69,0,0,1,.66-1.44,2.87,2.87,0,0,1,1.21-.84,6.11,6.11,0,0,1,3.72,0,2.9,2.9,0,0,1,1.22.84,3.7,3.7,0,0,1,.67,1.44,9,9,0,0,1,.21,2.08,8.58,8.58,0,0,1-.23,2.1,3.57,3.57,0,0,1-.7,1.45,2.7,2.7,0,0,1-1.21.84,6,6,0,0,1-3.62,0A2.79,2.79,0,0,1,1336,221a3.69,3.69,0,0,1-.69-1.45A8.58,8.58,0,0,1,1335,217.43Zm1.44,0a7.07,7.07,0,0,0,.26,2.11,2.06,2.06,0,0,0,.82,1.13,2.62,2.62,0,0,0,1.42.34,2.69,2.69,0,0,0,1.44-.34,2.06,2.06,0,0,0,.82-1.13,7.07,7.07,0,0,0,.26-2.11,7.26,7.26,0,0,0-.25-2.09,1.87,1.87,0,0,0-.79-1.12,2.72,2.72,0,0,0-1.48-.35,2.76,2.76,0,0,0-1.47.35,1.87,1.87,0,0,0-.79,1.12A7.31,7.31,0,0,0,1336.47,217.43Z"/><path class="cls-17" d="M1344.59,221.93v-9h1.29v.79a8.89,8.89,0,0,1,1.08-.53,5.43,5.43,0,0,1,2.14-.43,3,3,0,0,1,1.37.29,2,2,0,0,1,.85.83,2.81,2.81,0,0,1,.29,1.33v6.7h-1.42v-6.3a1.72,1.72,0,0,0-.41-1.23,1.6,1.6,0,0,0-1.24-.43,4.14,4.14,0,0,0-.87.09,6.68,6.68,0,0,0-.83.27c-.27.12-.55.25-.83.4v7.2Z"/><path class="cls-17" d="M1353,219.77a2.39,2.39,0,0,1,.34-1.33,2.3,2.3,0,0,1,1-.83,7.64,7.64,0,0,1,1.69-.48c.67-.12,1.45-.21,2.33-.29v-1.26a1.45,1.45,0,0,0-.5-1.18,2.39,2.39,0,0,0-1.51-.41l-.77,0c-.28,0-.57.06-.87.12s-.6.13-.93.22l-.25-1.13a11.79,11.79,0,0,1,1.48-.33,8.93,8.93,0,0,1,1.4-.12,5,5,0,0,1,1.87.31,2.34,2.34,0,0,1,1.13.93,3,3,0,0,1,.37,1.54v4.35a1.38,1.38,0,0,0,.16.77.54.54,0,0,0,.43.2l.22,0a.88.88,0,0,0,.23-.07l.17,1a2.44,2.44,0,0,1-.53.21,2.15,2.15,0,0,1-.58.07,1.32,1.32,0,0,1-1-.32,1.5,1.5,0,0,1-.45-.95,8.77,8.77,0,0,1-.89.63,5.18,5.18,0,0,1-1.07.47,4.77,4.77,0,0,1-1.28.17,2.67,2.67,0,0,1-.93-.15,1.94,1.94,0,0,1-1.17-1.18A2.8,2.8,0,0,1,1353,219.77Zm1.42-.12a1.52,1.52,0,0,0,.35,1.09,1.31,1.31,0,0,0,1,.36,3.13,3.13,0,0,0,.94-.15,4.28,4.28,0,0,0,.91-.4,3.4,3.4,0,0,0,.78-.61v-2.26c-.58,0-1.12.12-1.61.2a6.35,6.35,0,0,0-1.27.32,1.81,1.81,0,0,0-.8.57A1.4,1.4,0,0,0,1354.44,219.65Z"/><path class="cls-17" d="M1363.48,209.53v9.92a2.63,2.63,0,0,0,.12.9.73.73,0,0,0,.35.41,1.21,1.21,0,0,0,.5.1l.38,0c.14,0,.29-.06.46-.1l.15,1.09a2.83,2.83,0,0,1-.64.21,3.38,3.38,0,0,1-.72.07,2.31,2.31,0,0,1-1.06-.22,1.48,1.48,0,0,1-.7-.77,3.84,3.84,0,0,1-.25-1.56v-10Z"/><path class="cls-17" d="M1370.55,217.58a6.53,6.53,0,0,1,.49-2.69,3.39,3.39,0,0,1,1.44-1.59,4.73,4.73,0,0,1,2.29-.52c.31,0,.61,0,.93,0l.92.11a5.83,5.83,0,0,1,.82.19l-.2,1.19a7.2,7.2,0,0,0-.78-.16c-.26,0-.53-.07-.8-.09a6.74,6.74,0,0,0-.77,0,3,3,0,0,0-1.56.38,2.37,2.37,0,0,0-1,1.16,5.3,5.3,0,0,0-.33,2,4.54,4.54,0,0,0,.33,1.85,2.34,2.34,0,0,0,1,1.09,3.13,3.13,0,0,0,1.56.36,7.63,7.63,0,0,0,.82,0,8.2,8.2,0,0,0,.85-.1l.81-.16.24,1.14a11.28,11.28,0,0,1-1.44.27,12,12,0,0,1-1.55.11,4,4,0,0,1-3-1.1A4.87,4.87,0,0,1,1370.55,217.58Z"/><path class="cls-17" d="M1378.43,219.77a2.39,2.39,0,0,1,.34-1.33,2.28,2.28,0,0,1,1-.83,7.39,7.39,0,0,1,1.68-.48c.67-.12,1.45-.21,2.33-.29v-1.26a1.45,1.45,0,0,0-.5-1.18,2.39,2.39,0,0,0-1.51-.41l-.76,0c-.29,0-.58.06-.88.12s-.6.13-.93.22l-.25-1.13a11.79,11.79,0,0,1,1.48-.33,9,9,0,0,1,1.41-.12,5,5,0,0,1,1.86.31,2.34,2.34,0,0,1,1.13.93,3,3,0,0,1,.38,1.54v4.35a1.39,1.39,0,0,0,.15.77.54.54,0,0,0,.43.2l.22,0a.88.88,0,0,0,.23-.07l.17,1a2.44,2.44,0,0,1-.53.21,2.12,2.12,0,0,1-.57.07,1.34,1.34,0,0,1-1-.32,1.55,1.55,0,0,1-.45-.95,8.77,8.77,0,0,1-.89.63,5.18,5.18,0,0,1-1.07.47,4.72,4.72,0,0,1-1.28.17,2.75,2.75,0,0,1-.93-.15,2,2,0,0,1-.71-.45,2.11,2.11,0,0,1-.46-.73A2.8,2.8,0,0,1,1378.43,219.77Zm1.42-.12a1.48,1.48,0,0,0,.36,1.09,1.28,1.28,0,0,0,1,.36,3.13,3.13,0,0,0,.94-.15,4.28,4.28,0,0,0,.91-.4,3.4,3.4,0,0,0,.78-.61v-2.26c-.58,0-1.12.12-1.61.2a6.07,6.07,0,0,0-1.26.32,1.85,1.85,0,0,0-.81.57A1.4,1.4,0,0,0,1379.85,219.65Z"/><path class="cls-17" d="M1388.87,213v1.12a6.18,6.18,0,0,1,1-.74,3.54,3.54,0,0,1,.89-.41,3.19,3.19,0,0,1,.94-.14,5.19,5.19,0,0,1,.68.05c.22,0,.42.07.62.12l-.24,1.29-.63-.12a4.55,4.55,0,0,0-.61-.05,3.31,3.31,0,0,0-1.2.25,4.7,4.7,0,0,0-1.28.86v6.75h-1.41v-9Z"/><path class="cls-17" d="M1399.18,222l-.17-.8a7.28,7.28,0,0,1-1.46.72,4.53,4.53,0,0,1-1.44.23,2.57,2.57,0,0,1-2.24-1.15,5.78,5.78,0,0,1-.79-3.31,7.34,7.34,0,0,1,.43-2.75,3.18,3.18,0,0,1,1.35-1.59,4.52,4.52,0,0,1,2.26-.52c.3,0,.61,0,.92,0a6.86,6.86,0,0,1,1,.16v-3.45h1.4V222Zm-.18-1.86v-6a8.16,8.16,0,0,0-1-.17,5.81,5.81,0,0,0-.8,0,3,3,0,0,0-1.52.36,2.08,2.08,0,0,0-.89,1.17,7.06,7.06,0,0,0-.28,2.17,5.85,5.85,0,0,0,.25,1.86,2.26,2.26,0,0,0,.7,1.13,1.67,1.67,0,0,0,1.12.38,3.82,3.82,0,0,0,.75-.08,4.08,4.08,0,0,0,.76-.27A8.6,8.6,0,0,0,1399,220.09Z"/><path class="cls-17" d="M1401.83,221.56l.22-1.05a3.73,3.73,0,0,0,.62.21c.23.06.48.11.74.16s.53.07.8.09l.77,0a3,3,0,0,0,1.58-.35,1.13,1.13,0,0,0,.55-1,1.11,1.11,0,0,0-.16-.61,1.52,1.52,0,0,0-.46-.45,3.61,3.61,0,0,0-.76-.36c-.3-.1-.65-.21-1.07-.32a6.16,6.16,0,0,1-1.05-.35,3.73,3.73,0,0,1-.82-.53,2.14,2.14,0,0,1-.52-.72,2.55,2.55,0,0,1-.17-.95,2.27,2.27,0,0,1,.84-1.88,4,4,0,0,1,2.51-.67c.34,0,.65,0,1,.05s.58.09.86.15a7.19,7.19,0,0,1,.73.22l-.2,1.07-.69-.18a5.61,5.61,0,0,0-.77-.13,6.42,6.42,0,0,0-.91-.06,2.55,2.55,0,0,0-1.48.36,1.09,1.09,0,0,0-.51,1,1,1,0,0,0,.17.61,1.26,1.26,0,0,0,.47.41,4.85,4.85,0,0,0,.72.32l.9.27a9.8,9.8,0,0,1,1.16.39,3.35,3.35,0,0,1,.87.5,2,2,0,0,1,.56.74,2.56,2.56,0,0,1,.19,1.05,2.7,2.7,0,0,1-.16,1,1.79,1.79,0,0,1-.48.73,3.13,3.13,0,0,1-.76.5,4.16,4.16,0,0,1-1,.3,6,6,0,0,1-1.16.1,8.57,8.57,0,0,1-1.13-.07c-.37,0-.73-.1-1.07-.17A4.23,4.23,0,0,1,1401.83,221.56Z"/><rect class="cls-2" x="908.28" y="57.89" width="146.23" height="19.35"/><path class="cls-17" d="M925.29,71.78l4-11.85h1.63l4,11.85h-1.59l-1-3H927.8l-1,3Zm2.82-4.24h4l-2-6.22Z"/><path class="cls-17" d="M935.57,67.42a6.4,6.4,0,0,1,.49-2.69,3.35,3.35,0,0,1,1.43-1.58,4.66,4.66,0,0,1,2.3-.52c.3,0,.61,0,.92,0s.62.06.92.11a4.34,4.34,0,0,1,.82.18l-.2,1.19a6.33,6.33,0,0,0-.78-.16c-.26,0-.52-.07-.79-.09l-.77,0a3.07,3.07,0,0,0-1.57.37,2.38,2.38,0,0,0-1,1.17,5.19,5.19,0,0,0-.34,2,4.46,4.46,0,0,0,.34,1.85,2.27,2.27,0,0,0,1,1.09,3.17,3.17,0,0,0,1.57.36l.82,0c.28,0,.56-.06.85-.11l.81-.16.23,1.14a13,13,0,0,1-1.43.28,12.15,12.15,0,0,1-1.55.11,3.94,3.94,0,0,1-3-1.11A4.87,4.87,0,0,1,935.57,67.42Z"/><path class="cls-17" d="M943.46,67.42a6.56,6.56,0,0,1,.49-2.69,3.32,3.32,0,0,1,1.44-1.58,4.62,4.62,0,0,1,2.29-.52c.31,0,.61,0,.93,0s.62.06.92.11a4.72,4.72,0,0,1,.82.18l-.2,1.19a7.2,7.2,0,0,0-.78-.16c-.26,0-.53-.07-.8-.09l-.77,0a3.09,3.09,0,0,0-1.57.37,2.43,2.43,0,0,0-1,1.17,5.21,5.21,0,0,0-.33,2,4.47,4.47,0,0,0,.33,1.85,2.32,2.32,0,0,0,1,1.09,3.2,3.2,0,0,0,1.57.36l.82,0c.28,0,.56-.06.85-.11s.56-.1.81-.16l.24,1.14a13.18,13.18,0,0,1-1.44.28,12,12,0,0,1-1.55.11,4,4,0,0,1-3-1.11A4.87,4.87,0,0,1,943.46,67.42Z"/><path class="cls-17" d="M955.24,72a4.91,4.91,0,0,1-1.64-.26,2.91,2.91,0,0,1-1.21-.78,3.68,3.68,0,0,1-.77-1.38,6.63,6.63,0,0,1-.26-2,7.05,7.05,0,0,1,.32-2.3,4,4,0,0,1,.88-1.52,3.14,3.14,0,0,1,1.32-.82,5.09,5.09,0,0,1,1.62-.25,3.3,3.3,0,0,1,2.56.91,4.29,4.29,0,0,1,.84,3c0,.07,0,.16,0,.29s0,.24,0,.34c-.23,0-.55.05-1,.08l-1.39.1c-.53,0-1.11.07-1.73.09l-2,0a.88.88,0,0,0,0,.17v.18a4.25,4.25,0,0,0,.31,1.75,2,2,0,0,0,.9,1,3.06,3.06,0,0,0,1.46.31,9.79,9.79,0,0,0,1.08-.07l1.07-.16c.35-.06.67-.13,1-.19l.18,1a7.79,7.79,0,0,1-1,.26c-.37.08-.77.13-1.19.18S955.7,72,955.24,72Zm-2.39-5.47c.53,0,1,0,1.55,0l1.36-.06,1.07-.06a4.89,4.89,0,0,0,.64-.07,4.73,4.73,0,0,0-.23-1.5,1.54,1.54,0,0,0-.68-.83,2.25,2.25,0,0,0-1.15-.26,3.06,3.06,0,0,0-.85.12,1.93,1.93,0,0,0-.77.44,2.6,2.6,0,0,0-.62.85A4,4,0,0,0,952.85,66.48Z"/><path class="cls-17" d="M960.51,75.3V62.73h1.29l.05.89a6.18,6.18,0,0,1,1.5-.75,4.62,4.62,0,0,1,1.47-.24A2.51,2.51,0,0,1,967,63.77a5.87,5.87,0,0,1,.78,3.3,7.61,7.61,0,0,1-.43,2.76,3.12,3.12,0,0,1-1.33,1.6,4.55,4.55,0,0,1-2.28.52,6.82,6.82,0,0,1-.87-.06l-1-.14V75.3Zm3.15-4.41a2.91,2.91,0,0,0,1.53-.36,2.12,2.12,0,0,0,.89-1.17,6.5,6.5,0,0,0,.29-2.17,6.33,6.33,0,0,0-.23-1.89,2.28,2.28,0,0,0-.7-1.12,1.77,1.77,0,0,0-1.13-.38,3.87,3.87,0,0,0-.77.08,4.35,4.35,0,0,0-.76.27,6.49,6.49,0,0,0-.85.49v6c.35.07.66.13.94.17A5.56,5.56,0,0,0,963.66,70.89Z"/><path class="cls-17" d="M972.44,72a2.85,2.85,0,0,1-1.36-.31,1.9,1.9,0,0,1-.81-1,4.24,4.24,0,0,1-.26-1.56V63.85h-1.54v-.92l1.54-.14.19-2.12h1.22v2.12h3v1h-3V69a2,2,0,0,0,.34,1.31,1.39,1.39,0,0,0,1.13.42,3.57,3.57,0,0,0,.8-.09,7,7,0,0,0,.81-.22l.2,1.09a5.88,5.88,0,0,1-1.18.31A6.19,6.19,0,0,1,972.44,72Z"/><path class="cls-17" d="M979.11,72a4.91,4.91,0,0,1-1.64-.26,2.85,2.85,0,0,1-1.21-.78,3.68,3.68,0,0,1-.77-1.38,6.61,6.61,0,0,1-.27-2,7,7,0,0,1,.33-2.3,4,4,0,0,1,.88-1.52,3.14,3.14,0,0,1,1.32-.82,5,5,0,0,1,1.61-.25,3.31,3.31,0,0,1,2.57.91,4.29,4.29,0,0,1,.84,3c0,.07,0,.16,0,.29s0,.24,0,.34c-.23,0-.55.05-1,.08l-1.4.1c-.52,0-1.1.07-1.72.09l-2,0a.88.88,0,0,0,0,.17v.18a4.25,4.25,0,0,0,.31,1.75,2,2,0,0,0,.9,1,3.06,3.06,0,0,0,1.46.31,9.79,9.79,0,0,0,1.08-.07l1.07-.16c.35-.06.67-.13,1-.19l.18,1a7.79,7.79,0,0,1-1,.26c-.37.08-.77.13-1.19.18S979.57,72,979.11,72Zm-2.39-5.47c.53,0,1,0,1.55,0l1.36-.06,1.07-.06a4.89,4.89,0,0,0,.64-.07,4.73,4.73,0,0,0-.23-1.5,1.54,1.54,0,0,0-.68-.83,2.25,2.25,0,0,0-1.15-.26,3.06,3.06,0,0,0-.85.12,1.93,1.93,0,0,0-.77.44,2.6,2.6,0,0,0-.62.85A4,4,0,0,0,976.72,66.48Z"/><path class="cls-17" d="M990,71.79l-.17-.8a7.55,7.55,0,0,1-1.46.72A4.35,4.35,0,0,1,987,72a2.59,2.59,0,0,1-2.24-1.15,5.8,5.8,0,0,1-.8-3.31,7.38,7.38,0,0,1,.44-2.76,3.09,3.09,0,0,1,1.34-1.58,4.45,4.45,0,0,1,2.26-.52c.31,0,.61,0,.93,0a6.5,6.5,0,0,1,1,.16V59.37h1.41V71.79Zm-.19-1.86v-6c-.35-.08-.66-.13-1-.17s-.56,0-.81,0a3,3,0,0,0-1.52.36,2.06,2.06,0,0,0-.88,1.18,6.72,6.72,0,0,0-.28,2.17,6.27,6.27,0,0,0,.24,1.86,2.32,2.32,0,0,0,.71,1.13,1.68,1.68,0,0,0,1.11.38,3.08,3.08,0,0,0,.75-.09,3.23,3.23,0,0,0,.77-.27A8.53,8.53,0,0,0,989.84,69.93Z"/><path class="cls-17" d="M997.52,66.13a9.26,9.26,0,0,1,.59-3.6,4.06,4.06,0,0,1,1.77-2,6,6,0,0,1,2.88-.63l.92,0c.28,0,.55,0,.8.08s.5.08.75.13l.75.2-.28,1.18c-.34-.09-.65-.17-1-.22a6.94,6.94,0,0,0-.9-.12c-.31,0-.63,0-1,0a4.81,4.81,0,0,0-1.68.27,2.8,2.8,0,0,0-1.22.83,4,4,0,0,0-.74,1.54,9.83,9.83,0,0,0-.25,2.35,8.5,8.5,0,0,0,.24,2.17,3.23,3.23,0,0,0,.71,1.41,2.79,2.79,0,0,0,1.18.77,5,5,0,0,0,1.63.25,14,14,0,0,0,1.67-.11,12.29,12.29,0,0,0,1.58-.31l.27,1.15c-.26.08-.53.15-.82.22a8.06,8.06,0,0,1-.88.16c-.31,0-.63.07-1,.09s-.68,0-1.05,0a7,7,0,0,1-2.16-.31,3.83,3.83,0,0,1-1.57-1,4.26,4.26,0,0,1-1-1.8A9.68,9.68,0,0,1,997.52,66.13Z"/><path class="cls-17" d="M1007.22,69.62a2.43,2.43,0,0,1,.35-1.34,2.37,2.37,0,0,1,1-.83,6.93,6.93,0,0,1,1.68-.47c.67-.12,1.45-.22,2.33-.3V65.43a1.44,1.44,0,0,0-.5-1.19,2.37,2.37,0,0,0-1.51-.41,7.18,7.18,0,0,0-.76,0,8.62,8.62,0,0,0-.87.11c-.3.06-.61.13-.93.22l-.25-1.12a10.45,10.45,0,0,1,1.47-.34,10.24,10.24,0,0,1,1.41-.11,4.84,4.84,0,0,1,1.87.31,2.21,2.21,0,0,1,1.12.93,2.9,2.9,0,0,1,.38,1.54v4.34a1.27,1.27,0,0,0,.16.77.5.5,0,0,0,.43.2l.21,0a1.13,1.13,0,0,0,.24-.08l.17,1a2.66,2.66,0,0,1-.53.21,2.25,2.25,0,0,1-.58.08,1.41,1.41,0,0,1-1-.32,1.6,1.6,0,0,1-.45-1,5.9,5.9,0,0,1-.89.63,4.51,4.51,0,0,1-1.07.47,4.33,4.33,0,0,1-1.27.18,2.45,2.45,0,0,1-.93-.16,1.91,1.91,0,0,1-.72-.45,2,2,0,0,1-.46-.73A2.93,2.93,0,0,1,1007.22,69.62Zm1.43-.12a1.51,1.51,0,0,0,.35,1.08,1.29,1.29,0,0,0,1,.36,3.4,3.4,0,0,0,.94-.14,4.58,4.58,0,0,0,.91-.4,3.44,3.44,0,0,0,.78-.62V67.52c-.58.06-1.11.12-1.61.2a6,6,0,0,0-1.26.33,2,2,0,0,0-.81.56A1.41,1.41,0,0,0,1008.65,69.5Z"/><path class="cls-17" d="M1017.67,62.79v1.13a6.27,6.27,0,0,1,.94-.75,3.93,3.93,0,0,1,.89-.41,3.26,3.26,0,0,1,1-.13,3.85,3.85,0,0,1,.67,0l.62.11-.24,1.29-.62-.11a3.44,3.44,0,0,0-.62,0,3.11,3.11,0,0,0-1.2.25,4.8,4.8,0,0,0-1.28.85v6.76h-1.41v-9Z"/><path class="cls-17" d="M1028,71.79l-.16-.8a7.55,7.55,0,0,1-1.46.72,4.35,4.35,0,0,1-1.44.24,2.59,2.59,0,0,1-2.24-1.15,5.8,5.8,0,0,1-.8-3.31,7.38,7.38,0,0,1,.44-2.76,3.09,3.09,0,0,1,1.34-1.58,4.45,4.45,0,0,1,2.26-.52c.3,0,.61,0,.92,0a6.41,6.41,0,0,1,1,.16V59.37h1.41V71.79Zm-.18-1.86v-6c-.35-.08-.67-.13-1-.17a8,8,0,0,0-.8,0,3,3,0,0,0-1.52.36,2.07,2.07,0,0,0-.89,1.18,7,7,0,0,0-.27,2.17,6.27,6.27,0,0,0,.24,1.86,2.38,2.38,0,0,0,.7,1.13,1.73,1.73,0,0,0,1.12.38,3.08,3.08,0,0,0,.75-.09,3.23,3.23,0,0,0,.77-.27A8.53,8.53,0,0,0,1027.79,69.93Z"/><path class="cls-17" d="M1030.62,71.41l.22-1.06a4.08,4.08,0,0,0,.62.21,7,7,0,0,0,.75.16,5.16,5.16,0,0,0,.79.09l.77,0a3,3,0,0,0,1.59-.34,1.16,1.16,0,0,0,.54-1,1.13,1.13,0,0,0-.16-.61,1.42,1.42,0,0,0-.46-.45,3.77,3.77,0,0,0-.75-.35c-.3-.11-.66-.22-1.07-.33a5.17,5.17,0,0,1-1-.35,3.05,3.05,0,0,1-.82-.53,1.85,1.85,0,0,1-.52-.72,2.33,2.33,0,0,1-.18-1,2.23,2.23,0,0,1,.85-1.87,3.94,3.94,0,0,1,2.5-.67,7.33,7.33,0,0,1,1,0,5.71,5.71,0,0,1,.86.15,6.62,6.62,0,0,1,.73.21l-.2,1.08-.69-.19a7.24,7.24,0,0,0-.77-.13,8.42,8.42,0,0,0-.9,0,2.67,2.67,0,0,0-1.49.35,1.11,1.11,0,0,0-.51,1,1.07,1.07,0,0,0,.17.61,1.31,1.31,0,0,0,.48.41,5,5,0,0,0,.72.31c.27.09.57.19.89.28a11.32,11.32,0,0,1,1.16.38,3.31,3.31,0,0,1,.87.5,1.92,1.92,0,0,1,.56.74,2.57,2.57,0,0,1,.2,1.06,2.84,2.84,0,0,1-.16,1,1.85,1.85,0,0,1-.49.73,3,3,0,0,1-.75.5,3.94,3.94,0,0,1-1,.31,6.84,6.84,0,0,1-1.15.1,10.55,10.55,0,0,1-1.13-.07c-.38,0-.74-.1-1.08-.18A4.83,4.83,0,0,1,1030.62,71.41Z"/><rect class="cls-2" x="515.72" y="57.72" width="187.69" height="19.35"/><path class="cls-17" d="M520.3,71.75V60h1.5l3.75,6.06L529.29,60h1.42V71.75h-1.34V62.23l-3.52,5.65h-.7l-3.51-5.63v9.5Z"/><path class="cls-17" d="M532.47,67.24a9.07,9.07,0,0,1,.21-2.08,3.58,3.58,0,0,1,.66-1.43,2.89,2.89,0,0,1,1.21-.85,6.32,6.32,0,0,1,3.72,0,2.86,2.86,0,0,1,1.22.85,3.46,3.46,0,0,1,.67,1.43,9.07,9.07,0,0,1,.21,2.08,8.61,8.61,0,0,1-.23,2.11,3.76,3.76,0,0,1-.69,1.45,2.79,2.79,0,0,1-1.22.84,6,6,0,0,1-3.62,0,2.79,2.79,0,0,1-1.22-.84,3.76,3.76,0,0,1-.69-1.45A8.61,8.61,0,0,1,532.47,67.24Zm1.44,0a7,7,0,0,0,.26,2.11,2,2,0,0,0,.82,1.14,2.74,2.74,0,0,0,1.42.34,2.79,2.79,0,0,0,1.44-.34,2,2,0,0,0,.82-1.14,7,7,0,0,0,.26-2.11,6.85,6.85,0,0,0-.25-2.08A2,2,0,0,0,537.9,64a2.79,2.79,0,0,0-1.49-.34,2.76,2.76,0,0,0-1.47.34,1.93,1.93,0,0,0-.79,1.13A7.23,7.23,0,0,0,533.91,67.24Z"/><path class="cls-17" d="M542,71.52V59.35h1.41v4.2a5.92,5.92,0,0,1,1.45-.72,4.41,4.41,0,0,1,1.43-.23,2.55,2.55,0,0,1,2.24,1.14,5.77,5.77,0,0,1,.78,3.27,7.67,7.67,0,0,1-.44,2.83,3,3,0,0,1-1.37,1.58,5,5,0,0,1-2.35.5,12.65,12.65,0,0,1-1.46-.1C543.21,71.75,542.64,71.65,542,71.52Zm1.41-.86c.35.07.67.12.95.16a5.56,5.56,0,0,0,.79.06,2.82,2.82,0,0,0,1.53-.37,2.17,2.17,0,0,0,.89-1.19,6.64,6.64,0,0,0,.29-2.21,6,6,0,0,0-.23-1.84,2.3,2.3,0,0,0-.7-1.1,1.77,1.77,0,0,0-1.13-.38,3.87,3.87,0,0,0-.77.08,4.35,4.35,0,0,0-.76.27,7.28,7.28,0,0,0-.86.49Z"/><path class="cls-17" d="M551.72,61a1,1,0,0,1-.66-.17.75.75,0,0,1-.2-.59.8.8,0,0,1,.19-.6,1.41,1.41,0,0,1,1.34,0,.8.8,0,0,1,.18.6.79.79,0,0,1-.18.59A1,1,0,0,1,551.72,61ZM551,71.75v-9h1.41v9Z"/><path class="cls-17" d="M555.91,59.35v9.92a2.63,2.63,0,0,0,.12.9.76.76,0,0,0,.35.41,1.35,1.35,0,0,0,.5.1,1.82,1.82,0,0,0,.38,0,3.53,3.53,0,0,0,.46-.1l.15,1.09a2.83,2.83,0,0,1-.64.21,3.38,3.38,0,0,1-.72.08,2.31,2.31,0,0,1-1.06-.22,1.48,1.48,0,0,1-.7-.77,3.84,3.84,0,0,1-.25-1.56v-10Z"/><path class="cls-17" d="M562.24,71.92a5.18,5.18,0,0,1-1.64-.25,3,3,0,0,1-1.22-.79,3.66,3.66,0,0,1-.76-1.38,6.52,6.52,0,0,1-.27-2,7,7,0,0,1,.33-2.3,4.06,4.06,0,0,1,.88-1.52,3.24,3.24,0,0,1,1.32-.82,5,5,0,0,1,1.61-.25,3.33,3.33,0,0,1,2.57.91,4.31,4.31,0,0,1,.84,3c0,.07,0,.17,0,.29s0,.25,0,.35l-1,.07-1.39.1c-.52,0-1.1.07-1.72.09l-2,0a1,1,0,0,0,0,.18v.17a4.1,4.1,0,0,0,.31,1.75,2,2,0,0,0,.9,1,3.19,3.19,0,0,0,1.46.3,8,8,0,0,0,1.08-.07c.36,0,.72-.1,1.07-.16s.67-.12,1-.19l.18,1.06a9.83,9.83,0,0,1-1,.26c-.38.07-.77.13-1.19.17A11.2,11.2,0,0,1,562.24,71.92Zm-2.39-5.47c.53,0,1,0,1.55,0l1.36-.06c.42,0,.77,0,1.07-.06l.64-.06a4.63,4.63,0,0,0-.23-1.5,1.53,1.53,0,0,0-.68-.84,2.25,2.25,0,0,0-1.15-.26,3,3,0,0,0-.85.12,2.18,2.18,0,0,0-.78.44,2.86,2.86,0,0,0-.61.85A4,4,0,0,0,559.85,66.45Z"/><path class="cls-17" d="M572.15,71.73V60l1.6-.1,1.27-.06,1.1,0a7.92,7.92,0,0,1,2.36.29,2.38,2.38,0,0,1,1.28.93,3.07,3.07,0,0,1,.4,1.66,3.15,3.15,0,0,1-.46,1.75,2.43,2.43,0,0,1-1.32,1v0a2.86,2.86,0,0,1,1.74,1,3,3,0,0,1,.63,2,4.33,4.33,0,0,1-.25,1.56,2.36,2.36,0,0,1-.77,1.06,3.52,3.52,0,0,1-1.41.61,10.46,10.46,0,0,1-2.1.19h-.78l-.69,0-.7,0-.83-.05Zm1.47-6.52h3.16a2.16,2.16,0,0,0,1.06-.26,1.83,1.83,0,0,0,.71-.75,2.34,2.34,0,0,0,.25-1.12,2.29,2.29,0,0,0-.27-1.16,1.61,1.61,0,0,0-.9-.67A5.2,5.2,0,0,0,576,61h-.85l-.39,0-.49,0-.65,0Zm0,5.4.85.06.65,0,.52,0h.46A6.22,6.22,0,0,0,578,70.5a1.69,1.69,0,0,0,1-.73,2.53,2.53,0,0,0,.3-1.32,2,2,0,0,0-.62-1.57,2.69,2.69,0,0,0-1.82-.54h-3.21Z"/><path class="cls-17" d="M581.77,69.59a2.37,2.37,0,0,1,.34-1.33,2.22,2.22,0,0,1,1-.83,7.39,7.39,0,0,1,1.68-.48c.67-.12,1.45-.22,2.33-.29V65.4a1.43,1.43,0,0,0-.5-1.18,2.33,2.33,0,0,0-1.51-.41l-.76,0a6.87,6.87,0,0,0-.88.12q-.43.08-.93.21l-.25-1.12a10.56,10.56,0,0,1,1.48-.33,9,9,0,0,1,1.41-.12,4.88,4.88,0,0,1,1.87.31,2.36,2.36,0,0,1,1.12.93,2.93,2.93,0,0,1,.38,1.54v4.34a1.37,1.37,0,0,0,.15.77.52.52,0,0,0,.43.21l.22,0a.9.9,0,0,0,.23-.08l.17,1a2.44,2.44,0,0,1-.53.21,2.12,2.12,0,0,1-.57.08,1.37,1.37,0,0,1-1-.32,1.55,1.55,0,0,1-.45-1,6.45,6.45,0,0,1-.89.63,4.51,4.51,0,0,1-1.07.47,4.35,4.35,0,0,1-1.28.18,2.75,2.75,0,0,1-.93-.15,2,2,0,0,1-.71-.45,2.21,2.21,0,0,1-.46-.73A2.8,2.8,0,0,1,581.77,69.59Zm1.42-.12a1.47,1.47,0,0,0,.36,1.08,1.29,1.29,0,0,0,1,.36,3.11,3.11,0,0,0,.94-.14,4.28,4.28,0,0,0,.91-.4,3.4,3.4,0,0,0,.78-.61V67.49c-.58.06-1.12.13-1.61.2a6,6,0,0,0-1.26.33,1.92,1.92,0,0,0-.81.56A1.43,1.43,0,0,0,583.19,69.47Z"/><path class="cls-17" d="M590.92,71.75v-9h1.29v.78a10.47,10.47,0,0,1,1.08-.52,5.81,5.81,0,0,1,1-.32,5.65,5.65,0,0,1,1.11-.11,3,3,0,0,1,1.38.28,2,2,0,0,1,.84.83,2.76,2.76,0,0,1,.29,1.34v6.7h-1.42v-6.3a1.7,1.7,0,0,0-.4-1.23,1.61,1.61,0,0,0-1.24-.43,4.14,4.14,0,0,0-.87.09,4.23,4.23,0,0,0-.83.27c-.28.12-.55.25-.83.39v7.21Z"/><path class="cls-17" d="M606.91,71.88a2,2,0,0,1-.49,0,1.46,1.46,0,0,1-.55-.25,6.46,6.46,0,0,1-.76-.61c-.31-.27-.68-.64-1.11-1.1l-2.62-2.64v4.52H600V59.35h1.34v6l2.93,3c.57.56,1,1,1.37,1.29a4.55,4.55,0,0,0,.83.61,1.37,1.37,0,0,0,.57.16h.11l.12,0,0,1.44a.59.59,0,0,1-.2,0ZM603,67.69l-1.11-.62,1.09-.95a13.85,13.85,0,0,0,1-1,8.76,8.76,0,0,0,.85-1.15,5.58,5.58,0,0,0,.62-1.33l1.4.13a6,6,0,0,1-.68,1.48,10.82,10.82,0,0,1-1,1.32c-.37.41-.74.8-1.12,1.15Z"/><path class="cls-17" d="M609.19,61a1,1,0,0,1-.65-.17.71.71,0,0,1-.2-.59.76.76,0,0,1,.19-.6,1,1,0,0,1,.66-.17,1,1,0,0,1,.67.17.76.76,0,0,1,.19.6.75.75,0,0,1-.19.59A1,1,0,0,1,609.19,61Zm-.7,10.79v-9h1.41v9Z"/><path class="cls-17" d="M612,71.75v-9h1.29v.78a10.47,10.47,0,0,1,1.08-.52,5.81,5.81,0,0,1,1-.32,5.65,5.65,0,0,1,1.11-.11,3,3,0,0,1,1.38.28,2,2,0,0,1,.84.83,2.76,2.76,0,0,1,.29,1.34v6.7h-1.42v-6.3a1.7,1.7,0,0,0-.4-1.23,1.61,1.61,0,0,0-1.24-.43,4.07,4.07,0,0,0-.87.09,4.23,4.23,0,0,0-.83.27c-.28.12-.55.25-.83.39v7.21Z"/><path class="cls-17" d="M624.35,75.44a5.65,5.65,0,0,1-2.94-.61,2,2,0,0,1-1-1.81,2.41,2.41,0,0,1,.16-.87,2.17,2.17,0,0,1,.49-.7,3.36,3.36,0,0,1,.83-.57l.9.3a2.26,2.26,0,0,0-.67.42,1.66,1.66,0,0,0-.37.52,1.47,1.47,0,0,0-.13.64,1.34,1.34,0,0,0,.31.91,2,2,0,0,0,.93.55,5.24,5.24,0,0,0,1.56.2,5.59,5.59,0,0,0,1.65-.22,2.43,2.43,0,0,0,1-.61,1.31,1.31,0,0,0,.36-.93,1,1,0,0,0-.75-1.08,2.94,2.94,0,0,0-1-.13h-2.29a4.09,4.09,0,0,1-1.4-.21,1.75,1.75,0,0,1-.87-.62,1.65,1.65,0,0,1-.3-1,1.88,1.88,0,0,1,.32-1.08,2.71,2.71,0,0,1,.94-.81l.8.3a2.34,2.34,0,0,0-.7.53,1.06,1.06,0,0,0-.25.73.82.82,0,0,0,.35.69,1.81,1.81,0,0,0,1.09.26h2.72a3,3,0,0,1,2,.58,2.1,2.1,0,0,1,.67,1.68,2.47,2.47,0,0,1-.52,1.59,3.22,3.22,0,0,1-1.52,1A7.35,7.35,0,0,1,624.35,75.44Zm.11-7a3.83,3.83,0,0,1-2.57-.74,3.19,3.19,0,0,1,0-4.36,4.87,4.87,0,0,1,5.13,0,3.19,3.19,0,0,1,0,4.36A3.82,3.82,0,0,1,624.46,68.43Zm0-1A2.24,2.24,0,0,0,626,67a1.9,1.9,0,0,0,.5-1.47A2,2,0,0,0,626,64a2.19,2.19,0,0,0-1.55-.47,2.24,2.24,0,0,0-1.55.47,1.91,1.91,0,0,0-.51,1.5,1.87,1.87,0,0,0,.51,1.47A2.29,2.29,0,0,0,624.46,67.44ZM627,64l-.58-.75a1.59,1.59,0,0,1,.67-.81,2,2,0,0,1,1.07-.27h.34a1.91,1.91,0,0,1,.33.06l-.15,1.12-.25,0h-.29A1.15,1.15,0,0,0,627,64Z"/><path class="cls-17" d="M634.32,66.1a9.33,9.33,0,0,1,.59-3.6,4,4,0,0,1,1.77-2,5.9,5.9,0,0,1,2.88-.64l.92,0,.8.08c.25,0,.5.08.75.13l.75.21-.28,1.17c-.34-.09-.65-.16-1-.22s-.6-.09-.9-.12-.63,0-1,0a4.77,4.77,0,0,0-1.68.27,2.91,2.91,0,0,0-1.22.84,3.9,3.9,0,0,0-.74,1.53,9.83,9.83,0,0,0-.25,2.35,8.45,8.45,0,0,0,.24,2.17,3.23,3.23,0,0,0,.71,1.41,2.81,2.81,0,0,0,1.18.78,5,5,0,0,0,1.63.24,14,14,0,0,0,1.67-.11,10.53,10.53,0,0,0,1.58-.31l.27,1.16c-.26.07-.53.15-.82.21a8.06,8.06,0,0,1-.88.16c-.31,0-.63.07-1,.09s-.68,0-1,0a6.74,6.74,0,0,1-2.16-.31,3.83,3.83,0,0,1-1.57-1,4.34,4.34,0,0,1-1-1.79A10.23,10.23,0,0,1,634.32,66.1Z"/><path class="cls-17" d="M644.61,71.75V59.35H646v4.17a7.77,7.77,0,0,1,1-.5,5.27,5.27,0,0,1,2.08-.42,3.1,3.1,0,0,1,1.37.27,2,2,0,0,1,.84.83,2.91,2.91,0,0,1,.29,1.36v6.69h-1.41V65.46a1.69,1.69,0,0,0-.41-1.23,1.64,1.64,0,0,0-1.23-.42,4.14,4.14,0,0,0-.87.09,4.6,4.6,0,0,0-.82.26c-.27.11-.55.24-.84.38v7.21Z"/><path class="cls-17" d="M653,69.59a2.37,2.37,0,0,1,.35-1.33,2.24,2.24,0,0,1,1-.83,7.33,7.33,0,0,1,1.69-.48c.67-.12,1.44-.22,2.33-.29V65.4a1.41,1.41,0,0,0-.51-1.18,2.31,2.31,0,0,0-1.51-.41l-.76,0a7,7,0,0,0-.87.12,8.76,8.76,0,0,0-.93.21l-.25-1.12a10.42,10.42,0,0,1,1.47-.33,9,9,0,0,1,1.41-.12,4.84,4.84,0,0,1,1.87.31,2.31,2.31,0,0,1,1.12.93,2.93,2.93,0,0,1,.38,1.54v4.34a1.27,1.27,0,0,0,.16.77.52.52,0,0,0,.43.21l.22,0a1.27,1.27,0,0,0,.23-.08l.17,1a2.66,2.66,0,0,1-.53.21,2.25,2.25,0,0,1-.58.08,1.41,1.41,0,0,1-1-.32,1.6,1.6,0,0,1-.45-1,5.9,5.9,0,0,1-.89.63,4.51,4.51,0,0,1-1.07.47,4.28,4.28,0,0,1-1.27.18,2.67,2.67,0,0,1-.93-.15,2,2,0,0,1-.72-.45,2.21,2.21,0,0,1-.46-.73A3,3,0,0,1,653,69.59Zm1.43-.12a1.51,1.51,0,0,0,.35,1.08,1.31,1.31,0,0,0,1,.36,3,3,0,0,0,.94-.14,4.35,4.35,0,0,0,.92-.4,3.9,3.9,0,0,0,.78-.61V67.49c-.59.06-1.12.13-1.61.2a6,6,0,0,0-1.27.33,1.88,1.88,0,0,0-.8.56A1.37,1.37,0,0,0,654.45,69.47Z"/><path class="cls-17" d="M662.18,71.75v-9h1.29v.78a10.47,10.47,0,0,1,1.08-.52,5.43,5.43,0,0,1,2.13-.43,3,3,0,0,1,1.38.28,2,2,0,0,1,.85.83,2.88,2.88,0,0,1,.29,1.34v6.7h-1.43v-6.3a1.7,1.7,0,0,0-.4-1.23,1.61,1.61,0,0,0-1.24-.43,4.14,4.14,0,0,0-.87.09,4.23,4.23,0,0,0-.83.27l-.83.39v7.21Z"/><path class="cls-17" d="M671.28,71.75v-9h1.29v.78a10.47,10.47,0,0,1,1.08-.52,5.57,5.57,0,0,1,1-.32,5.65,5.65,0,0,1,1.11-.11,3,3,0,0,1,1.37.28,2,2,0,0,1,.85.83,2.88,2.88,0,0,1,.29,1.34v6.7h-1.42v-6.3a1.71,1.71,0,0,0-.41-1.23,1.6,1.6,0,0,0-1.24-.43,4.14,4.14,0,0,0-.87.09,4.46,4.46,0,0,0-.83.27l-.83.39v7.21Z"/><path class="cls-17" d="M683.85,71.92a5.14,5.14,0,0,1-1.64-.25,3,3,0,0,1-1.22-.79,3.66,3.66,0,0,1-.76-1.38,6.52,6.52,0,0,1-.27-2,7,7,0,0,1,.33-2.3,4.06,4.06,0,0,1,.88-1.52,3.2,3.2,0,0,1,1.31-.82,5.09,5.09,0,0,1,1.62-.25,3.33,3.33,0,0,1,2.57.91,4.36,4.36,0,0,1,.83,3c0,.07,0,.17,0,.29v.35l-1,.07-1.39.1c-.53,0-1.1.07-1.73.09l-2,0a.52.52,0,0,0,0,.18v.17a4.1,4.1,0,0,0,.31,1.75,1.94,1.94,0,0,0,.9,1,3.15,3.15,0,0,0,1.45.3,8.08,8.08,0,0,0,1.09-.07c.36,0,.72-.1,1.07-.16s.67-.12.94-.19l.19,1.06a9.42,9.42,0,0,1-1,.26c-.37.07-.77.13-1.18.17A11.2,11.2,0,0,1,683.85,71.92Zm-2.4-5.47c.54,0,1.06,0,1.55,0l1.37-.06c.41,0,.77,0,1.06-.06l.65-.06a4.35,4.35,0,0,0-.24-1.5,1.51,1.51,0,0,0-.67-.84,2.28,2.28,0,0,0-1.15-.26,3.13,3.13,0,0,0-.86.12,2.14,2.14,0,0,0-.77.44,2.69,2.69,0,0,0-.61.85A4.24,4.24,0,0,0,681.45,66.45Z"/><path class="cls-17" d="M690.5,59.35v9.92a2.6,2.6,0,0,0,.13.9.73.73,0,0,0,.35.41,1.35,1.35,0,0,0,.5.1,1.73,1.73,0,0,0,.37,0,3,3,0,0,0,.46-.1l.16,1.09a3,3,0,0,1-.64.21,3.53,3.53,0,0,1-.72.08A2.35,2.35,0,0,1,690,71.7a1.51,1.51,0,0,1-.69-.77,3.84,3.84,0,0,1-.25-1.56v-10Z"/><path class="cls-17" d="M692.92,71.38l.22-1a6.33,6.33,0,0,0,.62.21c.23.06.48.11.74.16s.53.07.8.09l.77,0a3,3,0,0,0,1.58-.34,1.13,1.13,0,0,0,.55-1,1.18,1.18,0,0,0-.16-.61,1.44,1.44,0,0,0-.46-.46,4.57,4.57,0,0,0-.76-.35l-1.07-.33a4.8,4.8,0,0,1-1-.35,3,3,0,0,1-.82-.53,2,2,0,0,1-.52-.72,2.32,2.32,0,0,1-.18-.94,2.28,2.28,0,0,1,.85-1.88,4,4,0,0,1,2.51-.67c.33,0,.65,0,1,0a5.84,5.84,0,0,1,.87.15c.27.07.51.14.73.22l-.21,1.07c-.22-.07-.45-.13-.68-.18a7.6,7.6,0,0,0-.77-.14,8.46,8.46,0,0,0-.91-.05,2.63,2.63,0,0,0-1.48.35,1.12,1.12,0,0,0-.51,1,1,1,0,0,0,.16.61,1.49,1.49,0,0,0,.48.41,4.86,4.86,0,0,0,.72.31c.28.1.58.19.9.28s.82.25,1.16.38a3.69,3.69,0,0,1,.87.51,2,2,0,0,1,.56.73,2.64,2.64,0,0,1,.19,1.06,2.61,2.61,0,0,1-.16,1,1.83,1.83,0,0,1-.48.73,3.16,3.16,0,0,1-.76.51,4.16,4.16,0,0,1-1,.3,7,7,0,0,1-1.16.1,8.47,8.47,0,0,1-1.13-.07c-.37,0-.73-.1-1.07-.17A5.64,5.64,0,0,1,692.92,71.38Z"/><path class="cls-21" d="M657.1,137.77,609.53,76.71l.23-.46L672,83.72C667,101.74,662.12,119.52,657.1,137.77Z"/><path class="cls-22" d="M659.58,138.25c5-18.12,9.91-36,15-54.39L720,147.22l-.24.48Z"/><path class="cls-21" d="M659.72,140.89l57.54,9.2.11.57-49.72,24.92C665,164,662.42,152.69,659.72,140.89Z"/><path class="cls-23" d="M638.2,206.66c6.19-21.81,12.37-43.61,18.69-65.9a11.94,11.94,0,0,1,.66,1.5c3,13.31,5.89,26.63,8.88,39.94a2.58,2.58,0,0,1-1.06,3c-8.54,6.89-17,13.85-25.52,20.79-.4.33-.83.62-1.24.92Z"/><path class="cls-21" d="M704.53,122l29.84-5.39c-3.82,10.44-7.51,20.49-11.37,31Z"/><path class="cls-22" d="M675.58,174.28l44.57-22.73.36.31c-.56,1.7-1.08,3.41-1.71,5.09a1.94,1.94,0,0,1-1.06.82q-20.81,8.4-41.6,16.75a2,2,0,0,1-.35.06Z"/><path class="cls-22" d="M748.52,129.55H732c1.56-4.27,3.06-8.36,4.43-12.08L748.71,129Z"/><path class="cls-23" d="M633,111.42l-25.35-24,.19-.47c2.14,0,4.28,0,6.41,0,.33,0,.72.4,1,.7q8.92,11.43,17.83,22.89a3,3,0,0,1,.27.6Z"/><path class="cls-24" d="M495.69,159.82c.11-1.87.23-4.64.23-7.07V119.68h4.92v17.18H501c1.75-3.05,4.92-5,9.33-5,6.78,0,11.59,5.65,11.53,14,0,9.78-6.16,14.64-12.27,14.64a9.75,9.75,0,0,1-9.16-5.15h-.17l-.22,4.53Zm5.15-11a9.64,9.64,0,0,0,.22,1.81,7.68,7.68,0,0,0,7.47,5.82c5.2,0,8.31-4.24,8.31-10.51,0-5.49-2.83-10.18-8.15-10.18a7.93,7.93,0,0,0-7.57,6.1,10.15,10.15,0,0,0-.28,2Z"/><path class="cls-3" d="M528.26,121.71h4.91v18.38h.17c1-1.47,2-2.83,3-4.08L548,121.71h6.1L540.3,137.88l14.87,21.94h-5.83L536.79,141.1l-3.62,4.19v14.53h-4.91Z"/><path class="cls-3" d="M574.78,159.82l-.39-3.45h-.17a10.2,10.2,0,0,1-8.37,4.07c-5.54,0-8.37-3.9-8.37-7.86,0-6.61,5.88-10.23,16.46-10.18v-.56c0-2.26-.63-6.33-6.22-6.33a13.69,13.69,0,0,0-7.13,2l-1.13-3.28a17,17,0,0,1,9-2.43c8.37,0,10.41,5.71,10.41,11.2v10.23a38.55,38.55,0,0,0,.45,6.56Zm-.73-14c-5.43-.11-11.59.85-11.59,6.17a4.4,4.4,0,0,0,4.69,4.74,6.81,6.81,0,0,0,6.62-4.58,5.11,5.11,0,0,0,.28-1.58Z"/><path class="cls-3" d="M586.2,154.73a13.08,13.08,0,0,0,6.56,2c3.62,0,5.32-1.81,5.32-4.07s-1.42-3.68-5.09-5c-4.92-1.76-7.24-4.47-7.24-7.75,0-4.41,3.56-8,9.44-8a13.59,13.59,0,0,1,6.73,1.7l-1.24,3.62a10.64,10.64,0,0,0-5.6-1.59c-2.94,0-4.58,1.7-4.58,3.73,0,2.27,1.64,3.28,5.2,4.64,4.75,1.81,7.18,4.18,7.18,8.25,0,4.81-3.73,8.2-10.23,8.2a15.6,15.6,0,0,1-7.69-1.86Z"/><path class="cls-3" d="M609.27,119.68h5v17.07h.11a9.31,9.31,0,0,1,3.56-3.51,10.31,10.31,0,0,1,5.09-1.41c3.68,0,9.56,2.26,9.56,11.7v16.29h-5V144.1c0-4.41-1.64-8.14-6.33-8.14a7.13,7.13,0,0,0-6.67,5,5.93,5.93,0,0,0-.34,2.38v16.51h-5Z"/><rect class="cls-3" x="396.56" y="27.52" width="6.97" height="229.94"/></svg>