<svg id="Layer_1" data-name="Layer 1" xmlns="http://www.w3.org/2000/svg" xmlns:xlink="http://www.w3.org/1999/xlink" viewBox="0 0 2695.74 284.97"><defs><style>.cls-1,.cls-12,.cls-16,.cls-4{fill:none;}.cls-2{fill:#182033;}.cls-3{fill:#fff;}.cls-12,.cls-16,.cls-4{stroke:#fff;stroke-miterlimit:10;}.cls-4{stroke-width:1.54px;}.cls-5{fill:#016fd0;}.cls-6{fill:#e21836;}.cls-7{fill:#00447c;}.cls-8{fill:#007b84;}.cls-9{fill:#fefefe;}.cls-10{fill:#0066b2;}.cls-11{fill:#f9a533;}.cls-12{stroke-width:1.65px;}.cls-13{fill:#ff5f00;}.cls-14{fill:#eb001b;}.cls-15{fill:#f79e1b;}.cls-16{stroke-width:1.54px;}.cls-17{fill:#231f20;}.cls-18{fill:#ed1d24;}.cls-19{fill:#dfe0e4;}.cls-20{clip-path:url(#clip-path);}.cls-21{fill:url(#linear-gradient);}.cls-22{fill:#d41d54;}.cls-23{fill:#e1136e;}.cls-24{fill:#9e1c3b;}</style><clipPath id="clip-path"><path class="cls-1" d="M2628.68,166.67h0m0,0-.2-.1.2.1m-65.18-27.56c4.61,6.33,9.54,13.31,14,20.14,25.46-5.26,48.54,6.08,50.95,7.32a129.57,129.57,0,0,1-39.1-30.8,101.89,101.89,0,0,0-25.88,3.34"/></clipPath><linearGradient id="linear-gradient" x1="1797.84" y1="534.92" x2="1799.19" y2="534.92" gradientTransform="matrix(48.21, 0, 0, -48.21, -84119.1, 25942.16)" gradientUnits="userSpaceOnUse"><stop offset="0" stop-color="#fff"/><stop offset="0.05" stop-color="#f9f9f9"/><stop offset="0.7" stop-color="#a2a4a6"/><stop offset="1" stop-color="#808285"/></linearGradient></defs><rect class="cls-2" width="2695.74" height="284.97" rx="35.73"/><path class="cls-3" d="M83.59,174.31v-69.5c4-.27,7.46-.46,10.31-.6s5.25-.21,7.24-.25,3.56,0,4.75,0a67.78,67.78,0,0,1,13.93,1.19A19.89,19.89,0,0,1,128.5,109a13.62,13.62,0,0,1,4.36,7.09,40.65,40.65,0,0,1,1.19,10.56,38.91,38.91,0,0,1-1.38,11.06,16.59,16.59,0,0,1-4.47,7.48,19,19,0,0,1-8,4.26,44.21,44.21,0,0,1-12,1.39h-3.52c-1,0-2,0-2.87-.05l-2.73-.1c-.92,0-2-.08-3.12-.14s-2.43-.1-3.82-.1v23.89Zm8.62-63v32.13c1.39,0,2.66,0,3.82,0l3.27.1,3.12.1c1.06,0,2.25.05,3.57.05a40,40,0,0,0,9.52-.94,13.34,13.34,0,0,0,5.95-3,11.35,11.35,0,0,0,3.12-5.36,29.85,29.85,0,0,0,1-8.08,26.56,26.56,0,0,0-.85-7.14,9.8,9.8,0,0,0-2.92-4.81,13.88,13.88,0,0,0-5.85-2.77,39.52,39.52,0,0,0-9.42-.94h-2.63c-.89,0-1.87,0-2.92.09s-2.3.14-3.72.2S94.13,111.22,92.21,111.35Z"/><path class="cls-3" d="M138.81,161.52a14.13,14.13,0,0,1,2-7.88,13.52,13.52,0,0,1,6-4.91,43.35,43.35,0,0,1,10-2.83q5.94-1,13.78-1.73v-7.44a8.51,8.51,0,0,0-3-7c-2-1.62-5-2.43-8.93-2.43-1.32,0-2.82.07-4.51.2a50.56,50.56,0,0,0-5.16.7q-2.62.49-5.5,1.29l-1.49-6.65a64.19,64.19,0,0,1,8.73-2,54.71,54.71,0,0,1,8.33-.7A29,29,0,0,1,170.19,122a13.65,13.65,0,0,1,6.65,5.5,17.36,17.36,0,0,1,2.23,9.12v25.68c0,2.25.31,3.77.94,4.56a3,3,0,0,0,2.53,1.19,6.18,6.18,0,0,0,1.29-.14,7.4,7.4,0,0,0,1.38-.45l1,6.15a15.34,15.34,0,0,1-3.13,1.24,13.25,13.25,0,0,1-3.42.44,8.13,8.13,0,0,1-5.65-1.88,9.32,9.32,0,0,1-2.68-5.65,41.16,41.16,0,0,1-5.25,3.71,27.2,27.2,0,0,1-6.35,2.78,25.86,25.86,0,0,1-7.53,1,15.81,15.81,0,0,1-5.51-.89,11.53,11.53,0,0,1-4.21-2.68,11.85,11.85,0,0,1-2.73-4.31A17.06,17.06,0,0,1,138.81,161.52Zm8.43-.69q0,4.26,2.08,6.39a7.68,7.68,0,0,0,5.75,2.13,19.19,19.19,0,0,0,5.56-.84,24.76,24.76,0,0,0,5.4-2.38,20.68,20.68,0,0,0,4.61-3.62V149.13c-3.44.33-6.61.72-9.52,1.19a35.11,35.11,0,0,0-7.48,1.93,11,11,0,0,0-4.76,3.32A8.26,8.26,0,0,0,147.24,160.83Z"/><path class="cls-3" d="M199.89,194.93l6.74-20.62H205l-20.42-53,9-.5,16.36,46,14.28-46,8.43.5-24.39,74.16Z"/><path class="cls-3" d="M322.73,174.31h-8.82l-14.38-55.13-14.77,55.13h-8.43L260.86,105l9-.19,11.2,60.08,14.58-57.51h7.93l14.47,57.41,11.31-60,9,.19Z"/><path class="cls-3" d="M349.11,110.46a6,6,0,0,1-3.87-1,4.33,4.33,0,0,1-1.19-3.47q0-2.58,1.14-3.57a6,6,0,0,1,3.92-1c1.91,0,3.24.33,4,1s1.09,1.85,1.09,3.57a4.54,4.54,0,0,1-1.09,3.47C352.35,110.13,351,110.46,349.11,110.46Zm-4.17,63.85V121.17h8.33v53.14Z"/><path class="cls-3" d="M383.81,175.3a16.24,16.24,0,0,1-8-1.83,10.88,10.88,0,0,1-4.81-5.6,24.39,24.39,0,0,1-1.54-9.22V127.41h-9.12V122l9.12-.79,1.09-12.6h7.24v12.6h17.75v6.14H377.76v30.74q0,5.35,2,7.78t6.7,2.43a22.69,22.69,0,0,0,4.71-.49q2.32-.5,4.81-1.29l1.19,6.44a38.74,38.74,0,0,1-7,1.84A41.63,41.63,0,0,1,383.81,175.3Z"/><path class="cls-3" d="M404.23,174.31V100.94h8.33v24.69a50.81,50.81,0,0,1,5.95-3,34.71,34.71,0,0,1,5.85-1.83,30.38,30.38,0,0,1,6.45-.65,17.8,17.8,0,0,1,8.08,1.64,11.33,11.33,0,0,1,4.95,4.86,16.87,16.87,0,0,1,1.74,8.08v39.56h-8.33V137.13q0-4.75-2.43-7.29c-1.62-1.68-4.05-2.53-7.29-2.53a24.12,24.12,0,0,0-5.15.55,28.55,28.55,0,0,0-4.86,1.54q-2.38,1-5,2.28v42.63Z"/><rect class="cls-4" x="580.26" y="27.37" width="483.02" height="230.74" rx="22.45"/><rect class="cls-5" x="1192.67" y="62.39" width="253.68" height="167.18" rx="14.16"/><path class="cls-3" d="M1242,192V152.15h42.14l4.52,5.9,4.68-5.9h153v37.06a17.65,17.65,0,0,1-8.63,2.75H1353l-5.1-6.28V192h-16.71V181.25s-2.28,1.49-7.21,1.49h-5.69V192H1293l-4.52-6-4.58,6Zm-49.22-69.81,9.51-22.15h16.43l5.4,12.41V100h20.43l3.21,9,3.11-9h91.72v4.51a19.78,19.78,0,0,1,12.74-4.51l29.76.1,5.3,12.25V100h17.1l4.7,7v-7h17.26v39.8h-17.26l-4.51-7.06v7.06H1382.6l-2.52-6.27h-6.76l-2.48,6.27h-17a16.8,16.8,0,0,1-11.17-4.42v4.42h-25.69l-5.1-6.27v6.27h-95.51l-2.53-6.27h-6.73l-2.5,6.27h-11.75Z"/><path class="cls-5" d="M1205.69,104.9l-12.82,29.81h8.35l2.36-6h13.75l2.36,6h8.53l-12.81-29.81Zm4.74,6.94,4.2,10.43h-8.4Zm18.67,22.86V104.9l11.86,0,6.9,19.22,6.73-19.26h11.76v29.8h-7.45v-22l-7.9,22h-6.53l-7.92-22v22Zm42.35,0V104.9h24.31v6.67H1279v5.09h16.39v6.28H1279v5.29h16.78v6.47Zm28.63-29.8v29.81h7.45V124.12h3.14l8.93,10.59h9.1l-9.8-11a9.08,9.08,0,0,0,8.17-9.16c0-6.27-4.92-9.67-10.41-9.67Zm7.45,6.67H1316a3.42,3.42,0,0,1,3.53,3.14,3.35,3.35,0,0,1-3.41,3.13h-8.63Zm30.19,23.13h-7.6V104.9h7.6Zm18,0h-1.64c-7.94,0-12.77-6.26-12.77-14.78,0-8.73,4.77-15,14.8-15h8.24V112h-8.54c-4.07,0-6.95,3.18-6.95,8,0,5.77,3.29,8.19,8,8.19h2ZM1372,104.9l-12.82,29.81h8.34l2.37-6h13.75l2.35,6h8.53l-12.81-29.81Zm4.74,6.94,4.19,10.43h-8.4Zm18.65,22.86V104.9h9.47l12.1,18.72V104.9h7.45v29.8h-9.17l-12.4-19.21V134.7Zm-148.23,52.16V157.05h24.31v6.67h-16.78v5.1h16.39v6.27h-16.39v5.3h16.78v6.47Zm119.13,0V157.05h24.32v6.67H1373.8v5.1h16.31v6.27H1373.8v5.3h16.78v6.47Zm-93.88,0,11.84-14.72-12.12-15.09h9.39l7.22,9.33,7.24-9.33h9L1293,172l11.86,14.9h-9.39l-7-9.18-6.83,9.18Zm33.37-29.8v29.8h7.65v-9.41h7.84c6.64,0,11.67-3.52,11.67-10.37,0-5.67-4-10-10.7-10Zm7.65,6.74h8.26a3.37,3.37,0,0,1,3.68,3.43,3.44,3.44,0,0,1-3.7,3.43h-8.24Zm22.74-6.75v29.81h7.46V176.27h3.13l8.94,10.59h9.1l-9.8-11a9.08,9.08,0,0,0,8.17-9.16c0-6.27-4.92-9.67-10.41-9.67Zm7.46,6.67h8.51a3.42,3.42,0,0,1,3.53,3.14,3.37,3.37,0,0,1-3.42,3.14h-8.62ZM1394,186.86v-6.47H1409c2.2,0,3.16-1.2,3.16-2.5s-.95-2.52-3.16-2.52h-6.74c-5.86,0-9.12-3.57-9.12-8.93,0-4.78,3-9.39,11.69-9.39h14.51l-3.14,6.71H1403.6c-2.39,0-3.13,1.26-3.13,2.46a2.59,2.59,0,0,0,2.74,2.6h7.06c6.53,0,9.36,3.7,9.36,8.55,0,5.22-3.15,9.49-9.71,9.49Zm27.34,0v-6.47h14.91c2.21,0,3.17-1.2,3.17-2.5s-1-2.52-3.17-2.52h-6.73c-5.86,0-9.12-3.57-9.12-8.93,0-4.78,3-9.39,11.69-9.39h14.51l-3.14,6.71H1431c-2.4,0-3.14,1.26-3.14,2.46a2.6,2.6,0,0,0,2.75,2.6h7.06c6.53,0,9.36,3.7,9.36,8.55,0,5.22-3.16,9.49-9.72,9.49Z"/><path class="cls-6" d="M1552.19,62.39h66.71c9.31,0,15.11,7.59,12.93,16.93l-31,133.34c-2.2,9.31-11.52,16.91-20.84,16.91h-66.7c-9.3,0-15.1-7.6-12.93-16.91l31.07-133.34c2.17-9.34,11.49-16.93,20.81-16.93"/><path class="cls-7" d="M1613.35,62.39h76.71c9.31,0,5.11,7.59,2.92,16.93l-31,133.34c-2.18,9.31-1.5,16.91-10.83,16.91h-76.71c-9.33,0-15.1-7.6-12.91-16.91l31-133.34c2.21-9.34,11.5-16.93,20.82-16.93"/><path class="cls-8" d="M1687,62.39h66.71c9.32,0,15.11,7.59,12.92,16.93L1735.6,212.66c-2.19,9.31-11.52,16.91-20.84,16.91h-66.68c-9.33,0-15.12-7.6-12.93-16.91l31.06-133.34c2.17-9.34,11.48-16.93,20.81-16.93"/><path class="cls-9" d="M1569.62,105.12c-6.86.07-8.89,0-9.54-.15-.25,1.18-4.87,22.53-4.89,22.55-1,4.32-1.72,7.4-4.18,9.39a7.49,7.49,0,0,1-4.93,1.71c-3,0-4.81-1.51-5.11-4.37l-.06-1s.93-5.78.93-5.82,4.86-19.46,5.73-22a1.41,1.41,0,0,0,.07-.29c-9.46.08-11.13,0-11.25-.15-.06.21-.3,1.41-.3,1.41l-5,21.93-.42,1.86-.83,6.09a9,9,0,0,0,1.06,4.52c2.26,3.95,8.71,4.54,12.36,4.54,4.7,0,9.1-1,12.08-2.82,5.17-3.05,6.53-7.83,7.73-12.07l.56-2.18s5-20.21,5.86-22.84A.7.7,0,0,1,1569.62,105.12Zm17,16.3a13.27,13.27,0,0,0-5.39,1.27c-.72.36-1.4.79-2.11,1.22l.64-2.34-.35-.39c-4.2.85-5.14,1-9,1.51l-.32.21a116.87,116.87,0,0,1-2.52,13.89c-.64,2.7-1.3,5.43-2,8.13l.18.35c4-.21,5.18-.21,8.63-.16l.28-.3c.44-2.25.5-2.78,1.47-7.33.46-2.16,1.41-6.91,1.88-8.59a6.46,6.46,0,0,1,2.53-.8c1.94,0,1.7,1.69,1.63,2.36-.09,1.13-.79,4.83-1.52,8l-.48,2.05c-.34,1.51-.71,3-1,4.48l.14.3c3.92-.21,5.12-.21,8.46-.16l.4-.3c.6-3.51.78-4.45,1.85-9.57l.54-2.35c1-4.59,1.58-6.93.78-8.83C1590.51,121.94,1588.49,121.42,1586.64,121.42Zm19,4.82c-2.09.4-3.42.66-4.74.84s-2.58.4-4.59.68l-.16.14-.15.12c-.21,1.49-.36,2.79-.63,4.31s-.6,3.37-1.19,5.94a23.83,23.83,0,0,1-1,3.35,26.9,26.9,0,0,0-1,3.3l.12.18.1.17c1.88-.09,3.11-.16,4.38-.17s2.57,0,4.59,0l.18-.14.19-.16c.29-1.75.34-2.22.52-3.07s.48-2.18,1.23-5.56c.35-1.58.75-3.17,1.12-4.79s.78-3.2,1.16-4.78l-.06-.2Zm0-6.49c-1.89-1.12-5.21-.77-7.45.78s-2.48,3.65-.6,4.79,5.2.76,7.41-.8S1607.58,120.85,1605.71,119.75Zm11.45,25.87a14.21,14.21,0,0,0,10.7-4.19c2.28-2.54,3.32-6.32,3.68-7.88,1.18-5.15.26-7.56-.89-9-1.74-2.23-4.83-3-8-3-1.93,0-6.51.19-10.09,3.49-2.58,2.38-3.77,5.62-4.48,8.72s-1.56,8.84,3.67,10.95A15.38,15.38,0,0,0,1617.16,145.62Zm-.3-11.61c.88-3.9,1.92-7.18,4.58-7.18,2.09,0,2.24,2.44,1.31,6.35-.16.87-.93,4.11-2,5.49a3.25,3.25,0,0,1-2.51,1.63c-.28,0-2,0-2-2.47A16.12,16.12,0,0,1,1616.86,134Zm24.25,11.1.3-.3c.43-2.25.5-2.78,1.44-7.33.47-2.16,1.44-6.9,1.9-8.59a6.2,6.2,0,0,1,2.54-.8c1.92,0,1.69,1.69,1.61,2.36a78.12,78.12,0,0,1-1.51,8l-.46,2.05c-.35,1.51-.73,3-1.07,4.48l.15.3c3.93-.21,5.08-.21,8.45-.16l.4-.3c.59-3.51.75-4.45,1.86-9.57l.53-2.35c1-4.6,1.58-6.93.8-8.82-.86-2.13-2.89-2.65-4.71-2.65a13,13,0,0,0-5.39,1.27c-.71.37-1.41.79-2.11,1.22l.61-2.34-.33-.4c-4.19.86-5.15,1-9,1.52l-.3.21a119,119,0,0,1-2.52,13.89c-.63,2.7-1.29,5.43-2,8.13l.17.35C1636.48,145.06,1637.66,145.06,1641.11,145.11Zm28.89.15c.25-1.2,1.71-8.35,1.73-8.35s1.25-5.25,1.32-5.44a3.1,3.1,0,0,1,.79-.76h.58c5.46,0,11.63,0,16.46-3.56a17.53,17.53,0,0,0,6.54-10.42,15.64,15.64,0,0,0,.46-3.62,7.62,7.62,0,0,0-1.31-4.63c-2.47-3.45-7.38-3.51-13-3.54l-2.8,0c-7.25.09-10.16.06-11.35-.09l-.3,1.47s-2.59,12-2.59,12.06-6.22,25.6-6.51,26.81C1666.31,145.14,1668.91,145.14,1670,145.26Zm4.81-21.39s2.77-12,2.75-12l.09-.61,0-.47,1.1.11,5.84.5c2.24.87,3.17,3.11,2.52,6a8.77,8.77,0,0,1-4.55,6,14.39,14.39,0,0,1-6.4,1h-1.5Zm17.2,10.36c-.73,3.12-1.57,8.8,3.64,10.83a10.13,10.13,0,0,0,4.65.83,7.62,7.62,0,0,0,4.44-2c-.12.47-.24.94-.37,1.42l.24.3c3.74-.16,4.9-.16,9-.12l.37-.28c.59-3.48,1.15-6.86,2.69-13.52.75-3.19,1.5-6.34,2.26-9.52l-.12-.35c-4.18.78-5.3.94-9.33,1.51l-.3.25-.12,1a5.76,5.76,0,0,0-2.94-2.42c-1.79-.7-6,.21-9.61,3.5A16.38,16.38,0,0,0,1692,134.23Zm8.79.19c.9-3.83,1.93-7.08,4.59-7.08,1.69,0,2.58,1.56,2.4,4.21-.15.66-.3,1.36-.48,2.15-.27,1.14-.56,2.27-.84,3.4a8,8,0,0,1-1,2,4.59,4.59,0,0,1-3.25,1.58c-.27,0-1.92,0-2-2.43A16.33,16.33,0,0,1,1700.8,134.42Zm45.9-12.66-.32-.37c-4.14.84-4.89,1-8.7,1.49l-.28.28s0,.11,0,.17v-.06c-2.83,6.54-2.75,5.13-5.06,10.27,0-.23,0-.38,0-.63l-.58-11.15-.36-.37c-4.34.84-4.44,1-8.45,1.49l-.31.28a1.93,1.93,0,0,0-.07.43l0,.06a55.49,55.49,0,0,1,.89,6c.23,2,.54,4,.78,5.93.39,3.28.61,4.89,1.1,9.89-2.71,4.47-3.35,6.16-6,10.07v0l-1.83,2.9a1.38,1.38,0,0,1-.67.61,2.82,2.82,0,0,1-1.2.17h-1l-1.52,5,5.19.09a6.37,6.37,0,0,0,6-3.35l3.26-5.58h0l.34-.39C1730,150.36,1746.7,121.76,1746.7,121.76Zm-54.69,66h-2.2l8.14-26.91h2.7l.86-2.77.08,3.08c-.1,1.91,1.4,3.6,5.34,3.32h4.55l1.57-5.18h-1.72c-1,0-1.44-.25-1.38-.79l-.08-3.13h-8.44c-2.73.06-10.87.27-12.52.71a14.67,14.67,0,0,0-4.09,2l.82-2.77h-7.89l-1.64,5.5-8.25,27.33h-1.6l-1.56,5.14h15.71l-.53,1.71h7.74l.52-1.71h2.17Zm-6.44-21.44a35,35,0,0,0-3.62,1.41l2.09-6.88h6.27l-1.51,5A20.84,20.84,0,0,0,1685.57,166.3Zm.12,9.83s-2,.24-3.27.54a30.76,30.76,0,0,0-3.67,1.6l2.16-7.15h6.3Zm-3.52,11.68h-6.28l1.82-6H1684Zm15.15-16.69h9.06l-1.3,4.21h-9.19l-1.38,4.61h8l-6.08,8.57a2.52,2.52,0,0,1-1.24,1,3.52,3.52,0,0,1-1.63.47h-2.23l-1.53,5.05h5.83a7.08,7.08,0,0,0,6.14-3.19l4.18-5.71.89,5.8a2.72,2.72,0,0,0,1.5,2,5.52,5.52,0,0,0,2,.87c.91,0,1.57.07,2,.07h2.87l1.72-5.65h-1.13a4.61,4.61,0,0,1-2-.32,3,3,0,0,1-.29-1.2l-.91-5.81H1709l1.63-1.95h9.17l1.41-4.61h-8.49l1.32-4.21h8.46l1.57-5.21h-25.22ZM1620.77,189l2.11-7h8.7l1.59-5.23h-8.7l1.32-4.33h8.51l1.57-5.07H1614.6l-1.55,5.07h4.84l-1.29,4.33h-4.85l-1.61,5.32H1615l-2.82,9.31a2.23,2.23,0,0,0,.53,2.28,2.32,2.32,0,0,0,1.56,1.14,9.32,9.32,0,0,0,2.23.3h9.8l1.74-5.8-4.34.6C1622.84,189.86,1620.52,189.76,1620.77,189Zm1-33.69-2.21,4a4.5,4.5,0,0,1-1.27,1.65,4.25,4.25,0,0,1-2,.3h-1.15l-1.54,5.1h3.82a8.8,8.8,0,0,0,3.92-1c.72-.39.91-.17,1.47-.71l1.29-1.12h11.92l1.58-5.3h-8.72l1.52-2.9Zm17.6,33.79c-.21-.29-.06-.8.25-1.88l3.26-10.78h11.59c1.69,0,2.91,0,3.7-.1a7.72,7.72,0,0,0,2.79-.94,5.32,5.32,0,0,0,2-1.87,15.84,15.84,0,0,0,2-4.54l4.09-13.64-12,.07a37.14,37.14,0,0,0-5.34,1.15,21.58,21.58,0,0,0-4,2.55l1.09-3.74h-7.43l-10.4,34.5a22.07,22.07,0,0,0-.68,2.89c0,.63.8,1.26,1.32,1.73a4.81,4.81,0,0,0,2.43.47c.93.07,2.25.11,4.07.11h5.71l1.75-5.92-5.11.48A1.33,1.33,0,0,1,1639.37,189.08Zm5.61-20h12.18l-.78,2.43a9.08,9.08,0,0,0-1.61,0h-10.54Zm2.44-8.13h12.28l-.89,2.92s-5.78-.06-6.71.11a13.7,13.7,0,0,0-6.46,2.89Zm9.23,18.68a1.26,1.26,0,0,1-.48.75,2.4,2.4,0,0,1-1.24.22h-1.74l.11-3h-7.22l-.29,14.45c0,1,.09,1.64.85,2.13s3.11.68,6.27.68h4.52l1.64-5.41-3.94.22-1.31.07a1.38,1.38,0,0,1-.54-.33c-.16-.17-.44-.07-.4-1.11l0-3.7,4.13-.17a5.38,5.38,0,0,0,4-1.42,4.43,4.43,0,0,0,1.32-2.45l.69-3.28h-5.67Z"/><polygon class="cls-10" points="2250.55 185.82 2229.82 185.82 2242.78 106.19 2263.51 106.19 2250.55 185.82"/><path class="cls-10" d="M2212.38,106.18,2192.61,161l-2.34-11.8h0l-7-35.81s-.85-7.18-9.84-7.18h-32.67l-.39,1.35a77.43,77.43,0,0,1,21.69,9.11l18,69.18h21.61l33-79.64Z"/><path class="cls-10" d="M2375.46,185.82h19l-16.59-79.64h-16.67c-7.7,0-9.58,5.94-9.58,5.94l-30.91,73.7h21.61l4.32-11.83H2373Zm-22.82-28.17,10.9-29.8,6.13,29.8Z"/><path class="cls-10" d="M2322.36,125.34l2.95-17.11a59.86,59.86,0,0,0-18.64-3.47c-10.29,0-34.73,4.5-34.73,26.36,0,20.58,28.68,20.84,28.68,31.64s-25.72,8.87-34.21,2.06l-3.08,17.87s9.26,4.5,23.4,4.5,35.5-7.33,35.5-27.26c0-20.71-28.94-22.63-28.94-31.64S2313.48,120.45,2322.36,125.34Z"/><path class="cls-11" d="M2190.27,149.17l-7-35.81s-.85-7.18-9.84-7.18h-32.67l-.39,1.35A80.46,80.46,0,0,1,2171.18,123,62.07,62.07,0,0,1,2190.27,149.17Z"/><rect class="cls-12" x="2109.99" y="62.39" width="314.91" height="167.18" rx="9.75"/><path class="cls-13" d="M1952.18,179.36h-56.57V77.7h56.57Z"/><path class="cls-14" d="M1899.2,128.53a64.51,64.51,0,0,1,24.7-50.82,64.65,64.65,0,1,0,0,101.65,64.57,64.57,0,0,1-24.69-50.83Z"/><path class="cls-15" d="M2028.49,128.53a64.64,64.64,0,0,1-104.59,50.83,64.66,64.66,0,0,0,0-101.65,64.63,64.63,0,0,1,104.59,50.82Z"/><path class="cls-3" d="M1854.68,229V218.27a6.35,6.35,0,0,0-6.71-6.78,6.62,6.62,0,0,0-6,3,6.26,6.26,0,0,0-5.64-3,5.65,5.65,0,0,0-5,2.53v-2.1h-3.71V229h3.74v-9.46c0-3,1.64-4.53,4.18-4.53s3.71,1.6,3.71,4.49V229H1843v-9.46c0-3,1.72-4.53,4.18-4.53s3.75,1.6,3.75,4.49V229Zm55.45-17.06h-6.06v-5.18h-3.75v5.18h-3.46v3.39h3.46v7.78c0,4,1.53,6.31,5.92,6.31a8.72,8.72,0,0,0,4.64-1.32l-1.07-3.17a6.85,6.85,0,0,1-3.28,1c-1.86,0-2.46-1.14-2.46-2.85v-7.71h6.06Zm31.65-.43a5,5,0,0,0-4.49,2.5v-2.07h-3.68V229h3.71v-9.57c0-2.82,1.22-4.39,3.64-4.39a6.06,6.06,0,0,1,2.32.43l1.14-3.5a7.94,7.94,0,0,0-2.64-.46Zm-47.85,1.78a12.78,12.78,0,0,0-7-1.78c-4.32,0-7.11,2.07-7.11,5.46,0,2.78,2.07,4.5,5.89,5l1.75.25c2,.29,3,.82,3,1.79,0,1.32-1.36,2.06-3.89,2.06a9.13,9.13,0,0,1-5.68-1.78l-1.74,2.89a12.28,12.28,0,0,0,7.38,2.21c4.93,0,7.78-2.32,7.78-5.56,0-3-2.25-4.57-6-5.11l-1.75-.25c-1.6-.21-2.89-.53-2.89-1.67s1.22-2,3.25-2a11,11,0,0,1,5.32,1.46Zm99.41-1.78a5,5,0,0,0-4.49,2.5v-2.07h-3.68V229h3.71v-9.57c0-2.82,1.22-4.39,3.64-4.39a6.06,6.06,0,0,1,2.32.43L1996,212a8,8,0,0,0-2.65-.46Zm-47.81,9c0,5.17,3.6,9,9.1,9a9,9,0,0,0,6.14-2l-1.79-3a7.48,7.48,0,0,1-4.46,1.54,5.47,5.47,0,0,1,0-10.92,7.47,7.47,0,0,1,4.46,1.53l1.79-3a9,9,0,0,0-6.14-2c-5.5,0-9.1,3.78-9.1,9Zm34.75,0v-8.53h-3.71V214a6.44,6.44,0,0,0-5.38-2.5c-4.79,0-8.53,3.75-8.53,9s3.74,9,8.53,9a6.46,6.46,0,0,0,5.38-2.49V229h3.71Zm-13.8,0c0-3,2-5.46,5.17-5.46s5.14,2.35,5.14,5.46-2.07,5.46-5.14,5.46-5.17-2.47-5.17-5.46Zm-44.79-9c-5,0-8.49,3.64-8.49,9s3.64,9,8.74,9a10.37,10.37,0,0,0,7-2.39l-1.82-2.75a8.09,8.09,0,0,1-5,1.79,4.74,4.74,0,0,1-5.1-4.18h12.66c0-.46.07-.92.07-1.42,0-5.32-3.31-9-8.1-9Zm-.07,3.32c2.39,0,3.93,1.5,4.32,4.14h-8.85c.39-2.46,1.89-4.14,4.53-4.14Zm93.1,5.64V205.07H2011V214a6.46,6.46,0,0,0-5.39-2.5c-4.78,0-8.53,3.75-8.53,9s3.75,9,8.53,9a6.48,6.48,0,0,0,5.39-2.49V229h3.71Zm4.34,7a1,1,0,0,1,.42.09.93.93,0,0,1,.35.23,1.16,1.16,0,0,1,.24.34,1,1,0,0,1,0,.84,1.21,1.21,0,0,1-.24.35,1.25,1.25,0,0,1-.35.23,1,1,0,0,1-.42.09,1,1,0,0,1-.44-.09,1.25,1.25,0,0,1-.35-.23,1.21,1.21,0,0,1-.24-.35,1,1,0,0,1,.24-1.18.93.93,0,0,1,.35-.23A1,1,0,0,1,2019.06,227.4Zm0,1.93a.88.88,0,0,0,.32-.07.8.8,0,0,0,.27-.18,1.06,1.06,0,0,0,.18-.27.88.88,0,0,0,.06-.33,1,1,0,0,0-.06-.33,1,1,0,0,0-.18-.26.8.8,0,0,0-.27-.18.71.71,0,0,0-.32-.07.88.88,0,0,0-.61.25,1,1,0,0,0-.18.26,1,1,0,0,0-.06.33.88.88,0,0,0,.06.33,1.06,1.06,0,0,0,.18.27.8.8,0,0,0,.27.18A1,1,0,0,0,2019.06,229.33Zm.06-1.35a.51.51,0,0,1,.3.08.3.3,0,0,1,.1.24.28.28,0,0,1-.08.2.38.38,0,0,1-.24.1l.33.38h-.26l-.3-.37h-.1V229h-.22v-1Zm-.25.19v.26h.25a.25.25,0,0,0,.13,0,.1.1,0,0,0,0-.1c0-.05,0-.08,0-.1a.25.25,0,0,0-.13,0Zm-18-7.72c0-3,2-5.46,5.17-5.46s5.14,2.35,5.14,5.46-2.07,5.46-5.14,5.46-5.17-2.47-5.17-5.46Zm-125.32,0v-8.53h-3.71V214a6.46,6.46,0,0,0-5.39-2.5c-4.78,0-8.52,3.75-8.52,9s3.74,9,8.52,9a6.48,6.48,0,0,0,5.39-2.49V229h3.71Zm-13.81,0c0-3,2-5.46,5.18-5.46s5.14,2.35,5.14,5.46-2.07,5.46-5.14,5.46A5.13,5.13,0,0,1,1861.78,220.45Z"/><rect class="cls-16" x="1151.13" y="27.37" width="1408.04" height="230.74" rx="14.53"/><rect class="cls-2" x="2484.66" y="63.88" width="211.08" height="155.07"/><path class="cls-3" d="M2553.88,215.78v-6.53h1v.92a2.3,2.3,0,0,1,.81-.77,2.21,2.21,0,0,1,1.15-.29,2.07,2.07,0,0,1,1.17.3,1.66,1.66,0,0,1,.65.84,2.32,2.32,0,0,1,2-1.14,2,2,0,0,1,1.48.54,2.36,2.36,0,0,1,.51,1.65v4.48h-1.08v-4.11a3.17,3.17,0,0,0-.11-1,.92.92,0,0,0-.39-.47,1.24,1.24,0,0,0-.66-.17,1.52,1.52,0,0,0-1.13.45,2.05,2.05,0,0,0-.46,1.47v3.79h-1.07v-4.24a1.77,1.77,0,0,0-.28-1.1,1,1,0,0,0-.87-.37,1.64,1.64,0,0,0-.86.24,1.41,1.41,0,0,0-.56.72,4,4,0,0,0-.18,1.36v3.39Z"/><path class="cls-3" d="M2568.41,215a3.69,3.69,0,0,1-1.16.74,3.42,3.42,0,0,1-1.21.22,2.37,2.37,0,0,1-1.65-.53,1.73,1.73,0,0,1-.57-1.34,1.71,1.71,0,0,1,.23-.87,1.58,1.58,0,0,1,.56-.64,2.59,2.59,0,0,1,.79-.36c.22-.05.55-.11,1-.17a9.48,9.48,0,0,0,2-.38c0-.15,0-.25,0-.28a1.21,1.21,0,0,0-.31-.95,1.86,1.86,0,0,0-1.26-.37,2,2,0,0,0-1.15.27,1.61,1.61,0,0,0-.54.95l-1.09-.14a2.68,2.68,0,0,1,.48-1.12,2.16,2.16,0,0,1,1-.65,4.34,4.34,0,0,1,1.46-.23,3.91,3.91,0,0,1,1.35.19,1.83,1.83,0,0,1,.76.5,1.62,1.62,0,0,1,.33.75,5.45,5.45,0,0,1,.07,1V213a18.34,18.34,0,0,0,.06,2,2.74,2.74,0,0,0,.27.79h-1.12a2.3,2.3,0,0,1-.22-.82m-.06-2.47a7.94,7.94,0,0,1-1.82.42,4.16,4.16,0,0,0-1,.22,1,1,0,0,0-.43.36,1,1,0,0,0-.16.53.91.91,0,0,0,.34.74,1.42,1.42,0,0,0,1,.3,2.27,2.27,0,0,0,1.14-.28,1.78,1.78,0,0,0,.72-.77,2.54,2.54,0,0,0,.18-1.11Z"/><polygon class="cls-3" points="2571.1 215.78 2571.1 206.76 2572.18 206.76 2572.18 211.89 2574.79 209.25 2576.2 209.25 2573.72 211.68 2576.44 215.78 2575.09 215.78 2572.95 212.44 2572.18 213.19 2572.18 215.78 2571.1 215.78"/><path class="cls-3" d="M2577.29,206.76h1.08V208h-1.08Zm0,2.49h1.08v6.53h-1.08Z"/><path class="cls-3" d="M2580.05,215.78v-6.53h1v.92a2.3,2.3,0,0,1,2-1.06,2.69,2.69,0,0,1,1.07.21,1.73,1.73,0,0,1,.72.56,2,2,0,0,1,.34.82,6.63,6.63,0,0,1,0,1.07v4h-1.07v-4a2.86,2.86,0,0,0-.13-1,1.05,1.05,0,0,0-.45-.53,1.47,1.47,0,0,0-.77-.2,1.77,1.77,0,0,0-1.2.45,2.25,2.25,0,0,0-.5,1.7v3.56Z"/><path class="cls-3" d="M2586.73,216.32l1.06.14a1,1,0,0,0,.37.73,1.76,1.76,0,0,0,1.11.31,1.87,1.87,0,0,0,1.18-.31,1.4,1.4,0,0,0,.56-.85,7,7,0,0,0,.09-1.42,2.28,2.28,0,0,1-1.8.86,2.41,2.41,0,0,1-2.06-1,3.69,3.69,0,0,1-.72-2.32,4.51,4.51,0,0,1,.32-1.73,2.75,2.75,0,0,1,1-1.21,2.56,2.56,0,0,1,1.49-.43,2.31,2.31,0,0,1,1.89.94v-.8h1v5.64a5.22,5.22,0,0,1-.31,2.15,2.2,2.2,0,0,1-1,1,3.26,3.26,0,0,1-1.64.37,3,3,0,0,1-1.84-.52,1.79,1.79,0,0,1-.69-1.58m.9-3.92a2.83,2.83,0,0,0,.5,1.87,1.62,1.62,0,0,0,1.27.59,1.66,1.66,0,0,0,1.29-.59,2.8,2.8,0,0,0,.51-1.83,2.67,2.67,0,0,0-.53-1.8,1.61,1.61,0,0,0-1.28-.61,1.59,1.59,0,0,0-1.25.6,2.6,2.6,0,0,0-.51,1.77"/><path class="cls-3" d="M2596.83,213.79l1.07-.14a1.56,1.56,0,0,0,.51,1,2.08,2.08,0,0,0,2.28,0,.93.93,0,0,0,.36-.73.64.64,0,0,0-.32-.58,4.31,4.31,0,0,0-1.11-.38,9.28,9.28,0,0,1-1.66-.53,1.47,1.47,0,0,1-.71-.63,1.55,1.55,0,0,1-.25-.87,1.66,1.66,0,0,1,.21-.81,1.63,1.63,0,0,1,.53-.61,2.22,2.22,0,0,1,.69-.32,3.21,3.21,0,0,1,1-.13,3.67,3.67,0,0,1,1.33.22,1.81,1.81,0,0,1,.84.59,2.16,2.16,0,0,1,.38,1l-1.07.14a1.17,1.17,0,0,0-.41-.78,1.52,1.52,0,0,0-1-.28,1.81,1.81,0,0,0-1.09.25.74.74,0,0,0-.31.59.59.59,0,0,0,.13.39,1,1,0,0,0,.42.3c.1,0,.43.14,1,.28a11.28,11.28,0,0,1,1.61.52,1.59,1.59,0,0,1,.72.57,1.61,1.61,0,0,1,.26,1,1.82,1.82,0,0,1-.32,1,2,2,0,0,1-.91.75,3.28,3.28,0,0,1-1.37.27,2.91,2.91,0,0,1-1.9-.54,2.49,2.49,0,0,1-.84-1.59"/><path class="cls-3" d="M2607.86,213.67l1.11.15a2.82,2.82,0,0,1-1,1.55,3,3,0,0,1-1.83.55,2.94,2.94,0,0,1-2.24-.88,3.53,3.53,0,0,1-.83-2.47,3.64,3.64,0,0,1,.84-2.55,2.77,2.77,0,0,1,2.16-.91,2.73,2.73,0,0,1,2.1.88,3.55,3.55,0,0,1,.82,2.5v.3h-4.79a2.63,2.63,0,0,0,.59,1.66,1.84,1.84,0,0,0,1.35.57,1.63,1.63,0,0,0,1-.32,2.19,2.19,0,0,0,.68-1m-3.58-1.78h3.59a2.24,2.24,0,0,0-.41-1.24,1.66,1.66,0,0,0-1.36-.64,1.73,1.73,0,0,0-1.26.51,2.07,2.07,0,0,0-.56,1.37"/><path class="cls-3" d="M2610.35,215.78v-6.53h1v.92a2.31,2.31,0,0,1,2-1.06,2.61,2.61,0,0,1,1.06.21,1.79,1.79,0,0,1,.74.56,2.23,2.23,0,0,1,.32.82,6.3,6.3,0,0,1,.06,1.07v4h-1.07v-4a3.12,3.12,0,0,0-.13-1,1.07,1.07,0,0,0-.46-.53,1.42,1.42,0,0,0-.75-.2,1.72,1.72,0,0,0-1.2.45,2.21,2.21,0,0,0-.5,1.7v3.56Z"/><path class="cls-3" d="M2616.79,213.79l1.08-.14a1.61,1.61,0,0,0,.51,1,1.73,1.73,0,0,0,1.16.36,1.66,1.66,0,0,0,1.12-.32.94.94,0,0,0,.37-.73.66.66,0,0,0-.32-.58,4.44,4.44,0,0,0-1.12-.38,10.08,10.08,0,0,1-1.67-.53,1.59,1.59,0,0,1-.7-.63,1.63,1.63,0,0,1-.24-.87,1.65,1.65,0,0,1,.2-.81,1.83,1.83,0,0,1,.53-.61,2.34,2.34,0,0,1,.69-.32,3.26,3.26,0,0,1,.95-.13,3.69,3.69,0,0,1,1.34.22,1.81,1.81,0,0,1,.84.59,2.27,2.27,0,0,1,.38,1l-1.06.14a1.23,1.23,0,0,0-.43-.78,1.51,1.51,0,0,0-1-.28,1.79,1.79,0,0,0-1.08.25.74.74,0,0,0-.31.59.65.65,0,0,0,.12.39,1,1,0,0,0,.42.3c.11,0,.44.14,1,.28a11.53,11.53,0,0,1,1.62.52,1.59,1.59,0,0,1,.72.57,1.68,1.68,0,0,1,.26,1,2,2,0,0,1-.32,1,2,2,0,0,1-.93.75,3.19,3.19,0,0,1-1.35.27,2.94,2.94,0,0,1-1.91-.54,2.59,2.59,0,0,1-.85-1.59"/><path class="cls-3" d="M2627.83,213.67l1.11.15a2.76,2.76,0,0,1-1,1.55,3,3,0,0,1-1.84.55,2.91,2.91,0,0,1-2.22-.88,3.48,3.48,0,0,1-.83-2.47,3.6,3.6,0,0,1,.84-2.55,2.76,2.76,0,0,1,2.15-.91,2.71,2.71,0,0,1,2.1.88,3.51,3.51,0,0,1,.83,2.5,1.79,1.79,0,0,1,0,.3h-4.77a2.57,2.57,0,0,0,.59,1.66,1.81,1.81,0,0,0,1.34.57,1.71,1.71,0,0,0,1-.32,2.18,2.18,0,0,0,.67-1m-3.57-1.78h3.58a2.17,2.17,0,0,0-.41-1.24,1.64,1.64,0,0,0-1.35-.64,1.71,1.71,0,0,0-1.26.51,2,2,0,0,0-.56,1.37"/><path class="cls-3" d="M2633.37,212.51a3.42,3.42,0,0,1,1-2.68,3,3,0,0,1,2-.72,2.84,2.84,0,0,1,2.16.88,3.4,3.4,0,0,1,.84,2.43,4.34,4.34,0,0,1-.37,2,2.8,2.8,0,0,1-1.09,1.12,3,3,0,0,1-1.54.4,2.83,2.83,0,0,1-2.18-.88,3.53,3.53,0,0,1-.83-2.53m1.12,0a2.84,2.84,0,0,0,.53,1.87,1.76,1.76,0,0,0,2.7,0,2.87,2.87,0,0,0,.53-1.9,2.75,2.75,0,0,0-.53-1.84,1.78,1.78,0,0,0-2.7,0,2.82,2.82,0,0,0-.53,1.87"/><path class="cls-3" d="M2640.92,215.78v-5.67h-1v-.86h1v-.69a2.91,2.91,0,0,1,.11-1,1.4,1.4,0,0,1,.55-.7,2,2,0,0,1,1.11-.27,4.93,4.93,0,0,1,1,.12l-.17,1a3.59,3.59,0,0,0-.64,0,1,1,0,0,0-.7.21,1.12,1.12,0,0,0-.21.79v.6h1.26v.86H2642v5.67Z"/><path class="cls-3" d="M2647.54,215.78v-6.53h1v.92a2.36,2.36,0,0,1,.8-.77,2.24,2.24,0,0,1,1.15-.29,2.11,2.11,0,0,1,1.18.3,1.61,1.61,0,0,1,.65.84,2.31,2.31,0,0,1,2-1.14,2,2,0,0,1,1.49.54,2.27,2.27,0,0,1,.51,1.65v4.48h-1.08v-4.11a3.17,3.17,0,0,0-.11-1,.92.92,0,0,0-.39-.47,1.23,1.23,0,0,0-.65-.17,1.56,1.56,0,0,0-1.14.45,2.05,2.05,0,0,0-.45,1.47v3.79h-1.09v-4.24a1.92,1.92,0,0,0-.26-1.1,1,1,0,0,0-.87-.37,1.65,1.65,0,0,0-.87.24,1.41,1.41,0,0,0-.56.72,4.06,4.06,0,0,0-.17,1.36v3.39Z"/><path class="cls-3" d="M2657.46,212.51a3.36,3.36,0,0,1,1-2.68,2.94,2.94,0,0,1,2-.72,2.82,2.82,0,0,1,2.15.88,3.35,3.35,0,0,1,.84,2.43,4.34,4.34,0,0,1-.37,2,2.71,2.71,0,0,1-1.08,1.12,3.05,3.05,0,0,1-1.54.4,2.86,2.86,0,0,1-2.19-.88,3.57,3.57,0,0,1-.83-2.53m1.13,0a2.78,2.78,0,0,0,.53,1.87,1.74,1.74,0,0,0,1.36.63,1.71,1.71,0,0,0,1.33-.63,2.87,2.87,0,0,0,.54-1.9,2.75,2.75,0,0,0-.54-1.84,1.77,1.77,0,0,0-2.69,0,2.77,2.77,0,0,0-.53,1.87"/><path class="cls-3" d="M2664.75,215.78v-6.53h1v.92a2.33,2.33,0,0,1,2-1.06,2.72,2.72,0,0,1,1.07.21,1.66,1.66,0,0,1,.72.56,2.26,2.26,0,0,1,.35.82,8.1,8.1,0,0,1,.05,1.07v4h-1.08v-4a2.86,2.86,0,0,0-.13-1,1.05,1.05,0,0,0-.45-.53,1.43,1.43,0,0,0-.76-.2,1.76,1.76,0,0,0-1.2.45,2.21,2.21,0,0,0-.5,1.7v3.56Z"/><path class="cls-3" d="M2676,213.67l1.11.15a2.8,2.8,0,0,1-1,1.55,3,3,0,0,1-1.84.55,2.93,2.93,0,0,1-2.23-.88,3.48,3.48,0,0,1-.83-2.47,3.69,3.69,0,0,1,.83-2.55,2.8,2.8,0,0,1,2.17-.91,2.69,2.69,0,0,1,2.09.88,3.55,3.55,0,0,1,.82,2.5v.3h-4.78a2.57,2.57,0,0,0,.59,1.66,1.82,1.82,0,0,0,1.35.57,1.68,1.68,0,0,0,1-.32,2.18,2.18,0,0,0,.67-1m-3.58-1.78h3.6a2.51,2.51,0,0,0-.42-1.24,1.64,1.64,0,0,0-1.35-.64,1.67,1.67,0,0,0-1.25.51,2,2,0,0,0-.58,1.37"/><path class="cls-3" d="M2678.48,218.29l-.15-1a2.79,2.79,0,0,0,.64.1,1.17,1.17,0,0,0,.58-.12,1,1,0,0,0,.37-.35,6.75,6.75,0,0,0,.34-.83l.09-.26-2.46-6.55h1.16l1.36,3.77a15.71,15.71,0,0,1,.49,1.51,12.43,12.43,0,0,1,.44-1.47l1.36-3.81h1.1l-2.43,6.64a13.83,13.83,0,0,1-.62,1.48,2.26,2.26,0,0,1-.66.8,1.61,1.61,0,0,1-.91.25,2.37,2.37,0,0,1-.7-.13"/><path class="cls-3" d="M2567.44,182.51v-2.58H2560s-6.62.21-6.77,8.81c0,0,0,8,5.81,8.39h8.42v-2.49h-6.23s-5,.25-4.8-6.59c0,0,.38-5.54,5-5.54Z"/><rect class="cls-3" x="2569.81" y="173.3" width="2.97" height="3.21"/><rect class="cls-3" x="2569.82" y="179.95" width="2.97" height="17.23"/><path class="cls-3" d="M2578.16,182.44h-3.42v-2.62h3.42V173.3h2.92v6.61h5.19v2.53h-5.08v10s-.16,2.19,1.77,2.24h3.25v2.57h-4.42a3.59,3.59,0,0,1-3.63-3.85Z"/><path class="cls-3" d="M2591,179.91h-3v12.46s.08,5,6.34,5h5.36a2,2,0,0,1-2.16,2.73h-9.46v2.56h10.26s4.49.4,4.57-4.73V179.91H2600v14.87h-5.6s-3.21,0-3.45-2.89Z"/><path class="cls-3" d="M2623.42,179.75h-5.93v-6.37h-3V197.5h9.5c7.09-.84,6.57-9.05,6.57-9.05-.33-8.49-7.13-8.7-7.13-8.7m3.77,8.14c.32,6.73-5.06,6.73-5.06,6.73h-4.55V182.44h4.55a5.28,5.28,0,0,1,5.06,5.45"/><path class="cls-3" d="M2644.33,180h-10.58v2.47h9.38c3.77.25,3.36,4.46,3.36,4.46h-7.77c-5.92,0-6,4.76-6,4.76.25,5.85,5.38,5.53,5.38,5.53h11.13v-13c-.16-4.08-4.89-4.24-4.89-4.24m2,14.74h-7.74A2.54,2.54,0,0,1,2636,192s-.22-2.67,3.26-2.52h7.15Z"/><path class="cls-3" d="M2654.11,182.64v14.62h-2.81V180.2h10.26s5.05.24,4.89,4.8v12.26h-2.81v-11s.28-3.7-4.16-3.57Z"/><path class="cls-3" d="M2671.73,189.87v7.69h-3.15V173.68h3.11v13h.63l8.54-6.46h3.59l-8.2,6.95h3.58a4.07,4.07,0,0,1,4.09,4v6.19h-2.56v-4.75a2.35,2.35,0,0,0-2.46-2.72Z"/><path class="cls-17" d="M2524.45,129.7s21.39,1.34,46.33-24.94c0,0,11.59,37.86,57.91,61.91,0,0-75.73-29.84-103.34,40.54,0,0,17.81-53-.9-77.51"/><path class="cls-18" d="M2589.38,135.77c-14.19-16.65-18.6-31-18.6-31a94.77,94.77,0,0,1-20.56,16.71c3.28,4.22,8.06,10.49,13.28,17.64a101.89,101.89,0,0,1,25.88-3.34"/><path class="cls-19" d="M2550.22,121.47c-15.07,8.89-25.77,8.23-25.77,8.23,5.09,6.66,7.48,15.42,8.26,24.66a82.67,82.67,0,0,1,30.79-15.25c-5.22-7.15-10-13.42-13.28-17.64"/><path class="cls-18" d="M2532.71,154.36c2.09,24.74-7.36,52.85-7.36,52.85,14-31.56,33.7-44.14,52.18-48-4.49-6.83-9.42-13.82-14-20.14a82.75,82.75,0,0,0-30.79,15.25"/><g class="cls-20"><rect class="cls-21" x="2563.5" y="135.77" width="65.18" height="30.9"/></g><path class="cls-3" d="M2518.06,91.15l-5.74-16.55,2.18-.09,4.74,14.6,4.72-14.6,2.16.09-5.71,16.55Z"/><path class="cls-3" d="M2525.86,88.1a3.36,3.36,0,0,1,.49-1.89,3.14,3.14,0,0,1,1.44-1.17,10.3,10.3,0,0,1,2.38-.68c.95-.17,2-.3,3.3-.41V82.17a2,2,0,0,0-.71-1.67,3.32,3.32,0,0,0-2.13-.59c-.32,0-.68,0-1.08,0a10.85,10.85,0,0,0-1.24.17c-.42.08-.85.18-1.31.31l-.36-1.59a14.73,14.73,0,0,1,2.09-.48,13,13,0,0,1,2-.16,6.74,6.74,0,0,1,2.64.44A3.21,3.21,0,0,1,2535,80a4.1,4.1,0,0,1,.54,2.18v6.14a1.9,1.9,0,0,0,.22,1.1.76.76,0,0,0,.61.28,1.13,1.13,0,0,0,.3,0,2.19,2.19,0,0,0,.34-.1l.23,1.47a3.67,3.67,0,0,1-.74.29,2.8,2.8,0,0,1-.82.11,1.93,1.93,0,0,1-1.35-.45,2.15,2.15,0,0,1-.64-1.35,10.07,10.07,0,0,1-1.26.89,6.53,6.53,0,0,1-1.52.66,6.07,6.07,0,0,1-1.8.25,3.89,3.89,0,0,1-1.32-.21,2.77,2.77,0,0,1-1-.64,2.85,2.85,0,0,1-.66-1A4.09,4.09,0,0,1,2525.86,88.1Zm2-.17a2.12,2.12,0,0,0,.5,1.53,1.83,1.83,0,0,0,1.38.51,4.77,4.77,0,0,0,1.33-.2,6.68,6.68,0,0,0,1.29-.57,5.28,5.28,0,0,0,1.1-.87v-3.2c-.82.08-1.58.18-2.28.29a8.46,8.46,0,0,0-1.79.46,2.69,2.69,0,0,0-1.13.79A2,2,0,0,0,2527.87,87.93Z"/><path class="cls-3" d="M2540.63,78.44V80a9.2,9.2,0,0,1,1.34-1,5.06,5.06,0,0,1,1.26-.58,4.48,4.48,0,0,1,1.34-.19,6.16,6.16,0,0,1,.95.07c.31,0,.6.1.87.16l-.33,1.83-.89-.17a6.77,6.77,0,0,0-.86-.07,4.4,4.4,0,0,0-1.7.36,6.42,6.42,0,0,0-1.81,1.21v9.55h-2V78.44Z"/><path class="cls-3" d="M2548.93,75.88a1.51,1.51,0,0,1-.93-.23,1,1,0,0,1-.28-.83A1.12,1.12,0,0,1,2548,74a2.06,2.06,0,0,1,1.89,0,1.16,1.16,0,0,1,.26.86,1.11,1.11,0,0,1-.26.83A1.5,1.5,0,0,1,2548.93,75.88Zm-1,15.27V78.44h2V91.15Z"/><path class="cls-3" d="M2553.91,91.15V80.53h-2v-1.3l2-.22v-.23a6.91,6.91,0,0,1,.58-3,3.92,3.92,0,0,1,1.74-1.79,6.32,6.32,0,0,1,2.85-.59,9.6,9.6,0,0,1,1.16.07c.41,0,.84.12,1.28.2a5.82,5.82,0,0,1,1.28.42l-.47,1.44a6.73,6.73,0,0,0-.8-.23c-.27-.07-.54-.12-.8-.17s-.52-.08-.77-.11l-.74,0a3.22,3.22,0,0,0-2.54,1,4.43,4.43,0,0,0-.83,3V79h6.57V91.15h-2V80.53h-4.6V91.15Z"/><path class="cls-3" d="M2570.34,91.39A7.21,7.21,0,0,1,2568,91a4.12,4.12,0,0,1-1.72-1.12,5,5,0,0,1-1.08-1.94,9.5,9.5,0,0,1-.38-2.85,10,10,0,0,1,.46-3.26,5.56,5.56,0,0,1,1.25-2.14,4.53,4.53,0,0,1,1.86-1.17,7.47,7.47,0,0,1,2.29-.35,4.69,4.69,0,0,1,3.62,1.29,6.09,6.09,0,0,1,1.19,4.18c0,.1,0,.24,0,.42s0,.34,0,.49l-1.36.1-2,.14c-.75.06-1.56.1-2.45.12s-1.81,0-2.79.06a1,1,0,0,0,0,.25v.25a6,6,0,0,0,.44,2.48,2.81,2.81,0,0,0,1.27,1.36,4.39,4.39,0,0,0,2.06.43,11.23,11.23,0,0,0,1.53-.1c.52-.06,1-.13,1.52-.22s.94-.18,1.34-.27l.26,1.49a13.43,13.43,0,0,1-1.43.37c-.53.1-1.09.18-1.69.25A18.4,18.4,0,0,1,2570.34,91.39ZM2567,83.66c.76,0,1.49,0,2.19,0l1.94-.08c.58,0,1.08,0,1.5-.08s.73-.07.91-.1a6.2,6.2,0,0,0-.33-2.12,2.18,2.18,0,0,0-1-1.19,3.29,3.29,0,0,0-1.62-.36,4.12,4.12,0,0,0-1.21.18,2.75,2.75,0,0,0-1.09.61,3.85,3.85,0,0,0-.87,1.21A5.66,5.66,0,0,0,2567,83.66Z"/><path class="cls-3" d="M2585.78,91.18l-.24-1.14a9.81,9.81,0,0,1-2.06,1,6.32,6.32,0,0,1-2,.33,3.64,3.64,0,0,1-3.17-1.62,8.23,8.23,0,0,1-1.12-4.69,10.5,10.5,0,0,1,.61-3.9,4.44,4.44,0,0,1,1.9-2.24,6.34,6.34,0,0,1,3.2-.73c.43,0,.86,0,1.3.06a9.38,9.38,0,0,1,1.36.22V73.61h2V91.18Zm-.26-2.63V80a13.53,13.53,0,0,0-1.36-.24c-.41,0-.79-.07-1.13-.07a4.17,4.17,0,0,0-2.15.51,2.94,2.94,0,0,0-1.26,1.66,9.84,9.84,0,0,0-.39,3.07,8.63,8.63,0,0,0,.35,2.63,3.33,3.33,0,0,0,1,1.6,2.4,2.4,0,0,0,1.58.54,4.81,4.81,0,0,0,1.07-.12,6.1,6.1,0,0,0,1.08-.38C2584.67,89,2585.07,88.81,2585.52,88.55Z"/><path class="cls-3" d="M2596.83,90.82V73.61h2v6a8.09,8.09,0,0,1,2.06-1,6.41,6.41,0,0,1,2-.32,3.6,3.6,0,0,1,3.16,1.61,8.13,8.13,0,0,1,1.11,4.62,10.85,10.85,0,0,1-.62,4,4.26,4.26,0,0,1-1.93,2.23,7,7,0,0,1-3.34.71,17,17,0,0,1-2.06-.14C2598.49,91.15,2597.7,91,2596.83,90.82Zm2-1.21c.5.1.95.17,1.35.23a8.92,8.92,0,0,0,1.11.08,4,4,0,0,0,2.17-.52,3.12,3.12,0,0,0,1.26-1.68,9.49,9.49,0,0,0,.42-3.13,8.32,8.32,0,0,0-.34-2.6,3.23,3.23,0,0,0-1-1.57,2.48,2.48,0,0,0-1.59-.53,4.86,4.86,0,0,0-1.09.12,5,5,0,0,0-1.08.38,9.33,9.33,0,0,0-1.22.69Z"/><path class="cls-3" d="M2611.5,96.09l1.62-4.94h-.38l-4.89-12.68,2.16-.12,3.91,11,3.42-11,2,.12-5.83,17.73Z"/><rect class="cls-2" x="1652.67" y="243.24" width="398.59" height="29.74"/><path class="cls-3" d="M1688.47,264.58l6.18-18.21h2.5l6.21,18.21h-2.45l-1.55-4.67h-7l-1.54,4.67Zm4.33-6.52h6.13l-3.07-9.56Z"/><path class="cls-3" d="M1707,245.52v15.24a3.79,3.79,0,0,0,.19,1.38,1.08,1.08,0,0,0,.54.63,1.79,1.79,0,0,0,.76.16,4.13,4.13,0,0,0,.58-.05c.22,0,.45-.09.71-.16l.23,1.68a4.9,4.9,0,0,1-1,.32,5.07,5.07,0,0,1-1.1.11,3.75,3.75,0,0,1-1.64-.33,2.34,2.34,0,0,1-1.07-1.19,5.87,5.87,0,0,1-.38-2.39v-15.4Z"/><path class="cls-3" d="M1713.63,245.52v15.24a3.76,3.76,0,0,0,.2,1.38,1.08,1.08,0,0,0,.54.63,1.73,1.73,0,0,0,.76.16,4.4,4.4,0,0,0,.58-.05c.21,0,.45-.09.71-.16l.23,1.68a5,5,0,0,1-2.09.43,3.7,3.7,0,0,1-1.63-.33,2.25,2.25,0,0,1-1.07-1.19,5.85,5.85,0,0,1-.39-2.39v-15.4Z"/><path class="cls-3" d="M1727.31,245.52v15.24a4,4,0,0,0,.19,1.38,1.08,1.08,0,0,0,.54.63,1.8,1.8,0,0,0,.77.16,4.13,4.13,0,0,0,.57-.05c.22,0,.46-.09.71-.16l.23,1.68a5,5,0,0,1-1,.32,5.1,5.1,0,0,1-1.11.11,3.75,3.75,0,0,1-1.64-.33,2.34,2.34,0,0,1-1.07-1.19,6,6,0,0,1-.38-2.39v-15.4Z"/><path class="cls-3" d="M1731.07,257.65a14.17,14.17,0,0,1,.32-3.2,5.68,5.68,0,0,1,1-2.2,4.29,4.29,0,0,1,1.86-1.3,9.48,9.48,0,0,1,5.71,0,4.32,4.32,0,0,1,1.87,1.3,5.42,5.42,0,0,1,1,2.2,13.61,13.61,0,0,1,.32,3.2,13.23,13.23,0,0,1-.34,3.23,5.87,5.87,0,0,1-1.07,2.23,4.33,4.33,0,0,1-1.87,1.3,8.15,8.15,0,0,1-2.79.42,8,8,0,0,1-2.77-.42,4.27,4.27,0,0,1-1.87-1.3,5.72,5.72,0,0,1-1.07-2.23A13.19,13.19,0,0,1,1731.07,257.65Zm2.22,0a10.51,10.51,0,0,0,.4,3.24,3,3,0,0,0,1.25,1.74,4.08,4.08,0,0,0,2.19.53,4.18,4.18,0,0,0,2.21-.53,3.07,3.07,0,0,0,1.25-1.74,10.51,10.51,0,0,0,.4-3.24,11.49,11.49,0,0,0-.37-3.21,3,3,0,0,0-1.22-1.72,4.12,4.12,0,0,0-2.27-.53,4.17,4.17,0,0,0-2.27.53,2.88,2.88,0,0,0-1.21,1.72A11.54,11.54,0,0,0,1733.29,257.65Z"/><path class="cls-3" d="M1745.11,257.88a9.74,9.74,0,0,1,.76-4.13,5.16,5.16,0,0,1,2.2-2.44,7.22,7.22,0,0,1,3.53-.8,13.77,13.77,0,0,1,1.42.07c.48,0,1,.1,1.41.16a8.22,8.22,0,0,1,1.27.29l-.31,1.83a10.24,10.24,0,0,0-1.2-.25c-.4-.06-.81-.11-1.22-.14s-.81-.05-1.19-.05a4.68,4.68,0,0,0-2.41.58,3.58,3.58,0,0,0-1.5,1.79,7.84,7.84,0,0,0-.52,3.09,6.75,6.75,0,0,0,.52,2.85,3.55,3.55,0,0,0,1.5,1.67,4.88,4.88,0,0,0,2.41.55c.41,0,.83,0,1.26-.05a11.57,11.57,0,0,0,1.3-.17c.44-.07.86-.15,1.25-.24l.36,1.75a16.84,16.84,0,0,1-2.2.43,18.06,18.06,0,0,1-2.38.16,6.08,6.08,0,0,1-4.68-1.7Q1745.12,261.44,1745.11,257.88Z"/><path class="cls-3" d="M1757.22,261.25a3.68,3.68,0,0,1,.52-2,3.58,3.58,0,0,1,1.58-1.28,11,11,0,0,1,2.58-.73c1-.18,2.23-.33,3.58-.45v-1.94a2.18,2.18,0,0,0-.77-1.81,3.61,3.61,0,0,0-2.32-.63c-.34,0-.73,0-1.17,0a10.74,10.74,0,0,0-1.34.18c-.45.09-.93.2-1.43.33l-.38-1.72a15.45,15.45,0,0,1,2.26-.52,14.3,14.3,0,0,1,2.17-.18,7.48,7.48,0,0,1,2.87.48,3.5,3.5,0,0,1,1.72,1.43,4.43,4.43,0,0,1,.58,2.37v6.67a2.08,2.08,0,0,0,.25,1.19.8.8,0,0,0,.66.3l.33,0a2.53,2.53,0,0,0,.36-.12l.26,1.6a4.71,4.71,0,0,1-.81.32,3.29,3.29,0,0,1-.89.11,2.13,2.13,0,0,1-1.47-.48,2.42,2.42,0,0,1-.69-1.47,11.87,11.87,0,0,1-1.37,1,7.23,7.23,0,0,1-1.65.72,6.78,6.78,0,0,1-2,.27,4,4,0,0,1-1.43-.23,2.9,2.9,0,0,1-1.09-.69,3.11,3.11,0,0,1-.71-1.12A4.49,4.49,0,0,1,1757.22,261.25Zm2.19-.18a2.27,2.27,0,0,0,.54,1.66,2,2,0,0,0,1.49.56,4.8,4.8,0,0,0,1.44-.22,6.73,6.73,0,0,0,1.41-.62,5.25,5.25,0,0,0,1.19-.94V258c-.89.09-1.71.19-2.47.31a8.92,8.92,0,0,0-1.94.51,2.84,2.84,0,0,0-1.24.86A2.14,2.14,0,0,0,1759.41,261.07Z"/><path class="cls-3" d="M1773.29,245.52v15.24a3.79,3.79,0,0,0,.19,1.38,1.08,1.08,0,0,0,.54.63,1.79,1.79,0,0,0,.76.16,4.13,4.13,0,0,0,.58-.05c.22,0,.45-.09.71-.16l.23,1.68a4.9,4.9,0,0,1-1,.32,5.07,5.07,0,0,1-1.1.11,3.75,3.75,0,0,1-1.64-.33,2.34,2.34,0,0,1-1.07-1.19,5.87,5.87,0,0,1-.38-2.39v-15.4Z"/><path class="cls-3" d="M1790.34,264.83a6.82,6.82,0,0,1-4.58-1.41,4.69,4.69,0,0,1-1.65-3.74,5.49,5.49,0,0,1,.89-3.17,6.9,6.9,0,0,1,2.66-2.21l1.06,1.21a5.77,5.77,0,0,0-1.88,1.67,4.09,4.09,0,0,0-.62,2.3,3.51,3.51,0,0,0,.53,1.93,3.42,3.42,0,0,0,1.5,1.27,6.27,6.27,0,0,0,4.74,0,4.39,4.39,0,0,0,1.65-1.4l1.08,1.32a6.11,6.11,0,0,1-1.48,1.25,7.29,7.29,0,0,1-1.81.76A8.31,8.31,0,0,1,1790.34,264.83Zm7.24,0-9.89-9.94a8.93,8.93,0,0,1-1-1.38,6.77,6.77,0,0,1-.58-1.38,5.65,5.65,0,0,1-.19-1.42,4.83,4.83,0,0,1,.55-2.35,3.58,3.58,0,0,1,1.72-1.52,7,7,0,0,1,2.93-.53,5.65,5.65,0,0,1,3.65,1,3.56,3.56,0,0,1,1.22,2.91,4.86,4.86,0,0,1-.27,1.66,4,4,0,0,1-.82,1.38,4.89,4.89,0,0,1-1.48,1.08l-.91-1a3.21,3.21,0,0,0,1.14-1.15,3.28,3.28,0,0,0,.36-1.61,2.76,2.76,0,0,0-.31-1.36,2,2,0,0,0-.94-.86,3.68,3.68,0,0,0-1.58-.3,3.32,3.32,0,0,0-2.28.68,2.49,2.49,0,0,0-.76,1.95,3.58,3.58,0,0,0,.14,1,3.48,3.48,0,0,0,.49,1,8.29,8.29,0,0,0,.91,1.16L1800,264.58Zm-.64-3.09-1.32-1.52a5.78,5.78,0,0,0,.79-1.72,7.83,7.83,0,0,0,.27-2.12q0-.36,0-.66a4.19,4.19,0,0,0-.11-.63l1.78,0a6.18,6.18,0,0,1,.12.67c0,.24,0,.51,0,.8a9.3,9.3,0,0,1-.42,2.82A8.94,8.94,0,0,1,1796.94,261.72Z"/><path class="cls-3" d="M1809.71,248a1.56,1.56,0,0,1-1-.26,1.1,1.1,0,0,1-.31-.9,1.22,1.22,0,0,1,.29-.93,1.58,1.58,0,0,1,1-.26,1.56,1.56,0,0,1,1,.26,1.22,1.22,0,0,1,.28.93,1.17,1.17,0,0,1-.28.9A1.56,1.56,0,0,1,1809.71,248Zm-1.08,16.59V250.77h2.16v13.81Z"/><path class="cls-3" d="M1814,264.58V250.77h2V252a13.23,13.23,0,0,1,1.66-.81,8.46,8.46,0,0,1,1.58-.49,8.37,8.37,0,0,1,1.7-.17,4.58,4.58,0,0,1,2.11.44,3,3,0,0,1,1.3,1.28,4.24,4.24,0,0,1,.46,2v10.31h-2.19v-9.69A2.67,2.67,0,0,0,1822,253a2.5,2.5,0,0,0-1.91-.66,6.55,6.55,0,0,0-1.34.14,7.56,7.56,0,0,0-1.27.42c-.42.18-.85.38-1.28.6v11.08Z"/><path class="cls-3" d="M1832.71,264.83a4.16,4.16,0,0,1-2.08-.47,2.78,2.78,0,0,1-1.25-1.46,6.26,6.26,0,0,1-.4-2.39v-8.12h-2.37V251l2.37-.21.28-3.27h1.88v3.27h4.61v1.6h-4.61v8a3.13,3.13,0,0,0,.53,2,2.12,2.12,0,0,0,1.74.64,6.24,6.24,0,0,0,1.22-.13c.41-.09.82-.2,1.25-.34l.31,1.68a9.86,9.86,0,0,1-1.83.47A10,10,0,0,1,1832.71,264.83Z"/><path class="cls-3" d="M1843,264.83a7.58,7.58,0,0,1-2.52-.38,4.56,4.56,0,0,1-1.87-1.21,5.79,5.79,0,0,1-1.17-2.11,10.4,10.4,0,0,1-.41-3.1,11.06,11.06,0,0,1,.5-3.54,6.39,6.39,0,0,1,1.35-2.33,5,5,0,0,1,2-1.26,7.81,7.81,0,0,1,2.48-.39,5.08,5.08,0,0,1,3.94,1.41c.86.93,1.29,2.45,1.29,4.54,0,.11,0,.26,0,.45s0,.38,0,.53c-.36,0-.85.08-1.46.12l-2.14.15c-.81.06-1.69.1-2.66.13s-2,.05-3,.06a1.27,1.27,0,0,0,0,.28v.27a6.38,6.38,0,0,0,.48,2.69,3,3,0,0,0,1.37,1.48,4.9,4.9,0,0,0,2.25.46,13.44,13.44,0,0,0,1.66-.1c.55-.07,1.1-.15,1.65-.25s1-.19,1.45-.29l.28,1.62a11.25,11.25,0,0,1-1.55.4q-.87.17-1.83.27A18.9,18.9,0,0,1,1843,264.83Zm-3.68-8.39c.83,0,1.62,0,2.38-.05l2.1-.09,1.64-.09c.45,0,.78-.07,1-.11a7.15,7.15,0,0,0-.36-2.3,2.31,2.31,0,0,0-1-1.29,3.54,3.54,0,0,0-1.77-.4,4.51,4.51,0,0,0-1.31.19,3.15,3.15,0,0,0-1.19.67,4.14,4.14,0,0,0-.94,1.32A6.24,6.24,0,0,0,1839.28,256.44Z"/><path class="cls-3" d="M1853,250.77v1.73a9.54,9.54,0,0,1,1.45-1.15,6,6,0,0,1,1.37-.63,4.89,4.89,0,0,1,1.45-.21,7,7,0,0,1,1,.08c.35,0,.66.11,1,.18l-.37,2c-.3-.06-.63-.13-1-.18a6.41,6.41,0,0,0-.94-.07,4.74,4.74,0,0,0-1.84.38,6.92,6.92,0,0,0-2,1.32v10.38h-2.17V250.77Z"/><path class="cls-3" d="M1861,264.58V250.77h2V252a14.72,14.72,0,0,1,1.66-.81,8.8,8.8,0,0,1,1.59-.49,8.37,8.37,0,0,1,1.7-.17,4.61,4.61,0,0,1,2.11.44,3,3,0,0,1,1.3,1.28,4.24,4.24,0,0,1,.45,2v10.31h-2.19v-9.69A2.63,2.63,0,0,0,1869,253a2.48,2.48,0,0,0-1.9-.66,6.55,6.55,0,0,0-1.34.14,7.66,7.66,0,0,0-1.28.42c-.42.18-.84.38-1.27.6v11.08Z"/><path class="cls-3" d="M1873.93,261.25a3.68,3.68,0,0,1,.52-2,3.58,3.58,0,0,1,1.58-1.28,11,11,0,0,1,2.58-.73c1-.18,2.23-.33,3.58-.45v-1.94a2.18,2.18,0,0,0-.77-1.81,3.61,3.61,0,0,0-2.32-.63c-.34,0-.73,0-1.17,0a10.74,10.74,0,0,0-1.34.18c-.45.09-.93.2-1.43.33l-.38-1.72a15.45,15.45,0,0,1,2.26-.52,14.3,14.3,0,0,1,2.17-.18,7.48,7.48,0,0,1,2.87.48,3.5,3.5,0,0,1,1.72,1.43,4.43,4.43,0,0,1,.58,2.37v6.67a2.08,2.08,0,0,0,.25,1.19.8.8,0,0,0,.66.3l.33,0,.36-.12.26,1.6a4.71,4.71,0,0,1-.81.32,3.29,3.29,0,0,1-.89.11,2.13,2.13,0,0,1-1.47-.48,2.42,2.42,0,0,1-.69-1.47,11.87,11.87,0,0,1-1.37,1,7.23,7.23,0,0,1-1.65.72,6.78,6.78,0,0,1-2,.27,4,4,0,0,1-1.43-.23,2.9,2.9,0,0,1-1.09-.69,3.11,3.11,0,0,1-.71-1.12A4.49,4.49,0,0,1,1873.93,261.25Zm2.19-.18a2.27,2.27,0,0,0,.54,1.66,2,2,0,0,0,1.49.56,4.8,4.8,0,0,0,1.44-.22,6.73,6.73,0,0,0,1.41-.62,5.25,5.25,0,0,0,1.19-.94V258c-.89.09-1.71.19-2.47.31a8.92,8.92,0,0,0-1.94.51,2.84,2.84,0,0,0-1.24.86A2.14,2.14,0,0,0,1876.12,261.07Z"/><path class="cls-3" d="M1892.24,264.83a4.22,4.22,0,0,1-2.09-.47,2.87,2.87,0,0,1-1.25-1.46,6.45,6.45,0,0,1-.4-2.39v-8.12h-2.37V251l2.37-.21.29-3.27h1.88v3.27h4.61v1.6h-4.61v8a3.07,3.07,0,0,0,.53,2,2.12,2.12,0,0,0,1.74.64,6.32,6.32,0,0,0,1.22-.13c.4-.09.82-.2,1.25-.34l.31,1.68a9.86,9.86,0,0,1-1.83.47A10,10,0,0,1,1892.24,264.83Z"/><path class="cls-3" d="M1898.6,248a1.56,1.56,0,0,1-1-.26,1.1,1.1,0,0,1-.31-.9,1.22,1.22,0,0,1,.29-.93,1.58,1.58,0,0,1,1-.26,1.56,1.56,0,0,1,1,.26,1.22,1.22,0,0,1,.29.93,1.17,1.17,0,0,1-.29.9A1.56,1.56,0,0,1,1898.6,248Zm-1.08,16.59V250.77h2.16v13.81Z"/><path class="cls-3" d="M1902.26,257.65a14.17,14.17,0,0,1,.32-3.2,5.54,5.54,0,0,1,1-2.2,4.26,4.26,0,0,1,1.85-1.3,9.52,9.52,0,0,1,5.72,0,4.38,4.38,0,0,1,1.87,1.3,5.55,5.55,0,0,1,1,2.2,14.17,14.17,0,0,1,.32,3.2,12.72,12.72,0,0,1-.35,3.23,5.59,5.59,0,0,1-1.07,2.23,4.3,4.3,0,0,1-1.86,1.3,8.22,8.22,0,0,1-2.8.42,8.11,8.11,0,0,1-2.77-.42,4.3,4.3,0,0,1-1.86-1.3,5.59,5.59,0,0,1-1.07-2.23A13.19,13.19,0,0,1,1902.26,257.65Zm2.21,0a10.83,10.83,0,0,0,.4,3.24,3.12,3.12,0,0,0,1.25,1.74,4.13,4.13,0,0,0,2.19.53,4.19,4.19,0,0,0,2.22-.53,3.12,3.12,0,0,0,1.25-1.74,10.83,10.83,0,0,0,.4-3.24,11.08,11.08,0,0,0-.38-3.21,3,3,0,0,0-1.21-1.72,5.13,5.13,0,0,0-4.54,0,2.88,2.88,0,0,0-1.21,1.72A11.12,11.12,0,0,0,1904.47,257.65Z"/><path class="cls-3" d="M1916.94,264.58V250.77h2V252a14,14,0,0,1,1.67-.81,8.46,8.46,0,0,1,1.58-.49,8.37,8.37,0,0,1,1.7-.17,4.58,4.58,0,0,1,2.11.44,3,3,0,0,1,1.3,1.28,4.24,4.24,0,0,1,.45,2v10.31h-2.19v-9.69a2.67,2.67,0,0,0-.61-1.89,2.51,2.51,0,0,0-1.91-.66,6.55,6.55,0,0,0-1.34.14,7.56,7.56,0,0,0-1.27.42c-.43.18-.85.38-1.28.6v11.08Z"/><path class="cls-3" d="M1929.9,261.25a3.6,3.6,0,0,1,.53-2,3.49,3.49,0,0,1,1.57-1.28,11.07,11.07,0,0,1,2.59-.73c1-.18,2.22-.33,3.58-.45v-1.94a2.19,2.19,0,0,0-.78-1.81,3.58,3.58,0,0,0-2.31-.63c-.35,0-.74,0-1.18,0a11,11,0,0,0-1.34.18c-.45.09-.93.2-1.43.33l-.38-1.72a15.76,15.76,0,0,1,2.26-.52,14.3,14.3,0,0,1,2.17-.18,7.45,7.45,0,0,1,2.87.48,3.57,3.57,0,0,1,1.73,1.43,4.52,4.52,0,0,1,.58,2.37v6.67a2.09,2.09,0,0,0,.24,1.19.8.8,0,0,0,.66.3l.33,0,.36-.12.26,1.6a4.71,4.71,0,0,1-.81.32,3.24,3.24,0,0,1-.89.11,2.13,2.13,0,0,1-1.47-.48,2.42,2.42,0,0,1-.69-1.47,11.87,11.87,0,0,1-1.37,1,7.23,7.23,0,0,1-1.65.72,6.76,6.76,0,0,1-1.95.27,4,4,0,0,1-1.43-.23,2.86,2.86,0,0,1-1.1-.69,3.25,3.25,0,0,1-.71-1.12A4.49,4.49,0,0,1,1929.9,261.25Zm2.19-.18a2.27,2.27,0,0,0,.54,1.66,2,2,0,0,0,1.49.56,4.8,4.8,0,0,0,1.44-.22,6.73,6.73,0,0,0,1.41-.62,5.54,5.54,0,0,0,1.2-.94V258c-.9.09-1.72.19-2.48.31a8.92,8.92,0,0,0-1.94.51,2.9,2.9,0,0,0-1.24.86A2.14,2.14,0,0,0,1932.09,261.07Z"/><path class="cls-3" d="M1946,245.52v15.24a4,4,0,0,0,.19,1.38,1.06,1.06,0,0,0,.55.63,1.73,1.73,0,0,0,.76.16,4.13,4.13,0,0,0,.57-.05c.22,0,.46-.09.71-.16l.23,1.68a5,5,0,0,1-1,.32,5.1,5.1,0,0,1-1.11.11,3.75,3.75,0,0,1-1.64-.33,2.34,2.34,0,0,1-1.07-1.19,6,6,0,0,1-.38-2.39v-15.4Z"/><path class="cls-3" d="M1956.84,257.88a9.74,9.74,0,0,1,.76-4.13,5.16,5.16,0,0,1,2.2-2.44,7.22,7.22,0,0,1,3.53-.8,13.63,13.63,0,0,1,1.42.07c.48,0,1,.1,1.42.16a8.36,8.36,0,0,1,1.26.29l-.31,1.83a10.24,10.24,0,0,0-1.2-.25c-.4-.06-.81-.11-1.22-.14s-.81-.05-1.19-.05a4.68,4.68,0,0,0-2.41.58,3.58,3.58,0,0,0-1.5,1.79,7.84,7.84,0,0,0-.52,3.09,6.75,6.75,0,0,0,.52,2.85,3.55,3.55,0,0,0,1.5,1.67,4.88,4.88,0,0,0,2.41.55c.41,0,.83,0,1.26-.05a12.05,12.05,0,0,0,1.31-.17c.43-.07.85-.15,1.24-.24l.37,1.75a17.35,17.35,0,0,1-2.21.43,18.06,18.06,0,0,1-2.38.16,6.08,6.08,0,0,1-4.68-1.7Q1956.84,261.44,1956.84,257.88Z"/><path class="cls-3" d="M1969,261.25a3.6,3.6,0,0,1,.53-2,3.49,3.49,0,0,1,1.57-1.28,11.07,11.07,0,0,1,2.59-.73c1-.18,2.22-.33,3.58-.45v-1.94a2.19,2.19,0,0,0-.78-1.81,3.61,3.61,0,0,0-2.32-.63c-.34,0-.73,0-1.17,0a10.74,10.74,0,0,0-1.34.18c-.45.09-.93.2-1.43.33l-.38-1.72a15.76,15.76,0,0,1,2.26-.52,14.3,14.3,0,0,1,2.17-.18,7.45,7.45,0,0,1,2.87.48,3.57,3.57,0,0,1,1.73,1.43,4.52,4.52,0,0,1,.57,2.37v6.67a2.08,2.08,0,0,0,.25,1.19.8.8,0,0,0,.66.3l.33,0a2.53,2.53,0,0,0,.36-.12l.26,1.6a4.71,4.71,0,0,1-.81.32,3.24,3.24,0,0,1-.89.11,2.13,2.13,0,0,1-1.47-.48,2.42,2.42,0,0,1-.69-1.47,11.87,11.87,0,0,1-1.37,1,7.23,7.23,0,0,1-1.65.72,6.78,6.78,0,0,1-2,.27,4,4,0,0,1-1.43-.23,2.9,2.9,0,0,1-1.09-.69,3.25,3.25,0,0,1-.71-1.12A4.49,4.49,0,0,1,1969,261.25Zm2.19-.18a2.27,2.27,0,0,0,.54,1.66,2,2,0,0,0,1.49.56,4.8,4.8,0,0,0,1.44-.22,6.73,6.73,0,0,0,1.41-.62,5.54,5.54,0,0,0,1.2-.94V258c-.9.09-1.72.19-2.48.31a8.92,8.92,0,0,0-1.94.51,2.84,2.84,0,0,0-1.24.86A2.14,2.14,0,0,0,1971.14,261.07Z"/><path class="cls-3" d="M1985,250.77v1.73a9.57,9.57,0,0,1,1.46-1.15,5.91,5.91,0,0,1,1.36-.63,5,5,0,0,1,1.46-.21,7.15,7.15,0,0,1,1,.08c.34,0,.66.11,1,.18l-.36,2c-.31-.06-.63-.13-1-.18a6.41,6.41,0,0,0-.94-.07,4.79,4.79,0,0,0-1.85.38,7.21,7.21,0,0,0-2,1.32v10.38H1983V250.77Z"/><path class="cls-3" d="M2000.84,264.6l-.26-1.23a11.24,11.24,0,0,1-2.24,1.1,6.89,6.89,0,0,1-2.22.36,3.94,3.94,0,0,1-3.44-1.76,8.94,8.94,0,0,1-1.22-5.09,11.22,11.22,0,0,1,.67-4.23,4.76,4.76,0,0,1,2.06-2.44,6.94,6.94,0,0,1,3.48-.8,13.58,13.58,0,0,1,1.41.07,9.78,9.78,0,0,1,1.47.24v-5.3h2.17V264.6Zm-.29-2.86v-9.27a13.49,13.49,0,0,0-1.47-.26,11,11,0,0,0-1.23-.07,4.49,4.49,0,0,0-2.33.55,3.16,3.16,0,0,0-1.37,1.8,10.83,10.83,0,0,0-.42,3.34,9.46,9.46,0,0,0,.37,2.86,3.66,3.66,0,0,0,1.08,1.74,2.64,2.64,0,0,0,1.71.58,5.5,5.5,0,0,0,1.16-.13,6.22,6.22,0,0,0,1.18-.42A11.21,11.21,0,0,0,2000.55,261.74Z"/><path class="cls-3" d="M2004.9,264l.34-1.62a7,7,0,0,0,1,.32c.36.09.75.18,1.15.24s.81.12,1.22.15l1.19,0a4.62,4.62,0,0,0,2.43-.52A1.76,1.76,0,0,0,2013,261a1.72,1.72,0,0,0-.25-.94,2.2,2.2,0,0,0-.7-.69,5.47,5.47,0,0,0-1.16-.54c-.47-.17-1-.33-1.65-.51a7.61,7.61,0,0,1-1.61-.54,4.7,4.7,0,0,1-1.26-.81,3.09,3.09,0,0,1-.8-1.11,3.64,3.64,0,0,1-.27-1.45,3.47,3.47,0,0,1,1.3-2.89,6.14,6.14,0,0,1,3.85-1,13.87,13.87,0,0,1,1.47.08,10.67,10.67,0,0,1,1.32.23,9.45,9.45,0,0,1,1.12.34l-.31,1.65c-.34-.11-.69-.2-1-.29a11.77,11.77,0,0,0-1.19-.2,10.11,10.11,0,0,0-1.39-.08,4,4,0,0,0-2.28.54,1.7,1.7,0,0,0-.78,1.47,1.63,1.63,0,0,0,.25.94,2.1,2.1,0,0,0,.74.63,8.39,8.39,0,0,0,1.11.48c.42.14.88.28,1.37.42.67.19,1.27.39,1.78.59a5.13,5.13,0,0,1,1.34.78,2.89,2.89,0,0,1,.86,1.13,4,4,0,0,1,.3,1.62,4.25,4.25,0,0,1-.24,1.48,3,3,0,0,1-.75,1.12,4.72,4.72,0,0,1-1.16.78,6.26,6.26,0,0,1-1.48.46,9.93,9.93,0,0,1-1.78.15,14.5,14.5,0,0,1-1.74-.1q-.86-.11-1.65-.27A7.26,7.26,0,0,1,2004.9,264Z"/><rect class="cls-2" x="1246.46" y="12.49" width="224.71" height="29.74"/><path class="cls-3" d="M1272.61,33.83l6.18-18.21h2.5l6.2,18.21h-2.44l-1.55-4.66h-7l-1.55,4.66Zm4.32-6.52h6.13L1280,17.76Z"/><path class="cls-3" d="M1288.4,27.13a9.77,9.77,0,0,1,.76-4.13,5.13,5.13,0,0,1,2.2-2.43,7.11,7.11,0,0,1,3.53-.8q.69,0,1.41.06c.48,0,1,.1,1.42.17a8.12,8.12,0,0,1,1.26.28l-.31,1.83a11.93,11.93,0,0,0-1.19-.24c-.41-.06-.81-.11-1.23-.14s-.8-.06-1.18-.06a4.75,4.75,0,0,0-2.41.58,3.74,3.74,0,0,0-1.51,1.79,8,8,0,0,0-.51,3.09,6.89,6.89,0,0,0,.51,2.85,3.53,3.53,0,0,0,1.51,1.67,4.85,4.85,0,0,0,2.41.56c.41,0,.83,0,1.26-.05s.86-.09,1.3-.17l1.25-.24.36,1.75a17.29,17.29,0,0,1-2.2.42,18.25,18.25,0,0,1-2.38.17,6.11,6.11,0,0,1-4.68-1.7C1288.92,31.26,1288.4,29.5,1288.4,27.13Z"/><path class="cls-3" d="M1300.53,27.13a9.77,9.77,0,0,1,.76-4.13,5.13,5.13,0,0,1,2.2-2.43,7.11,7.11,0,0,1,3.53-.8c.46,0,.94,0,1.42.06s1,.1,1.41.17a8.26,8.26,0,0,1,1.27.28l-.31,1.83q-.6-.15-1.2-.24c-.4-.06-.81-.11-1.22-.14s-.81-.06-1.19-.06a4.78,4.78,0,0,0-2.41.58,3.74,3.74,0,0,0-1.51,1.79,8,8,0,0,0-.51,3.09,6.89,6.89,0,0,0,.51,2.85,3.53,3.53,0,0,0,1.51,1.67,4.88,4.88,0,0,0,2.41.56c.41,0,.83,0,1.26-.05s.87-.09,1.3-.17l1.25-.24.36,1.75a17.29,17.29,0,0,1-2.2.42,18.25,18.25,0,0,1-2.38.17,6.11,6.11,0,0,1-4.68-1.7C1301.06,31.26,1300.53,29.5,1300.53,27.13Z"/><path class="cls-3" d="M1318.64,34.09a7.6,7.6,0,0,1-2.53-.39,4.46,4.46,0,0,1-1.87-1.21,5.71,5.71,0,0,1-1.17-2.11,10.37,10.37,0,0,1-.41-3.09,11.06,11.06,0,0,1,.5-3.54,6.19,6.19,0,0,1,1.36-2.33,4.86,4.86,0,0,1,2-1.27,8.09,8.09,0,0,1,2.48-.38,5.1,5.1,0,0,1,3.94,1.4c.86.94,1.29,2.45,1.29,4.55,0,.1,0,.25,0,.45s0,.37,0,.53l-1.47.11-2.14.16c-.81.06-1.69.1-2.65.13l-3,.06a1.24,1.24,0,0,0,0,.27v.27a6.35,6.35,0,0,0,.48,2.69,3,3,0,0,0,1.38,1.48,4.83,4.83,0,0,0,2.24.47,13.35,13.35,0,0,0,1.66-.11c.56-.06,1.11-.15,1.65-.24s1-.19,1.45-.3l.29,1.63a16,16,0,0,1-1.56.4q-.87.16-1.83.27C1320,34.05,1319.34,34.09,1318.64,34.09Zm-3.69-8.4c.83,0,1.62,0,2.39-.05l2.1-.09,1.63-.09c.46,0,.79-.07,1-.1a7.17,7.17,0,0,0-.36-2.31,2.38,2.38,0,0,0-1-1.29,3.62,3.62,0,0,0-1.77-.4,4.53,4.53,0,0,0-1.31.2,3.11,3.11,0,0,0-1.18.67,3.94,3.94,0,0,0-.94,1.31A6.12,6.12,0,0,0,1315,25.69Z"/><path class="cls-3" d="M1326.72,39.24V19.92h2l.08,1.37a9.69,9.69,0,0,1,2.3-1.15,7.07,7.07,0,0,1,2.25-.37,3.88,3.88,0,0,1,3.43,1.76,9.08,9.08,0,0,1,1.19,5.06,11.56,11.56,0,0,1-.66,4.25,4.75,4.75,0,0,1-2,2.45,7,7,0,0,1-3.51.8,10.61,10.61,0,0,1-1.33-.09c-.47-.06-1-.13-1.51-.22v5.46Zm4.85-6.77a4.47,4.47,0,0,0,2.35-.56,3.33,3.33,0,0,0,1.37-1.8,10.11,10.11,0,0,0,.45-3.34,9.8,9.8,0,0,0-.36-2.89,3.48,3.48,0,0,0-1.08-1.73,2.66,2.66,0,0,0-1.73-.58,5,5,0,0,0-1.18.13,6.16,6.16,0,0,0-1.18.41,10.86,10.86,0,0,0-1.3.75v9.25c.54.12,1,.21,1.45.27A8.74,8.74,0,0,0,1331.57,32.47Z"/><path class="cls-3" d="M1345.06,34.09a4.16,4.16,0,0,1-2.08-.48,2.84,2.84,0,0,1-1.25-1.45,6.31,6.31,0,0,1-.4-2.4V21.65H1339V20.23l2.37-.21.28-3.27h1.88V20h4.61v1.6h-4.61v8a3.15,3.15,0,0,0,.53,2,2.15,2.15,0,0,0,1.74.63,5.56,5.56,0,0,0,1.22-.13,12.89,12.89,0,0,0,1.25-.33l.31,1.67a10.77,10.77,0,0,1-1.83.48A11.24,11.24,0,0,1,1345.06,34.09Z"/><path class="cls-3" d="M1355.32,34.09a7.6,7.6,0,0,1-2.53-.39,4.46,4.46,0,0,1-1.87-1.21,5.71,5.71,0,0,1-1.17-2.11,10.37,10.37,0,0,1-.41-3.09,11.06,11.06,0,0,1,.5-3.54,6.31,6.31,0,0,1,1.35-2.33,5,5,0,0,1,2-1.27,8.09,8.09,0,0,1,2.48-.38,5.11,5.11,0,0,1,3.94,1.4c.86.94,1.29,2.45,1.29,4.55,0,.1,0,.25,0,.45s0,.37,0,.53l-1.47.11-2.14.16c-.81.06-1.69.1-2.65.13l-3,.06a1.24,1.24,0,0,0,0,.27v.27a6.35,6.35,0,0,0,.48,2.69,3,3,0,0,0,1.38,1.48,4.83,4.83,0,0,0,2.24.47,13.35,13.35,0,0,0,1.66-.11c.56-.06,1.11-.15,1.65-.24s1-.19,1.45-.3l.29,1.63a16,16,0,0,1-1.56.4q-.87.16-1.83.27C1356.69,34.05,1356,34.09,1355.32,34.09Zm-3.69-8.4c.83,0,1.62,0,2.39-.05l2.09-.09,1.64-.09c.46,0,.79-.07,1-.1a7.17,7.17,0,0,0-.36-2.31,2.38,2.38,0,0,0-1-1.29,3.62,3.62,0,0,0-1.77-.4,4.53,4.53,0,0,0-1.31.2,3.11,3.11,0,0,0-1.18.67,3.81,3.81,0,0,0-.94,1.31A6.12,6.12,0,0,0,1351.63,25.69Z"/><path class="cls-3" d="M1372.09,33.86l-.26-1.24a10.79,10.79,0,0,1-2.24,1.11,6.89,6.89,0,0,1-2.22.36,4,4,0,0,1-3.44-1.77,8.9,8.9,0,0,1-1.22-5.08,11.24,11.24,0,0,1,.67-4.24,4.78,4.78,0,0,1,2.06-2.43,6.84,6.84,0,0,1,3.48-.8q.69,0,1.41.06a9.83,9.83,0,0,1,1.47.25V14.77H1374V33.86ZM1371.8,31V21.73a11.44,11.44,0,0,0-1.47-.26,11.15,11.15,0,0,0-1.23-.08,4.59,4.59,0,0,0-2.33.55,3.15,3.15,0,0,0-1.37,1.81,10.72,10.72,0,0,0-.42,3.33,9.37,9.37,0,0,0,.37,2.86,3.66,3.66,0,0,0,1.08,1.74,2.59,2.59,0,0,0,1.71.58,4.91,4.91,0,0,0,1.16-.13,5.54,5.54,0,0,0,1.18-.41Q1371.08,31.44,1371.8,31Z"/><path class="cls-3" d="M1383.6,25.15a14.14,14.14,0,0,1,.91-5.54,6.19,6.19,0,0,1,2.72-3.09,9.21,9.21,0,0,1,4.43-1c.5,0,1,0,1.4,0s.85.07,1.24.12.77.12,1.15.2.76.19,1.16.31l-.44,1.81c-.52-.14-1-.25-1.46-.34s-.92-.14-1.39-.18-1-.05-1.48-.05a7.61,7.61,0,0,0-2.59.41,4.56,4.56,0,0,0-1.87,1.29,6,6,0,0,0-1.13,2.36,14.37,14.37,0,0,0-.38,3.61,12.79,12.79,0,0,0,.36,3.33,5.1,5.1,0,0,0,1.09,2.17,4.25,4.25,0,0,0,1.82,1.19,7.59,7.59,0,0,0,2.49.37,21,21,0,0,0,2.58-.16,16.71,16.71,0,0,0,2.42-.48l.41,1.78c-.39.12-.81.23-1.25.33a13.69,13.69,0,0,1-1.36.25c-.47.06-1,.1-1.48.14s-1.06.05-1.62.05a10.36,10.36,0,0,1-3.31-.48,5.84,5.84,0,0,1-2.43-1.52,6.65,6.65,0,0,1-1.49-2.75A15.31,15.31,0,0,1,1383.6,25.15Z"/><path class="cls-3" d="M1398.51,30.51a3.69,3.69,0,0,1,.53-2.05,3.53,3.53,0,0,1,1.57-1.27,11.19,11.19,0,0,1,2.59-.74c1-.18,2.22-.33,3.58-.45V24.07a2.23,2.23,0,0,0-.77-1.82,3.63,3.63,0,0,0-2.32-.63c-.34,0-.73,0-1.17.05s-.89.1-1.34.18-.93.2-1.43.34l-.39-1.73a17.34,17.34,0,0,1,2.27-.51,14.07,14.07,0,0,1,2.16-.18,7.75,7.75,0,0,1,2.88.47,3.6,3.6,0,0,1,1.72,1.43A4.48,4.48,0,0,1,1409,24v6.67a2.07,2.07,0,0,0,.24,1.19.81.81,0,0,0,.66.31,1.37,1.37,0,0,0,.34,0,1.69,1.69,0,0,0,.36-.12l.26,1.6a3.41,3.41,0,0,1-.82.32,3.22,3.22,0,0,1-.88.12,2.09,2.09,0,0,1-1.47-.49,2.43,2.43,0,0,1-.7-1.47,10.69,10.69,0,0,1-1.36,1,7.23,7.23,0,0,1-1.65.72,6.83,6.83,0,0,1-2,.27,4.25,4.25,0,0,1-1.43-.23,3,3,0,0,1-1.09-.7,3,3,0,0,1-.71-1.12A4.23,4.23,0,0,1,1398.51,30.51Zm2.19-.18a2.29,2.29,0,0,0,.54,1.66,2,2,0,0,0,1.5.55,4.8,4.8,0,0,0,1.44-.22,6.39,6.39,0,0,0,1.4-.61,5.37,5.37,0,0,0,1.2-.94V27.29c-.89.08-1.72.19-2.47.31a9.5,9.5,0,0,0-2,.5,2.88,2.88,0,0,0-1.23.86A2.12,2.12,0,0,0,1400.7,30.33Z"/><path class="cls-3" d="M1414.56,20v1.73A10.21,10.21,0,0,1,1416,20.6a6,6,0,0,1,1.37-.63,5.31,5.31,0,0,1,1.46-.2,7.23,7.23,0,0,1,1,.07l1,.18-.36,2c-.31-.07-.63-.13-1-.18a6.39,6.39,0,0,0-.94-.08,4.79,4.79,0,0,0-1.84.39,7,7,0,0,0-2,1.31V33.83h-2.16V20Z"/><path class="cls-3" d="M1430.4,33.86l-.26-1.24a10.55,10.55,0,0,1-2.24,1.11,6.78,6.78,0,0,1-2.21.36,3.93,3.93,0,0,1-3.44-1.77,8.82,8.82,0,0,1-1.23-5.08,11.45,11.45,0,0,1,.67-4.24,4.83,4.83,0,0,1,2.06-2.43,6.84,6.84,0,0,1,3.48-.8c.47,0,.94,0,1.42.06a9.83,9.83,0,0,1,1.47.25V14.77h2.16V33.86Zm-.28-2.86V21.73a11.75,11.75,0,0,0-1.47-.26,11.33,11.33,0,0,0-1.24-.08,4.62,4.62,0,0,0-2.33.55,3.14,3.14,0,0,0-1.36,1.81,10.39,10.39,0,0,0-.43,3.33,9.69,9.69,0,0,0,.37,2.86,3.6,3.6,0,0,0,1.09,1.74,2.59,2.59,0,0,0,1.71.58,5,5,0,0,0,1.16-.13,5.28,5.28,0,0,0,1.17-.41C1429.19,31.53,1429.64,31.29,1430.12,31Z"/><path class="cls-3" d="M1434.47,33.26l.34-1.62a5.85,5.85,0,0,0,1,.32c.36.1.74.18,1.14.25s.82.11,1.23.14.81,0,1.18,0a4.63,4.63,0,0,0,2.44-.53,1.76,1.76,0,0,0,.83-1.58,1.78,1.78,0,0,0-.24-.94,2.16,2.16,0,0,0-.71-.7,5.25,5.25,0,0,0-1.16-.54c-.46-.16-1-.33-1.65-.5a9.21,9.21,0,0,1-1.61-.54,5.25,5.25,0,0,1-1.26-.81,3.21,3.21,0,0,1-.8-1.11,3.69,3.69,0,0,1-.27-1.46,3.48,3.48,0,0,1,1.3-2.88,6.1,6.1,0,0,1,3.85-1,13.67,13.67,0,0,1,1.47.07,10.49,10.49,0,0,1,1.33.24,10.17,10.17,0,0,1,1.12.33l-.31,1.65c-.34-.1-.7-.2-1.06-.28a9.27,9.27,0,0,0-1.18-.21,12,12,0,0,0-1.39-.08,4,4,0,0,0-2.28.54,1.7,1.7,0,0,0-.79,1.47,1.63,1.63,0,0,0,.26.94,2,2,0,0,0,.74.63,6.71,6.71,0,0,0,1.1.48c.42.15.88.29,1.38.43a15.46,15.46,0,0,1,1.78.59,5,5,0,0,1,1.34.77,3.07,3.07,0,0,1,.86,1.13,4,4,0,0,1,.3,1.63,4.29,4.29,0,0,1-.25,1.48,2.77,2.77,0,0,1-.75,1.12,4.63,4.63,0,0,1-1.15.77,5.91,5.91,0,0,1-1.49.46,9,9,0,0,1-1.77.16,16.6,16.6,0,0,1-1.74-.1q-.87-.1-1.65-.27A8,8,0,0,1,1434.47,33.26Z"/><rect class="cls-2" x="643.21" y="12.22" width="288.42" height="29.74"/><path class="cls-3" d="M650.26,33.79v-18h2.3l5.76,9.32,5.75-9.32h2.19v18H664.2V19.16l-5.41,8.68h-1.08l-5.39-8.66V33.79Z"/><path class="cls-3" d="M669,26.86a13.42,13.42,0,0,1,.33-3.19,5.51,5.51,0,0,1,1-2.21,4.29,4.29,0,0,1,1.86-1.3,9.52,9.52,0,0,1,5.72,0,4.35,4.35,0,0,1,1.86,1.3,5.27,5.27,0,0,1,1,2.21,13.42,13.42,0,0,1,.33,3.19,13.19,13.19,0,0,1-.35,3.23,5.66,5.66,0,0,1-1.07,2.23,4.27,4.27,0,0,1-1.87,1.3,9.2,9.2,0,0,1-5.56,0,4.27,4.27,0,0,1-1.87-1.3,5.66,5.66,0,0,1-1.07-2.23A13.19,13.19,0,0,1,669,26.86Zm2.22,0a10.47,10.47,0,0,0,.4,3.24,3,3,0,0,0,1.25,1.74,4,4,0,0,0,2.19.53,4,4,0,0,0,2.21-.53,3.07,3.07,0,0,0,1.25-1.74,10.47,10.47,0,0,0,.4-3.24,11.12,11.12,0,0,0-.37-3.21,3,3,0,0,0-1.21-1.72,5.15,5.15,0,0,0-4.55,0,2.88,2.88,0,0,0-1.21,1.72A11.54,11.54,0,0,0,671.18,26.86Z"/><path class="cls-3" d="M683.65,33.43V14.73h2.16v6.46a9.19,9.19,0,0,1,2.24-1.12,7.16,7.16,0,0,1,2.19-.35,3.92,3.92,0,0,1,3.44,1.76,8.82,8.82,0,0,1,1.2,5,11.89,11.89,0,0,1-.67,4.35,4.62,4.62,0,0,1-2.1,2.42,7.52,7.52,0,0,1-3.62.78,17.88,17.88,0,0,1-2.24-.16C685.46,33.79,684.59,33.63,683.65,33.43Zm2.16-1.32c.55.11,1,.19,1.47.25a8.74,8.74,0,0,0,1.21.09,4.37,4.37,0,0,0,2.35-.57,3.37,3.37,0,0,0,1.37-1.83,10.38,10.38,0,0,0,.45-3.4,9.39,9.39,0,0,0-.36-2.82,3.53,3.53,0,0,0-1.08-1.7,2.72,2.72,0,0,0-1.73-.58,5.69,5.69,0,0,0-1.18.13,6.55,6.55,0,0,0-1.17.41,11.05,11.05,0,0,0-1.33.75Z"/><path class="cls-3" d="M698.53,17.2a1.56,1.56,0,0,1-1-.26,1.1,1.1,0,0,1-.31-.9,1.19,1.19,0,0,1,.3-.93,1.54,1.54,0,0,1,1-.25,1.57,1.57,0,0,1,1,.25,1.23,1.23,0,0,1,.29.93,1.17,1.17,0,0,1-.29.9A1.56,1.56,0,0,1,698.53,17.2Zm-1.08,16.59V20h2.17V33.79Z"/><path class="cls-3" d="M705,14.73V30a3.7,3.7,0,0,0,.2,1.37,1.1,1.1,0,0,0,.54.64,1.87,1.87,0,0,0,.76.15,4.4,4.4,0,0,0,.58,0c.21,0,.45-.09.7-.16l.24,1.68a4.69,4.69,0,0,1-1,.32,5.1,5.1,0,0,1-1.11.12,3.78,3.78,0,0,1-1.64-.34,2.29,2.29,0,0,1-1.06-1.18,5.93,5.93,0,0,1-.39-2.4V14.73Z"/><path class="cls-3" d="M714.71,34.05a7.53,7.53,0,0,1-2.52-.39,4.49,4.49,0,0,1-1.87-1.21,5.44,5.44,0,0,1-1.17-2.11,10,10,0,0,1-.42-3.09,10.79,10.79,0,0,1,.51-3.55,6.13,6.13,0,0,1,1.35-2.33,5,5,0,0,1,2-1.26,7.82,7.82,0,0,1,2.49-.39A5.08,5.08,0,0,1,719,21.13c.86.93,1.29,2.45,1.29,4.54,0,.11,0,.26,0,.46s0,.37,0,.52q-.54.06-1.47.12l-2.14.15c-.8.06-1.69.11-2.65.13l-3,.07a1.14,1.14,0,0,0,0,.27v.27a6.4,6.4,0,0,0,.47,2.69,3.07,3.07,0,0,0,1.38,1.48,4.86,4.86,0,0,0,2.24.46,13.32,13.32,0,0,0,1.66-.1q.84-.11,1.65-.24c.54-.1,1-.2,1.46-.3l.28,1.62a11,11,0,0,1-1.56.4q-.85.16-1.83.27A18.65,18.65,0,0,1,714.71,34.05ZM711,25.65c.82,0,1.62,0,2.38,0l2.1-.09,1.63-.09c.46,0,.79-.07,1-.11a7.15,7.15,0,0,0-.36-2.3,2.44,2.44,0,0,0-1-1.29,3.5,3.5,0,0,0-1.76-.4,4.9,4.9,0,0,0-1.32.19,3.25,3.25,0,0,0-1.18.67,4,4,0,0,0-.94,1.32A6.08,6.08,0,0,0,711,25.65Z"/><path class="cls-3" d="M729.93,33.76v-18c.93-.06,1.75-.12,2.46-.15l2-.09c.59,0,1.16,0,1.69,0a11.8,11.8,0,0,1,3.62.45,3.55,3.55,0,0,1,2,1.43,4.72,4.72,0,0,1,.62,2.55,4.89,4.89,0,0,1-.71,2.68,3.73,3.73,0,0,1-2,1.54v.06a4.43,4.43,0,0,1,2.66,1.57,4.63,4.63,0,0,1,1,3,6.87,6.87,0,0,1-.38,2.4,3.56,3.56,0,0,1-1.19,1.63,5.56,5.56,0,0,1-2.17.93,14.88,14.88,0,0,1-3.22.3L735,34l-1.06,0-1.07,0c-.37,0-.8,0-1.28-.08Zm2.27-10H737a3.15,3.15,0,0,0,1.64-.41,2.75,2.75,0,0,0,1.09-1.15,3.6,3.6,0,0,0,.39-1.71,3.37,3.37,0,0,0-.43-1.79,2.46,2.46,0,0,0-1.37-1,8.17,8.17,0,0,0-2.5-.32h-1.32l-.6,0-.75,0-1,.07Zm0,8.3,1.3.09,1,0,.8,0,.72,0a9.66,9.66,0,0,0,2.89-.35,2.68,2.68,0,0,0,1.52-1.12,3.93,3.93,0,0,0,.46-2,3,3,0,0,0-1-2.4,4.14,4.14,0,0,0-2.81-.84H732.2Z"/><path class="cls-3" d="M744.72,30.47a3.61,3.61,0,0,1,.53-2,3.49,3.49,0,0,1,1.57-1.28,11.07,11.07,0,0,1,2.59-.73c1-.18,2.22-.33,3.58-.45V24a2.21,2.21,0,0,0-.78-1.82,3.58,3.58,0,0,0-2.31-.63c-.35,0-.74,0-1.18.05s-.88.1-1.34.18-.93.2-1.43.34l-.38-1.73a18.72,18.72,0,0,1,2.27-.52,15.45,15.45,0,0,1,2.16-.18,7.45,7.45,0,0,1,2.87.48,3.62,3.62,0,0,1,1.73,1.43,4.57,4.57,0,0,1,.58,2.37v6.67a2.07,2.07,0,0,0,.24,1.19.81.81,0,0,0,.66.31,2.11,2.11,0,0,0,.33,0,2.53,2.53,0,0,0,.36-.12l.26,1.6a4,4,0,0,1-.81.32,3.24,3.24,0,0,1-.89.12,2.14,2.14,0,0,1-1.47-.49,2.42,2.42,0,0,1-.69-1.47,11.87,11.87,0,0,1-1.37,1,7.25,7.25,0,0,1-1.65.73,6.76,6.76,0,0,1-1.95.27,4,4,0,0,1-1.43-.24,2.86,2.86,0,0,1-1.1-.69A3.15,3.15,0,0,1,745,32,4.47,4.47,0,0,1,744.72,30.47Zm2.19-.18a2.3,2.3,0,0,0,.54,1.66,2,2,0,0,0,1.49.55,4.8,4.8,0,0,0,1.44-.22,6.06,6.06,0,0,0,1.41-.62,5.54,5.54,0,0,0,1.2-.94V27.25c-.9.08-1.72.19-2.48.31a9,9,0,0,0-1.94.5,2.9,2.9,0,0,0-1.24.86A2.17,2.17,0,0,0,746.91,30.29Z"/><path class="cls-3" d="M758.78,33.79V20h2v1.21a16.73,16.73,0,0,1,1.66-.81,9.28,9.28,0,0,1,1.58-.49,8.37,8.37,0,0,1,1.7-.17,4.58,4.58,0,0,1,2.11.44,3,3,0,0,1,1.3,1.28,4.28,4.28,0,0,1,.45,2v10.3h-2.19V24.1a2.67,2.67,0,0,0-.61-1.89,2.51,2.51,0,0,0-1.91-.66,6.55,6.55,0,0,0-1.34.14,7.56,7.56,0,0,0-1.27.42c-.42.18-.85.38-1.28.6V33.79Z"/><path class="cls-3" d="M783.36,34a3.77,3.77,0,0,1-.76-.07,2.39,2.39,0,0,1-.84-.39,11.64,11.64,0,0,1-1.17-.94c-.48-.42-1.05-1-1.72-1.69l-4-4.07v7h-2.07V14.73h2.07V24l4.5,4.62c.88.87,1.58,1.54,2.1,2a6.52,6.52,0,0,0,1.28.93,2,2,0,0,0,.87.24h.17l.19,0,0,2.22a1.13,1.13,0,0,1-.3.06Zm-6-6.43-1.69-1,1.66-1.47a17.66,17.66,0,0,0,1.55-1.57,13.47,13.47,0,0,0,1.32-1.76,9.36,9.36,0,0,0,1-2.05l2.14.21a9.38,9.38,0,0,1-1,2.28,18.71,18.71,0,0,1-1.52,2A23.94,23.94,0,0,1,779.05,26Z"/><path class="cls-3" d="M786.86,17.2a1.59,1.59,0,0,1-1-.26,1.13,1.13,0,0,1-.31-.9,1.19,1.19,0,0,1,.3-.93,1.59,1.59,0,0,1,1-.25,1.57,1.57,0,0,1,1,.25,1.23,1.23,0,0,1,.28.93,1.17,1.17,0,0,1-.28.9A1.56,1.56,0,0,1,786.86,17.2Zm-1.08,16.59V20h2.16V33.79Z"/><path class="cls-3" d="M791.16,33.79V20h2v1.21c.59-.32,1.14-.59,1.66-.81a9.67,9.67,0,0,1,1.59-.49,8.37,8.37,0,0,1,1.7-.17,4.61,4.61,0,0,1,2.11.44,3,3,0,0,1,1.3,1.28,4.28,4.28,0,0,1,.45,2v10.3h-2.19V24.1a2.63,2.63,0,0,0-.62-1.89,2.48,2.48,0,0,0-1.9-.66,6.48,6.48,0,0,0-1.34.14,7.66,7.66,0,0,0-1.28.42c-.42.18-.84.38-1.27.6V33.79Z"/><path class="cls-3" d="M810.14,39.46a8.73,8.73,0,0,1-4.5-.93,3,3,0,0,1-1.52-2.78,3.52,3.52,0,0,1,.24-1.34,3.14,3.14,0,0,1,.75-1.09,5.24,5.24,0,0,1,1.27-.87l1.39.46a3.72,3.72,0,0,0-1,.65,2.3,2.3,0,0,0-.77,1.77,2.08,2.08,0,0,0,.48,1.41,3,3,0,0,0,1.43.85,8.08,8.08,0,0,0,2.39.29,8.51,8.51,0,0,0,2.54-.33,3.65,3.65,0,0,0,1.6-.93,2,2,0,0,0,.55-1.44,1.57,1.57,0,0,0-1.15-1.65,4.43,4.43,0,0,0-1.5-.21h-3.53a6.2,6.2,0,0,1-2.15-.32,2.71,2.71,0,0,1-1.34-1,2.56,2.56,0,0,1-.45-1.53,2.8,2.8,0,0,1,.49-1.66,4.08,4.08,0,0,1,1.44-1.25l1.24.46a3.56,3.56,0,0,0-1.09.81,1.71,1.71,0,0,0-.38,1.12,1.25,1.25,0,0,0,.54,1.07,2.8,2.8,0,0,0,1.67.4h4.18a4.53,4.53,0,0,1,3,.89A3.22,3.22,0,0,1,817,35a3.8,3.8,0,0,1-.82,2.43,4.91,4.91,0,0,1-2.33,1.55A11.42,11.42,0,0,1,810.14,39.46Zm.18-10.77a6,6,0,0,1-4-1.13A4.19,4.19,0,0,1,805,24.21a4.15,4.15,0,0,1,1.33-3.36,7.43,7.43,0,0,1,7.88,0,4.12,4.12,0,0,1,1.33,3.36,4.16,4.16,0,0,1-1.33,3.35A5.92,5.92,0,0,1,810.32,28.69Zm0-1.52a3.43,3.43,0,0,0,2.39-.7,3,3,0,0,0,.76-2.26,3.06,3.06,0,0,0-.76-2.31,3.43,3.43,0,0,0-2.39-.71,3.47,3.47,0,0,0-2.38.71,3,3,0,0,0-.78,2.31,2.89,2.89,0,0,0,.78,2.26A3.47,3.47,0,0,0,810.32,27.17Zm4-5.23-.9-1.16a2.49,2.49,0,0,1,1-1.24,3.2,3.2,0,0,1,1.65-.41l.53,0a1.51,1.51,0,0,1,.5.09L816.87,21l-.39-.08-.44,0a1.93,1.93,0,0,0-1,.26A1.89,1.89,0,0,0,814.29,21.94Z"/><path class="cls-3" d="M825.47,25.11a14.1,14.1,0,0,1,.91-5.54,6.15,6.15,0,0,1,2.72-3.09,9.21,9.21,0,0,1,4.43-1c.5,0,1,0,1.41,0s.85.06,1.23.11.77.12,1.15.21.76.19,1.16.31L838,18c-.52-.13-1-.25-1.46-.33a10.56,10.56,0,0,0-1.39-.18c-.47,0-1-.05-1.48-.05a7.37,7.37,0,0,0-2.59.41,4.29,4.29,0,0,0-1.86,1.29,5.87,5.87,0,0,0-1.14,2.35,14.51,14.51,0,0,0-.38,3.62,13.24,13.24,0,0,0,.36,3.33,5.1,5.1,0,0,0,1.09,2.17A4.34,4.34,0,0,0,831,31.77a7.61,7.61,0,0,0,2.5.37,21,21,0,0,0,2.57-.17,16.76,16.76,0,0,0,2.42-.47l.41,1.77c-.39.12-.81.24-1.24.34s-.9.18-1.37.24-1,.11-1.48.14-1.06.06-1.62.06a10.36,10.36,0,0,1-3.31-.48,5.74,5.74,0,0,1-2.42-1.52,6.59,6.59,0,0,1-1.5-2.76A15.18,15.18,0,0,1,825.47,25.11Z"/><path class="cls-3" d="M841.28,33.79V14.73h2.17v6.41a12.27,12.27,0,0,1,1.54-.77,8.63,8.63,0,0,1,1.52-.48,8.1,8.1,0,0,1,1.68-.17,4.67,4.67,0,0,1,2.1.43,2.94,2.94,0,0,1,1.28,1.26,4.29,4.29,0,0,1,.46,2.1V33.79h-2.17V24.13a2.61,2.61,0,0,0-.63-1.89,2.5,2.5,0,0,0-1.89-.66,6.48,6.48,0,0,0-1.34.14,8,8,0,0,0-1.26.4c-.42.17-.85.37-1.29.59V33.79Z"/><path class="cls-3" d="M854.22,30.47a3.69,3.69,0,0,1,.52-2,3.55,3.55,0,0,1,1.57-1.28,11.22,11.22,0,0,1,2.59-.73c1-.18,2.23-.33,3.58-.45V24a2.2,2.2,0,0,0-.77-1.82,3.61,3.61,0,0,0-2.32-.63c-.34,0-.73,0-1.17.05s-.88.1-1.34.18-.93.2-1.43.34l-.39-1.73a19.16,19.16,0,0,1,2.27-.52,15.59,15.59,0,0,1,2.17-.18,7.48,7.48,0,0,1,2.87.48,3.55,3.55,0,0,1,1.72,1.43,4.48,4.48,0,0,1,.58,2.37v6.67a2,2,0,0,0,.25,1.19.8.8,0,0,0,.65.31,2.09,2.09,0,0,0,.34,0,2.53,2.53,0,0,0,.36-.12l.26,1.6a4,4,0,0,1-.81.32,3.3,3.3,0,0,1-.89.12,2.14,2.14,0,0,1-1.47-.49,2.48,2.48,0,0,1-.7-1.47,10.93,10.93,0,0,1-1.36,1,7.25,7.25,0,0,1-1.65.73,6.78,6.78,0,0,1-2,.27,4,4,0,0,1-1.43-.24,2.9,2.9,0,0,1-1.09-.69,3,3,0,0,1-.71-1.12A4.47,4.47,0,0,1,854.22,30.47Zm2.18-.18A2.31,2.31,0,0,0,857,32a2,2,0,0,0,1.49.55,4.8,4.8,0,0,0,1.44-.22,6.25,6.25,0,0,0,1.41-.62,5.25,5.25,0,0,0,1.19-.94V27.25c-.89.08-1.71.19-2.47.31a8.8,8.8,0,0,0-1.94.5,2.78,2.78,0,0,0-1.24.86A2.18,2.18,0,0,0,856.4,30.29Z"/><path class="cls-3" d="M868.28,33.79V20h2v1.21c.59-.32,1.14-.59,1.66-.81a9.67,9.67,0,0,1,1.59-.49,8.37,8.37,0,0,1,1.7-.17,4.61,4.61,0,0,1,2.11.44,3,3,0,0,1,1.3,1.28,4.28,4.28,0,0,1,.45,2v10.3h-2.19V24.1a2.63,2.63,0,0,0-.62-1.89,2.48,2.48,0,0,0-1.9-.66,6.48,6.48,0,0,0-1.34.14,7.66,7.66,0,0,0-1.28.42c-.42.18-.84.38-1.27.6V33.79Z"/><path class="cls-3" d="M882.27,33.79V20h2v1.21a17.88,17.88,0,0,1,1.66-.81,9.28,9.28,0,0,1,1.58-.49,8.45,8.45,0,0,1,1.7-.17,4.62,4.62,0,0,1,2.12.44,3,3,0,0,1,1.3,1.28,4.28,4.28,0,0,1,.45,2v10.3h-2.19V24.1a2.67,2.67,0,0,0-.62-1.89,2.5,2.5,0,0,0-1.91-.66,6.55,6.55,0,0,0-1.34.14,7.87,7.87,0,0,0-1.27.42c-.42.18-.85.38-1.27.6V33.79Z"/><path class="cls-3" d="M901.58,34.05a7.58,7.58,0,0,1-2.52-.39,4.56,4.56,0,0,1-1.87-1.21A5.57,5.57,0,0,1,896,30.34a10.37,10.37,0,0,1-.41-3.09,11.08,11.08,0,0,1,.5-3.55,6.26,6.26,0,0,1,1.35-2.33,5,5,0,0,1,2-1.26,7.87,7.87,0,0,1,2.49-.39,5.08,5.08,0,0,1,3.94,1.41c.86.93,1.29,2.45,1.29,4.54,0,.11,0,.26,0,.46s0,.37,0,.52c-.36,0-.85.08-1.46.12l-2.14.15c-.81.06-1.69.11-2.66.13l-3,.07a2.13,2.13,0,0,0,0,.27v.27a6.38,6.38,0,0,0,.48,2.69,3,3,0,0,0,1.37,1.48,4.86,4.86,0,0,0,2.24.46,13.48,13.48,0,0,0,1.67-.1c.55-.07,1.1-.15,1.64-.24s1-.2,1.46-.3l.28,1.62a11,11,0,0,1-1.56.4c-.57.11-1.18.2-1.82.27A18.84,18.84,0,0,1,901.58,34.05Zm-3.68-8.4c.82,0,1.62,0,2.38,0l2.1-.09,1.64-.09c.45,0,.78-.07,1-.11a7.15,7.15,0,0,0-.36-2.3,2.38,2.38,0,0,0-1-1.29,3.54,3.54,0,0,0-1.77-.4,4.82,4.82,0,0,0-1.31.19,3.29,3.29,0,0,0-1.19.67,4.14,4.14,0,0,0-.94,1.32A6.3,6.3,0,0,0,897.9,25.65Z"/><path class="cls-3" d="M911.81,14.73V30a3.73,3.73,0,0,0,.19,1.37,1.14,1.14,0,0,0,.54.64,1.94,1.94,0,0,0,.76.15,4.13,4.13,0,0,0,.58,0c.22,0,.45-.09.71-.16l.23,1.68a4.34,4.34,0,0,1-1,.32,5.08,5.08,0,0,1-1.1.12,3.75,3.75,0,0,1-1.64-.34A2.35,2.35,0,0,1,910,32.53a6,6,0,0,1-.38-2.4V14.73Z"/><path class="cls-3" d="M915.52,33.22l.33-1.62a6.34,6.34,0,0,0,1,.32c.36.1.74.18,1.14.25s.81.11,1.23.14.8,0,1.18,0a4.63,4.63,0,0,0,2.44-.53,1.76,1.76,0,0,0,.83-1.59,1.8,1.8,0,0,0-.24-.94,2.35,2.35,0,0,0-.71-.69,5.47,5.47,0,0,0-1.16-.54c-.46-.17-1-.33-1.65-.5a8.46,8.46,0,0,1-1.61-.55A4.7,4.7,0,0,1,917,26.2a3.09,3.09,0,0,1-.8-1.1,3.73,3.73,0,0,1-.27-1.46,3.47,3.47,0,0,1,1.3-2.89,6.16,6.16,0,0,1,3.85-1,13.58,13.58,0,0,1,1.47.08,10.83,10.83,0,0,1,1.33.23c.42.11.79.22,1.12.34L924.69,22c-.35-.11-.7-.2-1.06-.29a11.56,11.56,0,0,0-1.18-.2,12.11,12.11,0,0,0-1.39-.08,4,4,0,0,0-2.28.54,1.68,1.68,0,0,0-.79,1.47,1.63,1.63,0,0,0,.26.94A2.06,2.06,0,0,0,919,25a8.39,8.39,0,0,0,1.11.48q.63.21,1.38.42c.67.19,1.26.39,1.78.59a5.3,5.3,0,0,1,1.34.78,3.1,3.1,0,0,1,.86,1.13,4,4,0,0,1,.29,1.62,4.25,4.25,0,0,1-.24,1.48,2.81,2.81,0,0,1-.75,1.13,4.78,4.78,0,0,1-1.16.77,6.12,6.12,0,0,1-1.48.46,9.87,9.87,0,0,1-1.77.16,14.26,14.26,0,0,1-1.74-.11q-.87-.11-1.65-.27A7.06,7.06,0,0,1,915.52,33.22Z"/><path class="cls-22" d="M867.06,136.43,808.81,61.66c.1-.19.19-.38.29-.56l76.15,9.14C879.19,92.32,873.21,114.08,867.06,136.43Z"/><path class="cls-23" d="M870.1,137c6.11-22.18,12.13-44.08,18.33-66.59C907.21,96.62,925.61,122.31,944,148c-.1.19-.19.39-.29.58Z"/><path class="cls-22" d="M870.27,140.24l70.45,11.27c0,.23.09.46.13.7L880,182.72C876.74,168.56,873.57,154.7,870.27,140.24Z"/><path class="cls-24" d="M843.92,220.78c7.57-26.71,15.15-53.41,22.89-80.7a14.67,14.67,0,0,1,.8,1.84c3.62,16.3,7.21,32.61,10.87,48.9a3.14,3.14,0,0,1-1.29,3.64c-10.46,8.44-20.84,17-31.24,25.46-.49.4-1,.75-1.53,1.12Z"/><path class="cls-22" d="M925.13,117.05l36.54-6.6c-4.68,12.79-9.19,25.1-13.92,38C940.11,137.85,932.8,127.71,925.13,117.05Z"/><path class="cls-23" d="M889.68,181.13l54.58-27.83.44.37c-.69,2.08-1.32,4.19-2.1,6.23a2.3,2.3,0,0,1-1.3,1q-25.45,10.28-50.93,20.51a1.94,1.94,0,0,1-.42.07Z"/><path class="cls-23" d="M979,126.36H958.74c1.91-5.22,3.75-10.24,5.43-14.8l15.05,14.15Z"/><path class="cls-24" d="M837.56,104.16l-31-29.38.23-.58c2.61,0,5.23,0,7.85,0,.4,0,.88.48,1.17.86q10.93,14,21.83,28a3.38,3.38,0,0,1,.33.72Z"/><path class="cls-3" d="M612.44,169.12c.17-2.87.35-7.12.35-10.86V107.43h7.56v26.42h.17c2.69-4.7,7.56-7.74,14.34-7.74,10.42,0,17.81,8.69,17.72,21.46,0,15-9.47,22.51-18.85,22.51-6.09,0-11-2.35-14.08-7.91h-.26l-.35,7Zm7.91-16.86a14.69,14.69,0,0,0,.34,2.79A11.79,11.79,0,0,0,632.16,164c8,0,12.77-6.51,12.77-16.16,0-8.42-4.34-15.64-12.51-15.64a12.19,12.19,0,0,0-11.64,9.39,15.35,15.35,0,0,0-.43,3.13Z"/><path class="cls-3" d="M662.48,110.56H670V138.8h.26c1.56-2.26,3.13-4.35,4.61-6.26l17.89-22h9.39L681,135.41l22.85,33.71h-9L675.6,140.36,670,146.79v22.33h-7.56Z"/><path class="cls-3" d="M734,169.12l-.61-5.3h-.26a15.65,15.65,0,0,1-12.85,6.26c-8.52,0-12.86-6-12.86-12.08,0-10.17,9-15.73,25.28-15.64v-.87c0-3.47-1-9.73-9.56-9.73a20.93,20.93,0,0,0-10.94,3.13l-1.74-5a26.06,26.06,0,0,1,13.81-3.74c12.86,0,16,8.78,16,17.21V159a59.41,59.41,0,0,0,.69,10.08Zm-1.13-21.46c-8.34-.17-17.81,1.3-17.81,9.47,0,5,3.3,7.3,7.21,7.3a10.47,10.47,0,0,0,10.17-7,8,8,0,0,0,.43-2.43Z"/><path class="cls-3" d="M751.53,161.3a20,20,0,0,0,10.08,3c5.56,0,8.17-2.78,8.17-6.25,0-3.65-2.18-5.65-7.82-7.74-7.56-2.69-11.12-6.86-11.12-11.9,0-6.78,5.47-12.34,14.51-12.34a21,21,0,0,1,10.33,2.61l-1.91,5.56a16.38,16.38,0,0,0-8.6-2.43c-4.52,0-7,2.6-7,5.73,0,3.48,2.51,5,8,7.13,7.3,2.78,11,6.43,11,12.68,0,7.39-5.73,12.6-15.72,12.6a24,24,0,0,1-11.82-2.87Z"/><path class="cls-3" d="M787,107.43h7.64v26.24h.18a14.24,14.24,0,0,1,5.47-5.39,15.76,15.76,0,0,1,7.82-2.17c5.65,0,14.68,3.48,14.68,18v25h-7.64V145c0-6.78-2.52-12.51-9.73-12.51a11,11,0,0,0-10.25,7.64,9.14,9.14,0,0,0-.53,3.65v25.37H787Z"/><rect class="cls-3" x="496.99" y="22.67" width="7.34" height="242.36"/></svg>