<?xml version="1.0" encoding="utf-8"?>
<!-- Generator: Adobe Illustrator 26.0.1, SVG Export Plug-In . SVG Version: 6.00 Build 0)  -->
<svg version="1.1" id="Layer_1" xmlns="http://www.w3.org/2000/svg" xmlns:xlink="http://www.w3.org/1999/xlink" x="0px" y="0px"
	 viewBox="0 0 363 83.6" style="enable-background:new 0 0 363 83.6;" xml:space="preserve">
<style type="text/css">
	.st0{fill:#172134;stroke:#172134;stroke-width:0.31;stroke-miterlimit:10;}
	.st1{fill:#172134;stroke:#172134;stroke-width:1.78;stroke-miterlimit:10;}
	.st2{fill:#172134;stroke:#172134;stroke-width:1.19;stroke-miterlimit:10;}
	.st3{fill:#172134;}
</style>
<g>
	<path class="st0" d="M131.9,61.3v11.5l-1-1.4c-0.9-2.4-3.2-4.1-5.7-4.2l-1.7-2.2c1-0.7,2-1.3,3-1.8c1.2-0.6,2.5-1.1,3.9-1.5v-0.4
		h-7.2l-1.6-1.5h11.8l1.5,1.5H131.9z M130.4,63.8c-1.3,0.5-2.5,1.1-3.7,1.8c1.4,0.6,2.7,1.6,3.7,2.8V63.8z"/>
	<path class="st0" d="M140.1,63.9v0.4c0,0.8-0.7,1.7-2.2,2.4c-0.5,0.3-1,0.4-1.6,0.5c-0.5,0-1-0.1-1.4-0.5c-0.4-0.2-0.6-0.7-0.6-1.1
		v-4.3h-1.2l-1.5-1.5h12l1.6,1.5h-9.1l0.2,0.4c0.6,0.5,1.3,0.8,2.1,0.8h1.4c0.9,0,1.7,0.4,2.2,1c0.6,0.6,0.9,1.4,0.9,2.2
		c-0.1,1.4-1,2.7-2.4,3.2l-0.8,0.3l1.5,0.8c1.2,0.7,2.2,1.7,3.1,2.7l0.3,1.6c-1-1-2.1-1.8-3.2-2.6c-1.2-0.6-2.5-1.1-3.8-1.4
		c-0.6-0.1-1.2-0.3-1.9-0.3l-1.4-2.5c0.7,0.3,1.5,0.4,2.2,0.5h1.5c0.6-0.1,1.1-0.2,1.6-0.6c0.5-0.3,0.9-0.6,1.2-1.1
		c0.3-0.4,0.4-0.8,0.4-1.2C141.4,64.2,141,63.9,140.1,63.9z M136.6,63.4c-0.3-0.2-0.5-0.4-0.7-0.6v2.5c0,0.2,0,0.4,0.2,0.3
		c0.3-0.1,0.7-0.2,0.9-0.5c0.5-0.3,0.8-0.7,0.9-1.3L136.6,63.4z"/>
	<path class="st0" d="M152,61.3v11.1l-0.9-0.8l-1.2-2.1c-0.5-0.7-1.1-1.2-1.8-1.6c-0.9-0.5-1.8-0.8-2.8-0.8l-1.7-2.2
		c2.1-1.5,4.4-2.7,6.9-3.5v-0.3h-6.9l-1.6-1.5h11.4l1.6,1.5L152,61.3z M147.4,71.2c-0.4,0-0.7-0.1-1-0.4c-0.3-0.2-0.4-0.6-0.4-0.9
		c0-0.3,0.1-0.7,0.4-0.9c0.3-0.2,0.6-0.4,0.9-0.4c0.3,0,0.6,0.1,0.9,0.3c0.3,0.2,0.4,0.4,0.5,0.7c0.2,0.7-0.2,1.4-0.9,1.5
		C147.7,71.2,147.6,71.2,147.4,71.2L147.4,71.2z M150.4,63.6c-1.3,0.4-2.6,1-3.7,1.8c1.5,0.6,2.8,1.6,3.7,2.9V63.6z"/>
	<path class="st0" d="M166.9,64.2c0.3,0.1,0.5,0.3,0.7,0.6c0.8,0.9,1.1,2.1,1,3.2c-0.2,0.7-0.7,1.3-1.2,1.7c-0.6,0.4-1.3,0.6-2,0.6
		c-1.3-0.1-2.6-0.8-3.4-1.9c-0.6-0.7-1-1.5-1.2-2.3c-0.4-1.5-0.5-3-0.4-4.5c0.4,0.2,0.7,0.4,1.1,0.6c-0.1,0.7-0.1,1.3,0,2
		c0.1,0.5,0.3,1.1,0.5,1.6c0.3,0.6,0.7,1.2,1.3,1.6c0.5,0.5,1.2,0.8,1.9,0.8c0.5-0.1,1-0.2,1.4-0.3c0.6-0.2,0.9-0.5,0.9-1
		c0-0.1,0-0.3,0-0.4c0-0.1-0.2-0.2-0.3-0.2H167c-0.6,0.3-1.2,0.4-1.9,0.5c-0.4,0-0.9-0.1-1.2-0.3c-0.7-0.5-1.3-1.2-1.5-2
		c0-0.2,0-0.5,0-0.7c0.1-0.8,0.5-1.6,1.1-2.2l0.2-0.3h-4.3l-1.6-1.5H173l1.6,1.5H167l-0.6,0.3l0,0c0.3,0.3,0.6,0.5,1,0.6
		c0.5,0.2,1,0.2,1.4,0.2c0.7-0.1,1.4-0.3,2.1-0.5l2,1.9c-0.5,0.5-0.9,1-1.3,1.7c-0.3,0.6-0.5,1.2-0.6,1.9c0,0.4,0,0.8,0,1.2
		c0.1,1.1,0.4,2.2,0.9,3.1c-0.1,0.1-0.2,0.2-0.3,0.2c-0.2,0-0.5-0.1-0.7-0.2c-0.4,0-0.6,0-0.6-0.3l-0.5-2.2
		c-0.2-0.7-0.3-1.5-0.3-2.2c0-1,0.2-2,0.6-2.9c-0.8,0-1.5-0.1-2.3-0.3c-0.8,0-1.5-0.3-2.2-0.8l-0.6-0.7c-0.2,0-0.6,0.3-0.9,1
		c-0.3,0.4-0.5,0.8-0.6,1.3c0,0.3,0.2,0.5,0.6,0.5c0.6-0.1,1.2-0.4,1.8-0.7l0.6-0.2c0.1,0,0.2,0,0.4,0L166.9,64.2z"/>
	<path class="st0" d="M170.4,73.3l-0.9,0.8c-0.3,0.2-0.8,0.4-1.2,0.4c-0.5,0-1-0.1-1.5-0.3c-0.4-0.2-0.7-0.6-0.8-1.1
		c-0.1-0.6,0.1-1.1,0.6-1.5c0.5-0.4,1.1-0.6,1.7-0.6c0.6,0,1.1,0.2,1.6,0.5v-1.5c0.1,0,0.2,0,0.3,0c0.3,0,0.6,0.2,0.8,0.7
		c0.2,0.3,0.4,0.7,0.4,1.1V72c0,0.1,0,0.3,0,0.4c0.4,0.2,0.7,0.5,1,0.9c0.8,0.6,1.4,1.5,1.7,2.4v0.2c-0.1,0.2-0.2,0.3-0.4,0.2
		c-0.1,0-0.2-0.1-0.3-0.2c-0.8-0.9-1.7-1.8-2.8-2.4C170.5,73.6,170.4,73.3,170.4,73.3z M168.2,72.3c-0.5,0-0.8,0-0.8,0.3
		s0,0.3,0.4,0.3c0.3,0,0.5-0.1,0.8-0.2c0.3,0,0.4-0.2,0.4-0.3C168.8,72.3,168.5,72.2,168.2,72.3L168.2,72.3z"/>
	<path class="st0" d="M178.9,61.6c-1.9,0.6-3.2,2.2-3.4,4.2v1.6c0,1.3,0.6,2.5,1.8,3.1h0.5c0,0,0,0.2-0.5,0.3h0.3l-0.2-0.4
		c-0.1-0.2-0.2-0.4-0.3-0.6c-0.1-0.6,0.2-1.2,0.8-1.4c0.2-0.1,0.5-0.2,0.8-0.2c0.3,0,0.5,0.1,0.8,0.3c0.5,0.2,0.9,0.8,0.8,1.3
		c0,0.5-0.3,1.1-0.7,1.4c-0.4,0.4-1,0.6-1.6,0.6c-0.7,0-1.3-0.1-1.9-0.6c-1.5-1.2-2.3-3-2.2-4.8c0-1.9,0.7-3.7,2-5.1h-3l-1.7-1.5
		h8.6l1.6,1.4C180.5,61.2,179.7,61.4,178.9,61.6z"/>
	<path class="st0" d="M185.4,61.3V65c0.8-0.2,1.4-0.7,1.9-1.3c0.7-0.8,1-1.1,1.1-1.1c0.1,0,0.3,0.1,0.4,0.2c1.2,0.9,1.9,2.3,1.9,3.8
		c0.1,1.5-0.6,3-1.9,3.8c-1.9,1.1-4.3,0.9-5.9-0.6c-0.8-0.9-1.5-2-1.9-3.1c-0.5-1.1-0.8-2.3-0.9-3.5c0-0.7-0.1-1.3-0.2-2l1.2,0.6
		c0.1,1.2,0.3,2.4,0.8,3.5c1,2.4,2.4,3.5,4.2,3.5c0.6,0,1.1-0.1,1.6-0.4c0.5-0.2,0.9-0.5,1.2-1c0.3-0.3,0.4-0.7,0.4-1.2
		c0-0.3-0.1-0.6-0.3-0.9c-0.5,0.5-1.1,1-1.7,1.4c-0.4,0.3-0.9,0.5-1.4,0.5c-1,0-1.9-0.7-2-1.7c0-0.4,0-0.7,0-1.1v-3h-4.4l-1.4-1.6
		h13.4l1.6,1.5H185.4z M187.4,73.7c-0.2,0.5-0.7,0.9-1.3,0.9c-0.4,0-0.8-0.1-1.1-0.4c-0.3-0.3-0.4-0.6-0.4-1c0-0.4,0.1-0.8,0.4-1.1
		c0.3-0.3,0.7-0.5,1.1-0.5c0.4,0,0.8,0.1,1.1,0.4c0.3,0.3,0.4,0.6,0.4,1C187.6,73.2,187.6,73.4,187.4,73.7z"/>
	<path class="st0" d="M206.1,61.3v11.5l-1-1.4c-0.9-2.4-3.2-4.1-5.7-4.2l-1.7-2.2c1-0.7,2-1.3,3-1.8c1.2-0.6,2.5-1.1,3.9-1.5v-0.4
		h-7.2l-1.6-1.5h11.8l1.6,1.5L206.1,61.3z M204.5,63.8c-1.3,0.5-2.5,1.1-3.7,1.8c1.4,0.6,2.7,1.6,3.7,2.8V63.8z"/>
	<path class="st0" d="M209.1,60.9c-0.1-1.1-0.1-2.3,0-3.5l0.9,0.7c0.1,0.4,0.2,0.8,0.3,1.2l0.3,0.3h1.6l1.6,1.5h-3.1v11.5l-1.6-1.4
		v-8.1c0-0.4-0.1-0.7-0.3-1c-0.4-0.6-1-0.9-1.6-0.9h-0.4l-1.6-1.5c0.8-0.1,1.5-0.1,2.3,0C208.2,59.9,208.7,60.3,209.1,60.9z"/>
	<path class="st0" d="M216.6,65.5c-0.3,0.2-0.7,0.3-1.1,0.2c-0.7,0-1.5-0.3-2-0.8c-0.6-0.5-1-1.2-1-2c0-0.7,0.3-1.4,0.8-1.9
		c1.1-1.1,2.8-1.1,3.9,0c0.5,0.5,0.8,1.2,0.8,2c0,0.5-0.2,1-0.4,1.3C217.4,64.8,217,65.2,216.6,65.5z M218.3,72
		c-1.6-1.3-3.3-2.4-5-3.4v-3c0.8,0.7,1.8,1.5,2.9,2.5c1.3,1.3,2.6,2.7,3.8,4.2v1.5L218.3,72z M216,61.8c-0.5,0.1-0.9,0.3-1.2,0.6
		c-0.3,0.3-0.5,0.7-0.5,1.2c0,0.4,0,0.6,0.4,0.6c0.4-0.1,0.7-0.2,1-0.4c0.4-0.3,0.7-0.5,0.8-0.7c0.1-0.2,0.1-0.4,0-0.7
		C216.5,62,216.3,61.8,216,61.8z"/>
	<path class="st0" d="M229.1,61.3v11.2l-1.6-1.5v-6c0-0.3-0.2-0.6-0.4-0.8c-0.2-0.3-0.5-0.4-0.8-0.4c-0.2,0-0.4,0.1-0.6,0.3
		c-0.1,0.4-0.1,0.9,0,1.3l-1.1,0.4c0.1-0.2,0.1-0.5,0-0.8c-0.1-0.3-0.3-0.5-0.6-0.8c-0.4-0.4-0.9-0.5-1.4-0.5
		c-0.5,0-0.9,0.1-1.3,0.5c-0.3,0.3-0.5,0.7-0.6,1.2c0,0.5,0.3,1,0.8,1.2c0-0.2,0-0.3,0-0.5c0-0.4,0.2-0.8,0.4-1
		c0.3-0.3,0.7-0.4,1.1-0.4c0.7,0,1.2,0.4,1.4,1.1c0.2,0.4,0.3,0.8,0.2,1.2c-0.3,0.8-1.1,1.2-1.9,1.2c-0.9,0.1-1.8-0.3-2.5-0.9
		c-0.6-0.6-1-1.5-0.9-2.3c0-0.8,0.2-1.5,0.7-2.1c0.5-0.7,1.2-1,2-1.1c0.8,0,1.6,0.3,2.2,0.9V63c0.2-0.3,0.4-0.5,0.6-0.7
		c0.2-0.2,0.5-0.3,0.8-0.3c0.4,0,0.9,0.2,1.2,0.5c0.1,0.2,0.2,0.3,0.4,0.5v-1.6h-8.6l-1.6-1.5h13.4l1.6,1.5H229.1z"/>
	<path class="st0" d="M232.3,60.9c-0.1-1.1-0.1-2.3,0-3.5l0.9,0.7c0,0.5,0,0.9,0.1,1.3l0.3,0.3h1.7l1.6,1.5h-3.1v11.5l-1.6-1.6v-8.1
		c0-0.4-0.1-0.7-0.3-1c-0.4-0.5-1-0.9-1.6-0.9h-0.4l-1.6-1.5c0.8-0.1,1.5-0.1,2.3,0C231.2,59.9,231.9,60.3,232.3,60.9z"/>
	<path class="st0" d="M243.6,61.3v11.1l-0.8-0.8c-0.7-1.3-1.1-2-1.2-2.1c-0.5-0.7-1.1-1.2-1.8-1.6c-0.9-0.5-1.9-0.8-3-0.8l-1.7-2.2
		c2.1-1.5,4.4-2.7,6.9-3.5v-0.3H235l-1.6-1.5h11.4l1.6,1.5L243.6,61.3z M239.1,71.2c-0.4,0-0.7-0.1-1-0.4c-0.3-0.2-0.4-0.6-0.4-0.9
		c0-0.3,0.1-0.6,0.4-0.9c0.3-0.2,0.6-0.4,0.9-0.4c0.3,0,0.6,0.1,0.9,0.3c0.3,0.2,0.4,0.4,0.5,0.7c0.1,0.4,0,0.8-0.2,1.1
		C239.8,71.1,239.4,71.3,239.1,71.2L239.1,71.2z M242,63.6c-1.3,0.4-2.6,1-3.7,1.8c1.5,0.6,2.8,1.6,3.7,2.9V63.6z"/>
	<path class="st0" d="M255,61.7c-0.2-0.2-0.4-0.4-0.7-0.5h-3.4l-1.7-1.5H261l1.5,1.5h-6.3l0.3,0.4c0.3,0,0.7,0.1,1,0.2
		c1.1,0.4,2,1.3,2.3,2.5c0,0.2,0,0.4,0,0.6c0,1.2-0.7,2.3-1.8,2.7l-1.2,0.6c0.3,0.1,0.7,0.3,1,0.5c0.7,0.4,1.4,0.9,2,1.5l1.8,1.8
		l0.7,2.4l-1.1-1.1c-1.2-1.2-2.6-2.1-4.1-2.9c-1.4-0.8-2.8-1.3-4.4-1.6l-1.6-3.7c1.1,0.8,2.5,1.3,3.9,1.3c1.1,0,2.2-0.4,3.1-1.2
		c0.2-0.2,0.3-0.4,0.3-0.7c0-0.4-0.2-0.7-0.5-0.9c-0.4-0.2-0.8-0.4-1.2-0.4h-0.3c-0.1,0.6-0.5,1.2-1.1,1.6c-0.4,0.3-0.8,0.5-1.3,0.5
		c-0.7,0.1-1.4-0.4-1.6-1.2c-0.1-0.5,0.1-1,0.5-1.4c0.3-0.3,0.6-0.5,0.9-0.7L255,61.7z"/>
	<path class="st0" d="M262.7,60.9c-0.1-1.1-0.1-2.3,0-3.5l0.9,0.7c0,0.4,0.2,0.8,0.3,1.2l0.3,0.3h1.7l1.6,1.5h-3.1v11.5l-1.5-1.6
		v-7.9c0-0.4-0.1-0.7-0.3-1c-0.4-0.6-1-0.9-1.6-0.9h-0.4l-1.6-1.5c0.8-0.1,1.5-0.1,2.3,0C261.8,59.9,262.3,60.3,262.7,60.9z"/>
	<path class="st0" d="M268.1,56.9h1.1c1.1-0.2,2.2,0,3.3,0.5c1,0.4,1.6,1.4,1.6,2.5h1.1l1.5,1.5h-8.5v6.9c0,0.4,0.2,0.6,0.7,0.6
		c0.7-0.1,1.3-0.4,1.8-0.9c0.6-0.5,1-1.1,1.2-1.8l0,0c-0.4,0-0.8-0.1-1.2-0.4c-0.3-0.2-0.5-0.6-0.5-1c0-0.1,0-0.3,0-0.4
		c0.2-0.8,0.9-1.4,1.8-1.3c0.6,0,1.2,0.2,1.5,0.7c0.4,0.5,0.6,1,0.6,1.7c0,1.2-0.4,2.3-1.2,3.1c-1.4,1.4-2.6,2.1-3.4,2.1
		c-1.2,0.1-2.4-0.8-2.6-2c0-0.5,0-1.1,0-1.6v-5.8h-1.6l-1.3-1.5h8.8v-0.4c-0.3-0.5-0.8-0.8-1.4-0.7h-3c-0.9,0-1.7-0.2-2.5-0.6
		c-0.8-0.4-1.3-1.1-1.2-2c0-0.4,0.1-0.8,0.4-1.1c0.1-0.2,0.4-0.3,0.6-0.3c0.1,0,0.2,0,0.3,0c0,0.2,0,0.4,0,0.5
		c-0.2,0.1-0.3,0.3-0.3,0.5c0,0.4,0.3,0.7,0.9,0.9C266.9,56.7,267.5,56.8,268.1,56.9z"/>
	<path class="st0" d="M289.9,61.3v11.5l-1-1.4c-0.9-2.4-3.1-4.1-5.7-4.2l-1.6-2.2c1-0.7,2-1.3,3-1.8c1.3-0.6,2.6-1.1,3.9-1.5v-0.4
		h-7.3l-1.5-1.5h11.8l1.5,1.5H289.9z M288.3,63.8c-1.3,0.5-2.5,1.1-3.6,1.8c1.4,0.6,2.7,1.6,3.6,2.8V63.8z"/>
	<path class="st0" d="M293,60.9c-0.1-1.1-0.1-2.3,0-3.5l0.9,0.7c0.1,0.4,0.2,0.8,0.3,1.2l0.3,0.3h1.7l1.6,1.5h-3.1v11.5l-1.6-1.6
		v-7.9c0-0.4-0.1-0.7-0.3-1c-0.4-0.5-1-0.9-1.6-0.9h-0.4l-1.6-1.5c0.8-0.1,1.5-0.1,2.3,0C292.1,59.9,292.7,60.3,293,60.9z"/>
	<path class="st0" d="M303.3,64.2c0.3,0.1,0.5,0.3,0.7,0.6c0.8,0.9,1.1,2.1,1,3.2c-0.2,0.7-0.7,1.2-1.2,1.7c-0.6,0.4-1.3,0.6-2,0.6
		c-1.4-0.1-2.6-0.7-3.5-1.9c-0.6-0.7-1-1.5-1.2-2.3c-0.4-1.5-0.5-3-0.5-4.5c0.4,0.2,0.7,0.4,1.1,0.6c-0.1,0.7-0.1,1.3,0,2
		c0.1,0.5,0.3,1.1,0.5,1.6c0.3,0.6,0.7,1.2,1.3,1.6c0.5,0.5,1.2,0.8,1.9,0.8c0.5-0.1,1-0.2,1.5-0.3c0.6-0.2,0.9-0.5,0.9-1
		c0-0.1,0-0.3,0-0.4c0-0.1-0.1-0.2-0.3-0.2h-0.4c-0.6,0.3-1.2,0.4-1.9,0.5c-1.4,0-2.5-0.9-2.8-2.3c0-0.2,0-0.5,0-0.7
		c0.1-0.8,0.5-1.6,1.1-2.2l0.2-0.3h-4.1l-1.6-1.5h15.2l1.6,1.5h-7.5l-0.6,0.3l0,0c0.3,0.3,0.6,0.5,1,0.6c0.5,0.2,1,0.2,1.5,0.2
		c0.7-0.1,1.4-0.3,2.1-0.5l2,1.9c-0.5,0.5-0.9,1-1.2,1.7c-0.4,0.6-0.6,1.2-0.6,1.9c0,0.4,0,0.8,0,1.2c0.1,1.1,0.4,2.2,0.9,3.1
		c0,0-0.2,0.2-0.4,0.2c-0.2,0-0.5-0.1-0.7-0.2c-0.3,0-0.5,0-0.6-0.3l-0.5-2.2c-0.2-0.7-0.3-1.5-0.4-2.2c0-1,0.2-2,0.6-2.9
		c-0.8,0-1.5-0.1-2.3-0.3c-0.7-0.1-1.4-0.3-2-0.8l-0.6-0.7c-0.2,0-0.5,0.3-0.9,1c-0.3,0.4-0.5,0.8-0.6,1.3c0,0.3,0.2,0.5,0.6,0.5
		c0.6-0.1,1.2-0.4,1.8-0.7l0.6-0.2c0.1,0,0.2,0,0.4,0L303.3,64.2z"/>
	<path class="st0" d="M311,60.9v-3.4l0.9,0.7c0.1,0.4,0.2,0.8,0.3,1.2l0.2,0.3h1.7l1.6,1.5h-3.1v11.5l-1.6-1.6v-7.9
		c0-0.4-0.1-0.7-0.3-1c-0.3-0.6-1-0.9-1.6-0.9h-0.3l-1.6-1.5c0.8-0.1,1.5-0.1,2.3,0C310.1,59.9,310.7,60.3,311,60.9z"/>
	<path class="st0" d="M322.2,61.3v11.1l-0.9-0.8c-0.7-1.3-1.1-2-1.2-2.1c-0.5-0.7-1.1-1.2-1.8-1.6c-0.9-0.5-1.9-0.8-2.9-0.8
		l-1.7-2.2c2.1-1.5,4.4-2.6,6.9-3.5v-0.3h-6.9l-1.6-1.5h11.4l1.6,1.5L322.2,61.3z M317.7,71.2c-0.8,0-1.4-0.6-1.5-1.3
		c0-0.3,0.1-0.7,0.4-0.9c0.2-0.2,0.6-0.4,0.9-0.4c0.3,0,0.6,0.1,0.9,0.3c0.3,0.2,0.4,0.4,0.5,0.7c0.1,0.4,0,0.8-0.2,1.1
		C318.4,71,318.1,71.2,317.7,71.2z M320.6,63.6c-1.3,0.4-2.5,1.1-3.7,1.8c1.5,0.6,2.8,1.6,3.7,2.9V63.6z"/>
	<path class="st1" d="M135.2,15.2l-0.2-4c-1.3-0.9-2.7-1.5-4.2-2c-1.5-0.4-3-0.6-4.6-0.6c-3.6-0.2-7.1,1.2-9.7,3.7
		c-2.4,2.5-3.7,5.7-3.7,9.8c0,2.7,0.6,5.3,1.8,7.7c1.2,2.2,3,4.1,5.2,5.3c2.2,1.3,4.6,2,7.2,2c2,0,4-0.2,5.9-0.7
		c1.6-0.4,3.1-1.1,4.4-2.1l0.5,0.4c-0.3,0.7-0.6,1.4-0.9,2.1c-1.7,0.8-3.4,1.5-5.2,2c-1.7,0.4-3.5,0.7-5.3,0.7
		c-3.3,0.1-6.6-0.7-9.7-2.1c-2.6-1.3-4.9-3.3-6.4-5.9c-1.5-2.6-2.3-5.5-2.2-8.5c0-3,0.7-5.9,2.3-8.4c1.5-2.5,3.7-4.5,6.4-5.8
		c3.2-1.4,6.6-2.1,10.1-2c2.5,0,5,0.4,7.4,1c1.4,0.3,2.5,0.6,3.4,0.7c-0.8,2.2-1.2,4.4-1.2,6.7L135.2,15.2z"/>
	<path class="st1" d="M147.4,22.3c0.7-0.7,1.4-1.4,2-2.2c0.6-0.9,1.4-1.6,2.3-2.2c0.7-0.4,1.5-0.6,2.3-0.6c0.6,0,1.3,0.1,1.9,0.3
		c0.2,0.1,0.3,0.2,0.3,0.4v0.2c-0.3,1.7-0.4,3.4-0.4,5.1h-1c-0.2-0.6-0.7-1.2-1.2-1.6c-0.5-0.3-1.1-0.5-1.7-0.5
		c-0.9,0-1.8,0.3-2.4,0.9c-0.8,0.6-1.3,1.5-1.5,2.5c-0.3,2.1-0.5,4.2-0.4,6.3c0,1.7,0.1,3.5,0.2,5.2c0.1,0.5,0.2,0.8,0.4,1
		c0.8,0.4,1.6,0.5,2.5,0.5h1.3v1.3c-2.3-0.1-4.4-0.2-6.5-0.2s-4,0.1-5.9,0.2v-1.3l2.1-0.2c0.5,0,1-0.1,1.4-0.4
		c0.3-0.7,0.4-1.4,0.4-2.2c0.1-2.1,0.2-4.7,0.2-7.6c0-3.6-0.1-5.7-0.4-6.3c-0.2-0.4-0.8-0.6-1.8-0.6h-1.9V19
		c1.3-0.1,2.6-0.3,3.9-0.6c1-0.2,2-0.6,3-1c0.2-0.1,0.3-0.1,0.5-0.1c0.1,0,0.2,0,0.3,0.1c0.1,0.2,0.1,0.4,0.1,0.6L147.4,22.3z"/>
	<path class="st1" d="M158.6,28.1c0-2,0.5-3.9,1.4-5.6c0.9-1.6,2.3-3,4-3.9c1.8-1,3.8-1.4,5.9-1.4c2.8-0.1,5.6,0.9,7.6,2.8
		c2,2,3,4.7,2.9,7.5c0.1,3.3-1.2,6.6-3.7,8.8c-2.2,1.9-5.1,3-8,2.9c-2.7,0.1-5.4-1-7.3-3C159.4,34.1,158.4,31.1,158.6,28.1z
		 M162.8,26.6c-0.1,2.7,0.6,5.5,1.9,7.9c1,2,3.1,3.3,5.4,3.3c1.7,0,3.3-0.7,4.4-2.1c1.1-1.4,1.7-3.4,1.7-6.2c0-2-0.3-4-1-5.8
		c-0.5-1.4-1.4-2.7-2.6-3.6c-1-0.7-2.3-1.1-3.6-1.1c-1.1,0-2.2,0.3-3.2,0.9c-0.9,0.6-1.7,1.4-2.1,2.4C163,23.5,162.7,25,162.8,26.6z
		"/>
	<path class="st1" d="M190.6,21.8l3.1-2.8c0.6-0.6,1.3-1,2-1.3c1-0.3,2-0.4,3.1-0.4c2.4-0.1,4.7,0.8,6.4,2.5c1.7,1.7,2.5,4,2.4,6.3
		c0,1.3-0.2,2.6-0.6,3.8c-0.3,1.1-0.7,2.2-1.3,3.1c-0.5,0.8-1.1,1.4-1.8,2c-0.2,0.2-1.1,0.8-2.7,1.8l-0.9,0.7
		c-0.8,0.6-1.8,1.2-2.7,1.6c-0.8,0.3-1.6,0.4-2.4,0.4c-0.7,0-1.5-0.2-2.2-0.4c-0.8-0.2-1.6-0.5-2.4-0.9v3.1c0,3.2,0,5.5,0.1,6.8
		c0,0.5,0.2,0.9,0.6,1.3c0.6,0.3,1.4,0.5,2.1,0.4h1.2V51c-2.8-0.1-4.9-0.2-6.2-0.2c-1.4,0-3.3,0-5.5,0.2v-1.2h1.6
		c1.1,0,1.8-0.2,2-0.7s0.3-3.1,0.3-7.9V27.5c0-2.4-0.1-4.2-0.2-5.5c0-0.5-0.1-0.9-0.4-1.2c-0.5-0.3-1.1-0.4-1.6-0.3h-1.7V19
		c2.1-0.2,4.1-0.6,6.1-1.3l1.4-0.5c0.2,0,0.4,0.2,0.4,0.6l-0.1,2.4L190.6,21.8z M190.6,34.1c0.8,0.9,1.8,1.7,2.9,2.3
		c1,0.5,2,0.7,3.1,0.7c2.1,0.1,4.2-0.9,5.4-2.7c1.3-1.9,1.9-4.1,1.9-6.3c0-1.5-0.3-2.9-0.9-4.2c-0.5-1.1-1.4-2.1-2.5-2.7
		c-1.9-1.1-4.2-1.3-6.2-0.5c-0.8,0.3-1.6,0.8-2.2,1.5c-0.5,0.5-1,1.1-1.2,1.8c-0.2,1.1-0.3,2.1-0.2,3.2L190.6,34.1z"/>
	<path class="st1" d="M212.8,32v1.5c-0.1,0.7,0,1.5,0.3,2.2c0.6,0.6,1.4,1.1,2.3,1.4c1.1,0.4,2.3,0.7,3.5,0.7
		c1.4,0.1,2.7-0.4,3.8-1.2c0.9-0.7,1.5-1.8,1.4-3c0-0.8-0.3-1.6-0.9-2.2c-0.9-0.7-2.1-1.2-3.2-1.3c-2-0.3-4-0.9-5.9-1.6
		c-0.9-0.4-1.6-1-2.1-1.8c-0.5-0.8-0.7-1.8-0.7-2.7c-0.1-1.9,0.7-3.6,2.2-4.8c1.7-1.3,3.9-2,6.1-1.9c2.1,0,4.3,0.4,6.2,1.2
		c-0.1,1-0.2,2.7-0.3,5.1h-1.3c0.1-0.9-0.1-1.8-0.4-2.6c-0.5-0.7-1.1-1.2-1.9-1.5c-0.9-0.4-1.9-0.7-2.9-0.7c-1.2-0.1-2.3,0.3-3.2,1
		c-0.8,0.6-1.2,1.6-1.2,2.6c-0.1,0.9,0.3,1.7,1,2.2c0.7,0.5,2.4,1.1,5.3,1.7c1.5,0.2,2.9,0.6,4.2,1.2c0.7,0.4,1.3,1,1.6,1.7
		c0.4,0.8,0.6,1.7,0.6,2.6c0,2-1,3.9-2.6,5.2c-2,1.5-4.4,2.3-6.9,2.2c-2.1,0-4.1-0.3-6.2-0.9c-0.4-0.1-0.6-0.3-0.6-0.5l0.1-0.3
		c0.1-0.4,0.1-0.8,0.2-1.2c0.1-1.5,0.2-2.6,0.2-3.4V32L212.8,32z"/>
	<path class="st1" d="M250,23.1v6.2c0,1.1,0,2.3,0.1,3.8c0.1,2,0.2,3.2,0.2,3.4c0.1,0.3,0.4,0.5,0.6,0.7c0.6,0.3,1.2,0.4,1.8,0.3
		h1.5v1.4c-1.9-0.1-3.8-0.2-5.6-0.2s-4.2,0-7.5,0.2v-1.4h1.4c1.6,0,2.5-0.3,2.8-0.8s0.4-3,0.4-7.3V16c0-3.9-0.1-6.1-0.4-6.6
		c-0.3-0.5-1.1-0.8-2.5-0.8h-1.6V7.1c2.4,0.1,4.7,0.2,6.9,0.2c2.1,0,4.2-0.1,6.2-0.2v1.4h-0.9c-0.9-0.1-1.7,0-2.6,0.3
		c-0.3,0.3-0.6,0.7-0.6,1.1c-0.2,2-0.2,4-0.2,6V21c2.7,0.1,6,0.1,10.1,0.1c3.5,0,6.3,0,8.5-0.1v-4.3c0-2.1-0.1-4.3-0.3-6.4
		c0-0.5-0.2-1-0.6-1.3c-0.6-0.3-1.4-0.5-2.1-0.4H264V7.1c2.3,0.1,4.4,0.2,6.5,0.2c2.2,0,4.5-0.1,6.9-0.2v1.4h-1.7
		c-0.8-0.1-1.5,0.1-2.2,0.4c-0.4,0.4-0.6,0.9-0.6,1.4c-0.1,0.7-0.1,2.8-0.1,6.4V29c0,4.6,0.1,7.1,0.4,7.6c0.3,0.5,1.1,0.8,2.5,0.8
		h1.7v1.4c-2-0.1-4.2-0.2-6.4-0.2c-2.5,0-4.8,0-7,0.2v-1.4h1.5c0.8,0.1,1.5-0.1,2.2-0.4c0.4-0.4,0.6-0.9,0.6-1.5
		c0.2-2.2,0.3-4.5,0.2-6.7v-5.8c-2.1-0.1-4.8-0.1-8-0.1C255.9,22.9,252.4,23,250,23.1z"/>
	<path class="st1" d="M281.4,23.3v-1.5v-1.5l2.4-1.4c0.9-0.5,1.9-1,2.9-1.3c0.9-0.2,1.7-0.4,2.6-0.4c1.8-0.1,3.5,0.4,5,1.4
		c1.2,0.8,2,2.1,2.3,3.5c0.3,2.7,0.4,5.3,0.3,8c-0.1,2.2,0,4.4,0.3,6.6c0.2,0.4,0.6,0.7,1.1,0.6h1.8v1.5c-1.7-0.1-2.9-0.2-3.5-0.2
		c-0.8,0-2,0-3.4,0.2v-2c0-0.6,0-1.3,0-1.9l-4.6,3.5c-0.4,0.3-0.8,0.5-1.2,0.7c-0.5,0.1-1.1,0.2-1.7,0.2c-1.6,0.1-3.2-0.4-4.4-1.4
		c-1-1-1.6-2.4-1.5-3.8c0-1.4,0.3-2.8,1.1-3.9c0.7-1.1,1.8-2,3.1-2.5c3-0.9,6.1-1.6,9.3-2.1c0.1-1.5-0.4-3-1.2-4.2
		c-1.1-1.2-2.7-1.9-4.3-1.8c-0.7,0-1.3,0.1-2,0.3c-0.6,0.2-1.2,0.4-1.7,0.8c-0.4,1.1-0.8,2.1-1.2,3.1L281.4,23.3z M293.2,26.9
		c-4.1,0.9-6.8,1.7-7.9,2.5c-1.1,0.8-1.8,2.2-1.7,3.6c0,1,0.3,1.9,1,2.6c0.6,0.7,1.5,1,2.5,1c1.1,0,2.2-0.3,3.2-0.9
		c1.1-0.7,2.1-1.6,2.9-2.7l-0.1-5L293.2,26.9z"/>
	<path class="st1" d="M304.3,23.3v-1.5v-1.5l2.4-1.4c0.9-0.5,1.9-1,2.9-1.3c0.9-0.2,1.8-0.4,2.6-0.4c1.8-0.1,3.5,0.4,5,1.4
		c1.2,0.8,2,2.1,2.3,3.5c0.3,2.7,0.4,5.3,0.3,8c-0.1,2.2,0,4.4,0.3,6.6c0.1,0.4,0.5,0.6,1.1,0.6h1.7v1.5c-1.7-0.1-2.9-0.2-3.5-0.2
		c-0.8,0-2,0-3.4,0.2v-2c0-0.6,0-1.3,0-1.9l-4.6,3.5c-0.4,0.3-0.8,0.5-1.2,0.7c-0.5,0.1-1.1,0.2-1.7,0.2c-1.6,0.1-3.2-0.4-4.4-1.4
		c-1-1-1.6-2.4-1.5-3.8c0-1.4,0.3-2.8,1.1-3.9c0.7-1.1,1.8-2,3.1-2.5c3-0.9,6.1-1.6,9.3-2.1c0.1-1.5-0.4-3-1.2-4.2
		c-1.1-1.2-2.7-1.9-4.3-1.8c-0.7,0-1.3,0.1-2,0.3c-0.6,0.2-1.2,0.4-1.8,0.8c-0.4,1.1-0.8,2.1-1.2,3.1L304.3,23.3z M316,26.9
		c-4.1,0.9-6.8,1.7-7.9,2.5c-1.1,0.8-1.8,2.2-1.7,3.6c0,1,0.3,1.9,1,2.6c0.6,0.7,1.5,1,2.5,1c1.1,0,2.2-0.3,3.2-0.9
		c1.1-0.7,2.1-1.6,2.8-2.7v-5V26.9z"/>
	<path class="st1" d="M332.2,21.3v8.8c-0.1,1.5,0,2.9,0.2,4.4c0.1,0.6,0.4,1.1,0.9,1.5c0.5,0.4,1.1,0.6,1.7,0.5
		c0.4,0,0.9-0.1,1.3-0.3c0.4-0.2,0.8-0.5,1.2-0.8l0.6,0.8l-2.2,2.5c-0.5,0.2-0.9,0.3-1.4,0.4c-0.4,0.1-0.9,0.1-1.3,0.1
		c-1,0-1.9-0.2-2.8-0.6c-0.7-0.3-1.3-0.9-1.7-1.5c-0.4-0.9-0.6-1.9-0.5-2.9l0.1-4.3v-8.5c-1.1,0-2.3,0-3.5,0.2v-1
		c1.3-0.5,2.5-1,3.5-1.5c0-2.1-0.1-4.4-0.2-6.9c1.3-0.5,2.5-1.1,3.8-1.7l0.6,0.4c-0.1,1.2-0.2,3.9-0.4,8.2c1.8,0,3.3,0,4.4-0.1
		l1.8-0.1l-0.2,2.3h-0.9H333H332.2z"/>
</g>
<g>
	<path class="st2" d="M54.3,12.9c-0.5-0.3-1.1-0.3-1.5,0.2l0,0c-0.4,0.5-0.3,1.1,0.2,1.5C66.7,24.7,69.6,44,59.4,57.7
		C53.8,65.3,45,69.8,35.6,70.1v-5.7c1.2,0.2,2.4,0.4,3.5,0.4c4.5,0,8.8-1.8,11.9-5l1.2-1.1c4.3-4.3,6-10.6,4.4-16.4
		c-0.1-0.4-0.4-0.7-0.7-0.8c-1.8-0.5-3.7-0.7-5.5-0.5c0.3-0.2,0.5-0.5,0.8-0.7l1.2-1.1c4.3-4.3,5.9-10.5,4.3-16.3
		c-0.1-0.4-0.4-0.7-0.7-0.7c-4.7-1.3-9.7-0.4-13.8,2.3c0.9-2.1,1.4-4.5,1.4-6.8V16c0-6-3.2-11.5-8.4-14.5c-0.3-0.2-0.8-0.2-1.1,0
		c-5.2,3-8.4,8.6-8.4,14.6v1.6c0,2.3,0.5,4.6,1.4,6.7c-4.1-2.7-9.1-3.6-13.8-2.3c-0.4,0.1-0.7,0.4-0.7,0.7
		c-1.6,5.9,0.1,12.1,4.3,16.5l1.2,1.1c0.3,0.3,0.5,0.5,0.8,0.7c-1.9-0.1-3.7,0-5.6,0.5c-0.4,0.1-0.7,0.4-0.7,0.8
		c-1.6,5.8,0.1,12.1,4.3,16.3L18,60c3.2,3.2,7.4,5,11.9,5c1.2,0,2.4-0.1,3.5-0.4v5.7c-17-0.5-30.4-14.6-30-31.6
		c0.3-9.5,4.9-18.4,12.6-24c0.5-0.4,0.6-1,0.2-1.5c-0.3-0.5-0.9-0.6-1.4-0.3c0,0,0,0-0.1,0l0,0C0.2,23.8-2.9,44.5,8,59.2
		S39.6,77,54.3,66.1s17.8-31.6,6.9-46.3C59.2,17.1,56.9,14.8,54.3,12.9L54.3,12.9z M54.7,43.6c1.1,4.9-0.4,10.1-4,13.7l-1.1,1.1
		c-3.6,3.6-8.7,5.1-13.7,4c-1.1-5,0.5-10.1,4.1-13.7l1.1-1.1C44.7,44,49.8,42.5,54.7,43.6z M54.7,24.1c1.1,4.9-0.4,10.1-4,13.7
		L49.6,39c-3.6,3.6-8.7,5.1-13.7,4c-1.1-4.9,0.4-10.1,4-13.7l1.1-1.1C44.7,24.6,49.8,23.1,54.7,24.1z M27.7,16.1
		c0-5.1,2.6-9.8,6.8-12.5c4.3,2.7,6.8,7.4,6.9,12.5v1.6c0,5-2.6,9.7-6.9,12.5c-4.2-2.7-6.8-7.4-6.9-12.5L27.7,16.1z M14.4,24.1
		c4.9-1.1,10.1,0.4,13.6,4l1.1,1.1c3.6,3.6,5.1,8.7,4,13.7c-4.9,1.1-10.1-0.4-13.6-4l-1.1-1.1C14.8,34.2,13.3,29.1,14.4,24.1
		L14.4,24.1z M33.1,62.4c-4.9,1.1-10.1-0.4-13.6-4l-1.1-1.1c-3.6-3.6-5.1-8.7-4-13.7c4.9-1.1,10.1,0.4,13.6,4l1.1,1.1
		C32.7,52.3,34.2,57.4,33.1,62.4z"/>
	<g>
		<g>
			<g>
				<g>
					<g>
						<path class="st3" d="M6.2,78.9l-1,3.3H4.6l-0.8-2.6l-0.8,2.6H2.5l-1-3.3H2l0.8,2.8l0.8-2.8h0.6L5,81.6l0.7-2.8H6.2z"/>
						<path class="st3" d="M11.5,78.9l-1,3.3H9.9l-0.8-2.6l-0.8,2.6H7.7l-1-3.3h0.6L8,81.6l0.8-2.8h0.6l0.8,2.8l0.7-2.8H11.5z"/>
						<path class="st3" d="M16.7,78.9l-1,3.3h-0.6l-0.8-2.6l-0.8,2.6h-0.6l-1-3.3h0.6l0.8,2.8l0.8-2.8h0.6l0.8,2.8l0.7-2.8H16.7z"/>
						<path class="st3" d="M17.4,82.1c-0.1-0.1-0.1-0.2-0.1-0.3c0-0.1,0-0.2,0.1-0.3c0.1-0.1,0.2-0.1,0.3-0.1c0.1,0,0.2,0,0.3,0.1
							c0.1,0.1,0.1,0.2,0.1,0.3c0,0.1,0,0.2-0.1,0.3c-0.1,0.1-0.2,0.1-0.3,0.1C17.6,82.2,17.5,82.1,17.4,82.1z"/>
						<path class="st3" d="M19.1,79.6c0.1-0.3,0.3-0.5,0.6-0.6c0.2-0.1,0.5-0.2,0.8-0.2c0.4,0,0.7,0.1,1,0.3
							c0.3,0.2,0.4,0.5,0.5,0.8h-0.6c-0.1-0.2-0.2-0.4-0.3-0.5c-0.2-0.1-0.4-0.2-0.6-0.2c-0.3,0-0.6,0.1-0.8,0.3
							c-0.2,0.2-0.3,0.5-0.3,0.9c0,0.4,0.1,0.7,0.3,0.9c0.2,0.2,0.4,0.3,0.8,0.3c0.2,0,0.4-0.1,0.6-0.2c0.2-0.1,0.3-0.3,0.3-0.5H22
							c-0.1,0.3-0.3,0.6-0.5,0.8c-0.3,0.2-0.6,0.3-1,0.3c-0.3,0-0.6-0.1-0.8-0.2c-0.2-0.1-0.4-0.3-0.6-0.6c-0.1-0.3-0.2-0.6-0.2-0.9
							C18.9,80.2,18.9,79.9,19.1,79.6z"/>
						<path class="st3" d="M24,79c0.2-0.1,0.4-0.2,0.7-0.2v0.6h-0.1c-0.6,0-0.9,0.3-0.9,1v1.8H23v-3.3h0.5v0.5
							C23.6,79.2,23.8,79.1,24,79z"/>
						<path class="st3" d="M26.1,82c-0.3-0.1-0.4-0.3-0.6-0.6c-0.1-0.3-0.2-0.6-0.2-0.9c0-0.3,0.1-0.6,0.2-0.9
							c0.1-0.3,0.3-0.5,0.6-0.6c0.3-0.1,0.5-0.2,0.8-0.2s0.6,0.1,0.8,0.2c0.3,0.1,0.5,0.3,0.6,0.6c0.1,0.3,0.2,0.6,0.2,0.9
							c0,0.3-0.1,0.6-0.2,0.9c-0.2,0.3-0.4,0.5-0.6,0.6c-0.3,0.1-0.5,0.2-0.9,0.2C26.7,82.2,26.4,82.1,26.1,82z M27.5,81.6
							c0.2-0.1,0.3-0.2,0.4-0.4c0.1-0.2,0.2-0.4,0.2-0.7c0-0.3-0.1-0.5-0.2-0.7c-0.1-0.2-0.2-0.3-0.4-0.4c-0.2-0.1-0.3-0.1-0.5-0.1
							c-0.2,0-0.4,0-0.5,0.1c-0.2,0.1-0.3,0.2-0.4,0.4c-0.1,0.2-0.1,0.4-0.1,0.7c0,0.3,0,0.5,0.1,0.7c0.1,0.2,0.2,0.3,0.4,0.4
							c0.2,0.1,0.3,0.1,0.5,0.1S27.4,81.7,27.5,81.6z"/>
						<path class="st3" d="M30.7,79c0.2-0.1,0.5-0.2,0.7-0.2c0.3,0,0.6,0.1,0.8,0.2c0.2,0.1,0.4,0.3,0.6,0.6
							c0.1,0.3,0.2,0.5,0.2,0.9c0,0.3-0.1,0.6-0.2,0.9c-0.1,0.3-0.3,0.5-0.6,0.6c-0.2,0.1-0.5,0.2-0.8,0.2c-0.3,0-0.5-0.1-0.7-0.2
							c-0.2-0.1-0.4-0.3-0.5-0.5v2.2h-0.5v-4.8h0.5v0.6C30.3,79.3,30.5,79.1,30.7,79z M32.3,79.8c-0.1-0.2-0.2-0.3-0.4-0.4
							c-0.2-0.1-0.4-0.1-0.6-0.1c-0.2,0-0.4,0-0.6,0.1c-0.2,0.1-0.3,0.2-0.4,0.4c-0.1,0.2-0.2,0.4-0.2,0.6c0,0.2,0.1,0.5,0.2,0.7
							c0.1,0.2,0.2,0.3,0.4,0.4c0.2,0.1,0.4,0.1,0.6,0.1c0.2,0,0.4,0,0.6-0.1c0.2-0.1,0.3-0.2,0.4-0.4c0.1-0.2,0.1-0.4,0.1-0.7
							C32.5,80.2,32.4,80,32.3,79.8z"/>
						<path class="st3" d="M34.5,82.1c-0.2-0.1-0.4-0.2-0.5-0.4c-0.1-0.2-0.2-0.3-0.2-0.5h0.6c0,0.2,0.1,0.3,0.2,0.4
							c0.1,0.1,0.3,0.2,0.5,0.2c0.2,0,0.4,0,0.5-0.1c0.1-0.1,0.2-0.2,0.2-0.3c0-0.1-0.1-0.3-0.2-0.3c-0.1-0.1-0.3-0.1-0.6-0.2
							c-0.2-0.1-0.4-0.1-0.6-0.2c-0.2-0.1-0.3-0.2-0.4-0.3c-0.1-0.1-0.2-0.3-0.2-0.5c0-0.2,0-0.3,0.1-0.5c0.1-0.1,0.2-0.3,0.4-0.3
							c0.2-0.1,0.4-0.1,0.6-0.1c0.4,0,0.7,0.1,0.9,0.3c0.2,0.2,0.3,0.4,0.4,0.8h-0.5c0-0.2-0.1-0.3-0.2-0.4
							c-0.1-0.1-0.3-0.2-0.5-0.2c-0.2,0-0.4,0-0.5,0.1c-0.1,0.1-0.2,0.2-0.2,0.3c0,0.1,0,0.2,0.1,0.3c0.1,0.1,0.2,0.1,0.3,0.2
							c0.1,0,0.3,0.1,0.4,0.1c0.2,0.1,0.4,0.1,0.6,0.2c0.1,0.1,0.3,0.2,0.4,0.3c0.1,0.1,0.2,0.3,0.2,0.5c0,0.2,0,0.3-0.1,0.5
							c-0.1,0.1-0.2,0.3-0.4,0.3c-0.2,0.1-0.4,0.1-0.6,0.1C34.9,82.2,34.7,82.2,34.5,82.1z"/>
						<path class="st3" d="M39.8,79c0.2,0.1,0.4,0.3,0.5,0.5c0.1,0.2,0.2,0.5,0.2,0.8v1.9h-0.5v-1.9c0-0.3-0.1-0.6-0.2-0.8
							c-0.2-0.2-0.4-0.3-0.7-0.3c-0.3,0-0.5,0.1-0.7,0.3C38.1,79.7,38,80,38,80.3v1.8h-0.5v-4.4H38v1.6c0.1-0.2,0.3-0.3,0.4-0.4
							c0.2-0.1,0.4-0.1,0.6-0.1C39.3,78.8,39.6,78.9,39.8,79z"/>
						<path class="st3" d="M41.6,79.6c0.1-0.3,0.3-0.5,0.6-0.6c0.2-0.1,0.5-0.2,0.8-0.2c0.3,0,0.5,0.1,0.7,0.2
							c0.2,0.1,0.4,0.3,0.5,0.5v-0.6h0.6v3.3h-0.6v-0.6c-0.1,0.2-0.3,0.4-0.5,0.5c-0.2,0.1-0.5,0.2-0.7,0.2c-0.3,0-0.6-0.1-0.8-0.2
							c-0.2-0.1-0.4-0.3-0.6-0.6c-0.1-0.3-0.2-0.6-0.2-0.9C41.4,80.2,41.5,79.9,41.6,79.6z M44,79.9c-0.1-0.2-0.2-0.3-0.4-0.4
							c-0.2-0.1-0.4-0.1-0.6-0.1c-0.2,0-0.4,0-0.6,0.1c-0.2,0.1-0.3,0.2-0.4,0.4S42,80.2,42,80.5c0,0.3,0,0.5,0.1,0.7
							c0.1,0.2,0.2,0.3,0.4,0.4c0.2,0.1,0.4,0.1,0.6,0.1c0.2,0,0.4,0,0.6-0.1c0.2-0.1,0.3-0.2,0.4-0.4c0.1-0.2,0.2-0.4,0.2-0.7
							C44.2,80.3,44.1,80,44,79.9z"/>
						<path class="st3" d="M46,79.6c0.1-0.3,0.3-0.5,0.6-0.6c0.2-0.1,0.5-0.2,0.8-0.2c0.3,0,0.5,0.1,0.7,0.2
							c0.2,0.1,0.4,0.3,0.5,0.5v-0.6h0.6v3.3h-0.6v-0.6c-0.1,0.2-0.3,0.4-0.5,0.5s-0.5,0.2-0.7,0.2c-0.3,0-0.6-0.1-0.8-0.2
							c-0.2-0.1-0.4-0.3-0.6-0.6c-0.1-0.3-0.2-0.6-0.2-0.9C45.8,80.2,45.8,79.9,46,79.6z M48.4,79.9c-0.1-0.2-0.2-0.3-0.4-0.4
							c-0.2-0.1-0.4-0.1-0.6-0.1c-0.2,0-0.4,0-0.6,0.1c-0.2,0.1-0.3,0.2-0.4,0.4s-0.1,0.4-0.1,0.6c0,0.3,0,0.5,0.1,0.7
							c0.1,0.2,0.2,0.3,0.4,0.4c0.2,0.1,0.4,0.1,0.6,0.1c0.2,0,0.4,0,0.6-0.1c0.2-0.1,0.3-0.2,0.4-0.4c0.1-0.2,0.2-0.4,0.2-0.7
							C48.5,80.3,48.5,80,48.4,79.9z"/>
						<path class="st3" d="M51,79.3v1.9c0,0.2,0,0.3,0.1,0.3c0.1,0.1,0.2,0.1,0.4,0.1h0.4v0.5h-0.5c-0.3,0-0.5-0.1-0.7-0.2
							c-0.2-0.1-0.2-0.4-0.2-0.7v-1.9H50v-0.4h0.4V78H51v0.8h0.9v0.4H51z"/>
						<path class="st3" d="M52.7,82.1c-0.1-0.1-0.1-0.2-0.1-0.3c0-0.1,0-0.2,0.1-0.3c0.1-0.1,0.2-0.1,0.3-0.1c0.1,0,0.2,0,0.3,0.1
							c0.1,0.1,0.1,0.2,0.1,0.3c0,0.1,0,0.2-0.1,0.3c-0.1,0.1-0.2,0.1-0.3,0.1C52.9,82.2,52.8,82.1,52.7,82.1z"/>
						<path class="st3" d="M54.4,79.6c0.1-0.3,0.3-0.5,0.6-0.6c0.2-0.1,0.5-0.2,0.8-0.2c0.4,0,0.7,0.1,1,0.3
							c0.3,0.2,0.4,0.5,0.5,0.8h-0.6c-0.1-0.2-0.2-0.4-0.3-0.5c-0.2-0.1-0.4-0.2-0.6-0.2c-0.3,0-0.6,0.1-0.8,0.3
							c-0.2,0.2-0.3,0.5-0.3,0.9c0,0.4,0.1,0.7,0.3,0.9c0.2,0.2,0.4,0.3,0.8,0.3c0.2,0,0.4-0.1,0.6-0.2c0.2-0.1,0.3-0.3,0.3-0.5h0.6
							c-0.1,0.3-0.3,0.6-0.5,0.8c-0.3,0.2-0.6,0.3-1,0.3c-0.3,0-0.6-0.1-0.8-0.2c-0.2-0.1-0.4-0.3-0.6-0.6c-0.1-0.3-0.2-0.6-0.2-0.9
							C54.1,80.2,54.2,79.9,54.4,79.6z"/>
						<path class="st3" d="M58.9,82c-0.3-0.1-0.4-0.3-0.6-0.6c-0.1-0.3-0.2-0.6-0.2-0.9c0-0.3,0.1-0.6,0.2-0.9
							c0.1-0.3,0.3-0.5,0.6-0.6c0.3-0.1,0.5-0.2,0.8-0.2c0.3,0,0.6,0.1,0.8,0.2c0.3,0.1,0.5,0.3,0.6,0.6c0.1,0.3,0.2,0.6,0.2,0.9
							c0,0.3-0.1,0.6-0.2,0.9c-0.2,0.3-0.4,0.5-0.6,0.6c-0.3,0.1-0.5,0.2-0.9,0.2C59.4,82.2,59.1,82.1,58.9,82z M60.3,81.6
							c0.2-0.1,0.3-0.2,0.4-0.4c0.1-0.2,0.2-0.4,0.2-0.7c0-0.3-0.1-0.5-0.2-0.7c-0.1-0.2-0.2-0.3-0.4-0.4c-0.2-0.1-0.3-0.1-0.5-0.1
							c-0.2,0-0.4,0-0.5,0.1c-0.2,0.1-0.3,0.2-0.4,0.4c-0.1,0.2-0.1,0.4-0.1,0.7c0,0.3,0,0.5,0.1,0.7c0.1,0.2,0.2,0.3,0.4,0.4
							c0.2,0.1,0.3,0.1,0.5,0.1C59.9,81.7,60.1,81.7,60.3,81.6z"/>
						<path class="st3" d="M67.1,79c0.2,0.1,0.4,0.3,0.5,0.5c0.1,0.2,0.2,0.5,0.2,0.8v1.9h-0.5v-1.9c0-0.3-0.1-0.6-0.2-0.8
							c-0.2-0.2-0.4-0.3-0.7-0.3c-0.3,0-0.5,0.1-0.7,0.3c-0.2,0.2-0.3,0.4-0.3,0.8v1.8h-0.5v-1.9c0-0.3-0.1-0.6-0.2-0.8
							c-0.2-0.2-0.4-0.3-0.7-0.3c-0.3,0-0.5,0.1-0.7,0.3C63.1,79.7,63,80,63,80.3v1.8h-0.5v-3.3H63v0.5c0.1-0.2,0.3-0.3,0.4-0.4
							c0.2-0.1,0.4-0.1,0.6-0.1c0.3,0,0.5,0.1,0.7,0.2c0.2,0.1,0.4,0.3,0.5,0.5c0.1-0.2,0.2-0.4,0.5-0.5c0.2-0.1,0.4-0.2,0.7-0.2
							C66.6,78.8,66.9,78.9,67.1,79z"/>
					</g>
				</g>
			</g>
		</g>
	</g>
</g>
</svg>
