<svg id="Layer_1" data-name="Layer 1" xmlns="http://www.w3.org/2000/svg" viewBox="0 0 42.35 30"><defs><style>.cls-1{fill:#e1136e;}.cls-2{fill:#d02053;}.cls-3{fill:#9d1638;}.cls-4{fill:#231f20;}</style></defs><path class="cls-1" d="M4.18,16a2.3,2.3,0,0,0-.78-1.34,1.66,1.66,0,0,0-2.14.12,5.26,5.26,0,0,0-.5.61V11.54c0-.08,0-.1-.09-.09a1.89,1.89,0,0,1-.67,0v8.16a.29.29,0,0,0,.27-.11c.15-.16.31-.3.46-.46s.1-.09.15,0a1,1,0,0,0,.15.2,1.54,1.54,0,0,0,1.32.45A1.8,1.8,0,0,0,3.6,19a3.38,3.38,0,0,0,.69-2.08A3.08,3.08,0,0,0,4.18,16ZM3.07,18.66a1.19,1.19,0,0,1-.81.67,1.12,1.12,0,0,1-1.11-.43,2.44,2.44,0,0,1-.39-1.2,5,5,0,0,1,.17-1.81,1.86,1.86,0,0,1,.45-.78A1.12,1.12,0,0,1,3,15.26a2.35,2.35,0,0,1,.4,1.2c0,.15,0,.31,0,.46A3.85,3.85,0,0,1,3.07,18.66Z"/><path class="cls-1" d="M42.35,12.55c-.83,0-1.65.06-2.5,0,.09-.24.17-.47.25-.71l.39-1c0-.11.07-.11.14,0,.31.31.63.61.92.93s.53.55.8.81Z"/><path class="cls-2" d="M21.85,4.58l.7.08.83.1,1.08.13.81.1,1.09.13.79.09,1.11.14,1.06.12,1.05.13.79.09c.09,0,.1,0,.08.11-.17.58-.33,1.17-.49,1.75-.21.79-.43,1.58-.65,2.37s-.42,1.51-.62,2.27c-.13.47-.27.94-.4,1.41,0,.05,0,.11-.06.13s-.05-.06-.08-.09c-.53-.68-1.06-1.37-1.6-2.05l-1.9-2.41L24.1,7.44,22.9,5.93Z"/><path class="cls-1" d="M29.26,13.88a7.19,7.19,0,0,1,.21-.83l.63-2.26c.21-.75.41-1.5.62-2.25s.43-1.59.65-2.38a2.14,2.14,0,0,1,.13-.38c.21.29.4.57.61.85l1.44,2c.36.49.72,1,1.07,1.49l1.47,2,1.23,1.72c.32.43.63.86.94,1.3,0,0,.07.07.06.12a1.38,1.38,0,0,1-.64,0l-5.44-.86L29.45,14A.27.27,0,0,1,29.26,13.88Z"/><path class="cls-2" d="M29.26,13.88l2.1.32,4.1.64,2.86.45-.33.18c-1,.49-1.94,1-2.89,1.46-.74.39-1.48.75-2.22,1.12l-2.35,1.2c-.13.06-.1-.06-.11-.1-.08-.31-.14-.61-.21-.92l-.81-3.64C29.35,14.35,29.3,14.12,29.26,13.88Z"/><path class="cls-3" d="M29.07,14.13c.12.52.24,1,.35,1.55s.25,1.14.38,1.71l.69,3.08a.11.11,0,0,1,0,.12L29.09,21.7l-1.15.94L26.5,23.8a1.06,1.06,0,0,1-.28.2L29,14.13Z"/><path class="cls-4" d="M5.25,15.54V11.67c0-.22,0-.21.22-.2a1.36,1.36,0,0,0,.45,0c.15,0,.18,0,.18.16v3.32c0,.07,0,.18,0,.2s.16-.05.22-.11a9.76,9.76,0,0,0,.76-.94l1.94-2.55a.2.2,0,0,1,.21-.08,1.14,1.14,0,0,0,.45,0s.09,0,.11,0,0,.06,0,.09c-.4.5-.8,1-1.21,1.48S7.54,14.32,7,15c0,.07-.1.12,0,.23.77,1.12,1.58,2.21,2.33,3.35l.6.95s.07.08,0,.13-.08,0-.12,0a3.48,3.48,0,0,0-.79,0,.15.15,0,0,1-.17-.08A19.51,19.51,0,0,0,7.8,17.81L6.3,15.6l0,0s-.07-.11-.14-.09,0,.1,0,.15v3.92c0,.07,0,.1-.11.09a2.58,2.58,0,0,0-.62,0c-.1,0-.12,0-.12-.1v-4Z"/><path class="cls-4" d="M20.3,15.29a5.34,5.34,0,0,1,.43-.5,1.56,1.56,0,0,1,2-.13,1.28,1.28,0,0,1,.41.66,3.24,3.24,0,0,1,.16,1c0,1,0,2.07,0,3.1,0,.19,0,.18-.18.18a3.69,3.69,0,0,0-.47,0c-.09,0-.11,0-.11-.09v-.14c0-.87,0-1.75,0-2.62a4.89,4.89,0,0,0-.11-1.08,1,1,0,0,0-1.67-.53,1.49,1.49,0,0,0-.45.91,2.27,2.27,0,0,0,0,.45v2.92c0,.19,0,.18-.18.18a2,2,0,0,0-.49,0c-.09,0-.11,0-.12-.1v-8c0-.1,0-.13.14-.11a1.46,1.46,0,0,0,.51,0c.13,0,.14,0,.14.15v3.68Z"/><path class="cls-2" d="M38.59,15.25l-1.52-2.1c-.36-.51-.73-1-1.1-1.52a.56.56,0,0,1,0-.08c-.08-.09,0-.11.06-.13l1.33-.23,1.71-.3c.37-.07.75-.13,1.12-.21.15,0,.13,0,.09.12l-.6,1.63-.69,1.88Z"/><path class="cls-4" d="M14.48,19.29c0-.11-.1-.06-.17-.05-.23,0-.33,0-.33-.29V16.16a2.82,2.82,0,0,0-.09-.71,1.31,1.31,0,0,0-1.27-1.09,2.41,2.41,0,0,0-1.51.44.34.34,0,0,0-.18.36,2.62,2.62,0,0,1,0,.28s0,.1,0,.12.08,0,.1-.08a1.2,1.2,0,0,1,1.34-.64,1,1,0,0,1,.73.63,2.24,2.24,0,0,1,.09.45c0,.47-.08.69-.5.78s-.72.15-1.07.23a1.41,1.41,0,0,0-.95.6,1.56,1.56,0,0,0-.21.9,1.27,1.27,0,0,0,1.59,1.25,1.74,1.74,0,0,0,1-.61s0-.1.09-.08,0,.07,0,.11a.6.6,0,0,0,.49.48,1.37,1.37,0,0,0,.63-.08A.16.16,0,0,0,14.48,19.29Zm-1.28-.76a1.31,1.31,0,0,1-1.07.71.79.79,0,0,1-.83-.76,1.15,1.15,0,0,1,.19-.9,1.35,1.35,0,0,1,.74-.44l.82-.19c.1,0,.12,0,.14.11a6.31,6.31,0,0,1,0,.74c0,.23,0,.42,0,.61C13.21,18.45,13.22,18.5,13.2,18.53Z"/><path class="cls-4" d="M17.07,14.36a1.92,1.92,0,0,1,.78.19c.11,0,.17.11.11.25s-.1.34-.15.51,0,.1-.07.11-.07-.06-.09-.1a1.26,1.26,0,0,0-.36-.47.78.78,0,0,0-1.22.53.93.93,0,0,0,.17.79,1.32,1.32,0,0,0,.57.36l.59.23a1.26,1.26,0,0,1,.85,1.5,1.71,1.71,0,0,1-.44.94,1.67,1.67,0,0,1-1,.49,2.15,2.15,0,0,1-1.29-.23.17.17,0,0,1-.11-.25,4.56,4.56,0,0,0,.13-.53s0-.09.06-.1.07,0,.09.07a2,2,0,0,0,.54.57.84.84,0,0,0,.89,0,.9.9,0,0,0,.51-.79.83.83,0,0,0-.31-.78,1.8,1.8,0,0,0-.48-.24c-.24-.08-.48-.15-.72-.25a1.09,1.09,0,0,1-.66-.85,1.81,1.81,0,0,1,.18-1.27A1.5,1.5,0,0,1,17.07,14.36Z"/><path class="cls-1" d="M31.73,18.89,38.4,15.5c-.07.29-.16.54-.24.79,0,.08-.11.1-.17.13l-3.56,1.42L31.79,18.9Z"/><path class="cls-3" d="M21.8,6.18h1c.12,0,.16.14.23.22l1.77,2.27c.29.37.58.73.85,1.12l-.18-.14-.75-.72L23.15,7.46c-.31-.29-.63-.58-.94-.89A3.63,3.63,0,0,1,21.8,6.18Z"/></svg>