<svg id="Layer_1" data-name="Layer 1" xmlns="http://www.w3.org/2000/svg" viewBox="0 0 94.18 30"><defs><style>.cls-1{fill:#f9f9f9;}.cls-2{fill:#09599e;}.cls-3{fill:#e59703;}.cls-4{fill:#fff;isolation:isolate;opacity:0.05;}.cls-5{fill:#00589f;}.cls-6{fill:#f9a51a;}.cls-7{fill:#4361c3;}.cls-8{fill:#ffaf38;}.cls-9{fill:#eb3636;}</style></defs><rect class="cls-1" y="7.88" width="42.35" height="14.12"/><path class="cls-2" d="M1.77-.06H40.59A1.76,1.76,0,0,1,42.35,1.7V7.88H0V1.7A1.76,1.76,0,0,1,1.77-.06Z"/><path class="cls-3" d="M0,22H42.35v6.17a1.76,1.76,0,0,1-1.76,1.77H1.77A1.77,1.77,0,0,1,0,28.17Z"/><path class="cls-4" d="M1.77,29.9A1.77,1.77,0,0,1,0,28.13V1.7A1.76,1.76,0,0,1,1.77-.06H40.59A1.76,1.76,0,0,1,42.35,1.7"/><polygon class="cls-5" points="16.37 18.64 17.65 11.19 19.68 11.19 18.4 18.64 16.37 18.64"/><path class="cls-5" d="M25.76,11.41A5.58,5.58,0,0,0,24,11.1c-2,0-3.45,1-3.45,2.47,0,1.06,1,1.68,1.77,2s1.06.62,1.06.93c0,.48-.62.75-1.24.75a4.47,4.47,0,0,1-1.89-.4l-.27-.18-.26,1.68a6,6,0,0,0,2.25.4c2.11,0,3.53-1,3.53-2.56,0-.84-.53-1.5-1.72-2-.71-.36-1.15-.58-1.15-.93s.35-.66,1.15-.66a4.26,4.26,0,0,1,1.5.26l.17.09.35-1.54"/><path class="cls-5" d="M31,11.23H29.38a1,1,0,0,0-1.06.62l-3,6.84h2.12s.36-.93.44-1.11h2.61c0,.27.26,1.11.26,1.11h1.9L31,11.23M28.46,16l.79-2.08s.18-.44.26-.7l.14.66L30.13,16H28.46Z"/><path class="cls-5" d="M14.65,11.23l-2,5.08-.22-1a5.85,5.85,0,0,0-2.82-3.13l1.85,6.48h2.16l3.22-7.45h-2.2"/><path class="cls-6" d="M10.81,11.19H7.54l0,.17a6.76,6.76,0,0,1,4.94,3.89l-.71-3.4c-.08-.49-.48-.62-.92-.66"/><path class="cls-7" d="M53.59-.08H92.41a1.77,1.77,0,0,1,1.77,1.76V28.15a1.78,1.78,0,0,1-1.77,1.77H53.59a1.78,1.78,0,0,1-1.77-1.77V1.68A1.77,1.77,0,0,1,53.59-.08Z"/><path class="cls-8" d="M78.07,8.74a6.4,6.4,0,1,1-6.39,6.4A6.41,6.41,0,0,1,78.07,8.74Z"/><rect class="cls-8" x="72.56" y="11.83" width="4.41" height="0.88"/><path class="cls-9" d="M67.93,21.53a6.4,6.4,0,1,1,6.39-6.39A6.4,6.4,0,0,1,67.93,21.53Z"/><path class="cls-8" d="M72.56,18v-.88h5.73V18Zm0-6.17h5.73v.88H72.56Zm5.29,2.64H72.12v-.88h5.73v.88Zm0,1.77H72.12v-.88h5.73v.88Z"/><path class="cls-4" d="M53.59,29.92h.79L94.18,2.47V1.68A1.78,1.78,0,0,0,92.41-.09H53.59a1.78,1.78,0,0,0-1.77,1.77V28.15A1.78,1.78,0,0,0,53.59,29.92Z"/></svg>