<svg id="Layer_1" data-name="Layer 1" xmlns="http://www.w3.org/2000/svg" viewBox="0 0 100 35"><defs><style>.cls-1{fill:#fff;}</style></defs><path class="cls-1" d="M43.52,15.69l.15.14a4.47,4.47,0,0,0-.27.59,5.52,5.52,0,0,1-1.31.51,6.27,6.27,0,0,1-1.45.15,5.67,5.67,0,0,1-2.59-.54A3.88,3.88,0,0,1,36.43,15a4.36,4.36,0,0,1-.57-2.24,3.85,3.85,0,0,1,1.28-3A5.15,5.15,0,0,1,40.7,8.65a8.36,8.36,0,0,1,1.5.13,9,9,0,0,1,1.47.41l0,.09a3.61,3.61,0,0,0-.15.61q-.08.51-.12,1.26H43a9.85,9.85,0,0,0-.07-1,1.14,1.14,0,0,0-.32-.31,2.18,2.18,0,0,0-.78-.36,4,4,0,0,0-1.08-.14,2.91,2.91,0,0,0-2.22.87,3.34,3.34,0,0,0-.83,2.41,3.74,3.74,0,0,0,1,2.7,3.35,3.35,0,0,0,2.52,1,4.74,4.74,0,0,0,1.16-.13A5.31,5.31,0,0,0,43.52,15.69Z"/><path class="cls-1" d="M44.16,17v-.48a3.11,3.11,0,0,0,.68-.07A.29.29,0,0,0,45,16.3a2.17,2.17,0,0,0,.07-.62q0-.86,0-1.56c0-.9,0-1.43,0-1.6a.3.3,0,0,0-.1-.21,2.35,2.35,0,0,0-.75-.08v-.45a9.17,9.17,0,0,0,1.68-.28l.6-.23c.06,0,.08,0,.08.11v.09c0,.24,0,.59,0,1a8.31,8.31,0,0,0,.66-.72,1.73,1.73,0,0,1,.47-.43,1.28,1.28,0,0,1,.53-.1,1,1,0,0,1,.38.07c0,.39-.06.92-.07,1.59l-.26.09a.85.85,0,0,0-.3-.32.8.8,0,0,0-.41-.09,1,1,0,0,0-.61.18.9.9,0,0,0-.32.42,7.94,7.94,0,0,0,0,1.2,16.27,16.27,0,0,0,0,1.73.28.28,0,0,0,.11.22,2.47,2.47,0,0,0,.88.12V17l-.66,0H44.82Z"/><path class="cls-1" d="M49.17,14.18a3,3,0,0,1,.65-2.08,3.6,3.6,0,0,1,4.38-.17A2.84,2.84,0,0,1,54.87,14a3.15,3.15,0,0,1-.77,2.27,2.89,2.89,0,0,1-2.16.79,2.69,2.69,0,0,1-2.06-.74A3,3,0,0,1,49.17,14.18Zm1.62-.4a4.6,4.6,0,0,0,.4,2.22,1,1,0,0,0,.93.51,1,1,0,0,0,.84-.43,3,3,0,0,0,.29-1.58,4.57,4.57,0,0,0-.36-2.17,1,1,0,0,0-.93-.48,1,1,0,0,0-.85.44A2.63,2.63,0,0,0,50.79,13.78Z"/><path class="cls-1" d="M55.66,12.22v-.45a10.11,10.11,0,0,0,1.7-.27l.62-.2c.06,0,.09,0,.09.14s0,.18,0,.32l0,.53.95-.75a1.6,1.6,0,0,1,1-.24,2.16,2.16,0,0,1,1.59.61,2.3,2.3,0,0,1,.59,1.65,3.62,3.62,0,0,1-.15,1,2.86,2.86,0,0,1-.35.8,3.44,3.44,0,0,1-.72.69c-.59.48-.94.74-1,.81a1.55,1.55,0,0,1-.8.19,2.39,2.39,0,0,1-.53-.06,2.5,2.5,0,0,1-.52-.19l0,1.78a1.47,1.47,0,0,0,.14.75,1.85,1.85,0,0,0,.86.1v.48l-1.58,0c-.85,0-1.46,0-1.81,0v-.48a2.4,2.4,0,0,0,.72-.07.24.24,0,0,0,.08-.11,6.73,6.73,0,0,0,.08-1.2c0-1,0-1.72,0-2.21V13.55a5.69,5.69,0,0,0-.06-1.17.24.24,0,0,0-.09-.11A3.06,3.06,0,0,0,55.66,12.22ZM58,15.69a2,2,0,0,0,.57.5,1.43,1.43,0,0,0,.68.17,1.16,1.16,0,0,0,1-.52,2.79,2.79,0,0,0,.38-1.66,2.19,2.19,0,0,0-.39-1.41,1.25,1.25,0,0,0-1-.47,1.54,1.54,0,0,0-.61.14,2.59,2.59,0,0,0-.61.44Z"/><path class="cls-1" d="M63.72,15.07a3.91,3.91,0,0,0,.08.84,1.12,1.12,0,0,0,.48.42,1.8,1.8,0,0,0,.82.18,1.33,1.33,0,0,0,.85-.23.79.79,0,0,0,.29-.63.69.69,0,0,0-.21-.53,2,2,0,0,0-.87-.34,6.41,6.41,0,0,1-1.33-.39,1.22,1.22,0,0,1-.49-.49,1.62,1.62,0,0,1-.18-.79,1.73,1.73,0,0,1,.27-.95,1.9,1.9,0,0,1,.77-.65,3.18,3.18,0,0,1,1.34-.24,4.64,4.64,0,0,1,1.6.28A13.29,13.29,0,0,0,67,13h-.46a2.89,2.89,0,0,0-.1-.74.72.72,0,0,0-.34-.29,1.72,1.72,0,0,0-.72-.15,1.21,1.21,0,0,0-.76.21.7.7,0,0,0-.28.56.58.58,0,0,0,.25.48,3,3,0,0,0,1.17.36,4.92,4.92,0,0,1,.88.22,1.26,1.26,0,0,1,.62.51,1.49,1.49,0,0,1,.22.85,1.74,1.74,0,0,1-.77,1.52,3.12,3.12,0,0,1-1.82.52,3.66,3.66,0,0,1-.77-.08,7.85,7.85,0,0,1-.93-.23l-.09-.1a13.4,13.4,0,0,0,.09-1.6Z"/><path class="cls-1" d="M71.38,17v-.49a3.16,3.16,0,0,0,.87-.1.43.43,0,0,0,.14-.28,12.36,12.36,0,0,0,.06-1.62v-3.2a11.66,11.66,0,0,0-.06-1.76.24.24,0,0,0-.1-.14,3.09,3.09,0,0,0-.9-.12V8.76c.78,0,1.4,0,1.85,0,.72,0,1.38,0,2,0v.49a3.63,3.63,0,0,0-.85.11.21.21,0,0,0-.11.1,2.56,2.56,0,0,0-.08.68q0,.84,0,1.71v.48c.41,0,1,0,1.93,0s1.36,0,1.73,0c0-1.27,0-2.11,0-2.52,0-.23,0-.36-.12-.41a2,2,0,0,0-.9-.15V8.76c1,0,1.62,0,2,0,.59,0,1.21,0,1.86,0v.49a3.79,3.79,0,0,0-.87.11.27.27,0,0,0-.1.11,4.43,4.43,0,0,0-.08.95c0,.85,0,1.54,0,2.06l0,2.66a5.61,5.61,0,0,0,0,1,.31.31,0,0,0,.13.19,3.41,3.41,0,0,0,.87.11V17l-.64,0-1.15,0c-.57,0-1.25,0-2,0v-.49a2.23,2.23,0,0,0,.88-.13c.07-.06.11-.22.13-.48,0-.44,0-1.38.06-2.83H76.34l-2.2,0v.39c0,1,0,1.78,0,2.29,0,.35.07.55.14.6a2.43,2.43,0,0,0,.89.14V17l-.69,0-1.17,0Z"/><path class="cls-1" d="M86.67,16.48V17l-.45,0H85.5c-.36,0-.71,0-1,0l-.06-.06.06-.8L83.24,17a2.6,2.6,0,0,1-.58.07,1.23,1.23,0,0,1-1-.36,1.54,1.54,0,0,1-.34-1.08,1.46,1.46,0,0,1,.46-1.23,6.78,6.78,0,0,1,2.63-.83,1.82,1.82,0,0,0-.24-1,1.16,1.16,0,0,0-1-.43,1.75,1.75,0,0,0-.32,0,2.3,2.3,0,0,0-.34.12l-.26.63-.4-.1v-.76a7.49,7.49,0,0,1,1.28-.69,2.4,2.4,0,0,1,.8-.11,2.57,2.57,0,0,1,1.12.21,1.36,1.36,0,0,1,.63.57,2.2,2.2,0,0,1,.2,1c0,.19,0,.53,0,1s0,.91,0,1.22a6.42,6.42,0,0,0,0,.89.29.29,0,0,0,.12.15A2.53,2.53,0,0,0,86.67,16.48Zm-2.21-2.4a3.5,3.5,0,0,0-1.33.48.87.87,0,0,0-.31.7.76.76,0,0,0,.2.57.67.67,0,0,0,.5.2,1.33,1.33,0,0,0,.94-.52Z"/><path class="cls-1" d="M92.66,16.48V17l-.46,0h-.71c-.37,0-.72,0-1,0l-.06-.06.06-.8L89.23,17a2.6,2.6,0,0,1-.58.07,1.27,1.27,0,0,1-1-.36,1.59,1.59,0,0,1-.34-1.08,1.49,1.49,0,0,1,.46-1.23,6.85,6.85,0,0,1,2.64-.83,1.82,1.82,0,0,0-.24-1,1.19,1.19,0,0,0-1-.43,1.86,1.86,0,0,0-.33,0l-.33.12-.26.63-.41-.1v-.76a7.86,7.86,0,0,1,1.29-.69,2.33,2.33,0,0,1,.79-.11,2.62,2.62,0,0,1,1.13.21,1.46,1.46,0,0,1,.63.57,2.2,2.2,0,0,1,.2,1c0,.19,0,.53,0,1s0,.91,0,1.22a5.07,5.07,0,0,0,0,.89.27.27,0,0,0,.11.15A2.55,2.55,0,0,0,92.66,16.48Zm-2.21-2.4a3.57,3.57,0,0,0-1.34.48.9.9,0,0,0-.31.7.81.81,0,0,0,.2.57.69.69,0,0,0,.5.2,1.35,1.35,0,0,0,1-.52Z"/><path class="cls-1" d="M93.05,12.26l.78-.51c0-.69,0-1.29-.06-1.81a9.14,9.14,0,0,0,1.51-.6l.18.14a18.78,18.78,0,0,0-.18,2.27,3.27,3.27,0,0,0,.53.05,6.77,6.77,0,0,0,1.07-.08l.06,0-.06.21a5.61,5.61,0,0,0-.13.61c-.45,0-.79-.05-1-.05l-.47,0c0,.4,0,.74,0,1a10.23,10.23,0,0,0,.12,2.24c.07.18.26.27.55.27l.28,0,.32-.08.1.22c-.24.26-.46.53-.69.81l-.39.06h-.34a1.72,1.72,0,0,1-.82-.17,1.07,1.07,0,0,1-.48-.43,1.71,1.71,0,0,1-.15-.81c0-.18,0-.68,0-1.47s0-1.25,0-1.66h-.3a3.28,3.28,0,0,0-.48,0Z"/><path class="cls-1" d="M26.41,6.82a.46.46,0,0,0-.55.74,13.31,13.31,0,0,1-7.51,24V29.07a7.25,7.25,0,0,0,1.53.17,7.33,7.33,0,0,0,5.17-2.13l.49-.5a7.3,7.3,0,0,0,1.89-7,.45.45,0,0,0-.33-.32A7.18,7.18,0,0,0,24.71,19l.34-.31.49-.49a7.3,7.3,0,0,0,1.89-7,.48.48,0,0,0-.33-.33,7.33,7.33,0,0,0-6,1,7.31,7.31,0,0,0,.63-2.93v-.7A7.32,7.32,0,0,0,18.12,1.9a.47.47,0,0,0-.46,0A7.31,7.31,0,0,0,14,8.22v.7a7.3,7.3,0,0,0,.62,2.93,7.33,7.33,0,0,0-6-1,.5.5,0,0,0-.33.33,7.32,7.32,0,0,0,1.89,7l.49.49.34.31a7.2,7.2,0,0,0-2.39.23.46.46,0,0,0-.33.32,7.32,7.32,0,0,0,1.89,7l.49.5a7.35,7.35,0,0,0,5.17,2.13,7.25,7.25,0,0,0,1.53-.17v2.45a13.31,13.31,0,0,1-7.51-24,.46.46,0,0,0-.55-.74,14.23,14.23,0,1,0,22.75,11.4A14.12,14.12,0,0,0,26.41,6.82Zm.19,13.25A6.39,6.39,0,0,1,24.89,26l-.49.49a6.4,6.4,0,0,1-5.9,1.71,6.39,6.39,0,0,1,1.72-5.89l.49-.5A6.39,6.39,0,0,1,26.6,20.07Zm0-8.39a6.37,6.37,0,0,1-1.71,5.89l-.49.49a6.38,6.38,0,0,1-5.9,1.72,6.41,6.41,0,0,1,1.72-5.9l.49-.49A6.39,6.39,0,0,1,26.6,11.68ZM14.93,8.22a6.39,6.39,0,0,1,3-5.38,6.39,6.39,0,0,1,3,5.38v.7a6.41,6.41,0,0,1-3,5.38,6.41,6.41,0,0,1-3-5.38ZM9.18,11.68a6.39,6.39,0,0,1,5.89,1.71l.49.49a6.38,6.38,0,0,1,1.72,5.9,6.38,6.38,0,0,1-5.9-1.72l-.49-.49A6.37,6.37,0,0,1,9.18,11.68Zm8.1,16.49a6.4,6.4,0,0,1-5.9-1.71L10.89,26a6.39,6.39,0,0,1-1.71-5.9,6.39,6.39,0,0,1,5.89,1.71l.49.5A6.37,6.37,0,0,1,17.28,28.17Z"/><path class="cls-1" d="M28.55,5.92v-.1l.14,0h0s0,0,0-.06,0-.15,0-.37,0-.31,0-.47,0-.47,0-.48h-.44l0,0s0,.08,0,.21h-.1c0-.15,0-.28,0-.39h0l.73,0,.79,0v0c0,.11,0,.23,0,.38h-.1a1.41,1.41,0,0,0,0-.22h0l-.38,0h0s0,0,0,.06v.8c0,.23,0,.37,0,.43s0,.08,0,.09l.19,0v.1h-.79Z"/><path class="cls-1" d="M29.84,5.92v-.1h.07a.14.14,0,0,0,.11,0,.41.41,0,0,0,0-.17c0-.19,0-.4,0-.63V4.57a.53.53,0,0,0,0-.18l0,0-.17,0v-.1h.59c0,.1.08.2.13.3l.43.9c.27-.55.46-.94.57-1.2h.56v.1c-.11,0-.16,0-.18,0s0,0,0,.11,0,.29,0,.56V5.5a2,2,0,0,0,0,.27,0,0,0,0,0,0,0l.17,0v.1h-.76v-.1h.07a.23.23,0,0,0,.11,0,.19.19,0,0,0,0-.1,3.58,3.58,0,0,0,0-.4V4.58c-.12.24-.28.56-.47,1a4,4,0,0,0-.18.4h-.08c-.06-.14-.14-.31-.24-.52l-.41-.84v.16c0,.44,0,.75,0,.92a.31.31,0,0,0,0,.13l.18,0v.1h-.56Z"/><path class="cls-1" d="M36.74,25.41V29l-.32-.44a2,2,0,0,0-1.81-1.31l-.52-.7A8.39,8.39,0,0,1,35,26a9.61,9.61,0,0,1,1.21-.49v-.11H34l-.5-.47h3.74l.49.47Zm-.49.79a6.5,6.5,0,0,0-1.16.57,2.89,2.89,0,0,1,1.16.88Z"/><path class="cls-1" d="M39.34,26.24v.11c0,.27-.22.52-.68.77a1.15,1.15,0,0,1-.49.14.74.74,0,0,1-.43-.14.47.47,0,0,1-.19-.36V25.41h-.4l-.46-.47h3.77l.49.47H38.07l.07.12a.92.92,0,0,0,.65.24l.23,0,.22,0A.93.93,0,0,1,40,26a1,1,0,0,1,.29.7,1.19,1.19,0,0,1-.75,1l-.26.12.48.24a4.09,4.09,0,0,1,1,.87l.09.49a5.43,5.43,0,0,0-1-.81,4.51,4.51,0,0,0-1.2-.44,3.14,3.14,0,0,0-.59-.1l-.45-.8a2.58,2.58,0,0,0,.7.14l.48,0a1.25,1.25,0,0,0,.49-.17,1.49,1.49,0,0,0,.39-.34.74.74,0,0,0,.15-.4C39.74,26.33,39.61,26.24,39.34,26.24Zm-1.07-.15L38,25.91v.79c0,.08,0,.11.08.11a.89.89,0,0,0,.29-.15.58.58,0,0,0,.29-.4Z"/><path class="cls-1" d="M43.06,25.41V28.9l-.26-.23L42.41,28a1.75,1.75,0,0,0-.57-.51,2,2,0,0,0-.9-.27l-.53-.68a8.28,8.28,0,0,1,2.14-1v-.1H40.41l-.5-.47h3.58l.51.47Zm-1.43,3.13a.41.41,0,0,1-.32-.13.42.42,0,0,1-.14-.3.35.35,0,0,1,.13-.28.38.38,0,0,1,.29-.12.5.5,0,0,1,.28.1A.41.41,0,0,1,42,28a.39.39,0,0,1-.08.34A.38.38,0,0,1,41.63,28.54Zm.92-2.39a5,5,0,0,0-1.16.58,2.53,2.53,0,0,1,1.16.93Z"/><path class="cls-1" d="M47.76,26.31a1,1,0,0,1,.23.2,1.19,1.19,0,0,1,.33.76.82.82,0,0,1,0,.26,1,1,0,0,1-.38.53,1,1,0,0,1-.62.2,1.44,1.44,0,0,1-1.14-.59,2.52,2.52,0,0,1-.38-.74,4.88,4.88,0,0,1-.14-1.42,1.57,1.57,0,0,1,.34.19,2,2,0,0,0,.06.63,2.94,2.94,0,0,0,.16.5,1.55,1.55,0,0,0,.4.5.89.89,0,0,0,.6.24,2,2,0,0,0,.46-.1c.19-.07.29-.18.29-.3a.25.25,0,0,0,0-.14A.09.09,0,0,0,47.8,27h0a1.63,1.63,0,0,1-.6.15.92.92,0,0,1-.39-.09,1,1,0,0,1-.48-.63,1.65,1.65,0,0,1,0-.21,1.13,1.13,0,0,1,.34-.7l.08-.08H45.4l-.5-.47h4.79l.49.47H47.8a.89.89,0,0,0-.19.1s0,0,0,0,.11.14.31.2a1.22,1.22,0,0,0,.46.07,4.31,4.31,0,0,0,.67-.16c.17.16.38.35.61.59a2,2,0,0,0-.39.52,1.3,1.3,0,0,0-.19.59,2,2,0,0,0,0,.4,2.51,2.51,0,0,0,.29,1,.17.17,0,0,1-.11.06.82.82,0,0,1-.22-.05.36.36,0,0,1-.19-.09c-.05-.23-.11-.46-.17-.69a3,3,0,0,1-.11-.69,2.64,2.64,0,0,1,.2-.93,2.57,2.57,0,0,1-.72-.11,1.11,1.11,0,0,1-.6-.31l-.2-.23c-.07,0-.17.11-.29.3a.86.86,0,0,0-.19.41c0,.11.07.16.2.16a1.94,1.94,0,0,0,.56-.22l.2-.08a.21.21,0,0,1,.11,0Z"/><path class="cls-1" d="M48.89,29.17l-.3.25a.7.7,0,0,1-.37.11,1,1,0,0,1-.47-.11.5.5,0,0,1-.27-.35.52.52,0,0,1,.17-.49.82.82,0,0,1,.53-.19,1.11,1.11,0,0,1,.5.16s0-.11,0-.24a1.62,1.62,0,0,1,0-.23s.06,0,.09,0,.18.07.26.22a.93.93,0,0,1,.12.34v.11a.69.69,0,0,0,0,.13,1.46,1.46,0,0,1,.31.28,1.4,1.4,0,0,1,.52.76.08.08,0,0,1,0,.07.12.12,0,0,1-.11.08.14.14,0,0,1-.1-.05,3.53,3.53,0,0,0-.87-.76S48.88,29.19,48.89,29.17Zm-.71-.31c-.17,0-.25.05-.25.11s0,.1.14.1a.92.92,0,0,0,.25-.05c.09,0,.14-.07.13-.09S48.32,28.86,48.18,28.86Z"/><path class="cls-1" d="M51.56,25.52a1.56,1.56,0,0,0-1.11,1.33,3.52,3.52,0,0,0,0,.5,1.07,1.07,0,0,0,.54,1,.29.29,0,0,0,.12,0h0s0,.07-.15.1q.09,0,.09,0L51,28.3a.78.78,0,0,1-.09-.2.4.4,0,0,1,.26-.45.53.53,0,0,1,.24-.06.32.32,0,0,1,.24.08.45.45,0,0,1,.26.43.56.56,0,0,1-.21.44.75.75,0,0,1-.5.18.92.92,0,0,1-.59-.18A1.83,1.83,0,0,1,49.9,27a2.47,2.47,0,0,1,.64-1.61h-1l-.5-.47H51.8l.48.45A2.25,2.25,0,0,0,51.56,25.52Z"/><path class="cls-1" d="M53.61,25.41v1.1c0,.07,0,.1,0,.11a1.3,1.3,0,0,0,.6-.43c.21-.24.33-.35.37-.35a.13.13,0,0,1,.11.05,1.5,1.5,0,0,1,.59,1.21,1.35,1.35,0,0,1-.59,1.2,1.43,1.43,0,0,1-.81.23,1.39,1.39,0,0,1-1.07-.42,2.82,2.82,0,0,1-.6-1,4.44,4.44,0,0,1-.3-1.09s0-.23-.06-.63l.37.18a3.37,3.37,0,0,0,.25,1c.31.75.76,1.12,1.33,1.12a1.19,1.19,0,0,0,.51-.12.92.92,0,0,0,.52-.7.55.55,0,0,0-.09-.29,3,3,0,0,1-.54.45.8.8,0,0,1-.46.16c-.31,0-.51-.18-.62-.55a2.22,2.22,0,0,1,0-.34v-.95H51.74l-.51-.47h4.31l.51.47Zm.65,3.92a.44.44,0,0,1-.41.26.52.52,0,0,1-.36-.12.45.45,0,0,1-.13-.34.45.45,0,0,1,.14-.33.43.43,0,0,1,.34-.15.45.45,0,0,1,.35.13.4.4,0,0,1,.13.31A.53.53,0,0,1,54.26,29.33Z"/><path class="cls-1" d="M60.14,25.41V29l-.32-.44A2,2,0,0,0,58,27.28l-.53-.7a8.39,8.39,0,0,1,.95-.57,9.61,9.61,0,0,1,1.21-.49v-.11H57.39l-.5-.47h3.74l.49.47Zm-.49.79a6.5,6.5,0,0,0-1.16.57,2.82,2.82,0,0,1,1.16.88Z"/><path class="cls-1" d="M61.13,25.29c0-.31,0-.66,0-1l.27.21a1.79,1.79,0,0,0,.1.36l.08.11h.53l.5.47h-1v3.64l-.48-.5V26a.48.48,0,0,0-.09-.31.61.61,0,0,0-.51-.28h-.12l-.5-.46a3,3,0,0,1,.73,0A.7.7,0,0,1,61.13,25.29Z"/><path class="cls-1" d="M63.47,26.74a.7.7,0,0,1-.36.07.88.88,0,0,1-.63-.25.8.8,0,0,1-.26-.61.76.76,0,0,1,.26-.57.8.8,0,0,1,.59-.26.82.82,0,0,1,.61.26.86.86,0,0,1,.26.6.84.84,0,0,1-.14.43A.87.87,0,0,1,63.47,26.74ZM64,28.8a16.69,16.69,0,0,0-1.57-1.13v-.93c.26.2.56.46.93.78.2.18.6.62,1.19,1.31v.48Zm-.74-3.21a.69.69,0,0,0-.39.19.53.53,0,0,0-.16.38c0,.12,0,.18.14.18a.72.72,0,0,0,.31-.12.58.58,0,0,0,.24-.22.75.75,0,0,0,0-.2C63.43,25.66,63.38,25.59,63.27,25.59Z"/><path class="cls-1" d="M67.4,25.4v3.54l-.51-.45V26.6a.33.33,0,0,0-.13-.25.37.37,0,0,0-.26-.12.17.17,0,0,0-.17.1.67.67,0,0,0,0,.41l-.36.13a.25.25,0,0,0,0-.24,1.05,1.05,0,0,0-.2-.23.57.57,0,0,0-.45-.17.61.61,0,0,0-.41.15.48.48,0,0,0-.17.36.37.37,0,0,0,.25.38A.45.45,0,0,1,65,27a.4.4,0,0,1,.14-.31.5.5,0,0,1,.34-.12.46.46,0,0,1,.44.33.5.5,0,0,1,.06.39.6.6,0,0,1-.6.36,1.09,1.09,0,0,1-.79-.28,1,1,0,0,1-.29-.74,1.13,1.13,0,0,1,.21-.67.81.81,0,0,1,.63-.33,1,1,0,0,1,.71.29l0,.06a.75.75,0,0,1,.21-.23.37.37,0,0,1,.26-.09.54.54,0,0,1,.38.14l.12.14.06.06V25.4H64.17l-.52-.47h4.22l.51.47Z"/><path class="cls-1" d="M68.41,25.29c0-.31,0-.66,0-1l.27.21a1.79,1.79,0,0,0,.1.36l.08.11h.53l.5.47h-1v3.64l-.48-.5V26a.48.48,0,0,0-.09-.31.61.61,0,0,0-.51-.28h-.12l-.5-.46a3,3,0,0,1,.73,0A.7.7,0,0,1,68.41,25.29Z"/><path class="cls-1" d="M72,25.41V28.9l-.27-.23L71.31,28a1.69,1.69,0,0,0-.58-.51,2,2,0,0,0-.9-.27l-.53-.68a8.33,8.33,0,0,1,2.15-1v-.1H69.31l-.51-.47h3.58l.51.47Zm-1.43,3.13a.44.44,0,0,1-.33-.13.41.41,0,0,1-.13-.3.38.38,0,0,1,.12-.28.4.4,0,0,1,.29-.12.48.48,0,0,1,.28.1.42.42,0,0,1,.17.23.39.39,0,0,1-.08.34A.38.38,0,0,1,70.53,28.54Zm.92-2.39a5.31,5.31,0,0,0-1.17.58,2.62,2.62,0,0,1,1.17.93Z"/><path class="cls-1" d="M75.58,25.56a.39.39,0,0,0-.23-.15h-1l-.52-.47H77.5l.49.47H76l0,0a.48.48,0,0,1,.08.12.84.84,0,0,1,.31.07,1.08,1.08,0,0,1,.72.79.58.58,0,0,1,0,.19.91.91,0,0,1-.57.84l-.38.19a2.41,2.41,0,0,1,.31.15,3.38,3.38,0,0,1,.64.47l.56.56.23.77-.37-.41a5.23,5.23,0,0,0-1.28-.9,4.52,4.52,0,0,0-1.39-.49l-.5-1.15a2.38,2.38,0,0,0,1.23.42,1.37,1.37,0,0,0,1-.38.28.28,0,0,0,.1-.22.33.33,0,0,0-.17-.29.68.68,0,0,0-.4-.12H76a.8.8,0,0,1-.33.49.61.61,0,0,1-.42.16.45.45,0,0,1-.49-.37.56.56,0,0,1,.16-.45,1,1,0,0,1,.3-.21Z"/><path class="cls-1" d="M78,25.29c0-.31,0-.66,0-1l.27.21a1.79,1.79,0,0,0,.1.36l.08.11h.53l.5.47h-1v3.64l-.48-.5V26a.48.48,0,0,0-.09-.31.61.61,0,0,0-.51-.28h-.12l-.5-.46a3,3,0,0,1,.73,0A.7.7,0,0,1,78,25.29Z"/><path class="cls-1" d="M79.72,24h0l.34,0a1.94,1.94,0,0,1,1,.14.83.83,0,0,1,.49.79h.36l.49.49H79.74v2.18c0,.11.07.17.21.17a.93.93,0,0,0,.57-.3,1.34,1.34,0,0,0,.39-.55h0a.6.6,0,0,1-.38-.12.43.43,0,0,1-.15-.33.57.57,0,0,1,0-.13.52.52,0,0,1,.55-.39.61.61,0,0,1,.49.23.72.72,0,0,1,.18.52,1.37,1.37,0,0,1-.4,1,1.86,1.86,0,0,1-1.08.67.79.79,0,0,1-.82-.64,2.46,2.46,0,0,1,0-.5V25.41h-.53l-.41-.47h2.77v-.13c0-.17-.18-.25-.44-.22s-.41,0-.71,0h-.25a1.51,1.51,0,0,1-.78-.2.7.7,0,0,1-.4-.62.51.51,0,0,1,.13-.34.19.19,0,0,1,.19-.1.11.11,0,0,1,.08,0,.48.48,0,0,1,0,.18.2.2,0,0,0-.09.15c0,.13.1.22.29.27A1.89,1.89,0,0,0,79.72,24Z"/><path class="cls-1" d="M86.58,25.41V29l-.32-.44a2,2,0,0,0-1.81-1.31l-.52-.7a9.43,9.43,0,0,1,.94-.57,10.33,10.33,0,0,1,1.22-.49v-.11H83.82l-.49-.47h3.74l.49.47Zm-.49.79a6.5,6.5,0,0,0-1.16.57,2.89,2.89,0,0,1,1.16.88Z"/><path class="cls-1" d="M87.57,25.29c0-.31,0-.66,0-1l.28.21a1.31,1.31,0,0,0,.1.36.59.59,0,0,0,.08.11h.53l.49.47H88v3.64l-.49-.5V26a.48.48,0,0,0-.08-.31.62.62,0,0,0-.52-.28h-.11l-.5-.46a3,3,0,0,1,.73,0A.72.72,0,0,1,87.57,25.29Z"/><path class="cls-1" d="M90.82,26.31a1,1,0,0,1,.23.2,1.19,1.19,0,0,1,.33.76,1.27,1.27,0,0,1,0,.26,1.07,1.07,0,0,1-.38.53,1.05,1.05,0,0,1-.63.2,1.44,1.44,0,0,1-1.13-.59,2.3,2.3,0,0,1-.38-.74,4.55,4.55,0,0,1-.14-1.42,1.57,1.57,0,0,1,.34.19,1.54,1.54,0,0,0,.06.63,3.22,3.22,0,0,0,.15.5,1.7,1.7,0,0,0,.4.5.9.9,0,0,0,.61.24,2.07,2.07,0,0,0,.46-.1c.19-.07.28-.18.28-.3A.35.35,0,0,0,91,27a.09.09,0,0,0-.09-.07H90.8a1.55,1.55,0,0,1-.59.15.92.92,0,0,1-.39-.09,1,1,0,0,1-.48-.63,1.65,1.65,0,0,1,0-.21,1.16,1.16,0,0,1,.33-.7l.08-.08H88.45l-.5-.47h4.8l.49.47H90.86a.7.7,0,0,0-.19.1s0,0,0,0,.1.14.31.2a1.2,1.2,0,0,0,.45.07,4.34,4.34,0,0,0,.68-.16l.61.59a1.65,1.65,0,0,0-.39.52,1.19,1.19,0,0,0-.19.59,2,2,0,0,0,0,.4,2.35,2.35,0,0,0,.29,1s-.08.06-.11.06a.82.82,0,0,1-.22-.05c-.11,0-.18-.06-.19-.09-.06-.23-.11-.46-.17-.69a3,3,0,0,1-.11-.69,2.64,2.64,0,0,1,.2-.93,2.57,2.57,0,0,1-.72-.11,1.19,1.19,0,0,1-.61-.31l-.19-.23q-.12,0-.3.3a.92.92,0,0,0-.18.41c0,.11.07.16.19.16a1.86,1.86,0,0,0,.57-.22l.2-.08a.21.21,0,0,1,.11,0Z"/><path class="cls-1" d="M93.24,25.29c0-.31,0-.66,0-1l.27.21a1.79,1.79,0,0,0,.1.36l.08.11h.53l.5.47h-1v3.64l-.48-.5V26a.48.48,0,0,0-.09-.31.61.61,0,0,0-.51-.28h-.12L92,25a3,3,0,0,1,.73,0A.7.7,0,0,1,93.24,25.29Z"/><path class="cls-1" d="M96.78,25.41V28.9l-.26-.23c-.23-.4-.36-.62-.39-.65a1.57,1.57,0,0,0-.57-.51,2,2,0,0,0-.9-.27l-.53-.68a8.33,8.33,0,0,1,2.15-1v-.1H94.14l-.51-.47h3.58l.51.47Zm-1.42,3.13a.44.44,0,0,1-.33-.13.41.41,0,0,1-.13-.3.38.38,0,0,1,.12-.28.4.4,0,0,1,.29-.12.48.48,0,0,1,.28.1.42.42,0,0,1,.17.23.42.42,0,0,1-.08.34A.38.38,0,0,1,95.36,28.54Zm.92-2.39a5.31,5.31,0,0,0-1.17.58,2.62,2.62,0,0,1,1.17.93Z"/></svg>