<?xml version="1.0" encoding="utf-8"?>
<!-- Generator: Adobe Illustrator 26.1.0, SVG Export Plug-In . SVG Version: 6.00 Build 0)  -->
<svg version="1.1" id="Layer_1" xmlns="http://www.w3.org/2000/svg" xmlns:xlink="http://www.w3.org/1999/xlink" x="0px" y="0px"
	 viewBox="0 0 364 74" style="enable-background:new 0 0 364 74;" xml:space="preserve">
<style type="text/css">
	.st0{fill:#323F4A;stroke:#323F4A;stroke-miterlimit:10;}
	.st1{fill:#323F4A;}
	.st2{fill:#323F4A;stroke:#323F4A;stroke-linecap:round;stroke-linejoin:round;stroke-miterlimit:10;}
	.st3{fill:#273B4A;stroke:#323F4A;stroke-width:0.25;stroke-miterlimit:10;}
</style>
<g>
	<path class="st0" d="M127.4,31.7l0.6,0.6c-0.4,0.8-0.8,1.6-1.1,2.5c-41.3,16-42.5-45.1,1.1-30l0.2,0.4c-0.9,2.7-0.9,4.5-1.1,7.8h-2
		c-0.1-4.7,0.1-5.3-4.8-7c-15.5-4.6-22.3,13.9-13,24.2C112,35.3,121.2,35,127.4,31.7z"/>
	<path class="st0" d="M130.1,37v-2c0.9,0,1.9-0.1,2.8-0.3c0.2-0.1,0.4-0.3,0.5-0.5c0.7-3.7,0.4-13.2,0.3-15.7
		c-0.4-1.5-1.1-0.9-3.5-1.2v-1.9c2.4-0.2,4.7-0.5,7-1.1l2.5-0.9c0.2,0,0.3,0.2,0.3,0.5c-0.1,1.3-0.1,2.6-0.1,4.8
		c2.3-2.2,4.5-6.5,8.4-4.9c-0.1,1.6-0.2,3.8-0.3,6.6l-1.1,0.4c-1.3-2.8-6-1.9-6.8,0.8c-0.3,1.1-0.2,12.2,0,12.1
		c0.4,1.7,1.4,1.1,4.1,1.4v2C139.3,36.8,134.9,36.8,130.1,37z"/>
	<path class="st0" d="M150.9,25.4c-0.1-8,4.2-12,12-12.1c8,0,11.6,3.4,11.6,11.4C175.7,41.1,149.9,42.2,150.9,25.4z M157.6,23.8
		c0,4.3,0.5,7.4,1.6,9.2c1.4,2.6,5.7,2.9,7.4,0.3c0.8-1.2,1.2-3.4,1.2-6.5c0-4.3-0.5-7.4-1.5-9c-1.4-2.1-4.2-2.6-6.3-1.2
		c-0.4,0.3-0.8,0.6-1.1,1C158,18.8,157.6,20.9,157.6,23.8z"/>
	<path class="st0" d="M177.8,17.3v-1.9c2.4-0.2,4.7-0.5,7-1.1l2.6-0.8c0.6,0.2,0.2,1.1,0.3,1.9l-0.1,2.2l3.9-3.1
		c5.7-3.2,13.8,1.2,13.2,8.4c-0.1,4.4-1.3,7.8-5.1,10.5c-4.9,4.1-6.8,5.3-12,3.1l0.1,7.4c0.3,3.9,0.1,3.3,4.1,3.5v2
		c-4.4-0.3-10.9-0.3-14.1-0.1v-2c1,0,2-0.1,3-0.3c1.3-2.1,0.5-12.6,0.8-14.6v-9.6c-0.2-3.4,0.2-4.4-0.6-5.3
		C179.9,17.3,178.8,17.2,177.8,17.3z M187.6,31.7c5.1,6.2,11.5,1.4,10.8-6.3c0.5-7-6.1-10.4-10.8-5.4V31.7z"/>
	<path class="st0" d="M211.2,29.1c0,1.2,0.1,2.3,0.3,3.5c1.9,3.3,10.1,3.8,10.1-1.1c-0.2-2.6-1.6-2.8-4.5-3.6
		c-1.9-0.3-3.7-0.9-5.5-1.6c-3.2-1.6-3.5-6.5-1.7-9.3c3-4.6,10.6-4.2,15.4-2.5c-0.3,2-0.4,4.1-0.4,6.1H223c0-1-0.1-2.1-0.4-3.1
		c-2.4-3.8-11.9-1.3-7.7,3.4c0.7,0.9,7.1,1.8,8.5,2.4c4.9,1.9,4.3,9.5,0.3,11.9c-4.1,2.9-9.8,2.5-14.6,0.9l-0.4-0.4
		c0.2-2.2,0.4-4.4,0.4-6.6L211.2,29.1z"/>
	<path class="st0" d="M243,37v-2c3-0.4,3.7,0.4,4.2-1.6c0.2-2.2,0.3-4.5,0.2-6.7c-0.1-3.4,0.1-18.7-0.3-20.6
		c-0.6-1.2-1.5-0.7-4.2-1.1V2.9c6.3,0.2,10.5,0.2,15.9,0v2c-2.5,0.3-3.2-0.1-4,0.9c-0.7,3.2-0.4,8.4-0.5,11.9
		c2.6,0.1,12.3,0.2,15.2,0c-0.3-6.5,0.5-9-0.7-12.2c-0.4-0.3-1.6-0.5-3.8-0.6v-2c7.7,0.2,9.4,0.2,15.9,0v2c-1.2,0-2.4,0.2-3.6,0.5
		c-0.2,0.1-0.3,0.2-0.4,0.4c-0.8,6.7-0.3,16.8-0.3,23.5c0.3,5.2-0.9,5.3,4.4,5.5v2c-6-0.2-9.7-0.2-15.9,0v-2
		c2.1-0.1,3.4-0.3,3.7-0.5c1.3-3.6,0.4-6.3,0.8-13.8c-4.5,0-11,0-15.2,0.1c0,4,0,9,0.2,11.1c0.3,3.5,0.5,2.5,4.3,3.1v2
		c-2.4,0-5.6-0.2-7.7-0.2L243,37z"/>
	<path class="st0" d="M306.4,35v2c-3.1-0.2-6.1-0.2-9.2,0l-0.2-0.3l0.2-3.3l-5.1,3.8c-2.3,0.6-4.9,0.4-6.4-1.2c-2.1-2-1.8-8,0.5-9.6
		c1.6-1.3,5.3-2.4,10.9-3.5c0.4-4.9-3.7-7.2-7.8-5.3l-1.1,2.6l-1.7-0.4v-1.1c0-0.5,0-1.5,0-2c5.1-3.7,12.2-5.3,15.9-0.1
		c1.9,4.1,0,13,0.8,17.4C303.9,35,304.4,34.6,306.4,35z M297.2,25c-2.8,0.6-4.7,1.3-5.5,2c-3.9,4.3,1.6,8.8,5.5,3.9V25z"/>
	<path class="st0" d="M331.2,35v2c-3.1-0.2-6.1-0.2-9.2,0l-0.2-0.3l0.2-3.3l-5.1,3.8c-2.3,0.6-4.9,0.4-6.4-1.2c-2.1-2-1.8-8,0.5-9.6
		c1.6-1.3,5.3-2.4,10.9-3.5c0.4-4.9-3.7-7.2-7.8-5.3l-1.1,2.6l-1.7-0.4v-1.1c0-0.5,0-1.5,0-2c5.1-3.7,12.2-5.3,15.9-0.1
		c1.9,4.1,0,13,0.8,17.4C328.7,35,329.3,34.6,331.2,35z M322.1,25c-2.8,0.6-4.7,1.3-5.5,2c-3.9,4.3,1.6,8.8,5.5,3.9V25z"/>
	<path class="st0" d="M332.9,17.5l3.2-2.1c0-2.9-0.1-5.4-0.2-7.5c2.1-0.7,4.2-1.5,6.3-2.5l0.7,0.6c-0.4,3.1-0.7,6.3-0.7,9.5
		c2.2,0.3,4.4,0.2,6.6-0.1l0.2,0.1c-0.3,1.1-0.6,2.2-0.7,3.4c-2-0.2-4.1-0.2-6.1-0.1c-0.1,3.9,0,13.1,0.4,13.6
		c0.7,1.6,3.3,1.2,4.8,0.7l0.4,0.9c-1,1.1-1.9,2.2-2.8,3.4c-3,0.6-6.8,0.5-8.4-2.2c-1.4-3.4-0.1-12.1-0.4-16.3l-1.2-0.1
		c-0.7,0-1.3,0.1-2,0.1L332.9,17.5z"/>
</g>
<g>
	<path class="st1" d="M110.7,55.6v14l-1.2-1.6c-1.1-3-3.8-5-7-5.1l-2-2.7c1.2-0.8,2.4-1.6,3.6-2.2c1.5-0.7,3.1-1.4,4.7-1.9v-0.4H100
		l-1.9-1.9h14.5l1.9,1.8H110.7z M108.8,58.7c-1.6,0.6-3.1,1.3-4.5,2.2c1.8,0.8,3.3,1.9,4.5,3.4V58.7z"/>
	<path class="st1" d="M120.8,58.8v0.4c0,1-0.9,2-2.7,3c-0.6,0.3-1.2,0.5-1.9,0.5c-0.6,0-1.2-0.2-1.6-0.5c-0.5-0.3-0.7-0.8-0.8-1.4
		v-5.3h-1.6l-1.8-1.8h14.6l1.9,1.8h-11.2c0.1,0.2,0.2,0.3,0.3,0.5c0.7,0.6,1.6,1,2.5,0.9c0.3,0,0.6,0,0.9-0.1
		c0.3-0.1,0.6-0.1,0.9-0.1c1,0,2,0.4,2.7,1.2c0.7,0.7,1.1,1.7,1.1,2.7c0,1.5-1,2.8-2.9,3.9l-1,0.4l1.9,0.9c1.4,0.9,2.7,2,3.8,3.3
		l0.3,1.9c-1.2-1.2-2.5-2.3-4-3.1c-1.5-0.8-3-1.4-4.6-1.7c-0.8-0.2-1.5-0.3-2.3-0.4l-1.7-3.1c0.9,0.3,1.8,0.5,2.7,0.5l1.9-0.1
		c0.7-0.1,1.3-0.3,1.9-0.7c0.6-0.3,1.1-0.8,1.5-1.3c0.3-0.4,0.5-1,0.6-1.5C122.3,59.2,121.8,58.8,120.8,58.8z M116.6,58.2
		c-0.3-0.2-0.6-0.4-0.9-0.7v3c0,0.3,0.1,0.5,0.3,0.4c0.4-0.1,0.8-0.3,1.1-0.5c0.6-0.3,1-0.9,1.1-1.6
		C117.9,58.8,117.3,58.6,116.6,58.2z"/>
	<path class="st1" d="M135.1,55.6v13.5l-1-0.9c-0.9-1.6-1.4-2.4-1.5-2.5c-0.6-0.8-1.3-1.5-2.2-2c-1.1-0.6-2.3-0.9-3.5-1l-2-2.6
		c2.5-1.8,5.3-3.1,8.2-4.1v-0.4h-8.3l-2-1.8h13.8l2,1.8L135.1,55.6z M129.6,67.7c-0.5,0-0.9-0.2-1.3-0.5c-0.3-0.3-0.5-0.7-0.5-1.2
		c0-0.4,0.2-0.8,0.5-1.1c0.3-0.3,0.7-0.5,1.1-0.5c0.4,0,0.8,0.1,1.1,0.4c0.3,0.2,0.5,0.5,0.6,0.9c0.2,0.9-0.4,1.7-1.2,1.9
		C129.8,67.7,129.7,67.7,129.6,67.7z M133.1,58.5c-1.6,0.5-3.1,1.3-4.5,2.2c1.8,0.7,3.4,2,4.5,3.6V58.5z"/>
	<path class="st1" d="M153.3,59.1c0.3,0.2,0.6,0.4,0.9,0.8c0.8,0.8,1.2,1.8,1.3,2.9c0,0.3,0,0.7-0.1,1c-0.3,0.8-0.8,1.5-1.5,2.1
		c-0.7,0.5-1.6,0.8-2.4,0.8c-1.8,0-3.4-0.9-4.4-2.3c-0.6-0.9-1.1-1.8-1.5-2.8c-0.5-1.8-0.6-3.7-0.5-5.5c0.5,0.2,0.9,0.4,1.3,0.7
		c-0.1,0.8,0,1.7,0.2,2.5c0.2,0.6,0.4,1.3,0.6,1.9c0.4,0.8,0.9,1.5,1.5,2c0.6,0.6,1.5,0.9,2.4,0.9c0.6,0,1.2-0.2,1.8-0.4
		c0.7-0.3,1.1-0.7,1.1-1.2c0-0.2,0-0.4-0.1-0.5c0-0.2-0.2-0.3-0.3-0.3c-0.1,0-0.1,0-0.2,0c-0.7,0.3-1.5,0.5-2.3,0.6
		c-0.5,0-1-0.1-1.5-0.3c-0.9-0.5-1.6-1.4-1.9-2.4c-0.1-0.3-0.1-0.6-0.1-0.8c0.1-1,0.6-2,1.3-2.7l0.3-0.3h-4.9l-1.9-1.8h18.5l1.9,1.8
		h-9.2c-0.3,0.1-0.5,0.2-0.8,0.4c-0.1,0-0.1,0.1-0.1,0.2c0,0.3,0.4,0.5,1.2,0.8c0.6,0.2,1.2,0.3,1.8,0.3c0.9-0.1,1.8-0.4,2.6-0.7
		c0.7,0.6,1.4,1.4,2.4,2.3c-0.6,0.6-1.1,1.3-1.5,2c-0.4,0.7-0.7,1.5-0.7,2.3c-0.1,0.5-0.1,1-0.1,1.5c0.1,1.3,0.5,2.6,1.1,3.8
		c-0.1,0.1-0.2,0.2-0.4,0.2c-0.3,0-0.6-0.1-0.9-0.2c-0.4-0.1-0.7-0.2-0.7-0.4l-0.7-2.7c-0.2-0.9-0.4-1.8-0.4-2.7
		c0-1.2,0.3-2.4,0.8-3.6c-0.9,0-1.9-0.2-2.8-0.4c-0.9-0.2-1.7-0.6-2.4-1.2c-0.2-0.3-0.5-0.6-0.8-0.9c-0.3,0-0.7,0.4-1.1,1.2
		c-0.4,0.5-0.6,1-0.7,1.6c0,0.4,0.2,0.6,0.8,0.6c0.8-0.2,1.5-0.4,2.2-0.8c0.3-0.1,0.5-0.2,0.8-0.3C153.1,59,153.2,59,153.3,59.1
		L153.3,59.1z"/>
	<path class="st1" d="M157.7,70.2c-0.4,0.3-0.8,0.6-1.2,0.9c-0.4,0.3-0.9,0.4-1.4,0.4c-0.6,0-1.2-0.1-1.8-0.4
		c-0.6-0.3-0.9-0.8-1.1-1.4c-0.1-0.7,0.1-1.4,0.7-1.9c0.6-0.5,1.3-0.7,2-0.7c0.7,0,1.4,0.3,1.9,0.6c0-0.1,0-0.4-0.1-1
		c0-0.2,0-0.5,0-0.9c0.1-0.1,0.2-0.2,0.3-0.2c0.4,0,0.7,0.3,1,0.8c0.2,0.4,0.4,0.9,0.5,1.3v0.4c0,0.2,0,0.3,0,0.5
		c0.5,0.3,0.9,0.7,1.2,1.1c1,0.7,1.7,1.8,2,2.9c0,0.1,0,0.2,0,0.3c-0.1,0.2-0.2,0.3-0.4,0.3c-0.2,0-0.3-0.1-0.4-0.2
		C160,72.1,158.9,71.1,157.7,70.2C157.6,70.3,157.6,70.2,157.7,70.2z M154.9,69c-0.6,0-0.9,0.2-0.9,0.4s0.2,0.4,0.5,0.4
		c0.3,0,0.7-0.1,1-0.2c0.4-0.1,0.5-0.2,0.5-0.3C155.7,69,155.3,68.9,154.9,69z"/>
	<path class="st1" d="M168,56.1c-2.3,0.7-4,2.7-4.3,5.1c-0.1,0.7-0.2,1.3-0.2,2c-0.1,1.6,0.8,3,2.1,3.8c0.1,0.1,0.3,0.1,0.4,0.1h0.2
		c0.1,0.1-0.1,0.3-0.6,0.4c0.2,0,0.3,0,0.3-0.1c-0.1-0.1-0.2-0.3-0.3-0.5c-0.2-0.2-0.3-0.5-0.4-0.8c-0.1-0.8,0.3-1.5,1-1.8
		c0.3-0.1,0.6-0.2,0.9-0.2c0.3,0,0.7,0.1,0.9,0.3c0.6,0.3,1,0.9,1,1.6c0,0.7-0.3,1.3-0.8,1.7c-0.5,0.5-1.2,0.7-1.9,0.7
		c-0.8,0-1.6-0.2-2.3-0.7c-1.8-1.4-2.8-3.6-2.6-5.9c0-2.3,0.9-4.5,2.5-6.2h-3.7l-1.9-1.8h10.5l1.9,1.8
		C169.8,55.6,168.9,55.8,168,56.1z"/>
	<path class="st1" d="M175.9,55.6v4.3c0,0.2,0,0.4,0.1,0.4c0.9-0.3,1.7-0.9,2.3-1.7c0.8-0.9,1.3-1.3,1.4-1.3c0.2,0,0.3,0.1,0.4,0.2
		c1.5,1.1,2.3,2.8,2.3,4.7c0.1,1.8-0.7,3.6-2.3,4.7c-0.9,0.6-2,0.9-3.1,0.9c-1.5,0.1-3.1-0.5-4.1-1.6c-1-1.1-1.8-2.4-2.3-3.8
		c-0.6-1.4-0.9-2.8-1.1-4.2c0,0-0.1-0.9-0.2-2.4l1.4,0.7c0.1,1.4,0.5,2.7,1,4c1.2,2.9,2.9,4.3,5.1,4.3c0.7,0,1.4-0.2,2-0.5
		c0.6-0.3,1.1-0.7,1.4-1.2c0.3-0.4,0.5-0.9,0.5-1.5c0-0.4-0.1-0.8-0.4-1.1c-0.6,0.6-1.3,1.2-2.1,1.7c-0.5,0.4-1.1,0.6-1.8,0.6
		c-1.2,0-2-0.7-2.4-2.1c-0.1-0.4-0.1-0.9-0.1-1.3v-3.7h-5.3l-2-1.8h16.7l2,1.8H175.9z M178.4,70.8c-0.3,0.6-0.9,1-1.6,1
		c-0.5,0-1-0.2-1.4-0.5c-0.4-0.3-0.5-0.8-0.5-1.3c0-0.5,0.2-1,0.5-1.3c0.3-0.4,0.8-0.6,1.3-0.6c0.5,0,1,0.1,1.4,0.5
		c0.3,0.3,0.5,0.8,0.5,1.2C178.7,70.2,178.6,70.5,178.4,70.8z"/>
	<path class="st1" d="M201.2,55.6v14L200,68c-1.1-3-3.8-5-7-5.1l-2-2.7c1.1-0.8,2.3-1.6,3.6-2.2c1.5-0.7,3.1-1.4,4.7-1.9v-0.4h-8.8
		l-1.9-1.8h14.4l1.9,1.8H201.2z M199.3,58.7c-1.6,0.6-3.1,1.3-4.5,2.2c1.8,0.8,3.3,1.9,4.5,3.4V58.7z"/>
	<path class="st1" d="M205,55.2c-0.1-1.2-0.2-2.5-0.2-4l1.1,0.8c0.1,0.5,0.2,1,0.4,1.4l0.3,0.4h2.1l1.9,1.8h-3.8v14.1l-1.9-1.9v-9.8
		c0-0.4-0.1-0.9-0.3-1.2c-0.4-0.7-1.2-1.1-2-1.1h-0.4l-1.9-1.8c1-0.1,1.9-0.1,2.9,0C203.8,53.9,204.6,54.4,205,55.2z"/>
	<path class="st1" d="M214.1,60.8c-0.4,0.2-0.9,0.3-1.4,0.3c-0.9,0-1.8-0.4-2.4-1c-0.6-0.6-1-1.5-1-2.3c0-0.9,0.4-1.7,1-2.2
		c0.6-0.6,1.4-1,2.3-1c0.9,0,1.8,0.3,2.4,1c0.6,0.6,1,1.4,1,2.3c0,0.6-0.2,1.2-0.5,1.7C215.1,60,214.6,60.5,214.1,60.8z M216.2,68.8
		c-1.9-1.6-4-3.1-6.1-4.4v-3.6c1,0.8,2.2,1.8,3.6,3c1.6,1.6,3.2,3.3,4.6,5.1v1.8L216.2,68.8z M213.3,56.3c-0.6,0.1-1.1,0.4-1.5,0.8
		c-0.4,0.4-0.6,0.9-0.6,1.4c0,0.5,0.2,0.7,0.5,0.7c0.4-0.1,0.8-0.2,1.2-0.5c0.4-0.2,0.7-0.5,0.9-0.8c0.1-0.3,0.1-0.5,0.1-0.8
		C213.9,56.6,213.7,56.3,213.3,56.3L213.3,56.3z"/>
	<path class="st1" d="M229.2,55.6v13.7l-2-1.8v-7.3c0-0.4-0.2-0.8-0.5-1c-0.3-0.3-0.6-0.4-1-0.5c-0.3,0-0.5,0.1-0.7,0.4
		c-0.1,0.5-0.1,1.1,0,1.6l-1.4,0.5c0.2-0.3,0.2-0.6,0-0.9c-0.2-0.3-0.5-0.6-0.8-0.9c-0.5-0.4-1.1-0.7-1.8-0.7
		c-0.6,0-1.1,0.2-1.6,0.6c-0.4,0.3-0.7,0.9-0.7,1.4c0,0.7,0.4,1.3,1,1.4c-0.1-0.2-0.1-0.4-0.1-0.6c0-0.5,0.2-0.9,0.5-1.2
		c0.4-0.3,0.8-0.5,1.3-0.5c0.8,0,1.5,0.5,1.7,1.3c0.3,0.5,0.3,1,0.2,1.5c-0.4,0.9-1.3,1.5-2.3,1.4c-1.1,0.1-2.2-0.3-3-1.1
		c-0.8-0.8-1.2-1.8-1.1-2.9c0-0.9,0.3-1.8,0.8-2.6c0.5-0.8,1.5-1.3,2.4-1.3c1,0,2,0.4,2.8,1.1l0.2,0.2c0.2-0.3,0.5-0.6,0.8-0.9
		c0.3-0.2,0.6-0.4,1-0.4c0.5,0,1,0.2,1.5,0.5l0.5,0.6c0.1,0.1,0.2,0.2,0.2,0.2v-2.1h-10.6l-2-1.8h16.3l2,1.8H229.2z"/>
	<path class="st1" d="M233.2,55.2c-0.1-1.2-0.2-2.5-0.2-4l1.1,0.8c0.1,0.5,0.2,1,0.4,1.4c0.1,0.1,0.2,0.3,0.3,0.4h2.1l1.9,1.8h-3.8
		v14.1l-1.9-1.9v-9.8c0-0.4-0.1-0.9-0.3-1.2c-0.4-0.7-1.2-1.1-2-1.1h-0.4l-1.9-1.8c0.9-0.1,1.9-0.1,2.8,0
		C232,53.9,232.7,54.4,233.2,55.2z"/>
	<path class="st1" d="M246.9,55.6v13.5l-1-0.9c-0.9-1.6-1.4-2.4-1.5-2.5c-0.6-0.8-1.3-1.5-2.2-2c-1.1-0.6-2.3-0.9-3.5-1l-2-2.6
		c2.5-1.8,5.3-3.1,8.2-4.1v-0.4h-8.3l-2-1.8h13.9l2,1.8L246.9,55.6z M241.4,67.7c-0.5,0-0.9-0.2-1.3-0.5c-0.3-0.3-0.5-0.7-0.5-1.2
		c0-0.4,0.2-0.8,0.5-1.1c0.3-0.3,0.7-0.5,1.1-0.5c0.4,0,0.8,0.1,1.1,0.4c0.3,0.2,0.5,0.5,0.6,0.9c0.2,0.9-0.4,1.7-1.2,1.9
		C241.6,67.7,241.5,67.7,241.4,67.7L241.4,67.7z M244.9,58.5c-1.6,0.5-3.1,1.3-4.5,2.2c1.8,0.7,3.4,2,4.5,3.6V58.5z"/>
	<path class="st1" d="M260.9,56.2c-0.2-0.3-0.5-0.5-0.9-0.6h-4.1l-2-1.8h14.4l1.9,1.8h-7.9l0.1,0.2l0.3,0.5c0.4,0,0.8,0.1,1.2,0.3
		c1.4,0.4,2.5,1.6,2.8,3c0.1,0.2,0.1,0.5,0.1,0.7c0,1.4-0.9,2.7-2.2,3.3l-1.5,0.7c0.4,0.2,0.8,0.4,1.2,0.6c0.9,0.5,1.7,1.1,2.5,1.8
		l2.2,2.2l0.9,3c-0.7-0.8-1.2-1.3-1.4-1.6c-1.5-1.4-3.1-2.6-4.9-3.5c-1.7-0.9-3.5-1.5-5.4-1.9l-1.9-4.5c1.4,1,3,1.6,4.8,1.6
		c1.4,0,2.7-0.5,3.8-1.5c0.2-0.2,0.4-0.5,0.4-0.9c0-0.5-0.3-0.9-0.7-1.1c-0.5-0.3-1-0.5-1.5-0.5c-0.1,0-0.2,0-0.3,0
		c-0.2,0.8-0.6,1.5-1.3,1.9c-0.4,0.4-1,0.6-1.6,0.6c-0.9,0.1-1.8-0.5-1.9-1.4c-0.1-0.6,0.2-1.3,0.6-1.7c0.3-0.3,0.7-0.6,1.1-0.8
		L260.9,56.2z"/>
	<path class="st1" d="M270.3,55.2c-0.1-1.2-0.2-2.5-0.2-4l1.1,0.8c0.1,0.5,0.2,1,0.4,1.4c0.1,0.1,0.2,0.3,0.3,0.4h2.1l1.9,1.8H272
		v14.1l-1.9-1.9v-9.8c0-0.4-0.1-0.9-0.3-1.2c-0.4-0.7-1.2-1.1-2-1.1h-0.4l-1.9-1.8c0.9-0.1,1.9-0.1,2.8,0
		C269.1,53.9,269.8,54.4,270.3,55.2z"/>
	<path class="st1" d="M276.9,50.3L276.9,50.3c0.1,0,0.5,0,1.3-0.1c1.4-0.2,2.7,0,4,0.5c1.2,0.5,1.9,1.7,1.9,3h1.4l1.9,1.9H277V64
		c0,0.4,0.3,0.7,0.8,0.7c0.8-0.1,1.6-0.5,2.2-1.1c0.7-0.6,1.2-1.3,1.5-2.1h-0.1c-0.5,0-1-0.1-1.4-0.4c-0.4-0.3-0.6-0.8-0.6-1.2
		c0-0.2,0-0.3,0-0.5c0.2-0.9,1.1-1.6,2.1-1.5c0.7,0,1.5,0.3,1.9,0.9c0.5,0.6,0.7,1.3,0.7,2c0,1.4-0.5,2.7-1.5,3.7
		c-1.8,1.7-3.2,2.6-4.2,2.6c-1.5,0.1-2.9-1-3.2-2.5c-0.1-0.6-0.1-1.3-0.1-1.9v-6.9h-2l-1.7-1.8h10.7c0-0.2,0-0.3,0-0.5
		c-0.1-0.7-0.7-1-1.7-0.9c-0.7,0-1.6,0-2.7,0.1c-0.5,0-0.8,0-1,0c-1,0-2.1-0.2-3-0.8c-0.9-0.5-1.5-1.4-1.5-2.4c0-0.5,0.2-1,0.5-1.3
		c0.2-0.3,0.4-0.4,0.7-0.4c0.1,0,0.2,0,0.3,0.1c0.1,0.2,0.1,0.5,0.1,0.7c-0.2,0.1-0.3,0.4-0.3,0.6c0,0.5,0.4,0.9,1.1,1.1
		C275.4,50.3,276.1,50.3,276.9,50.3z"/>
	<path class="st1" d="M303.5,55.6v14l-1.2-1.6c-1.1-3-3.8-5-7-5.1l-2-2.7c1.2-0.8,2.4-1.6,3.6-2.2c1.5-0.7,3.1-1.4,4.7-1.9v-0.4
		h-8.8l-1.9-1.8h14.5l1.9,1.8L303.5,55.6z M301.5,58.7c-1.6,0.6-3.1,1.3-4.5,2.2c1.8,0.8,3.3,1.9,4.5,3.4V58.7z"/>
	<path class="st1" d="M307.3,55.2c-0.1-1.2-0.2-2.5-0.2-4l1.1,0.8c0.1,0.5,0.2,1,0.4,1.4c0.1,0.1,0.2,0.3,0.3,0.4h2l1.9,1.8H309
		v14.1l-1.9-1.9v-9.8c0-0.4-0.1-0.9-0.3-1.2c-0.4-0.7-1.2-1.1-2-1.1h-0.4l-1.9-1.8c0.9-0.1,1.9-0.1,2.8,0
		C306.1,53.9,306.8,54.4,307.3,55.2z"/>
	<path class="st1" d="M319.8,59.1c0.3,0.2,0.6,0.4,0.9,0.8c0.8,0.8,1.2,1.8,1.3,2.9c0,0.3,0,0.7-0.1,1c-0.3,0.8-0.8,1.5-1.5,2.1
		c-0.7,0.5-1.6,0.8-2.4,0.8c-1.7,0-3.4-0.9-4.4-2.3c-0.7-0.9-1.1-1.8-1.5-2.8c-0.5-1.8-0.7-3.7-0.6-5.5c0.5,0.2,0.9,0.4,1.3,0.7
		c-0.1,0.8,0,1.7,0.2,2.5c0.2,0.6,0.4,1.3,0.6,1.9c0.4,0.8,0.9,1.5,1.5,2c0.6,0.6,1.5,0.9,2.4,0.9c0.6,0,1.2-0.2,1.8-0.4
		c0.7-0.3,1.1-0.7,1.1-1.2c0-0.2,0-0.4-0.1-0.5c-0.1-0.2-0.2-0.3-0.4-0.3c-0.1,0-0.1,0-0.2,0c-0.7,0.3-1.5,0.5-2.3,0.6
		c-0.5,0-1-0.1-1.5-0.3c-0.9-0.5-1.6-1.4-1.9-2.4c-0.1-0.3-0.1-0.6-0.1-0.8c0.1-1,0.6-2,1.3-2.7c0.1-0.1,0.2-0.2,0.3-0.3h-5
		l-1.9-1.8h18.5l1.9,1.8H320c-0.3,0.1-0.5,0.2-0.8,0.4c-0.1,0-0.1,0.1-0.1,0.2c0,0.3,0.4,0.5,1.2,0.8c0.6,0.2,1.2,0.3,1.8,0.3
		c0.9-0.1,1.8-0.4,2.6-0.7c0.7,0.6,1.5,1.4,2.4,2.3c-0.6,0.6-1.1,1.3-1.5,2c-0.4,0.7-0.7,1.5-0.8,2.3c-0.1,0.5-0.1,1-0.1,1.5
		c0.1,1.3,0.5,2.6,1.1,3.8c-0.1,0.1-0.3,0.2-0.4,0.2c-0.3,0-0.6-0.1-0.9-0.2c-0.4-0.1-0.7-0.2-0.7-0.4l-0.7-2.7
		c-0.2-0.9-0.4-1.8-0.4-2.7c0-1.2,0.3-2.4,0.8-3.6c-0.9,0-1.9-0.2-2.8-0.4c-0.9-0.2-1.7-0.6-2.4-1.2c0-0.1-0.3-0.4-0.7-0.9
		c-0.3,0-0.7,0.4-1.1,1.2c-0.4,0.5-0.6,1-0.7,1.6c0,0.4,0.2,0.6,0.7,0.6c0.8-0.2,1.5-0.4,2.2-0.8c0.3-0.1,0.5-0.2,0.8-0.3
		C319.6,59,319.7,59,319.8,59.1L319.8,59.1z"/>
	<path class="st1" d="M329.2,55.2c-0.1-1.2-0.2-2.5-0.2-4l1.1,0.8c0.1,0.5,0.2,1,0.4,1.4c0.1,0.1,0.2,0.3,0.3,0.4h2l1.9,1.8h-3.8
		v14.1l-1.9-1.9v-9.8c0-0.4-0.1-0.9-0.3-1.2c-0.4-0.7-1.2-1.1-2-1.1h-0.4l-1.9-1.8c0.9-0.1,1.9-0.1,2.8,0
		C328,53.9,328.8,54.4,329.2,55.2z"/>
	<path class="st1" d="M342.9,55.6v13.5l-1-0.9c-0.9-1.6-1.4-2.4-1.5-2.5c-0.6-0.8-1.3-1.5-2.2-2c-1.1-0.6-2.3-0.9-3.5-1l-2-2.6
		c2.5-1.8,5.3-3.1,8.3-4.1v-0.4h-8.3l-2-1.8h13.8l2,1.8L342.9,55.6z M337.4,67.7c-0.5,0-0.9-0.2-1.3-0.5c-0.3-0.3-0.5-0.7-0.5-1.2
		c0-0.4,0.2-0.8,0.5-1.1c0.3-0.3,0.7-0.5,1.1-0.5c0.4,0,0.8,0.1,1.1,0.4c0.3,0.2,0.5,0.5,0.6,0.9c0.1,0.5,0,0.9-0.3,1.3
		C338.3,67.5,337.9,67.8,337.4,67.7z M341,58.5c-1.6,0.5-3.1,1.3-4.5,2.2c1.8,0.7,3.4,2,4.5,3.6V58.5z"/>
</g>
<path class="st2" d="M48.1,12.9c-0.4-0.3-1-0.1-1.2,0.3c-0.2,0.4-0.2,0.8,0.2,1.1C66.5,28.8,56.6,60,32.5,60.8V56
	c10.2,2.4,20.5-8.3,17.6-18.4c-0.1-0.3-0.3-0.6-0.6-0.6c-1.5-0.4-3.1-0.6-4.6-0.4c4.5-3.6,6.8-9.5,5.3-15.2
	c-0.1-0.3-0.3-0.6-0.6-0.6c-3.9-1.1-8.2-0.4-11.5,1.9c0.9-2.2,1.4-4.6,1.2-7c0-5-2.7-9.6-7.1-12.2c-0.3-0.2-0.6-0.2-0.9,0
	c-4.4,2.5-7.1,7.2-7.1,12.2c-0.2,2.4,0.3,4.8,1.2,7c-3.4-2.3-7.6-3-11.5-1.9c-0.3,0.1-0.6,0.3-0.6,0.6C11.6,27,13.9,33,18.4,36.6
	c-1.6-0.1-3.1,0-4.6,0.4c-0.3,0.1-0.5,0.3-0.6,0.6C10.2,47.8,20.6,58.5,30.8,56v4.8c-24.1-0.8-33.9-32-14.6-46.4
	c0.4-0.3,0.4-0.9,0.1-1.3c-0.3-0.3-0.8-0.4-1.1-0.2C2.9,22,0.5,39.3,9.6,51.5c5.2,7,13.4,11,22.1,11.1C58,62.5,69.3,28.7,48.1,12.9z
	 M48.5,38.6c2.1,8.8-6.9,17.8-15.7,15.7C30.7,45.5,39.7,36.5,48.5,38.6L48.5,38.6z M48.5,22.3c2.1,8.8-6.9,17.8-15.7,15.7
	C30.7,29.2,39.7,20.2,48.5,22.3L48.5,22.3z M25.9,15.7c0-4.2,2.1-8.2,5.7-10.5c3.9,2.6,6.1,7.1,5.7,11.8c0,4.2-2.1,8.2-5.7,10.5
	C27.7,24.9,25.5,20.3,25.9,15.7L25.9,15.7z M14.8,22.3c8.8-2.1,17.8,6.9,15.7,15.7C21.7,40.2,12.6,31.1,14.8,22.3L14.8,22.3z
	 M30.5,54.3c-8.8,2.1-17.8-6.9-15.7-15.7C23.5,36.5,32.6,45.5,30.5,54.3z"/>
<path class="st1" d="M46.2,8.3V8h0.4l0.1-0.1c0,0,0.1-0.1,0.1-0.2c0-0.1,0-0.5,0-1.1c0-0.4,0-0.9,0-1.4V3.9c0,0-0.1,0-0.2,0
	c-0.3,0-0.6,0-0.8,0c-0.1,0-0.1,0-0.2,0c0,0,0,0,0,0.1c0,0,0,0.2-0.1,0.6h-0.3c0-0.4,0-0.8,0-1.2l0,0c0.7,0,1.4,0,2.1,0s1.5,0,2.3,0
	v0.1c0,0.3-0.1,0.7-0.1,1.1h-0.3c0-0.2,0-0.4-0.1-0.6c0,0-0.1,0-0.1,0c-0.4,0-0.7,0-1.1,0c0,0-0.1,0-0.1,0c0,0.1,0,0.1,0,0.2v2.3
	c0,0.7,0,1.1,0,1.2c0,0.1,0,0.2,0.1,0.3c0.2,0,0.4,0.1,0.5,0.1v0.3h-1.1L46.2,8.3z"/>
<path class="st1" d="M50,8.3V8h0.2c0.1,0,0.2,0,0.3-0.1c0.1-0.2,0.1-0.3,0.1-0.5c0-0.6,0-1.2,0-1.9V4.3c0-0.2,0-0.3,0-0.5
	c0,0,0-0.1-0.1-0.1H50V3.4h1.7l0.4,0.9l1.3,2.6c0.8-1.6,1.3-2.8,1.7-3.5h0.8h0.8v0.3c-0.2,0-0.3,0-0.5,0.1c0,0-0.1,0.1-0.1,0.3
	c0,0.2,0,0.8,0,1.7c0,0.4,0,0.8,0,1.3c0,0.3,0,0.5,0,0.8c0,0,0,0.1,0.1,0.1C56.4,8,56.5,8,56.7,8v0.3h-1h-1.2V8h0.2
	c0.1,0,0.2,0,0.3-0.1c0.1-0.1,0.1-0.2,0.1-0.3c0-0.2,0-0.6,0-1.2V4.4c-0.4,0.7-0.8,1.7-1.4,2.8c-0.2,0.5-0.4,0.9-0.5,1.2H53
	c-0.2-0.4-0.4-0.9-0.7-1.5l-1.2-2.5v0.5c0,1.3,0,2.2,0,2.7c0,0.1,0,0.3,0.1,0.4C51.3,8,51.5,8,51.7,8v0.3H51H50z"/>
<path class="st3" d="M7.4,68.3l-0.9,2.8H6l-0.7-2.2l-0.7,2.2H4.2l-0.9-2.8h0.5l0.6,2.4l0.7-2.4h0.5l0.7,2.4l0.6-2.4H7.4z"/>
<path class="st3" d="M11.8,68.3L11,71.1h-0.5l-0.7-2.2l-0.7,2.2H8.6l-0.9-2.8h0.5l0.6,2.4l0.7-2.4h0.5l0.7,2.4l0.6-2.4H11.8z"/>
<path class="st3" d="M16.3,68.3l-0.9,2.8h-0.5l-0.7-2.2l-0.7,2.2h-0.5l-0.9-2.8h0.5l0.6,2.4l0.7-2.4h0.5l0.7,2.4l0.6-2.4H16.3z"/>
<path class="st3" d="M16.9,71c-0.1-0.1-0.1-0.1-0.1-0.2c0-0.2,0.1-0.3,0.3-0.3c0.2,0,0.3,0.1,0.3,0.3c0,0.1,0,0.2-0.1,0.2
	C17.3,71.1,17.1,71.1,16.9,71C16.9,71,16.9,71,16.9,71z"/>
<path class="st3" d="M18.4,68.9c0.1-0.2,0.3-0.4,0.5-0.5c0.2-0.1,0.5-0.2,0.7-0.2c0.3,0,0.6,0.1,0.9,0.2c0.2,0.2,0.4,0.4,0.4,0.7
	h-0.5c0-0.2-0.1-0.3-0.3-0.4c-0.2-0.1-0.3-0.2-0.5-0.2c-0.2,0-0.5,0.1-0.6,0.3c-0.2,0.2-0.3,0.5-0.2,0.8c0,0.3,0.1,0.6,0.2,0.8
	c0.2,0.2,0.4,0.3,0.6,0.3c0.2,0,0.4,0,0.5-0.1c0.1-0.1,0.2-0.2,0.3-0.4h0.5c-0.1,0.3-0.2,0.5-0.5,0.7c-0.2,0.2-0.5,0.3-0.9,0.3
	c-0.2,0-0.5-0.1-0.7-0.2c-0.2-0.1-0.4-0.3-0.5-0.5c-0.1-0.2-0.2-0.5-0.2-0.8C18.2,69.4,18.2,69.1,18.4,68.9z"/>
<path class="st3" d="M22.5,68.3c0.2-0.1,0.4-0.1,0.6-0.1v0.5H23c-0.5,0-0.8,0.3-0.8,0.8v1.5h-0.5v-2.8h0.5v0.5
	C22.3,68.6,22.4,68.4,22.5,68.3z"/>
<path class="st3" d="M24.4,70.9c-0.2-0.1-0.4-0.3-0.5-0.5c-0.1-0.2-0.2-0.5-0.2-0.8c0-0.3,0.1-0.5,0.2-0.8c0.1-0.2,0.3-0.4,0.5-0.5
	c0.5-0.2,1-0.2,1.4,0c0.2,0.1,0.4,0.3,0.5,0.5c0.1,0.2,0.2,0.5,0.2,0.8c0,0.3-0.1,0.5-0.2,0.8c-0.1,0.2-0.3,0.4-0.5,0.5
	C25.4,71.2,24.8,71.2,24.4,70.9z M25.6,70.6c0.2-0.1,0.3-0.2,0.4-0.4c0.1-0.2,0.1-0.4,0.1-0.6c0-0.2,0-0.4-0.1-0.6
	c-0.1-0.1-0.2-0.3-0.4-0.3c-0.1-0.1-0.3-0.1-0.5-0.1c-0.2,0-0.3,0-0.5,0.1c-0.2,0.1-0.3,0.2-0.4,0.3c-0.1,0.2-0.1,0.4-0.1,0.6
	c0,0.2,0,0.4,0.1,0.6c0.1,0.1,0.2,0.3,0.3,0.3c0.1,0.1,0.3,0.1,0.5,0.1C25.3,70.7,25.4,70.7,25.6,70.6z"/>
<path class="st3" d="M28.3,68.4c0.2-0.1,0.4-0.2,0.6-0.2c0.5,0,0.9,0.2,1.2,0.7c0.2,0.5,0.2,1,0,1.5c-0.1,0.2-0.3,0.4-0.5,0.5
	c-0.2,0.1-0.4,0.2-0.7,0.2c-0.2,0-0.4,0-0.6-0.1c-0.2-0.1-0.3-0.2-0.4-0.4v1.8h-0.5v-4.1h0.5v0.5C28,68.6,28.1,68.5,28.3,68.4z
	 M29.7,69.1c-0.1-0.1-0.2-0.3-0.4-0.4c-0.1-0.1-0.3-0.1-0.5-0.1c-0.2,0-0.3,0-0.5,0.1c-0.2,0.1-0.3,0.2-0.4,0.4
	c-0.1,0.2-0.1,0.4-0.1,0.6c0,0.2,0,0.4,0.1,0.6c0.1,0.2,0.2,0.3,0.4,0.4c0.1,0.1,0.3,0.1,0.5,0.1c0.2,0,0.3,0,0.5-0.1
	c0.1-0.1,0.3-0.2,0.4-0.4c0.1-0.2,0.1-0.4,0.1-0.6C29.8,69.5,29.8,69.3,29.7,69.1z"/>
<path class="st3" d="M31.6,71c-0.2-0.1-0.3-0.2-0.4-0.3c-0.1-0.1-0.2-0.3-0.2-0.5h0.5c0,0.1,0.1,0.3,0.2,0.3
	c0.1,0.1,0.3,0.1,0.5,0.1c0.1,0,0.3,0,0.4-0.1c0.1-0.1,0.2-0.2,0.2-0.3c0-0.1-0.1-0.2-0.2-0.3c-0.2-0.1-0.3-0.1-0.5-0.2l-0.5-0.2
	c-0.1-0.1-0.2-0.1-0.3-0.2C31.1,69.3,31,69.2,31,69c0-0.1,0-0.3,0.1-0.4c0.1-0.1,0.2-0.2,0.4-0.3c0.2-0.1,0.3-0.1,0.5-0.1
	c0.3,0,0.5,0.1,0.8,0.2c0.2,0.2,0.3,0.4,0.3,0.7h-0.5c0-0.1-0.1-0.3-0.2-0.4c-0.1-0.1-0.3-0.1-0.4-0.1c-0.1,0-0.3,0-0.4,0.1
	c-0.1,0.1-0.2,0.2-0.1,0.3c0,0.1,0,0.2,0.1,0.2c0.1,0.1,0.1,0.1,0.2,0.1c0.1,0.1,0.2,0.1,0.4,0.1l0.5,0.2c0.1,0.1,0.2,0.1,0.3,0.2
	c0.1,0.1,0.1,0.3,0.1,0.4c0,0.1,0,0.3-0.1,0.4c-0.1,0.1-0.2,0.2-0.4,0.3c-0.2,0.1-0.3,0.1-0.5,0.1C31.9,71.1,31.7,71.1,31.6,71z"/>
<path class="st3" d="M36,68.3c0.2,0.1,0.3,0.2,0.4,0.4c0.1,0.2,0.2,0.4,0.2,0.7v1.7h-0.5v-1.6c0-0.2-0.1-0.5-0.2-0.6
	c-0.3-0.3-0.8-0.3-1.2,0c-0.2,0.2-0.2,0.4-0.2,0.7v1.6H34v-3.8h0.5v1.4c0.1-0.1,0.2-0.3,0.4-0.3c0.2-0.1,0.4-0.1,0.5-0.1
	C35.6,68.2,35.8,68.3,36,68.3z"/>
<path class="st3" d="M37.6,68.9c0.1-0.2,0.3-0.4,0.5-0.5c0.4-0.2,0.9-0.2,1.3,0c0.2,0.1,0.3,0.2,0.4,0.4v-0.5h0.5v2.8h-0.5v-0.5
	c-0.1,0.2-0.2,0.3-0.4,0.4c-0.2,0.1-0.4,0.2-0.6,0.2c-0.5,0-0.9-0.3-1.2-0.7C37.4,70,37.4,69.4,37.6,68.9L37.6,68.9z M39.7,69.1
	c-0.2-0.3-0.5-0.5-0.8-0.5c-0.2,0-0.3,0-0.5,0.1c-0.1,0.1-0.3,0.2-0.3,0.4c-0.1,0.2-0.1,0.4-0.1,0.6c0,0.2,0,0.4,0.1,0.6
	c0.1,0.1,0.2,0.3,0.3,0.4c0.1,0.1,0.3,0.1,0.5,0.1c0.2,0,0.3,0,0.5-0.1c0.1-0.1,0.3-0.2,0.3-0.4c0.1-0.2,0.1-0.4,0.1-0.6
	C39.8,69.5,39.8,69.3,39.7,69.1z"/>
<path class="st3" d="M41.3,68.9c0.2-0.4,0.7-0.7,1.2-0.7c0.2,0,0.4,0,0.6,0.2c0.2,0.1,0.3,0.2,0.4,0.4v-0.5H44v2.8h-0.5v-0.5
	c-0.1,0.2-0.2,0.3-0.4,0.4c-0.2,0.1-0.4,0.2-0.6,0.2c-0.2,0-0.5-0.1-0.7-0.2c-0.2-0.1-0.4-0.3-0.5-0.5
	C41.1,69.9,41.1,69.4,41.3,68.9L41.3,68.9z M43.4,69.1c-0.2-0.3-0.5-0.5-0.8-0.5c-0.2,0-0.3,0-0.5,0.1c-0.1,0.1-0.3,0.2-0.3,0.4
	c-0.1,0.2-0.1,0.4-0.1,0.6c0,0.2,0,0.4,0.1,0.6c0.1,0.2,0.2,0.3,0.3,0.4c0.3,0.2,0.7,0.2,1,0c0.1-0.1,0.3-0.2,0.3-0.4
	c0.1-0.2,0.1-0.4,0.1-0.6C43.6,69.5,43.5,69.3,43.4,69.1z"/>
<path class="st3" d="M45.6,68.7v1.7c0,0.1,0,0.2,0.1,0.3c0.1,0.1,0.2,0.1,0.3,0.1h0.3v0.4h-0.4c-0.2,0-0.4,0-0.6-0.2
	c-0.1-0.2-0.2-0.4-0.2-0.6v-1.7h-0.4v-0.4h0.4v-0.7h0.5v0.7h0.7v0.4H45.6z"/>
<path class="st3" d="M47.1,71C47,70.9,47,70.9,47,70.8c0-0.1,0-0.2,0.1-0.2c0.1-0.1,0.1-0.1,0.2-0.1c0.2,0,0.3,0.1,0.3,0.3
	c0,0.1,0,0.2-0.1,0.2c-0.1,0.1-0.1,0.1-0.2,0.1C47.2,71.1,47.2,71.1,47.1,71z"/>
<path class="st3" d="M48.5,68.9c0.1-0.2,0.3-0.4,0.5-0.5c0.2-0.1,0.5-0.2,0.7-0.2c0.3,0,0.6,0.1,0.9,0.2c0.2,0.2,0.4,0.4,0.4,0.7
	h-0.5c0-0.2-0.1-0.3-0.3-0.4c-0.2-0.1-0.3-0.2-0.5-0.2c-0.2,0-0.5,0.1-0.6,0.3c-0.2,0.2-0.3,0.5-0.2,0.8c0,0.3,0.1,0.6,0.2,0.8
	c0.2,0.2,0.4,0.3,0.6,0.3c0.2,0,0.4,0,0.5-0.1c0.1-0.1,0.2-0.2,0.3-0.4H51c-0.1,0.3-0.2,0.5-0.5,0.7c-0.2,0.2-0.5,0.3-0.8,0.3
	c-0.2,0-0.5-0.1-0.7-0.2c-0.2-0.1-0.4-0.3-0.5-0.5c-0.1-0.2-0.2-0.5-0.2-0.8C48.3,69.4,48.4,69.1,48.5,68.9z"/>
<path class="st3" d="M52.4,70.9c-0.2-0.1-0.4-0.3-0.5-0.5c-0.1-0.2-0.2-0.5-0.2-0.8c0-0.3,0.1-0.5,0.2-0.8c0.1-0.2,0.3-0.4,0.5-0.5
	c0.5-0.2,1-0.2,1.5,0c0.2,0.1,0.4,0.3,0.5,0.5c0.1,0.2,0.2,0.5,0.2,0.8c0,0.3-0.1,0.5-0.2,0.8c-0.1,0.2-0.3,0.4-0.5,0.5
	c-0.2,0.1-0.5,0.2-0.7,0.2C52.9,71.1,52.6,71.1,52.4,70.9z M53.6,70.6c0.2-0.1,0.3-0.2,0.4-0.4c0.1-0.2,0.1-0.4,0.1-0.6
	c0-0.2,0-0.4-0.1-0.6c-0.1-0.2-0.2-0.3-0.3-0.3c-0.1-0.1-0.3-0.1-0.5-0.1c-0.2,0-0.3,0-0.5,0.1c-0.1,0.1-0.3,0.2-0.3,0.3
	c-0.1,0.2-0.1,0.4-0.1,0.6c0,0.2,0,0.4,0.1,0.6c0.1,0.1,0.2,0.3,0.3,0.3c0.1,0.1,0.3,0.1,0.5,0.1C53.3,70.7,53.4,70.7,53.6,70.6z"/>
<path class="st3" d="M59.4,68.3c0.2,0.1,0.3,0.2,0.4,0.4c0.1,0.2,0.2,0.4,0.2,0.7v1.7h-0.5v-1.6c0-0.2-0.1-0.5-0.2-0.6
	c-0.1-0.2-0.3-0.2-0.6-0.2c-0.2,0-0.4,0.1-0.6,0.2c-0.2,0.2-0.2,0.4-0.2,0.7v1.6h-0.5v-1.6c0-0.2-0.1-0.5-0.2-0.6
	c-0.1-0.2-0.4-0.2-0.6-0.2c-0.2,0-0.4,0.1-0.6,0.2c-0.2,0.2-0.2,0.4-0.2,0.7v1.6h-0.5v-2.8h0.5v0.4c0.1-0.1,0.2-0.3,0.4-0.3
	c0.2-0.1,0.3-0.1,0.5-0.1c0.2,0,0.4,0.1,0.6,0.2c0.2,0.1,0.3,0.3,0.4,0.5c0.1-0.2,0.2-0.4,0.4-0.5c0.2-0.1,0.4-0.2,0.6-0.2
	C59,68.2,59.2,68.3,59.4,68.3z"/>
</svg>
