<?xml version="1.0" encoding="utf-8"?>
<!-- Generator: Adobe Illustrator 26.0.1, SVG Export Plug-In . SVG Version: 6.00 Build 0)  -->
<svg version="1.1" id="Layer_1" xmlns="http://www.w3.org/2000/svg" xmlns:xlink="http://www.w3.org/1999/xlink" x="0px" y="0px"
	 viewBox="0 0 100 35" style="enable-background:new 0 0 100 35;" xml:space="preserve">
<style type="text/css">
	.st0{fill:#172134;stroke:#172134;stroke-width:0.4;stroke-miterlimit:10;}
	.st1{fill:#172134;}
	.st2{fill:#172134;stroke:#172134;stroke-width:0.1;stroke-miterlimit:10;}
	.st3{fill:#172134;stroke:#172134;stroke-width:0.5;stroke-miterlimit:10;}
	.st4{font-family:'BookAntiqua';}
	.st5{font-size:12.8597px;}
</style>
<path class="st0" d="M21.5,9.1C21.4,9,21.1,9,21,9.2c0,0,0,0,0,0c-0.1,0.2-0.1,0.4,0.1,0.5c4.6,3.4,5.5,9.9,2.1,14.5
	c-1.9,2.5-4.8,4.1-8,4.2v-1.9c0.4,0.1,0.8,0.1,1.2,0.1c1.5,0,2.9-0.6,4-1.7l0.4-0.4c1.4-1.4,2-3.5,1.5-5.5c0-0.1-0.1-0.2-0.2-0.2
	c-0.6-0.2-1.2-0.2-1.9-0.2c0.1-0.1,0.2-0.2,0.3-0.2l0.4-0.4c1.4-1.4,2-3.5,1.5-5.5c0-0.1-0.1-0.2-0.2-0.2c-1.6-0.4-3.3-0.1-4.6,0.8
	c0.3-0.7,0.5-1.5,0.5-2.3v-0.5c0-2-1.1-3.9-2.8-4.9c-0.1-0.1-0.3-0.1-0.4,0c-1.8,1-2.8,2.9-2.8,4.9v0.5c0,0.8,0.2,1.5,0.5,2.2
	c-1.4-0.9-3-1.2-4.6-0.8c-0.1,0-0.2,0.1-0.2,0.2c-0.5,2,0,4.1,1.5,5.5l0.4,0.4c0.1,0.1,0.2,0.2,0.3,0.2c-0.6,0-1.3,0-1.9,0.2
	c-0.1,0-0.2,0.1-0.2,0.2c-0.5,2,0,4,1.5,5.5l0.4,0.4c1.1,1.1,2.5,1.7,4,1.7c0.4,0,0.8,0,1.2-0.1v1.9c-5.7-0.2-10.2-5-10-10.7
	c0.1-3.2,1.6-6.1,4.2-8c0.2-0.1,0.2-0.3,0.1-0.5C8.7,9,8.4,9,8.3,9.1c0,0,0,0,0,0c-4.9,3.7-5.8,10.6-2.2,15.5s10.6,5.8,15.5,2.2
	c2.7-2.1,4.4-5.3,4.4-8.8C26,14.5,24.3,11.2,21.5,9.1z M21.7,19.4c0.4,1.7-0.1,3.4-1.3,4.6L20,24.4c-1.2,1.2-2.9,1.7-4.6,1.3
	c-0.4-1.7,0.1-3.4,1.3-4.6l0.4-0.4C18.3,19.6,20,19.1,21.7,19.4z M21.7,12.9c0.4,1.7-0.1,3.4-1.3,4.6L20,17.9
	c-1.2,1.2-2.9,1.7-4.6,1.3c-0.4-1.7,0.1-3.4,1.3-4.6l0.4-0.4C18.3,13,20,12.5,21.7,12.9z M12.6,10.2c0-1.7,0.9-3.3,2.3-4.2
	c1.4,0.9,2.3,2.5,2.3,4.2v0.5c0,1.7-0.9,3.3-2.3,4.2c-1.4-0.9-2.3-2.5-2.3-4.2V10.2z M8.1,12.9c1.7-0.4,3.4,0.1,4.6,1.3l0.4,0.4
	c1.2,1.2,1.7,2.9,1.3,4.6c-1.7,0.4-3.4-0.1-4.6-1.3l-0.4-0.4C8.3,16.3,7.8,14.5,8.1,12.9z M14.4,25.7c-1.7,0.4-3.4-0.1-4.6-1.3
	L9.4,24c-1.2-1.2-1.7-2.9-1.3-4.6c1.7-0.4,3.4,0.1,4.6,1.3l0.4,0.4C14.3,22.3,14.8,24.1,14.4,25.7z"/>
<path class="st1" d="M23.2,8.4L23.2,8.4l0.1-0.1l0,0l0,0c0,0,0-0.1,0-0.3V7.2H23c0,0.1,0,0.1,0,0.2h-0.1c0-0.1,0-0.2,0-0.3l0,0h0.6
	h0.6l0,0c0,0.1,0,0.2,0,0.3H24c0-0.1,0-0.2,0-0.2h-0.4v0.7c0,0.2,0,0.3,0,0.3c0,0,0,0,0,0.1h0.1v0.1L23.2,8.4L23.2,8.4z"/>
<path class="st1" d="M24.2,8.4L24.2,8.4L24.2,8.4c0.1-0.1,0.1-0.1,0.1-0.1c0,0,0-0.1,0-0.1V7.4c0,0,0-0.1,0-0.1l0,0h-0.1V7.1h0.5
	c0,0.1,0.1,0.2,0.1,0.2c0,0.1,0.1,0.3,0.3,0.7c0.2-0.4,0.4-0.7,0.4-0.9H26v0.1c0,0-0.1,0-0.1,0c0,0,0,0,0,0.1v0.8c0,0.1,0,0.2,0,0.2
	s0,0,0,0H26v0.1h-0.6v0h0.1h0.1c0,0,0,0,0-0.1V7.4c-0.1,0.2-0.2,0.4-0.4,0.8c-0.1,0.1-0.1,0.2-0.1,0.3h0L24.8,8l-0.3-0.7v0.2
	c0,0.3,0,0.6,0,0.7s0,0.1,0,0.1c0,0,0.1,0,0.1,0v0.1L24.2,8.4L24.2,8.4z"/>
<g>
	<path class="st2" d="M34.7,23.4v3.7l-0.3-0.4c-0.3-0.8-1-1.3-1.8-1.3L32,24.6c0.3-0.2,0.6-0.4,1-0.6c0.4-0.2,0.8-0.4,1.2-0.5v-0.1
		h-2.3l-0.5-0.5h3.8l0.5,0.5L34.7,23.4z M34.2,24.2c-0.4,0.2-0.8,0.3-1.2,0.6c0.5,0.2,0.9,0.5,1.2,0.9V24.2z"/>
	<path class="st2" d="M37.3,24.2v0.1c0,0.3-0.2,0.5-0.7,0.8c-0.2,0.1-0.3,0.1-0.5,0.1c-0.2,0-0.3,0-0.4-0.1
		c-0.1-0.1-0.2-0.2-0.2-0.4v-1.4h-0.4l-0.5-0.5h3.8l0.5,0.5h-2.9l0.1,0.1c0.2,0.2,0.4,0.3,0.7,0.3H37h0.2c0.3,0,0.5,0.1,0.7,0.3
		c0.2,0.2,0.3,0.4,0.3,0.7c0,0.5-0.3,0.9-0.8,1L37.2,26l0.5,0.3c0.4,0.2,0.7,0.5,1,0.9l0.1,0.5c-0.3-0.3-0.7-0.6-1-0.8
		c-0.4-0.2-0.8-0.4-1.2-0.5c-0.2,0-0.4-0.1-0.6-0.1l-0.5-0.8c0.2,0.1,0.5,0.1,0.7,0.1h0.5c0.2,0,0.3-0.1,0.5-0.2
		c0.2-0.1,0.3-0.2,0.4-0.3c0.1-0.1,0.1-0.3,0.1-0.4C37.8,24.3,37.6,24.2,37.3,24.2z M36.2,24.1C36.1,24,36.1,24,36,23.9v0.8
		c0,0.1,0,0.1,0.1,0.1c0.1,0,0.2-0.1,0.3-0.1c0.2-0.1,0.3-0.2,0.3-0.4L36.2,24.1z"/>
	<path class="st2" d="M41.1,23.4V27l-0.3-0.2l-0.4-0.7c-0.2-0.2-0.4-0.4-0.6-0.5c-0.3-0.2-0.6-0.2-0.9-0.3l-0.5-0.7
		c0.7-0.5,1.4-0.9,2.2-1.1v-0.1h-2.2l-0.5-0.5h3.6l0.5,0.5L41.1,23.4z M39.7,26.6c-0.1,0-0.2,0-0.3-0.1c-0.1-0.1-0.1-0.2-0.1-0.3
		c0-0.1,0-0.2,0.1-0.3c0.1-0.1,0.2-0.1,0.3-0.1c0.1,0,0.2,0,0.3,0.1c0.1,0.1,0.1,0.1,0.2,0.2c0,0.1,0,0.3-0.1,0.4
		C39.9,26.5,39.8,26.6,39.7,26.6z M40.7,24.2c-0.4,0.1-0.8,0.3-1.2,0.6c0.5,0.2,0.9,0.5,1.2,0.9V24.2z"/>
	<path class="st2" d="M45.9,24.3c0.1,0,0.2,0.1,0.2,0.2c0.2,0.2,0.3,0.5,0.3,0.8c0,0.1,0,0.2,0,0.3c-0.1,0.2-0.2,0.4-0.4,0.5
		c-0.2,0.1-0.4,0.2-0.6,0.2c-0.4,0-0.8-0.2-1.1-0.6c-0.2-0.2-0.3-0.5-0.4-0.8c-0.1-0.5-0.2-1-0.1-1.5c0.1,0.1,0.2,0.1,0.3,0.2
		c0,0.2,0,0.4,0,0.6c0,0.2,0.1,0.3,0.2,0.5c0.1,0.2,0.2,0.4,0.4,0.5c0.2,0.2,0.4,0.2,0.6,0.2c0.2,0,0.3-0.1,0.5-0.1
		c0.2-0.1,0.3-0.2,0.3-0.3c0,0,0-0.1,0-0.1c0,0,0-0.1-0.1-0.1H46c-0.2,0.1-0.4,0.1-0.6,0.2c-0.1,0-0.3,0-0.4-0.1
		c-0.2-0.1-0.4-0.4-0.5-0.6c0-0.1,0-0.1,0-0.2c0-0.3,0.1-0.5,0.3-0.7l0.1-0.1h-1.4L43,22.9h4.9l0.5,0.5H46l-0.2,0.1l0,0
		c0,0,0.1,0.1,0.3,0.2c0.2,0,0.3,0.1,0.5,0.1c0.2,0,0.5-0.1,0.7-0.2l0.6,0.6c-0.2,0.2-0.3,0.3-0.4,0.5c-0.1,0.2-0.2,0.4-0.2,0.6
		c0,0.1,0,0.3,0,0.4c0,0.4,0.1,0.7,0.3,1c0,0-0.1,0.1-0.1,0.1c-0.1,0-0.2,0-0.2-0.1c-0.1,0-0.2,0-0.2-0.1l-0.2-0.7
		c-0.1-0.2-0.1-0.5-0.1-0.7c0-0.3,0.1-0.6,0.2-0.9c-0.2,0-0.5,0-0.7-0.1c-0.3,0-0.5-0.1-0.7-0.2l-0.2-0.2c-0.1,0-0.2,0.1-0.3,0.3
		c-0.1,0.1-0.2,0.3-0.2,0.4c0,0.1,0.1,0.2,0.2,0.2c0.2,0,0.4-0.1,0.6-0.2l0.2-0.1C45.9,24.3,45.9,24.3,45.9,24.3L45.9,24.3z"/>
	<path class="st2" d="M47.1,27.3l-0.3,0.2c-0.1,0.1-0.2,0.1-0.4,0.1c-0.2,0-0.3,0-0.5-0.1c-0.1-0.1-0.3-0.2-0.3-0.4
		c0-0.2,0-0.4,0.2-0.5c0.1-0.1,0.3-0.2,0.5-0.2c0.2,0,0.4,0.1,0.5,0.2c0,0,0-0.1,0-0.2s0-0.1,0-0.2c0,0,0.1,0,0.1,0
		c0.1,0,0.2,0.1,0.3,0.2c0.1,0.1,0.1,0.2,0.1,0.3v0.1c0,0,0,0.1,0,0.1c0.1,0.1,0.2,0.2,0.3,0.3c0.3,0.2,0.4,0.5,0.5,0.8v0.1
		c0,0-0.1,0.1-0.1,0.1c0,0-0.1,0-0.1-0.1C47.7,27.8,47.4,27.6,47.1,27.3C47.1,27.3,47.1,27.3,47.1,27.3z M46.4,26.9
		c-0.2,0-0.3,0-0.3,0.1s0,0.1,0.1,0.1c0.1,0,0.2,0,0.3-0.1c0.1,0,0.1-0.1,0.1-0.1C46.6,27,46.5,26.9,46.4,26.9L46.4,26.9z"/>
	<path class="st2" d="M49.8,23.5c-0.6,0.2-1,0.7-1.1,1.3c0,0.2,0,0.4,0,0.5c0,0.4,0.2,0.8,0.6,1h0.2c0,0,0,0.1-0.2,0.1
		c0.1,0,0.1,0,0.1,0l-0.1-0.1c0-0.1-0.1-0.1-0.1-0.2c0-0.2,0.1-0.4,0.3-0.5c0.1,0,0.2-0.1,0.2-0.1c0.1,0,0.2,0,0.2,0.1
		c0.2,0.1,0.3,0.2,0.3,0.4c0,0.2-0.1,0.3-0.2,0.5c-0.1,0.1-0.3,0.2-0.5,0.2c-0.2,0-0.4,0-0.6-0.2c-0.5-0.4-0.7-1-0.7-1.6
		c0-0.6,0.2-1.2,0.7-1.6h-1l-0.6-0.5h2.8l0.5,0.5C50.3,23.4,50,23.4,49.8,23.5z"/>
	<path class="st2" d="M51.9,23.4v1.1c0,0.1,0,0.1,0,0.1c0.2-0.1,0.5-0.2,0.6-0.4c0.2-0.2,0.3-0.4,0.4-0.4c0,0,0.1,0,0.1,0.1
		c0.4,0.3,0.6,0.7,0.6,1.2c0,0.5-0.2,1-0.6,1.2c-0.6,0.4-1.4,0.3-1.9-0.2c-0.3-0.3-0.5-0.6-0.6-1c-0.1-0.4-0.3-0.7-0.3-1.1
		c0,0,0-0.2-0.1-0.6l0.4,0.2c0,0.4,0.1,0.8,0.3,1.1c0.3,0.8,0.8,1.1,1.4,1.1c0.2,0,0.4,0,0.5-0.1c0.2-0.1,0.3-0.2,0.4-0.3
		c0.1-0.1,0.1-0.2,0.1-0.4c0-0.1,0-0.2-0.1-0.3c-0.2,0.2-0.3,0.3-0.5,0.5c-0.1,0.1-0.3,0.2-0.5,0.2c-0.3,0-0.6-0.2-0.6-0.6
		c0-0.1,0-0.2,0-0.3v-1H50l-0.5-0.5h4.3l0.5,0.5H51.9z M52.5,27.4c-0.1,0.2-0.2,0.3-0.4,0.3c-0.1,0-0.3,0-0.4-0.1
		c-0.1-0.1-0.1-0.2-0.1-0.3c0-0.1,0-0.3,0.1-0.3c0.1-0.1,0.2-0.2,0.4-0.2c0.1,0,0.3,0,0.4,0.1c0.1,0.1,0.1,0.2,0.1,0.3
		C52.6,27.2,52.6,27.3,52.5,27.4z"/>
	<path class="st2" d="M58.5,23.4v3.7l-0.3-0.4c-0.3-0.8-1-1.3-1.8-1.3l-0.5-0.7c0.3-0.2,0.6-0.4,1-0.6c0.4-0.2,0.8-0.4,1.2-0.5v-0.1
		h-2.3l-0.5-0.5H59l0.5,0.5L58.5,23.4z M58,24.2c-0.4,0.2-0.8,0.3-1.2,0.6c0.5,0.2,0.9,0.5,1.2,0.9V24.2z"/>
	<path class="st2" d="M59.5,23.3c0-0.4,0-0.7,0-1.1l0.3,0.2c0,0.1,0.1,0.3,0.1,0.4l0.1,0.1h0.5l0.5,0.5h-1V27l-0.5-0.5V24
		c0-0.1,0-0.2-0.1-0.3c-0.1-0.2-0.3-0.3-0.5-0.3h-0.1l-0.5-0.5c0.2,0,0.5,0,0.7,0C59.2,23,59.4,23.1,59.5,23.3z"/>
	<path class="st2" d="M61.9,24.7c-0.1,0.1-0.2,0.1-0.4,0.1c-0.2,0-0.5-0.1-0.6-0.3c-0.2-0.2-0.3-0.4-0.3-0.6c0-0.2,0.1-0.4,0.3-0.6
		c0.3-0.3,0.9-0.3,1.2,0c0.2,0.2,0.2,0.4,0.2,0.6c0,0.2-0.1,0.3-0.1,0.4C62.1,24.5,62,24.7,61.9,24.7z M62.5,26.8
		c-0.5-0.4-1-0.8-1.6-1.1v-1c0.3,0.2,0.6,0.5,0.9,0.8c0.4,0.4,0.8,0.9,1.2,1.3v0.5L62.5,26.8z M61.7,23.6c-0.1,0-0.3,0.1-0.4,0.2
		c-0.1,0.1-0.2,0.2-0.2,0.4c0,0.1,0,0.2,0.1,0.2c0.1,0,0.2-0.1,0.3-0.1c0.1-0.1,0.2-0.2,0.2-0.2c0-0.1,0-0.1,0-0.2
		C61.9,23.6,61.8,23.6,61.7,23.6z"/>
	<path class="st2" d="M65.9,23.4V27l-0.5-0.5v-1.9c0-0.1-0.1-0.2-0.1-0.3c-0.1-0.1-0.2-0.1-0.3-0.1c-0.1,0-0.1,0-0.2,0.1
		c0,0.1,0,0.3,0,0.4l-0.4,0.1c0-0.1,0-0.2,0-0.2c0-0.1-0.1-0.2-0.2-0.2c-0.1-0.1-0.3-0.2-0.5-0.2c-0.2,0-0.3,0-0.4,0.1
		c-0.1,0.1-0.2,0.2-0.2,0.4c0,0.2,0.1,0.3,0.3,0.4c0-0.1,0-0.1,0-0.2c0-0.1,0-0.2,0.1-0.3c0.1-0.1,0.2-0.1,0.3-0.1
		c0.2,0,0.4,0.1,0.4,0.3c0.1,0.1,0.1,0.3,0.1,0.4c-0.1,0.2-0.3,0.4-0.6,0.4c-0.3,0-0.6-0.1-0.8-0.3c-0.2-0.2-0.3-0.5-0.3-0.8
		c0-0.2,0.1-0.5,0.2-0.7c0.1-0.2,0.4-0.3,0.6-0.3c0.3,0,0.5,0.1,0.7,0.3v0.1c0.1-0.1,0.1-0.2,0.2-0.2c0.1-0.1,0.2-0.1,0.3-0.1
		c0.1,0,0.3,0.1,0.4,0.1c0,0.1,0.1,0.1,0.1,0.2V24v-0.6h-2.8L62,22.9h4.3l0.5,0.5L65.9,23.4z"/>
	<path class="st2" d="M66.9,23.3c0-0.4,0-0.7,0-1.1l0.3,0.2c0,0.1,0,0.3,0,0.4l0.1,0.1h0.5l0.5,0.5h-1v3.7l-0.5-0.5V24
		c0-0.1,0-0.2-0.1-0.3c-0.1-0.2-0.3-0.3-0.5-0.3h-0.1l-0.5-0.5c0.2,0,0.5,0,0.7,0C66.6,22.9,66.8,23.1,66.9,23.3z"/>
	<path class="st2" d="M70.6,23.4V27l-0.3-0.2c-0.2-0.4-0.4-0.6-0.4-0.7c-0.2-0.2-0.4-0.4-0.6-0.5c-0.3-0.2-0.6-0.3-1-0.3l-0.5-0.7
		c0.7-0.5,1.4-0.9,2.2-1.1v-0.1h-2.2l-0.5-0.5H71l0.5,0.5L70.6,23.4z M69.1,26.6c-0.1,0-0.2,0-0.3-0.1c-0.1-0.1-0.1-0.2-0.1-0.3
		c0-0.1,0-0.2,0.1-0.3c0.1-0.1,0.2-0.1,0.3-0.1c0.1,0,0.2,0,0.3,0.1c0.1,0.1,0.1,0.1,0.2,0.2c0,0.1,0,0.3-0.1,0.4
		C69.4,26.5,69.2,26.6,69.1,26.6L69.1,26.6z M70.1,24.2c-0.4,0.1-0.8,0.3-1.2,0.6c0.5,0.2,0.9,0.5,1.2,0.9V24.2z"/>
	<path class="st2" d="M74.2,23.5c-0.1-0.1-0.1-0.1-0.2-0.2h-1.1l-0.5-0.5h3.8l0.5,0.5h-2l0,0l0.1,0.1c0.1,0,0.2,0,0.3,0.1
		c0.4,0.1,0.6,0.4,0.7,0.8c0,0.1,0,0.1,0,0.2c0,0.4-0.2,0.7-0.6,0.9l-0.4,0.2c0.1,0,0.2,0.1,0.3,0.2c0.2,0.1,0.5,0.3,0.7,0.5
		l0.6,0.6l0.2,0.8l-0.3-0.4c-0.4-0.4-0.8-0.7-1.3-0.9c-0.4-0.2-0.9-0.4-1.4-0.5L73,24.7c0.4,0.3,0.8,0.4,1.3,0.4
		c0.4,0,0.7-0.1,1-0.4c0.1-0.1,0.1-0.1,0.1-0.2c0-0.1-0.1-0.2-0.2-0.3c-0.1-0.1-0.3-0.1-0.4-0.1h-0.1c0,0.2-0.2,0.4-0.3,0.5
		c-0.1,0.1-0.3,0.2-0.4,0.2c-0.2,0-0.5-0.1-0.5-0.4c0-0.2,0-0.3,0.2-0.5c0.1-0.1,0.2-0.2,0.3-0.2L74.2,23.5z"/>
	<path class="st2" d="M76.7,23.3c0-0.4,0-0.7,0-1.1l0.3,0.2c0,0.1,0.1,0.3,0.1,0.4l0.1,0.1h0.5l0.5,0.5h-1V27l-0.5-0.5V24
		c0-0.1,0-0.2-0.1-0.3c-0.1-0.2-0.3-0.3-0.5-0.3H76l-0.5-0.5c0.2,0,0.5,0,0.7,0C76.4,23,76.6,23.1,76.7,23.3z"/>
	<path class="st2" d="M78.4,22L78.4,22h0.3c0.4,0,0.7,0,1.1,0.1c0.3,0.1,0.5,0.5,0.5,0.8h0.4l0.5,0.5h-2.7v2.2
		c0,0.1,0.1,0.2,0.2,0.2c0.2,0,0.4-0.1,0.6-0.3c0.2-0.1,0.3-0.3,0.4-0.6l0,0c-0.1,0-0.3,0-0.4-0.1c-0.1-0.1-0.2-0.2-0.2-0.3
		c0,0,0-0.1,0-0.1c0.1-0.3,0.3-0.4,0.6-0.4c0.2,0,0.4,0.1,0.5,0.2c0.1,0.1,0.2,0.3,0.2,0.5c0,0.4-0.1,0.7-0.4,1
		c-0.5,0.5-0.8,0.7-1.1,0.7c-0.4,0-0.8-0.3-0.8-0.7c0-0.2,0-0.3,0-0.5v-1.9h-0.5l-0.4-0.5h2.8c0,0,0-0.1,0-0.1c0,0-0.2-0.3-0.5-0.2
		h-0.7h-0.3c-0.3,0-0.6-0.1-0.8-0.2c-0.2-0.1-0.4-0.4-0.4-0.6c0-0.1,0-0.2,0.1-0.3c0-0.1,0.1-0.1,0.2-0.1c0,0,0.1,0,0.1,0
		c0,0.1,0,0.1,0,0.2c0,0-0.1,0.1-0.1,0.2c0,0.1,0.1,0.2,0.3,0.3C78.1,21.9,78.2,22,78.4,22z"/>
	<path class="st2" d="M85.4,23.4v3.7l-0.3-0.4c-0.3-0.8-1-1.3-1.8-1.3l-0.5-0.7c0.3-0.2,0.6-0.4,1-0.6c0.4-0.2,0.8-0.4,1.3-0.5v-0.1
		h-2.3l-0.5-0.5h3.8l0.5,0.5H85.4z M84.9,24.2c-0.4,0.2-0.8,0.3-1.2,0.6c0.5,0.2,0.9,0.5,1.2,0.9V24.2z"/>
	<path class="st2" d="M86.4,23.3c0-0.4,0-0.7,0-1.1l0.3,0.2c0,0.1,0.1,0.3,0.1,0.4l0.1,0.1h0.5l0.5,0.5h-1V27l-0.5-0.5V24
		c0-0.1,0-0.2-0.1-0.3c-0.1-0.2-0.3-0.3-0.5-0.3h-0.1l-0.5-0.5c0.2,0,0.5,0,0.7,0C86.2,23,86.3,23.1,86.4,23.3z"/>
	<path class="st2" d="M89.8,24.3c0.1,0,0.2,0.1,0.2,0.2c0.2,0.2,0.3,0.5,0.3,0.8c0,0.1,0,0.2,0,0.3c-0.1,0.2-0.2,0.4-0.4,0.5
		c-0.2,0.1-0.4,0.2-0.6,0.2c-0.4,0-0.8-0.2-1.1-0.6c-0.2-0.2-0.3-0.5-0.4-0.8c-0.1-0.5-0.2-1-0.1-1.5c0.1,0.1,0.2,0.1,0.3,0.2
		c0,0.2,0,0.4,0,0.6c0,0.2,0.1,0.3,0.2,0.5c0.1,0.2,0.2,0.4,0.4,0.5c0.2,0.2,0.4,0.2,0.6,0.2c0.2,0,0.3-0.1,0.5-0.1
		c0.2-0.1,0.3-0.2,0.3-0.3c0,0,0-0.1,0-0.1c0,0,0-0.1-0.1-0.1h-0.1c-0.2,0.1-0.4,0.1-0.6,0.2c-0.4,0-0.8-0.3-0.9-0.7
		c0-0.1,0-0.1,0-0.2c0-0.3,0.1-0.5,0.3-0.7l0.1-0.1h-1.3l-0.5-0.5h4.9l0.5,0.5h-2.4l-0.2,0.1l0,0c0,0,0.1,0.1,0.3,0.2
		c0.2,0,0.3,0.1,0.5,0.1c0.2,0,0.5-0.1,0.7-0.2l0.6,0.6c-0.2,0.2-0.3,0.3-0.4,0.5c-0.1,0.2-0.2,0.4-0.2,0.6c0,0.1,0,0.3,0,0.4
		c0,0.3,0.1,0.7,0.3,1c0,0-0.1,0.1-0.1,0.1c-0.1,0-0.2,0-0.2-0.1c-0.1,0-0.2,0-0.2-0.1l-0.2-0.7c-0.1-0.2-0.1-0.5-0.1-0.7
		c0-0.3,0.1-0.6,0.2-0.9c-0.2,0-0.5,0-0.7-0.1c-0.2,0-0.5-0.1-0.6-0.2l-0.2-0.2c-0.1,0-0.2,0.1-0.3,0.3c-0.1,0.1-0.2,0.3-0.2,0.4
		c0,0.1,0.1,0.2,0.2,0.2c0.2,0,0.4-0.1,0.6-0.2L89.8,24.3C89.7,24.3,89.8,24.3,89.8,24.3L89.8,24.3z"/>
	<path class="st2" d="M92.2,23.3c0-0.3,0-0.7,0-1.1l0.3,0.2c0,0.1,0.1,0.3,0.1,0.4l0.1,0.1h0.5l0.5,0.5h-1V27l-0.5-0.5V24
		c0-0.1,0-0.2-0.1-0.3c-0.1-0.2-0.3-0.3-0.5-0.3h-0.1L91,22.9c0.2,0,0.5,0,0.7,0C91.9,23,92.1,23.1,92.2,23.3z"/>
	<path class="st2" d="M95.8,23.4V27l-0.3-0.2c-0.2-0.4-0.4-0.6-0.4-0.7c-0.2-0.2-0.3-0.4-0.6-0.5c-0.3-0.2-0.6-0.2-0.9-0.3l-0.5-0.7
		c0.7-0.5,1.4-0.9,2.2-1.1v-0.1h-2.2l-0.5-0.5h3.6l0.5,0.5L95.8,23.4z M94.4,26.6c-0.1,0-0.2,0-0.3-0.1c-0.1-0.1-0.1-0.2-0.1-0.3
		c0-0.1,0-0.2,0.1-0.3c0.1-0.1,0.2-0.1,0.3-0.1c0.1,0,0.2,0,0.3,0.1c0.1,0.1,0.1,0.1,0.2,0.2c0,0.1,0,0.3-0.1,0.4
		C94.6,26.5,94.5,26.6,94.4,26.6z M95.3,24.2c-0.4,0.1-0.8,0.3-1.2,0.6c0.5,0.2,0.9,0.5,1.2,0.9V24.2z"/>
</g>
<text transform="matrix(1 0 0 1 36.9206 -14.0274)" style="fill:#172D54; font-family:'BookAntiqua-Bold'; font-size:10.3329px;">Crops Haat</text>
<text transform="matrix(1 0 0 1 31.4052 16.6474)" class="st3 st4 st5">Crops Haat</text>
<text transform="matrix(1.0623 0 0 1 37.7634 -7.0411)" style="fill:#4E93CF; font-family:'SutonnyMJ-Bold'; font-size:5.519px;">eQi Ry‡o evsjvi nvU evRvi</text>
</svg>
