<?xml version="1.0" encoding="utf-8"?>
<!-- Generator: Adobe Illustrator 26.0.1, SVG Export Plug-In . SVG Version: 6.00 Build 0)  -->
<svg version="1.1" id="Layer_1" xmlns="http://www.w3.org/2000/svg" xmlns:xlink="http://www.w3.org/1999/xlink" x="0px" y="0px"
	 viewBox="0 0 100 35" style="enable-background:new 0 0 100 35;" xml:space="preserve">
<style type="text/css">
	.st0{fill:#FFFFFF;}
</style>
<g>
	<g>
		<path class="st0" d="M39.6,15.8l0.2,0.1c-0.1,0.2-0.2,0.4-0.3,0.6c-0.5,0.3-1,0.4-1.4,0.5c-0.4,0.1-1,0.2-1.6,0.2
			c-1.1,0-2-0.2-2.8-0.6c-0.8-0.4-1.3-0.9-1.7-1.6c-0.4-0.7-0.6-1.5-0.6-2.4c0-1.3,0.5-2.4,1.4-3.2c0.9-0.8,2.2-1.2,3.8-1.2
			c0.5,0,1.1,0,1.6,0.1c0.5,0.1,1.1,0.2,1.6,0.4l0,0.1c-0.1,0.2-0.1,0.4-0.2,0.7c-0.1,0.4-0.1,0.8-0.1,1.4H39c0-0.7-0.1-1-0.1-1.1
			c0-0.1-0.1-0.2-0.3-0.3c-0.2-0.2-0.5-0.3-0.8-0.4C37.4,9,37,9,36.6,9c-1,0-1.8,0.3-2.4,0.9c-0.6,0.6-0.9,1.5-0.9,2.6
			c0,1.2,0.4,2.2,1.1,2.9c0.7,0.7,1.6,1,2.7,1c0.4,0,0.9,0,1.2-0.1C38.7,16.2,39.1,16,39.6,15.8z"/>
		<path class="st0" d="M40.3,17.2v-0.5c0.4,0,0.7,0,0.7-0.1c0.1,0,0.1-0.1,0.1-0.1c0-0.1,0.1-0.3,0.1-0.7c0-0.6,0-1.2,0-1.7
			c0-1,0-1.5,0-1.7c0-0.1-0.1-0.2-0.1-0.2c-0.1,0-0.3-0.1-0.8-0.1v-0.5c0.8-0.1,1.4-0.2,1.8-0.3l0.6-0.2c0.1,0,0.1,0,0.1,0.1l0,0.1
			c0,0.3,0,0.6,0,1.1c0.2-0.2,0.4-0.5,0.7-0.8c0.2-0.2,0.4-0.4,0.5-0.5c0.1-0.1,0.3-0.1,0.6-0.1c0.1,0,0.3,0,0.4,0.1
			c0,0.4-0.1,1-0.1,1.7l-0.3,0.1c-0.1-0.2-0.2-0.3-0.3-0.3c-0.1-0.1-0.3-0.1-0.4-0.1c-0.3,0-0.5,0.1-0.6,0.2
			c-0.2,0.1-0.3,0.3-0.3,0.4c0,0.1-0.1,0.6-0.1,1.3c0,1.1,0,1.7,0,1.9c0,0.1,0.1,0.2,0.1,0.2c0.1,0.1,0.4,0.1,0.9,0.1v0.5l-0.7,0
			c-0.4,0-0.8,0-1.2,0c-0.3,0-0.7,0-1.1,0L40.3,17.2z"/>
		<path class="st0" d="M45.7,14.2c0-1,0.2-1.7,0.7-2.2c0.6-0.6,1.4-0.9,2.4-0.9c1,0,1.8,0.2,2.3,0.7c0.5,0.5,0.7,1.2,0.7,2.2
			c0,1.1-0.3,1.9-0.8,2.4c-0.6,0.6-1.3,0.9-2.3,0.9c-1,0-1.7-0.3-2.2-0.8C45.9,16,45.7,15.2,45.7,14.2z M47.4,13.7
			c0,1.1,0.1,1.9,0.4,2.4c0.2,0.4,0.6,0.5,1,0.5c0.4,0,0.7-0.2,0.9-0.5c0.2-0.3,0.3-0.9,0.3-1.7c0-1.1-0.1-1.9-0.4-2.3
			c-0.2-0.3-0.5-0.5-1-0.5c-0.4,0-0.7,0.2-0.9,0.5C47.5,12.5,47.4,13,47.4,13.7z"/>
		<path class="st0" d="M52.6,12.1v-0.5c0.7-0.1,1.3-0.2,1.8-0.3l0.7-0.2c0.1,0,0.1,0,0.1,0.1c0,0.1,0,0.2,0,0.3l0,0.6l1-0.8
			c0.2-0.2,0.6-0.3,1.1-0.3c0.7,0,1.3,0.2,1.7,0.7s0.6,1,0.6,1.8c0,0.4-0.1,0.7-0.2,1.1c-0.1,0.4-0.2,0.6-0.4,0.9
			c-0.1,0.2-0.4,0.5-0.8,0.7c-0.6,0.5-1,0.8-1.1,0.9c-0.2,0.1-0.5,0.2-0.9,0.2c-0.2,0-0.4,0-0.6-0.1c-0.2,0-0.4-0.1-0.6-0.2l0,1.9
			c0,0.5,0.1,0.7,0.1,0.8c0.1,0.1,0.4,0.1,0.9,0.1v0.5c-0.6,0-1.2,0-1.7,0c-0.9,0-1.6,0-1.9,0v-0.5c0.4,0,0.7,0,0.8-0.1
			c0,0,0.1-0.1,0.1-0.1c0-0.1,0.1-0.5,0.1-1.3c0-1.1,0-1.9,0-2.4l0-2.5c0-0.7,0-1.2-0.1-1.3c0-0.1-0.1-0.1-0.1-0.1
			C53.4,12.1,53.1,12.1,52.6,12.1z M55.2,15.8c0.2,0.2,0.4,0.4,0.6,0.5c0.2,0.1,0.5,0.2,0.7,0.2c0.4,0,0.8-0.2,1.1-0.6
			c0.3-0.4,0.4-1,0.4-1.8c0-0.7-0.1-1.2-0.4-1.5c-0.3-0.3-0.6-0.5-1.1-0.5c-0.2,0-0.4,0.1-0.7,0.2c-0.2,0.1-0.4,0.3-0.7,0.5V15.8z"
			/>
		<path class="st0" d="M61.3,15.1c0,0.5,0,0.8,0.1,0.9c0.1,0.2,0.3,0.3,0.5,0.5c0.3,0.1,0.5,0.2,0.9,0.2c0.4,0,0.7-0.1,0.9-0.3
			c0.2-0.2,0.3-0.4,0.3-0.7c0-0.2-0.1-0.4-0.2-0.6c-0.1-0.1-0.5-0.3-0.9-0.4c-0.7-0.2-1.2-0.3-1.4-0.4c-0.2-0.1-0.4-0.3-0.5-0.5
			c-0.1-0.2-0.2-0.5-0.2-0.8c0-0.4,0.1-0.7,0.3-1c0.2-0.3,0.5-0.5,0.8-0.7c0.4-0.2,0.8-0.3,1.4-0.3c0.6,0,1.2,0.1,1.7,0.3
			c-0.1,0.3-0.1,0.9-0.1,1.6h-0.5c0-0.5-0.1-0.7-0.1-0.8c-0.1-0.1-0.2-0.2-0.4-0.3c-0.2-0.1-0.5-0.2-0.8-0.2c-0.4,0-0.6,0.1-0.8,0.2
			c-0.2,0.2-0.3,0.4-0.3,0.6c0,0.2,0.1,0.4,0.3,0.5c0.2,0.1,0.6,0.3,1.3,0.4c0.5,0.1,0.8,0.2,0.9,0.2c0.3,0.1,0.5,0.3,0.7,0.6
			c0.2,0.2,0.2,0.5,0.2,0.9c0,0.7-0.3,1.3-0.8,1.6c-0.5,0.4-1.2,0.6-2,0.6c-0.3,0-0.5,0-0.8-0.1c-0.3-0.1-0.6-0.1-1-0.3l-0.1-0.1
			c0.1-0.4,0.1-0.9,0.1-1.7H61.3z"/>
		<path class="st0" d="M69.5,17.2v-0.5c0.6,0,0.9-0.1,0.9-0.1c0.1,0,0.1-0.1,0.1-0.3c0-0.2,0.1-0.8,0.1-1.7l0-3.4
			c0-1.2,0-1.8-0.1-1.9c0-0.1-0.1-0.1-0.1-0.1c-0.1-0.1-0.4-0.1-1-0.1V8.4c0.8,0,1.5,0,2,0c0.8,0,1.5,0,2.1,0v0.5
			c-0.5,0-0.8,0.1-0.9,0.1c-0.1,0-0.1,0.1-0.1,0.1c0,0.1-0.1,0.3-0.1,0.7c0,0.6,0,1.2,0,1.8v0.5c0.4,0,1.1,0,2.1,0
			c0.8,0,1.5,0,1.9,0c0-1.4,0-2.3,0-2.7c0-0.2-0.1-0.4-0.1-0.4c-0.1-0.1-0.4-0.1-1-0.2V8.4c1,0,1.7,0,2.1,0c0.6,0,1.3,0,2,0v0.5
			c-0.5,0-0.8,0.1-0.9,0.1c-0.1,0-0.1,0.1-0.1,0.1c0,0.1-0.1,0.4-0.1,1c0,0.9,0,1.7,0,2.2l0,2.8c0,0.6,0,1,0.1,1.1
			c0,0.1,0.1,0.2,0.1,0.2c0.1,0,0.4,0.1,0.9,0.1v0.5l-0.7,0c-0.5,0-0.9,0-1.2,0c-0.6,0-1.3,0-2.2,0v-0.5c0.6,0,0.9-0.1,0.9-0.1
			c0.1-0.1,0.1-0.2,0.1-0.5c0-0.5,0-1.5,0.1-3c-0.5,0-1,0-1.6,0c-0.9,0-1.7,0-2.4,0v0.4c0,1.1,0,1.9,0,2.5c0,0.4,0.1,0.6,0.1,0.6
			c0.1,0.1,0.4,0.1,1,0.1v0.5l-0.7,0c-0.5,0-0.9,0-1.3,0L69.5,17.2z"/>
		<path class="st0" d="M85.9,16.6v0.5l-0.5,0c-0.3,0-0.5,0-0.8,0c-0.4,0-0.8,0-1.1,0l-0.1-0.1l0.1-0.9l-1.3,1
			c-0.2,0.1-0.4,0.1-0.6,0.1c-0.4,0-0.8-0.1-1-0.4c-0.2-0.3-0.4-0.6-0.4-1.2c0-0.6,0.2-1.1,0.5-1.3c0.4-0.3,1.4-0.6,2.8-0.9
			c0-0.5-0.1-0.9-0.3-1.1c-0.2-0.3-0.6-0.5-1.1-0.5c-0.1,0-0.2,0-0.3,0c-0.1,0-0.2,0.1-0.4,0.1l-0.3,0.7l-0.4-0.1l0-0.3l0-0.3l0-0.3
			c0.6-0.4,1.1-0.6,1.4-0.7c0.2-0.1,0.5-0.1,0.9-0.1c0.5,0,0.9,0.1,1.2,0.2c0.3,0.1,0.5,0.4,0.7,0.6c0.1,0.3,0.2,0.6,0.2,1.1
			c0,0.2,0,0.6,0,1.1c0,0.5,0,1,0,1.3c0,0.5,0,0.8,0,1c0,0.1,0.1,0.1,0.1,0.2C85.3,16.6,85.5,16.6,85.9,16.6z M83.5,14.1
			c-0.7,0.2-1.2,0.3-1.4,0.5c-0.2,0.2-0.3,0.4-0.3,0.8c0,0.3,0.1,0.5,0.2,0.6s0.3,0.2,0.5,0.2c0.3,0,0.7-0.2,1-0.6V14.1z"/>
		<path class="st0" d="M92.3,16.6v0.5l-0.5,0c-0.3,0-0.5,0-0.8,0c-0.4,0-0.8,0-1.1,0l-0.1-0.1l0.1-0.9l-1.3,1
			c-0.2,0.1-0.4,0.1-0.6,0.1c-0.4,0-0.8-0.1-1-0.4c-0.2-0.3-0.4-0.6-0.4-1.2c0-0.6,0.2-1.1,0.5-1.3c0.4-0.3,1.4-0.6,2.8-0.9
			c0-0.5-0.1-0.9-0.3-1.1c-0.2-0.3-0.6-0.5-1.1-0.5c-0.1,0-0.2,0-0.3,0c-0.1,0-0.2,0.1-0.4,0.1l-0.3,0.7l-0.4-0.1l0-0.3l0-0.3l0-0.3
			c0.6-0.4,1.1-0.6,1.4-0.7c0.2-0.1,0.5-0.1,0.9-0.1c0.5,0,0.9,0.1,1.2,0.2c0.3,0.1,0.5,0.4,0.7,0.6c0.1,0.3,0.2,0.6,0.2,1.1
			c0,0.2,0,0.6,0,1.1c0,0.5,0,1,0,1.3c0,0.5,0,0.8,0,1c0,0.1,0.1,0.1,0.1,0.2C91.7,16.6,92,16.6,92.3,16.6z M90,14.1
			c-0.7,0.2-1.2,0.3-1.4,0.5c-0.2,0.2-0.3,0.4-0.3,0.8c0,0.3,0.1,0.5,0.2,0.6s0.3,0.2,0.5,0.2c0.3,0,0.7-0.2,1-0.6V14.1z"/>
		<path class="st0" d="M92.8,12.1l0.8-0.5c0-0.7,0-1.4-0.1-1.9c0.6-0.2,1.1-0.4,1.6-0.6l0.2,0.1c-0.1,0.6-0.2,1.4-0.2,2.4
			c0.2,0,0.4,0.1,0.6,0.1c0.4,0,0.8,0,1.1-0.1l0.1,0l-0.1,0.2c-0.1,0.2-0.1,0.4-0.1,0.6c-0.5,0-0.8-0.1-1.1-0.1c-0.2,0-0.3,0-0.5,0
			c0,0.4,0,0.8,0,1.1c0,1.4,0,2.2,0.1,2.4c0.1,0.2,0.3,0.3,0.6,0.3c0.1,0,0.2,0,0.3,0c0.1,0,0.2-0.1,0.3-0.1l0.1,0.2
			c-0.3,0.3-0.5,0.6-0.7,0.9c-0.2,0-0.3,0-0.4,0.1c-0.1,0-0.2,0-0.4,0c-0.4,0-0.6-0.1-0.9-0.2c-0.2-0.1-0.4-0.3-0.5-0.5
			c-0.1-0.2-0.2-0.5-0.2-0.9c0-0.2,0-0.7,0-1.6c0-0.7,0-1.3,0-1.8l-0.3,0c-0.1,0-0.3,0-0.5,0V12.1z"/>
	</g>
</g>
<g>
	<path class="st0" d="M21.5,9.1C21.4,9,21.1,9,21,9.2c-0.1,0.2-0.1,0.4,0.1,0.5c2.6,2,4.2,5,4.2,8.3c0,5.6-4.4,10.1-10,10.3v-1.9
		c0.4,0.1,0.8,0.1,1.2,0.1c1.5,0,2.9-0.6,4-1.7l0.4-0.4c1.4-1.4,2-3.5,1.5-5.5c0-0.1-0.1-0.2-0.3-0.3c-0.6-0.2-1.2-0.2-1.9-0.2
		c0.1-0.1,0.2-0.2,0.3-0.2l0.4-0.4c1.4-1.4,2-3.5,1.5-5.5c0-0.1-0.1-0.2-0.3-0.3c-1.6-0.4-3.3-0.1-4.6,0.8c0.3-0.7,0.5-1.5,0.5-2.3
		v-0.5c0-2-1.1-3.9-2.8-4.9c-0.1-0.1-0.2-0.1-0.4,0c-1.7,1-2.8,2.9-2.8,4.9v0.5c0,0.8,0.2,1.6,0.5,2.3c-1.3-0.9-3-1.2-4.6-0.8
		c-0.1,0-0.2,0.1-0.3,0.3c-0.5,1.9,0,4,1.5,5.5l0.4,0.4c0.1,0.1,0.2,0.2,0.3,0.2c-0.6,0-1.2,0-1.9,0.2c-0.1,0-0.2,0.1-0.3,0.3
		c-0.5,1.9,0,4,1.5,5.5l0.4,0.4c1.1,1.1,2.5,1.7,4,1.7c0.4,0,0.8,0,1.2-0.1v1.9C9,28.1,4.5,23.6,4.5,18c0-3.3,1.5-6.3,4.2-8.3
		c0.2-0.1,0.2-0.3,0.1-0.5C8.7,9,8.4,9,8.3,9.1c-2.8,2.1-4.4,5.3-4.4,8.9c0,6.1,5,11.1,11.1,11.1C21,29,26,24.1,26,18
		C26,14.5,24.3,11.2,21.5,9.1z M21.7,19.4c0.4,1.6-0.1,3.4-1.3,4.6l-0.4,0.4c-1.2,1.2-2.9,1.7-4.6,1.3c-0.4-1.6,0.1-3.4,1.3-4.6
		l0.4-0.4C18.3,19.6,20,19.1,21.7,19.4z M21.7,12.9c0.4,1.6-0.1,3.4-1.3,4.6l-0.4,0.4c-1.2,1.2-2.9,1.7-4.6,1.3
		c-0.4-1.6,0.1-3.4,1.3-4.6l0.4-0.4C18.3,13,20,12.5,21.7,12.9z M12.6,10.2c0-1.7,0.9-3.3,2.3-4.2c1.4,0.9,2.3,2.5,2.3,4.2v0.5
		c0,1.7-0.9,3.3-2.3,4.2c-1.4-0.9-2.3-2.5-2.3-4.2V10.2z M8.1,12.9c1.6-0.4,3.4,0.1,4.6,1.3l0.4,0.4c1.2,1.2,1.7,2.9,1.3,4.6
		c-1.6,0.4-3.4-0.1-4.6-1.3l-0.4-0.4C8.3,16.3,7.8,14.5,8.1,12.9z M14.4,25.7c-1.6,0.4-3.4-0.1-4.6-1.3L9.4,24
		c-1.2-1.2-1.7-2.9-1.3-4.6c1.6-0.4,3.4,0.1,4.6,1.3l0.4,0.4C14.3,22.3,14.8,24.1,14.4,25.7z"/>
	<path class="st0" d="M23.2,8.4L23.2,8.4c0-0.1,0.1-0.1,0.1-0.1c0,0,0,0,0,0c0,0,0,0,0,0c0,0,0-0.1,0-0.3c0-0.1,0-0.2,0-0.4
		c0-0.2,0-0.4,0-0.4s0,0-0.1,0c-0.1,0-0.2,0-0.2,0c0,0-0.1,0-0.1,0c0,0,0,0,0,0c0,0,0,0.1,0,0.2h-0.1c0-0.1,0-0.2,0-0.3l0,0
		c0.2,0,0.4,0,0.6,0c0.2,0,0.4,0,0.6,0l0,0c0,0.1,0,0.2,0,0.3H24c0-0.1,0-0.2,0-0.2c0,0,0,0,0,0c0,0-0.1,0-0.3,0c0,0,0,0,0,0
		c0,0,0,0,0,0l0,0.6c0,0.2,0,0.3,0,0.3c0,0,0,0.1,0,0.1c0,0,0.1,0,0.1,0v0.1c-0.1,0-0.2,0-0.3,0C23.4,8.4,23.3,8.4,23.2,8.4z"/>
	<path class="st0" d="M24.2,8.4L24.2,8.4L24.2,8.4c0.1-0.1,0.1-0.1,0.1-0.1c0,0,0-0.1,0-0.1c0-0.2,0-0.3,0-0.5c0-0.1,0-0.2,0-0.3
		c0-0.1,0-0.1,0-0.1c0,0,0,0,0,0c0,0-0.1,0-0.1,0V7.1c0.1,0,0.1,0,0.2,0c0.1,0,0.2,0,0.2,0c0,0.1,0.1,0.2,0.1,0.2
		c0,0.1,0.1,0.3,0.3,0.7c0.2-0.4,0.4-0.7,0.4-0.9c0.1,0,0.1,0,0.2,0c0.1,0,0.2,0,0.2,0v0.1c-0.1,0-0.1,0-0.1,0c0,0,0,0,0,0.1
		c0,0.1,0,0.2,0,0.4c0,0.1,0,0.2,0,0.3c0,0.1,0,0.2,0,0.2c0,0,0,0,0,0c0,0,0.1,0,0.1,0v0.1c-0.1,0-0.2,0-0.3,0c-0.1,0-0.2,0-0.3,0
		V8.3l0.1,0c0,0,0.1,0,0.1,0c0,0,0,0,0-0.1c0,0,0-0.1,0-0.3V7.4c-0.1,0.2-0.2,0.4-0.4,0.7c-0.1,0.1-0.1,0.2-0.1,0.3H25
		c0-0.1-0.1-0.2-0.2-0.4l-0.3-0.7v0.1c0,0.3,0,0.6,0,0.7c0,0.1,0,0.1,0,0.1c0,0,0.1,0,0.1,0v0.1c-0.1,0-0.1,0-0.2,0
		C24.3,8.4,24.3,8.4,24.2,8.4z"/>
</g>
<g>
	<path class="st0" d="M37.6,25.5v3.3l-0.3-0.4c-0.3-0.7-0.9-1.2-1.7-1.2l-0.5-0.6c0.4-0.2,0.6-0.4,0.9-0.5c0.4-0.2,0.8-0.3,1.1-0.5
		v-0.1h-2.1l-0.5-0.4h3.4l0.5,0.4H37.6z M37.2,26.2c-0.3,0.1-0.7,0.3-1.1,0.5c0.4,0.2,0.8,0.5,1.1,0.8V26.2z"/>
	<path class="st0" d="M40,26.3C40,26.3,40,26.3,40,26.3c0,0.3-0.2,0.6-0.6,0.8c-0.2,0.1-0.3,0.1-0.5,0.1c-0.1,0-0.3,0-0.4-0.1
		c-0.1-0.1-0.2-0.2-0.2-0.3v-1.2H38l-0.4-0.4H41l0.5,0.4h-2.7c0,0.1,0.1,0.1,0.1,0.1c0.2,0.1,0.4,0.2,0.6,0.2c0,0,0.1,0,0.2,0
		c0.1,0,0.2,0,0.2,0c0.3,0,0.5,0.1,0.6,0.3s0.3,0.4,0.3,0.7c0,0.4-0.2,0.7-0.7,0.9c-0.1,0-0.1,0.1-0.2,0.1l0.4,0.2
		c0.2,0.1,0.5,0.4,0.9,0.8l0.1,0.5c-0.3-0.3-0.6-0.6-0.9-0.7s-0.7-0.3-1.1-0.4c-0.2,0-0.3-0.1-0.5-0.1l-0.4-0.7
		c0.3,0.1,0.5,0.1,0.6,0.1c0,0,0.2,0,0.4,0c0.1,0,0.3-0.1,0.5-0.2c0.2-0.1,0.3-0.2,0.4-0.3c0.1-0.1,0.1-0.3,0.1-0.4
		C40.4,26.4,40.3,26.3,40,26.3z M39,26.1C39,26.1,38.9,26,38.8,26v0.7c0,0.1,0,0.1,0.1,0.1c0.1,0,0.2-0.1,0.3-0.1
		c0.2-0.1,0.3-0.2,0.3-0.4C39.3,26.3,39.2,26.2,39,26.1z"/>
	<path class="st0" d="M43.4,25.5v3.2l-0.2-0.2c-0.2-0.4-0.3-0.6-0.4-0.6c-0.1-0.2-0.3-0.4-0.5-0.5c-0.3-0.1-0.5-0.2-0.8-0.2L41,26.6
		c0.7-0.5,1.3-0.8,2-1v-0.1h-2l-0.5-0.4h3.3l0.5,0.4H43.4z M42.1,28.4c-0.1,0-0.2,0-0.3-0.1c-0.1-0.1-0.1-0.2-0.1-0.3
		c0-0.1,0-0.2,0.1-0.3c0.1-0.1,0.2-0.1,0.3-0.1c0.1,0,0.2,0,0.3,0.1c0.1,0.1,0.1,0.1,0.2,0.2c0,0.1,0,0.2-0.1,0.3
		C42.3,28.3,42.2,28.4,42.1,28.4z M43,26.2c-0.4,0.1-0.7,0.3-1.1,0.5c0.5,0.2,0.8,0.5,1.1,0.9V26.2z"/>
	<path class="st0" d="M47.8,26.3c0.1,0,0.1,0.1,0.2,0.2c0.2,0.2,0.3,0.5,0.3,0.7c0,0.1,0,0.2,0,0.2c-0.1,0.2-0.2,0.4-0.3,0.5
		c-0.2,0.1-0.4,0.2-0.6,0.2c-0.4,0-0.7-0.2-1-0.5c-0.1-0.2-0.2-0.4-0.3-0.7c-0.1-0.2-0.1-0.7-0.1-1.3c0.2,0.1,0.3,0.1,0.3,0.2
		c0,0.2,0,0.4,0.1,0.6c0.1,0.2,0.1,0.4,0.1,0.5c0.1,0.2,0.2,0.3,0.4,0.5c0.2,0.2,0.4,0.2,0.6,0.2c0.2,0,0.3,0,0.4-0.1
		c0.2-0.1,0.3-0.2,0.3-0.3c0,0,0-0.1,0-0.1c0,0,0-0.1-0.1-0.1c0,0,0,0-0.1,0c-0.2,0.1-0.4,0.1-0.5,0.1c-0.1,0-0.2,0-0.4-0.1
		c-0.2-0.2-0.4-0.3-0.4-0.6c0-0.1,0-0.1,0-0.2c0-0.2,0.1-0.4,0.3-0.6c0,0,0,0,0.1-0.1h-1.2l-0.5-0.4h4.4l0.5,0.4h-2.2
		c0,0-0.1,0-0.2,0.1c0,0,0,0,0,0c0,0.1,0.1,0.1,0.3,0.2c0.2,0.1,0.3,0.1,0.4,0.1c0.1,0,0.3-0.1,0.6-0.2c0.2,0.1,0.3,0.3,0.6,0.5
		c-0.1,0.1-0.3,0.3-0.4,0.5c-0.1,0.2-0.2,0.4-0.2,0.6c0,0.1,0,0.3,0,0.4c0,0.2,0.1,0.5,0.3,0.9c0,0-0.1,0.1-0.1,0.1c0,0-0.1,0-0.2,0
		c-0.1,0-0.2-0.1-0.2-0.1c-0.1-0.2-0.1-0.4-0.2-0.6c-0.1-0.3-0.1-0.5-0.1-0.6c0-0.3,0.1-0.5,0.2-0.8c-0.2,0-0.4,0-0.7-0.1
		c-0.3-0.1-0.5-0.2-0.6-0.3c0,0-0.1-0.1-0.2-0.2c-0.1,0-0.2,0.1-0.3,0.3c-0.1,0.2-0.2,0.3-0.2,0.4c0,0.1,0.1,0.1,0.2,0.1
		c0.1,0,0.2-0.1,0.5-0.2C47.6,26.3,47.6,26.3,47.8,26.3C47.7,26.3,47.7,26.3,47.8,26.3L47.8,26.3z"/>
	<path class="st0" d="M48.8,29c-0.1,0.1-0.2,0.2-0.3,0.2c-0.1,0.1-0.2,0.1-0.3,0.1c-0.2,0-0.3,0-0.4-0.1c-0.1-0.1-0.2-0.2-0.2-0.3
		c0-0.2,0-0.3,0.2-0.4c0.1-0.1,0.3-0.2,0.5-0.2c0.1,0,0.3,0,0.5,0.1c0,0,0-0.1,0-0.2c0-0.1,0-0.1,0-0.2c0,0,0.1,0,0.1,0
		c0.1,0,0.2,0.1,0.2,0.2c0.1,0.1,0.1,0.2,0.1,0.3c0,0,0,0.1,0,0.1s0,0.1,0,0.1c0.1,0.1,0.2,0.2,0.3,0.3c0.3,0.2,0.4,0.5,0.5,0.7
		c0,0,0,0,0,0.1c0,0-0.1,0.1-0.1,0.1c0,0-0.1,0-0.1,0C49.4,29.5,49.2,29.2,48.8,29C48.8,29,48.8,29,48.8,29z M48.1,28.7
		c-0.1,0-0.2,0-0.2,0.1s0,0.1,0.1,0.1c0.1,0,0.1,0,0.2-0.1c0.1,0,0.1-0.1,0.1-0.1C48.4,28.7,48.3,28.7,48.1,28.7z"/>
	<path class="st0" d="M51.2,25.6c-0.6,0.2-0.9,0.6-1,1.2c0,0.2,0,0.3,0,0.5c0,0.4,0.2,0.7,0.5,0.9c0,0,0.1,0,0.1,0c0,0,0,0,0,0
		c0,0,0,0.1-0.1,0.1c0.1,0,0.1,0,0.1,0c0,0,0,0-0.1-0.1c-0.1-0.1-0.1-0.1-0.1-0.2c0-0.2,0.1-0.3,0.2-0.4c0.1,0,0.1-0.1,0.2-0.1
		c0.1,0,0.2,0,0.2,0.1c0.2,0.1,0.2,0.2,0.2,0.4c0,0.2-0.1,0.3-0.2,0.4s-0.3,0.2-0.5,0.2c-0.2,0-0.4-0.1-0.5-0.2
		c-0.4-0.3-0.6-0.8-0.6-1.4c0-0.5,0.2-1,0.6-1.5h-0.9L49,25.1h2.5l0.4,0.4C51.7,25.5,51.4,25.5,51.2,25.6z"/>
	<path class="st0" d="M53.1,25.5v0.8c0,0,0,0,0,0.3c0,0.1,0,0.1,0,0.1c0.2,0,0.3-0.2,0.5-0.4c0.2-0.2,0.3-0.3,0.3-0.3
		c0,0,0.1,0,0.1,0c0.4,0.3,0.5,0.7,0.5,1.1c0,0.5-0.2,0.9-0.5,1.1c-0.2,0.1-0.5,0.2-0.7,0.2c-0.4,0-0.7-0.1-1-0.4
		c-0.2-0.2-0.4-0.5-0.6-0.9c-0.1-0.3-0.2-0.7-0.3-1c0,0,0-0.2-0.1-0.6l0.3,0.2c0,0.3,0.1,0.6,0.2,1c0.3,0.7,0.7,1,1.2,1
		c0.2,0,0.3,0,0.5-0.1c0.2-0.1,0.3-0.2,0.4-0.3c0.1-0.1,0.1-0.3,0.1-0.3c0-0.1,0-0.2-0.1-0.3c-0.1,0.1-0.2,0.2-0.5,0.4
		c-0.1,0.1-0.3,0.1-0.4,0.1c-0.3,0-0.5-0.2-0.6-0.5c0-0.1,0-0.2,0-0.3v-0.9h-1.3l-0.5-0.4h4l0.5,0.4H53.1z M53.7,29.1
		c-0.1,0.2-0.2,0.2-0.4,0.2c-0.1,0-0.2,0-0.3-0.1c-0.1-0.1-0.1-0.2-0.1-0.3c0-0.1,0-0.2,0.1-0.3c0.1-0.1,0.2-0.1,0.3-0.1
		c0.1,0,0.2,0,0.3,0.1c0.1,0.1,0.1,0.2,0.1,0.3C53.8,29,53.8,29,53.7,29.1z"/>
	<path class="st0" d="M59.1,25.5v3.3l-0.3-0.4c-0.3-0.7-0.9-1.2-1.7-1.2l-0.5-0.6c0.4-0.2,0.6-0.4,0.9-0.5c0.4-0.2,0.8-0.3,1.1-0.5
		v-0.1h-2.1l-0.5-0.4h3.4l0.5,0.4H59.1z M58.7,26.2c-0.3,0.1-0.7,0.3-1.1,0.5c0.4,0.2,0.8,0.5,1.1,0.8V26.2z"/>
	<path class="st0" d="M60,25.4c0-0.3,0-0.6,0-1l0.3,0.2c0,0.1,0.1,0.2,0.1,0.3c0,0,0,0.1,0.1,0.1h0.5l0.5,0.4h-0.9v3.3L60,28.4v-2.3
		c0-0.1,0-0.2-0.1-0.3c-0.1-0.2-0.3-0.3-0.5-0.3c0,0-0.1,0-0.1,0l-0.5-0.4c0.3,0,0.5,0,0.7,0C59.8,25.1,59.9,25.2,60,25.4z"/>
	<path class="st0" d="M62.2,26.7c-0.1,0-0.2,0.1-0.3,0.1c-0.2,0-0.4-0.1-0.6-0.2C61.1,26.4,61,26.2,61,26c0-0.2,0.1-0.4,0.2-0.5
		c0.2-0.2,0.3-0.2,0.5-0.2c0.2,0,0.4,0.1,0.6,0.2c0.2,0.2,0.2,0.3,0.2,0.6c0,0.1,0,0.3-0.1,0.4C62.4,26.6,62.3,26.7,62.2,26.7z
		 M62.7,28.6c-0.3-0.2-0.7-0.6-1.4-1v-0.9c0.2,0.2,0.5,0.4,0.9,0.7c0.2,0.2,0.6,0.6,1.1,1.2v0.4L62.7,28.6z M62,25.7
		c-0.1,0-0.2,0.1-0.4,0.2c-0.1,0.1-0.1,0.2-0.1,0.3c0,0.1,0,0.2,0.1,0.2c0.1,0,0.2,0,0.3-0.1c0.1-0.1,0.2-0.1,0.2-0.2
		c0,0,0-0.1,0-0.2C62.2,25.7,62.1,25.7,62,25.7z"/>
	<path class="st0" d="M65.8,25.5v3.3l-0.5-0.4v-1.7c0-0.1,0-0.2-0.1-0.2c-0.1-0.1-0.2-0.1-0.2-0.1c-0.1,0-0.1,0-0.2,0.1
		c0,0.1,0,0.2,0,0.4l-0.3,0.1c0-0.1,0-0.2,0-0.2c-0.1-0.1-0.1-0.2-0.2-0.2c-0.1-0.1-0.2-0.2-0.4-0.2c-0.1,0-0.3,0-0.4,0.1
		c-0.1,0.1-0.2,0.2-0.2,0.3c0,0.2,0.1,0.3,0.2,0.3c0,0,0-0.1,0-0.1c0-0.1,0-0.2,0.1-0.3c0.1-0.1,0.2-0.1,0.3-0.1
		c0.2,0,0.3,0.1,0.4,0.3c0.1,0.2,0.1,0.3,0.1,0.4c-0.1,0.2-0.3,0.3-0.6,0.3c-0.3,0-0.5-0.1-0.7-0.3c-0.2-0.2-0.3-0.4-0.3-0.7
		c0-0.2,0.1-0.4,0.2-0.6c0.1-0.2,0.3-0.3,0.6-0.3c0.2,0,0.5,0.1,0.7,0.3l0,0.1c0-0.1,0.1-0.1,0.2-0.2c0.1-0.1,0.2-0.1,0.2-0.1
		c0.1,0,0.3,0.1,0.3,0.1c0,0,0.1,0.1,0.1,0.1c0,0,0,0,0.1,0.1v-0.5h-2.5l-0.5-0.4h3.9l0.5,0.4H65.8z"/>
	<path class="st0" d="M66.7,25.4c0-0.3,0-0.6,0-1l0.3,0.2c0,0.1,0.1,0.2,0.1,0.3c0,0,0,0.1,0.1,0.1h0.5l0.5,0.4h-0.9v3.3l-0.4-0.5
		v-2.3c0-0.1,0-0.2-0.1-0.3c-0.1-0.2-0.3-0.3-0.5-0.3c0,0-0.1,0-0.1,0l-0.5-0.4c0.3,0,0.5,0,0.7,0C66.5,25.1,66.6,25.2,66.7,25.4z"
		/>
	<path class="st0" d="M70,25.5v3.2l-0.2-0.2c-0.2-0.4-0.3-0.6-0.4-0.6c-0.1-0.2-0.3-0.4-0.5-0.5c-0.3-0.1-0.5-0.2-0.8-0.2l-0.5-0.6
		c0.7-0.5,1.3-0.8,2-1v-0.1h-2l-0.5-0.4h3.3l0.5,0.4H70z M68.7,28.4c-0.1,0-0.2,0-0.3-0.1c-0.1-0.1-0.1-0.2-0.1-0.3
		c0-0.1,0-0.2,0.1-0.3c0.1-0.1,0.2-0.1,0.3-0.1c0.1,0,0.2,0,0.3,0.1c0.1,0.1,0.1,0.1,0.2,0.2c0,0.1,0,0.2-0.1,0.3
		C68.9,28.3,68.8,28.4,68.7,28.4z M69.5,26.2c-0.4,0.1-0.7,0.3-1.1,0.5c0.5,0.2,0.8,0.5,1.1,0.9V26.2z"/>
	<path class="st0" d="M73.3,25.7c-0.1-0.1-0.1-0.1-0.2-0.1h-1l-0.5-0.4h3.4l0.5,0.4h-1.9l0,0c0,0,0,0.1,0.1,0.1c0.1,0,0.2,0,0.3,0.1
		c0.4,0.1,0.6,0.4,0.7,0.7c0,0.1,0,0.1,0,0.2c0,0.3-0.2,0.6-0.5,0.8c0,0-0.1,0.1-0.4,0.2c0,0,0.1,0.1,0.3,0.1
		c0.2,0.1,0.4,0.3,0.6,0.4c0,0,0.2,0.2,0.5,0.5l0.2,0.7c-0.2-0.2-0.3-0.3-0.3-0.4c-0.3-0.3-0.7-0.6-1.2-0.8
		c-0.4-0.2-0.8-0.4-1.3-0.4l-0.5-1.1c0.4,0.3,0.8,0.4,1.1,0.4c0.3,0,0.6-0.1,0.9-0.4c0.1-0.1,0.1-0.1,0.1-0.2c0-0.1-0.1-0.2-0.2-0.3
		c-0.1-0.1-0.2-0.1-0.4-0.1c0,0-0.1,0-0.1,0c0,0.2-0.1,0.3-0.3,0.5c-0.1,0.1-0.2,0.1-0.4,0.1c-0.3,0-0.4-0.1-0.5-0.3
		c0-0.1,0-0.3,0.2-0.4c0.1-0.1,0.2-0.1,0.3-0.2C73,25.8,73.1,25.7,73.3,25.7z"/>
	<path class="st0" d="M75.5,25.4c0-0.3,0-0.6,0-1l0.3,0.2c0,0.1,0.1,0.2,0.1,0.3c0,0,0,0.1,0.1,0.1h0.5l0.5,0.4h-0.9v3.3l-0.4-0.5
		v-2.3c0-0.1,0-0.2-0.1-0.3c-0.1-0.2-0.3-0.3-0.5-0.3c0,0-0.1,0-0.1,0l-0.5-0.4c0.3,0,0.5,0,0.7,0C75.3,25.1,75.4,25.2,75.5,25.4z"
		/>
	<path class="st0" d="M77.1,24.2L77.1,24.2c0,0,0.1,0,0.3,0c0.4,0,0.8,0,1,0.1c0.3,0.2,0.5,0.4,0.4,0.7h0.3l0.5,0.5h-2.5v2
		c0,0.1,0.1,0.2,0.2,0.2c0.1,0,0.3-0.1,0.5-0.3c0.2-0.2,0.3-0.4,0.4-0.5h0c-0.1,0-0.3,0-0.3-0.1c-0.1-0.1-0.1-0.2-0.1-0.3
		c0,0,0-0.1,0-0.1c0.1-0.2,0.2-0.4,0.5-0.4c0.2,0,0.3,0.1,0.5,0.2c0.1,0.1,0.2,0.3,0.2,0.5c0,0.4-0.1,0.7-0.4,0.9
		c-0.4,0.4-0.8,0.6-1,0.6c-0.4,0-0.6-0.2-0.8-0.6c0-0.1,0-0.2,0-0.5v-1.6h-0.5l-0.4-0.4h2.5c0,0,0-0.1,0-0.1c0-0.2-0.2-0.2-0.4-0.2
		c-0.2,0-0.4,0-0.6,0c-0.1,0-0.2,0-0.2,0c-0.3,0-0.5-0.1-0.7-0.2c-0.2-0.1-0.4-0.3-0.4-0.6c0-0.1,0-0.2,0.1-0.3
		c0-0.1,0.1-0.1,0.2-0.1c0,0,0.1,0,0.1,0c0,0,0,0.1,0,0.2c-0.1,0-0.1,0.1-0.1,0.1c0,0.1,0.1,0.2,0.3,0.3
		C76.7,24.3,76.8,24.3,77.1,24.2z"/>
	<path class="st0" d="M83.4,25.5v3.3l-0.3-0.4c-0.3-0.7-0.9-1.2-1.7-1.2L81,26.6c0.4-0.2,0.6-0.4,0.9-0.5c0.4-0.2,0.8-0.3,1.1-0.5
		v-0.1h-2.1l-0.5-0.4h3.4l0.5,0.4H83.4z M83,26.2c-0.3,0.1-0.7,0.3-1.1,0.5c0.4,0.2,0.8,0.5,1.1,0.8V26.2z"/>
	<path class="st0" d="M84.3,25.4c0-0.3,0-0.6,0-1l0.3,0.2c0,0.1,0.1,0.2,0.1,0.3c0,0,0,0.1,0.1,0.1h0.5l0.5,0.4h-0.9v3.3l-0.4-0.5
		v-2.3c0-0.1,0-0.2-0.1-0.3c-0.1-0.2-0.3-0.3-0.5-0.3c0,0-0.1,0-0.1,0l-0.5-0.4c0.3,0,0.5,0,0.7,0C84.1,25.1,84.2,25.2,84.3,25.4z"
		/>
	<path class="st0" d="M87.3,26.3c0.1,0,0.1,0.1,0.2,0.2c0.2,0.2,0.3,0.5,0.3,0.7c0,0.1,0,0.2,0,0.2c-0.1,0.2-0.2,0.4-0.3,0.5
		c-0.2,0.1-0.4,0.2-0.6,0.2c-0.4,0-0.7-0.2-1-0.5c-0.1-0.2-0.2-0.4-0.3-0.7c-0.1-0.2-0.1-0.7-0.1-1.3c0.2,0.1,0.3,0.1,0.3,0.2
		c0,0.2,0,0.4,0.1,0.6c0.1,0.2,0.1,0.4,0.1,0.5c0.1,0.2,0.2,0.3,0.4,0.5c0.2,0.2,0.4,0.2,0.6,0.2c0.2,0,0.3,0,0.4-0.1
		c0.2-0.1,0.3-0.2,0.3-0.3c0,0,0-0.1,0-0.1c0,0,0-0.1-0.1-0.1c0,0,0,0-0.1,0c-0.2,0.1-0.4,0.1-0.5,0.1c-0.1,0-0.2,0-0.4-0.1
		c-0.2-0.2-0.4-0.3-0.4-0.6c0-0.1,0-0.1,0-0.2c0-0.2,0.1-0.4,0.3-0.6c0,0,0,0,0.1-0.1h-1.2l-0.5-0.4h4.4l0.5,0.4h-2.2
		c0,0-0.1,0-0.2,0.1c0,0,0,0,0,0c0,0.1,0.1,0.1,0.3,0.2c0.2,0.1,0.3,0.1,0.4,0.1c0.1,0,0.3-0.1,0.6-0.2c0.2,0.1,0.3,0.3,0.6,0.5
		c-0.1,0.1-0.3,0.3-0.4,0.5c-0.1,0.2-0.2,0.4-0.2,0.6c0,0.1,0,0.3,0,0.4c0,0.2,0.1,0.5,0.3,0.9c0,0-0.1,0.1-0.1,0.1c0,0-0.1,0-0.2,0
		c-0.1,0-0.2-0.1-0.2-0.1c-0.1-0.2-0.1-0.4-0.2-0.6C88,27.6,88,27.4,88,27.2c0-0.3,0.1-0.5,0.2-0.8c-0.2,0-0.4,0-0.7-0.1
		c-0.3-0.1-0.5-0.2-0.6-0.3c0,0-0.1-0.1-0.2-0.2c-0.1,0-0.2,0.1-0.3,0.3c-0.1,0.2-0.2,0.3-0.2,0.4c0,0.1,0.1,0.1,0.2,0.1
		c0.1,0,0.2-0.1,0.5-0.2C87.1,26.3,87.2,26.3,87.3,26.3C87.3,26.3,87.3,26.3,87.3,26.3L87.3,26.3z"/>
	<path class="st0" d="M89.5,25.4c0-0.3,0-0.6,0-1l0.3,0.2c0,0.1,0.1,0.2,0.1,0.3c0,0,0,0.1,0.1,0.1h0.5l0.5,0.4h-0.9v3.3l-0.4-0.5
		v-2.3c0-0.1,0-0.2-0.1-0.3c-0.1-0.2-0.3-0.3-0.5-0.3c0,0-0.1,0-0.1,0l-0.5-0.4c0.3,0,0.5,0,0.7,0C89.3,25.1,89.4,25.2,89.5,25.4z"
		/>
	<path class="st0" d="M92.8,25.5v3.2l-0.2-0.2c-0.2-0.4-0.3-0.6-0.4-0.6c-0.1-0.2-0.3-0.4-0.5-0.5c-0.3-0.1-0.5-0.2-0.8-0.2
		l-0.5-0.6c0.7-0.5,1.3-0.8,2-1v-0.1h-2l-0.5-0.4h3.3l0.5,0.4H92.8z M91.5,28.4c-0.1,0-0.2,0-0.3-0.1c-0.1-0.1-0.1-0.2-0.1-0.3
		c0-0.1,0-0.2,0.1-0.3c0.1-0.1,0.2-0.1,0.3-0.1c0.1,0,0.2,0,0.3,0.1c0.1,0.1,0.1,0.1,0.2,0.2c0,0.1,0,0.2-0.1,0.3
		C91.7,28.3,91.6,28.4,91.5,28.4z M92.3,26.2c-0.4,0.1-0.7,0.3-1.1,0.5c0.5,0.2,0.8,0.5,1.1,0.9V26.2z"/>
</g>
</svg>
