<svg id="Layer_1" data-name="Layer 1" xmlns="http://www.w3.org/2000/svg" viewBox="0 0 42.35 30"><defs><style>.cls-1{fill:#ed1c24;}.cls-2{fill:#f7941d;}</style></defs><g id="g1406"><g id="g1390"><path id="path1386" class="cls-1" d="M27.29,12.94H19.94a.21.21,0,0,0-.22.22v.58a.21.21,0,0,0,.22.22h5.49V17a7.33,7.33,0,0,0-.51-.66,2.92,2.92,0,0,0-2.07-1,1.83,1.83,0,0,0-1.46.8,2.42,2.42,0,0,0-.51,1.42,3.18,3.18,0,0,0,.44,1.68,2.06,2.06,0,0,0,1.82.91,1.44,1.44,0,0,0,1.53-1.35,1.23,1.23,0,0,0-.62-1.06l-.4-.21v.65a.72.72,0,0,1-.66.44,1,1,0,0,1-.72-.29.57.57,0,0,1-.15-.48.88.88,0,0,1,.22-.58A.77.77,0,0,1,23,17,2.19,2.19,0,0,1,24.85,18a3.34,3.34,0,0,1,.62,1.86v1.52l1.09.66a.13.13,0,0,0,.11,0,.21.21,0,0,0,.22-.22V14h.43a.21.21,0,0,0,.22-.22V13.2a.25.25,0,0,0-.25-.26Z"/><path id="path1388" class="cls-1" d="M42,12.94H32.67a.21.21,0,0,0-.21.22v1A3.68,3.68,0,0,0,30,12.76a2.77,2.77,0,0,0-1.79.55,1.74,1.74,0,0,0-.76,1.38c0,1.64,1.82,1.6,2.29,1.38a.92.92,0,0,1,.29-.11.51.51,0,0,1,.51.55c0,.36-.54.69-1.2.69a.79.79,0,0,1-.73-.33l-.29-.43-.18.51a1.41,1.41,0,0,0-.11.43,1.43,1.43,0,0,0,.55,1.06,1.73,1.73,0,0,0,1.16.44,1.93,1.93,0,0,0,1.64-.77,2.14,2.14,0,0,0,.47-1.42,1.67,1.67,0,0,0-.36-1,1.27,1.27,0,0,0-1.06-.66,1.46,1.46,0,0,0-.5.11.92.92,0,0,1-.26.08.31.31,0,0,1-.25-.15.45.45,0,0,1-.15-.36c0-.4.36-.8,1-.8h0a1.81,1.81,0,0,1,1.27.62,5,5,0,0,1,.8,1v5.79l1.09.66a.15.15,0,0,0,.11,0,.21.21,0,0,0,.22-.22V14h1.67v5.06l1.31.54h.08a.21.21,0,0,0,.22-.21v0a4,4,0,0,1,2-3.13v.29a10.12,10.12,0,0,0,0,1.06,1.51,1.51,0,0,0,0,.4,8.94,8.94,0,0,0,.26,2.11c.36,1.23,1,1.53,1.42,1.53h0a.87.87,0,0,0,.62-.22.63.63,0,0,0,.19-.48,1.24,1.24,0,0,0-.11-.54l-.11-.18-.22,0c-.22.08-.33.08-.33,0h0c-.07,0-.07,0-.1,0s-.22-.14-.33-.54a3.94,3.94,0,0,1-.11-.91c0-1.64.33-2.88.87-3.13h0a.25.25,0,0,0,.14-.22.15.15,0,0,0,0-.11v0a2.22,2.22,0,0,0-1.53-1h-.15a5.21,5.21,0,0,0-2.14,1.23c-.22.19-.44.37-.62.55V14H42a.21.21,0,0,0,.22-.22V13.2a.21.21,0,0,0-.22-.26Z"/></g><path id="path1392" class="cls-1" d="M17.32,15.64a3.83,3.83,0,0,1,0,.69,8.15,8.15,0,0,1-.73,2.84,5.86,5.86,0,0,1-.54,1,8.64,8.64,0,0,1-10.92,3.2A8.56,8.56,0,0,1,4.9,8a8.49,8.49,0,0,0-.61.91s0,0,0,.07-.22.18-.33.29-.25.26-.4.37l-.07.07-.07.07a.71.71,0,0,1-.15.15c-.07.11-.18.21-.26.32a6.85,6.85,0,0,0-.87,1.53s0,.11-.07.15S2,12,2,12.07s0,.07,0,.11l-.11.29c0,.07,0,.15-.07.18s0,.08,0,.11,0,.15,0,.22l-.1.66a.31.31,0,0,1,0,.18v.87a7.32,7.32,0,0,0,2.77,5.79A7.54,7.54,0,0,0,9,22.19a7.27,7.27,0,0,0,4.36-1.42,7.56,7.56,0,0,0,2.19-2.48c.07-.14.14-.25.22-.4A6.83,6.83,0,0,0,16.48,15v-.26a4.53,4.53,0,0,0,0-.73l0,0c.11.11.22.18.33.29l.32-.51a8.07,8.07,0,0,1,.15,1,6.42,6.42,0,0,1,0,.84Z"/><path id="path1394" class="cls-2" d="M9.74,8.76,8.14,5.81A7.64,7.64,0,0,0,4.94,17a7.08,7.08,0,0,1-.07-1.23A7.63,7.63,0,0,1,9.74,8.76Z"/><path id="path1396" class="cls-1" d="M11,10.21a8.35,8.35,0,0,1,3.38-.14l0-1.31-.08-2.62a6.86,6.86,0,0,0-.94-.08A6.85,6.85,0,0,0,9.45,7.3l.88,1.6A6.71,6.71,0,0,0,6.69,12a6.32,6.32,0,0,0-.8,2.33,6.61,6.61,0,0,1,.76-1.2A8,8,0,0,1,11,10.21Z"/><path id="path1398" class="cls-2" d="M14.84,8.72l.07,1.86A6.72,6.72,0,0,0,13,10.29a7,7,0,0,0-3.53,1,6.73,6.73,0,0,0-2.84,3.57,7.2,7.2,0,0,1,1.86-1.79A6.78,6.78,0,0,1,15,12.58a5.76,5.76,0,0,1,1.74,1.2l1-1.53,1.31-2a6.63,6.63,0,0,0-4.22-1.53Z"/><path id="path1400" class="cls-2" d="M16.48,14.76V15A7.22,7.22,0,0,1,15.79,18c-.08.14-.15.25-.22.4A7.53,7.53,0,0,1,9,22.26a7.24,7.24,0,0,1-4.73-1.71,7.49,7.49,0,0,1-2.77-5.79v-.87a.3.3,0,0,1,0-.18l.1-.66c0-.07,0-.14,0-.22s0-.07,0-.1,0-.15.07-.19a2.24,2.24,0,0,1,.11-.29s0-.07,0-.11S2,12,2,12s0-.11.07-.14A8.19,8.19,0,0,1,3,10.29c.08-.11.19-.22.26-.33s.07-.11.15-.15,0-.07.07-.07,0-.07.07-.07a2,2,0,0,1,.4-.37c.11-.11.22-.18.33-.29,0,0,0,0,0,.08a.15.15,0,0,1,0,.07,8.75,8.75,0,0,0-.84,3,6.63,6.63,0,0,0,0,.91c0,3.93,2.3,7.1,5.13,7.1h.3A7,7,0,0,0,9.93,20a4.53,4.53,0,0,0,3.35-4.37v-.11a4.43,4.43,0,0,0-1.39-3.13,6.49,6.49,0,0,1,1.71.26,7.31,7.31,0,0,1,2.84,1.42l0,0a3.19,3.19,0,0,0,0,.62Z"/><g id="g1404"><path id="path1402" class="cls-2" d="M16.48,14.76V15a7.15,7.15,0,0,1-.73,3c-.07.15-.15.26-.22.4a7.54,7.54,0,0,1-2.22,2.48,7.34,7.34,0,0,1-4.4,1.42,7.56,7.56,0,0,1-7.54-7.54A7.51,7.51,0,0,1,4.14,8.94l.07-.07s0,0,0,.07,0,0,0,.07a7.47,7.47,0,0,0,9.14,11.8,7.64,7.64,0,0,0,2.18-2.48,2.35,2.35,0,0,0,.18-.4A6.93,6.93,0,0,0,16.37,15v-.25a4.41,4.41,0,0,0,0-.73v0l0,0,0,0a2.81,2.81,0,0,1,.07.72Z"/></g></g></svg>