<svg id="Layer_1" data-name="Layer 1" xmlns="http://www.w3.org/2000/svg" viewBox="0 0 42.35 30"><defs><style>.cls-1{fill:#8b3392;}.cls-2,.cls-3{fill:#fff;}.cls-2{fill-rule:evenodd;}</style></defs><rect class="cls-1" width="42.35" height="30" rx="2.84"/><polygon class="cls-2" points="29.51 5.43 24.48 10.46 24.84 13.28 25.76 11.34 28.63 15 32.65 2.65 19.28 8.21 22.89 10.11 29.51 5.43"/><path class="cls-3" d="M25.15,14.25h-5.3a3.67,3.67,0,0,0,0,7.28h5.34V16.24A1.67,1.67,0,0,1,26,19.33c.27.31,1.33,1.45,1.33,1.45A3.64,3.64,0,0,0,25.15,14.25Zm-1.94,5.3h-3a1.66,1.66,0,0,1-.18-3.31h3.14Z"/><path class="cls-2" d="M36.22,16.9H34.28l-.84,1.94h2.47a.38.38,0,1,1,0,.75H31.63V16.24H38.2v-2h-1a3.59,3.59,0,0,0-6.48-2c.25.21,1.45,1.28,1.45,1.28a1.68,1.68,0,0,1,3.09.7h-5.6v7.28H36a2.26,2.26,0,0,0,2.25-2A2.4,2.4,0,0,0,36.22,16.9Z"/><path class="cls-2" d="M17.34,14.25H14.78a6.66,6.66,0,0,0,.57,8s1.21-1,1.46-1.23A4.89,4.89,0,0,1,17.34,14.25Z"/><path class="cls-2" d="M10.82,22.35a1.61,1.61,0,1,1-1.6-1.6A1.61,1.61,0,0,1,10.82,22.35Z"/><path class="cls-2" d="M7.41,14.25a3.68,3.68,0,0,0,0,7.28h0a2,2,0,0,1,1.83-1.18A2,2,0,0,1,11,21.53H12.7V14.25Zm3.35,5.3H7.81a1.66,1.66,0,0,1-.18-3.31h3.13Z"/><path class="cls-2" d="M9.31,12.53a.91.91,0,0,0-.09-1.74H7.5v2.54h.7v-.8l.8.8h1.1Zm-.09-.89a.16.16,0,0,1-.16.16H8.21v-.35h.85a.17.17,0,0,1,.16.17Z"/><path class="cls-2" d="M11.33,10.75A1.29,1.29,0,1,0,12.62,12,1.29,1.29,0,0,0,11.33,10.75Zm0,1.85a.57.57,0,1,1,0-1.13.57.57,0,0,1,0,1.13Z"/><path class="cls-2" d="M18.62,11.48h1.16v-.74h-1A1.35,1.35,0,0,0,17.4,12a1.35,1.35,0,0,0,1.4,1.29h1v-.74H18.62a.53.53,0,0,1-.42-.21h1.58v-.67H18.2A.53.53,0,0,1,18.62,11.48Z"/><path class="cls-2" d="M14,12.57A.53.53,0,0,1,13.5,12v0a.53.53,0,0,1,.53-.53h1.1v-.74h-1a1.29,1.29,0,1,0,0,2.57h1v-.74Z"/><polygon class="cls-2" points="22.46 10.78 19.97 10.78 19.97 11.45 20.88 11.45 20.88 13.27 21.55 13.27 21.55 11.45 22.46 11.45 22.46 10.78"/><polygon class="cls-3" points="16.53 12.02 17.76 10.78 16.77 10.78 16.08 11.48 16.08 10.78 15.41 10.78 15.41 13.27 16.08 13.27 16.08 12.56 16.79 13.27 17.78 13.27 16.53 12.02"/><path class="cls-3" d="M26.56,22.77a.47.47,0,0,0-.29.2.61.61,0,0,0-.12.34.45.45,0,0,0,0,.2q.06.12.15.12a.19.19,0,0,0,.12-.05l.07.19a.45.45,0,0,1-.18.05.4.4,0,0,1-.24-.09.52.52,0,0,1-.12-.19.61.61,0,0,1,0-.22v-.07a.84.84,0,0,1,.24-.51l.17-.16h.26v.18Z"/><path class="cls-3" d="M27.68,22.76v1h-.21v-.14s0-.1-.11-.18l-.17-.14a.38.38,0,0,0-.21-.07.18.18,0,0,0-.17.1,0,0,0,0,0,0,0,.09.09,0,0,0,0,.08.16.16,0,0,0,.09,0,.48.48,0,0,0,.16-.05l.06.19a.56.56,0,0,1-.24.08.33.33,0,0,1-.19-.06.34.34,0,0,1-.13-.16.28.28,0,0,1,0-.1.31.31,0,0,1,.14-.27.38.38,0,0,1,.22-.07h0A.17.17,0,0,0,26.9,23a.13.13,0,0,0-.1-.07h-.24v-.13h-.09v-.18h1.35v.18Zm-.21,0H27a.42.42,0,0,1,.22.36.77.77,0,0,1,.28.2Z"/><path class="cls-3" d="M28.08,22.76v1h-.21v-1h-.15v-.18h.5v.18Z"/><path class="cls-3" d="M29.09,22.76h-.94v-.18h1.31v.18h-.15v1h-.18a.82.82,0,0,0-.27-.25,1.45,1.45,0,0,0-.28-.14,1.22,1.22,0,0,0-.3-.07l-.06-.2a2.69,2.69,0,0,1,.41-.21Zm0,.23L29,23l-.36.16,0,0a1.83,1.83,0,0,1,.48.25l.05,0Z"/><path class="cls-3" d="M29.72,22.76v1h-.21v-1h-.15v-.18h.5v.18Z"/><path class="cls-3" d="M29.79,22.76v-.18h.62v0a.19.19,0,0,0-.14-.19h-.12l-.08,0-.09,0-.12.07-.07-.16a1.39,1.39,0,0,1,.32-.14.39.39,0,0,1,.15,0,.45.45,0,0,1,.18.05.38.38,0,0,1,.17.35h.12v.18ZM30.51,24a2,2,0,0,0-.27-.22,1,1,0,0,0-.23-.11l-.15,0v-.25H30a.53.53,0,0,0,.23,0c.11,0,.17-.1.17-.16a.14.14,0,0,0-.06-.12L30.24,23h0a.13.13,0,0,0-.08,0s-.05,0-.05.06.06.07.17.06l-.11.18a.19.19,0,0,1-.14-.05.23.23,0,0,1-.13-.21.2.2,0,0,1,.13-.19.48.48,0,0,1,.24-.06.2.2,0,0,1,.11,0l.09,0a.35.35,0,0,1,.21.33.3.3,0,0,1-.13.26.66.66,0,0,1-.29.1l.16.09a2.84,2.84,0,0,1,.29.24Z"/><path class="cls-3" d="M32,22.76v1h-.21v-.42a.21.21,0,0,0-.05-.11.11.11,0,0,0-.19,0,.27.27,0,0,0-.05.14h-.22a.25.25,0,0,0-.05-.15.12.12,0,0,0-.1-.06.19.19,0,0,0-.1,0,.16.16,0,0,0-.05.09v.07c0,.11.06.16.2.16h.1l-.07.21h-.08a.4.4,0,0,1-.27-.11.32.32,0,0,1-.08-.13.39.39,0,0,1,0-.14.38.38,0,0,1,.11-.28.35.35,0,0,1,.27-.11.31.31,0,0,1,.26.15.34.34,0,0,1,.25-.15.26.26,0,0,1,.15.07v-.31H30.64v-.18h1.47v.18Z"/><path class="cls-3" d="M33.56,22.76h-1v-.18h1.31v.18h-.14v1h-.19a.82.82,0,0,0-.27-.25,1.45,1.45,0,0,0-.28-.14,1.05,1.05,0,0,0-.3-.07l-.05-.2a2.4,2.4,0,0,1,.4-.21Zm0,.23-.13,0-.35.16,0,0a1.94,1.94,0,0,1,.47.25l0,0Z"/><path class="cls-3" d="M34.27,22.76a.48.48,0,0,0-.1.23,3.1,3.1,0,0,0,.1.33.69.69,0,0,1,.06.24.27.27,0,0,1-.21.26,1.26,1.26,0,0,1-.22,0l0-.18c.12,0,.18-.07.18-.14a.77.77,0,0,0-.07-.26A.79.79,0,0,1,34,23a.54.54,0,0,1,.09-.26h-.22v-.18h.59v.18Z"/><path class="cls-3" d="M34.72,22.76v1h-.21v-1h-.15v-.18h.5v.18Z"/><path class="cls-3" d="M35.2,23.26a.29.29,0,0,1-.23-.1.32.32,0,0,1,.23-.55.26.26,0,0,1,.26.19.28.28,0,0,1,0,.15.31.31,0,0,1-.08.22A.27.27,0,0,1,35.2,23.26Zm.23.67a3.41,3.41,0,0,0-.54-.4v-.29a3.07,3.07,0,0,1,.72.63v.21Zm-.18-1.1-.06,0q-.12,0-.12.12a.11.11,0,0,0,0,.09.1.1,0,0,0,.08.05h0c.06,0,.09,0,.09-.11A.14.14,0,0,0,35.25,22.83Z"/><path class="cls-3" d="M36.93,22.45a1.23,1.23,0,0,0-.6-.23.45.45,0,0,0-.4.18.3.3,0,0,0,0,.18H36v.18h-.14v1h-.22v-1h-.14v-.18h.14a.54.54,0,0,1,.15-.36.65.65,0,0,1,.38-.18h.14a.88.88,0,0,1,.38.09,2.8,2.8,0,0,1,.34.19Z"/><path class="cls-3" d="M36.76,22.76h0a.63.63,0,0,1,.27.08.33.33,0,0,1,.2.3.28.28,0,0,1-.07.19.32.32,0,0,1-.17.1.42.42,0,0,1-.19,0v-.2h.07c.11,0,.16,0,.16-.12s-.09-.14-.27-.17v.84h-.19a.85.85,0,0,0-.09-.14l-.08-.1a.45.45,0,0,0-.07-.07l-.08-.07,0,0a.87.87,0,0,0-.23,0l0-.21.31-.19.15-.08.16-.09v0h-.67v-.18h1.44v.18Zm-.21.24-.16.11s0,0-.06,0l-.07.06.11.09c.05.05.1.12.18.19Z"/><path class="cls-3" d="M37.64,23.26a.3.3,0,0,1-.24-.1.32.32,0,0,1,.23-.55.28.28,0,0,1,.27.19.4.4,0,0,1,0,.15.27.27,0,0,1-.08.22A.26.26,0,0,1,37.64,23.26Zm.22.67a3.41,3.41,0,0,0-.54-.4v-.29a3.18,3.18,0,0,1,.71.63v.21Zm-.18-1.1-.06,0q-.12,0-.12.12a.11.11,0,0,0,0,.09.11.11,0,0,0,.09.05h0c.06,0,.09,0,.09-.11A.14.14,0,0,0,37.68,22.83Z"/><polygon class="cls-3" points="14.47 23.9 14.86 24.03 15.02 23.9 14.63 23.76 14.47 23.9"/><path class="cls-3" d="M14.6,22.82v-.24H11.53v.24h.52v.52h.44s.13,0,.16-.1v.21a.17.17,0,0,1-.16.17h-.65s-.08,0-.08-.17V23h-.23v.63c0,.05,0,.23.2.23h.88a.28.28,0,0,0,.25-.26V23h-.21c0,.09,0,.15-.11.17h-.26v-.31H13v1h.26v-1h.18v1h.86a.27.27,0,0,0,.26-.27V23h-.21c0,.05,0,.14-.1.14h-.57v-.28Zm-.34.49s.09,0,.13-.11v.25c0,.09-.07.17-.13.17h-.54v-.31Z"/><rect class="cls-3" x="14.89" y="23.1" width="0.52" height="0.28"/><path class="cls-3" d="M15.69,22.58v.24h.86V23h-.86v.56c0,.18.12.3.29.3h.78v-1h.18v1h.24V22.58Zm.86,1.08H16a.2.2,0,0,1-.13-.21v-.28h.65Z"/><path class="cls-3" d="M18.3,22.82h1.06V23h-.31a.11.11,0,0,1-.21,0H18.3v.59c0,.06,0,.25.17.27h.42v-.2h-.28a.13.13,0,0,1-.11-.14v-.31h.29v.17h.26V23.2c0-.06.27-.05.29,0v.62h.23v-1h.16v1H20V22.58H18.3Z"/><path class="cls-3" d="M17.93,22.65h-.55V23a.27.27,0,0,0,.27.25h.44v-.4C18.07,22.75,18,22.66,17.93,22.65Zm-.17.35c-.1,0-.18,0-.18-.08s.08-.09.18-.09.18,0,.18.09S17.86,23,17.76,23Z"/><polygon class="cls-3" points="17.41 23.34 17.41 23.55 18.08 23.82 18.08 23.61 17.41 23.34"/><path class="cls-3" d="M23.54,22.65H23V23a.26.26,0,0,0,.26.25h.45v-.4C23.68,22.75,23.63,22.66,23.54,22.65Zm-.17.35c-.1,0-.18,0-.18-.08s.08-.09.18-.09.18,0,.18.09S23.47,23,23.37,23Z"/><polygon class="cls-3" points="23.02 23.34 23.02 23.55 23.69 23.82 23.69 23.61 23.02 23.34"/><path class="cls-3" d="M25,23v-.14h.43v-.24h-1.5v.24h.86V23h-.86v.56c0,.18.12.3.29.3H25V23.2h.21s0,0,0,0v.1c0,.06,0,.09,0,.11h-.08v.21h.15a.21.21,0,0,0,.16-.14V23Zm-.21.7h-.52a.2.2,0,0,1-.13-.21v-.28h.65v0h0Z"/><path class="cls-3" d="M20.66,22.58v.24h.86V23h-.86v.56c0,.18.11.3.29.3h.78v-1H22l-.1.19v.14h.18c.1,0,.13.08.13.24s0,.2-.11.21h-.17v.21h.18c.05,0,.29,0,.31-.21,0-.47,0-.59-.29-.62l.05-.16h.37v1h.23V22.58Zm.86,1.08H21a.2.2,0,0,1-.13-.21v-.28h.65Z"/></svg>