<?xml version="1.0" encoding="utf-8"?>
<!-- Generator: Adobe Illustrator 26.0.1, SVG Export Plug-In . SVG Version: 6.00 Build 0)  -->
<svg version="1.1" id="Layer_1" xmlns="http://www.w3.org/2000/svg" xmlns:xlink="http://www.w3.org/1999/xlink" x="0px" y="0px"
	 viewBox="0 0 200 177" style="enable-background:new 0 0 200 177;" xml:space="preserve">
<style type="text/css">
	.st0{fill:#00A4FF;}
	.st1{fill:#B8C1C9;}
	.st2{fill:#016EB9;}
	.st3{fill:#131F2D;}
	.st4{fill:#657285;}
	.st5{fill:#D36E2A;}
	.st6{fill:#EAEAEA;}
	.st7{fill:#00A3FE;}
	.st8{fill:#A0462D;}
	.st9{fill:#364154;}
	.st10{fill:#FF7955;}
	.st11{fill:#EF6343;}
	.st12{fill:#B05638;}
	.st13{fill:#FFFFFF;}
</style>
<path class="st0" d="M200-104.5l-21.7-19.7h-37.2v-29.8h-28.7c3.2-8,4.9-14.5,4.9-19.2c0-24.1-19.7-43.7-43.8-43.7l0,0c0,0,0,0,0,0
	H4.2c-1.3,0-2.4,1.1-2.4,2.3c0,1.3,1.1,2.3,2.4,2.3h69.3c0,0,0,0,0,0l0,0c21.6,0,39.1,17.5,39.1,39.1c0,9.1-7.3,26.4-21.2,50.2
	c-7.3,12.6-14.6,23.7-18,28.7c-3.4-5-10.6-16.1-18-28.7c-6.6-11.4-11.8-21.3-15.3-29.6l-0.6-1.4H0v100h29.9
	c1.1,7.6,7.7,13.5,15.6,13.5c8,0,14.5-5.9,15.7-13.5l91.4,0c1.2,7.6,7.7,13.5,15.6,13.5c7.9,0,14.5-5.9,15.6-13.5H200L200-104.5
	L200-104.5z M94.8-119.5h29.5v-4.7H97.5c5.4-9.5,9.7-17.9,12.9-25.1h26v25.1v31.7H77.9C81.4-97.7,88-107.9,94.8-119.5z M36.4-149.4
	c3.2,7.2,7.6,15.7,13,25.1H16.8v4.7h35.3c6.8,11.6,13.5,21.8,16.9,27H4.7v-56.8H36.4z M45.5-45.2c-6.2,0-11.2-5-11.2-11.2
	c0-6.2,5-11.2,11.2-11.2c6.2,0,11.2,5,11.2,11.2C56.7-50.2,51.7-45.2,45.5-45.2z M61.2-58.7c-1.1-7.6-7.7-13.5-15.7-13.5
	c-8,0-14.5,5.9-15.6,13.5H4.7v-29.1h131.7v29.1H61.2z M168.2-45.2c-6.2,0-11.2-5-11.2-11.2c0-6.2,5-11.2,11.2-11.2s11.2,5,11.2,11.2
	C179.4-50.2,174.4-45.2,168.2-45.2z M195.3-58.7h-11.4c-1.1-7.6-7.7-13.5-15.6-13.5c-8,0-14.5,5.9-15.6,13.5h-11.4v-60.8h35.4
	l18.8,17.1L195.3-58.7L195.3-58.7z M150.2-112.4v28.3h37.3v-14.9l-14.6-13.3H150.2z M182.8-88.9h-27.9v-18.9h16.2L182.8-97V-88.9z
	 M28.9-163h22.5c3.9,8.3,12.3,14,22,14c13.4,0,24.4-10.9,24.4-24.3c0-13.4-10.9-24.3-24.4-24.3c-5.4,0-10.4,1.8-14.4,4.8H29
	c-1.3,0-2.4,1.1-2.4,2.3s1.1,2.3,2.4,2.3h25.2c-3.2,4.1-5.1,9.2-5.1,14.8c0,1.9,0.2,3.8,0.7,5.6H28.9c-1.3,0-2.4,1.1-2.4,2.3
	C26.6-164,27.6-163,28.9-163z M73.5-192.9c10.8,0,19.6,8.8,19.6,19.6s-8.8,19.6-19.6,19.6c-10.8,0-19.6-8.8-19.6-19.6
	S62.6-192.9,73.5-192.9z M9.7-192.8h9.7c1.3,0,2.4,1.1,2.4,2.3s-1.1,2.3-2.4,2.3H9.7c-1.3,0-2.4-1.1-2.4-2.3
	C7.4-191.7,8.4-192.8,9.7-192.8z M60.8-203.4c0,1.3-1.1,2.3-2.4,2.3H20c-1.3,0-2.4-1.1-2.4-2.3c0-1.3,1.1-2.3,2.4-2.3h38.4
	C59.7-205.7,60.8-204.7,60.8-203.4z M41.1-175.5H17.4c-1.3,0-2.4-1.1-2.4-2.3c0-1.3,1.1-2.3,2.4-2.3h23.7c1.3,0,2.4,1,2.4,2.3
	C43.4-176.6,42.4-175.5,41.1-175.5z"/>
<g>
	<g>
		<g>
			<path class="st1" d="M96.8,42.5c-7.4,0-14.2,2.6-19.5,6.9c-7,5.7-11.4,14.4-11.4,24c0,17.1,31,55.1,31,55.1s14.1-17.3,23.2-33.8
				c4.5-8,7.8-15.8,7.8-21.4C127.7,56.4,113.9,42.5,96.8,42.5z M96.8,87.6c-8,0-14.5-6.5-14.5-14.5c0-2,0.4-3.8,1.1-5.5
				c2.2-5.3,7.3-9,13.4-9c8,0,14.5,6.5,14.5,14.5c0,6.9-4.8,12.7-11.3,14.1C98.9,87.5,97.8,87.6,96.8,87.6z"/>
		</g>
		<g>
			<polygon class="st2" points="87.5,112 54.3,112 54.3,140.1 91.5,140.1 			"/>
			<polygon class="st3" points="86.1,112.9 48.4,112.9 48.4,140.1 90,140.1 			"/>
			<g>
				<g>
					<g>
						<g>
							
								<rect x="69.8" y="134.9" transform="matrix(-1 -1.224647e-16 1.224647e-16 -1 144.7408 274.9934)" class="st1" width="5.1" height="5.2"/>
							
								<rect x="74.7" y="134.9" transform="matrix(-1 -1.224647e-16 1.224647e-16 -1 152.537 274.9934)" class="st4" width="3.1" height="5.2"/>
						</g>
					</g>
				</g>
			</g>
			<g>
				<g>
					<g>
						<g>
							
								<rect x="69.5" y="128.4" transform="matrix(-1 -1.224647e-16 1.224647e-16 -1 147.569 263.3457)" class="st1" width="8.5" height="6.6"/>
							
								<rect x="77.8" y="129.8" transform="matrix(-1 -1.224647e-16 1.224647e-16 -1 157.9824 264.8197)" class="st4" width="2.3" height="5.1"/>
						</g>
					</g>
				</g>
			</g>
			<path class="st1" d="M31.6,142.1H25c-1.5,0-2.6-1.2-2.6-2.6l0,0c0-1.5,1.2-2.6,2.6-2.6h6.6c1.5,0,2.6,1.2,2.6,2.6v0
				C34.3,140.9,33.1,142.1,31.6,142.1z"/>
			<path class="st3" d="M64.4,143.8c0-2.6,2.1-4.8,4.8-4.8c2.6,0,4.8,2.1,4.8,4.8c0,2.6-2.1,4.8-4.8,4.8
				C66.6,148.6,64.4,146.4,64.4,143.8z"/>
			<path class="st3" d="M80.5,143.8c0-2.6,2.1-4.8,4.8-4.8s4.8,2.1,4.8,4.8c0,2.6-2.1,4.8-4.8,4.8S80.5,146.4,80.5,143.8z"/>
			<path class="st3" d="M24,143.8c0-2.6,2.1-4.8,4.8-4.8c2.6,0,4.8,2.1,4.8,4.8c0,2.6-2.1,4.8-4.8,4.8C26.1,148.6,24,146.4,24,143.8
				z"/>
			<path class="st5" d="M26.4,143.8c0-1.3,1.1-2.4,2.4-2.4c1.3,0,2.4,1.1,2.4,2.4c0,1.3-1.1,2.4-2.4,2.4
				C27.4,146.2,26.4,145.1,26.4,143.8z"/>
			<path class="st4" d="M26.4,143.8c0-1.3,1.1-2.4,2.4-2.4c1.3,0,2.4,1.1,2.4,2.4c0,1.3-1.1,2.4-2.4,2.4
				C27.4,146.2,26.4,145.1,26.4,143.8z"/>
			<path class="st1" d="M28,143.8c0-0.4,0.3-0.7,0.7-0.7c0.4,0,0.7,0.3,0.7,0.7c0,0.4-0.3,0.7-0.7,0.7C28.4,144.5,28,144.2,28,143.8
				z"/>
			<path class="st1" d="M27.2,145.1c0-0.2,0.1-0.3,0.3-0.3c0.2,0,0.3,0.1,0.3,0.3c0,0.2-0.1,0.3-0.3,0.3
				C27.3,145.4,27.2,145.2,27.2,145.1z"/>
			<path class="st1" d="M26.9,142.9c0-0.2,0.1-0.3,0.3-0.3c0.2,0,0.3,0.1,0.3,0.3s-0.1,0.3-0.3,0.3C27,143.2,26.9,143.1,26.9,142.9z
				"/>
			<path class="st1" d="M30,142.9c0-0.2,0.1-0.3,0.3-0.3c0.2,0,0.3,0.1,0.3,0.3s-0.1,0.3-0.3,0.3C30.2,143.2,30,143.1,30,142.9z"/>
			<path class="st1" d="M29.8,145.1c0-0.2,0.1-0.3,0.3-0.3c0.2,0,0.3,0.1,0.3,0.3c0,0.2-0.1,0.3-0.3,0.3
				C29.9,145.4,29.8,145.2,29.8,145.1z"/>
			<path class="st1" d="M28.5,142c0-0.2,0.1-0.3,0.3-0.3c0.2,0,0.3,0.1,0.3,0.3s-0.1,0.3-0.3,0.3C28.6,142.3,28.5,142.1,28.5,142z"
				/>
			<path class="st5" d="M66.7,143.8c0-1.3,1.1-2.4,2.4-2.4c1.3,0,2.4,1.1,2.4,2.4c0,1.3-1.1,2.4-2.4,2.4
				C67.8,146.2,66.7,145.1,66.7,143.8z"/>
			<path class="st4" d="M66.7,143.8c0-1.3,1.1-2.4,2.4-2.4c1.3,0,2.4,1.1,2.4,2.4c0,1.3-1.1,2.4-2.4,2.4
				C67.8,146.2,66.7,145.1,66.7,143.8z"/>
			<path class="st1" d="M68.4,143.8c0-0.4,0.3-0.7,0.7-0.7c0.4,0,0.7,0.3,0.7,0.7c0,0.4-0.3,0.7-0.7,0.7
				C68.7,144.5,68.4,144.2,68.4,143.8z"/>
			<path class="st1" d="M67.6,145.1c0-0.2,0.1-0.3,0.3-0.3c0.2,0,0.3,0.1,0.3,0.3c0,0.2-0.1,0.3-0.3,0.3
				C67.7,145.4,67.6,145.2,67.6,145.1z"/>
			<path class="st1" d="M67.5,142.9c0-0.2,0.1-0.3,0.3-0.3c0.2,0,0.3,0.1,0.3,0.3s-0.1,0.3-0.3,0.3
				C67.6,143.2,67.5,143.1,67.5,142.9z"/>
			<path class="st1" d="M70.2,145.1c0-0.2,0.1-0.3,0.3-0.3c0.2,0,0.3,0.1,0.3,0.3c0,0.2-0.1,0.3-0.3,0.3
				C70.3,145.4,70.2,145.2,70.2,145.1z"/>
			<path class="st1" d="M66.6,142c0-0.2,0.1-0.3,0.3-0.3c0.2,0,0.3,0.1,0.3,0.3s-0.1,0.3-0.3,0.3C66.8,142.3,66.6,142.1,66.6,142z"
				/>
			<path class="st3" d="M37.6,143.8c0-2.6,2.1-4.8,4.8-4.8c2.6,0,4.8,2.1,4.8,4.8c0,2.6-2.1,4.8-4.8,4.8
				C39.7,148.6,37.6,146.4,37.6,143.8z"/>
			<path class="st4" d="M28.7,118c0,0,2.6-3.9,5.6-3.9l-0.3,4.2L28.7,118z"/>
			<path class="st1" d="M44,135.9H23.2l1.7-14c0.3-2.3,2.2-4,4.5-4H44V135.9z"/>
			<path class="st4" d="M31.9,127.3h-5.8l0.8-5.5c0.2-1.1,1.1-2,2.3-2h2.9L31.9,127.3z"/>
			<path class="st6" d="M31.5,126.9h-3.8c-0.6,0-1-0.5-0.9-1.1l0.5-3.8c0.1-1,1-1.8,1.9-1.8h2.5L31.5,126.9z"/>
			<polygon class="st2" points="72.2,140.1 32.3,140.1 34.1,112 69.8,112 			"/>
			<polygon class="st7" points="70.6,139 33.8,139 35.4,113 68.4,113 70.2,134.1 			"/>
			<path class="st4" d="M35.9,135.9H23.2c-1.1,0.1-1.2,0.6-1.2,0.6l-1.1,5.2c0,0.2,0.2,0.3,0.4,0.3h3.2c0.2,0,0.3-0.1,0.4-0.3
				c0,0,0.5-0.6,0.8-0.8c0.8-0.5,1.7-0.9,3-0.9c1.6,0,3.1,0.5,3.9,1.3h3.2c0.4,0,0.7-0.2,0.7-0.4v-4.5
				C36.6,136.1,36.3,135.9,35.9,135.9z"/>
			<path class="st2" d="M75.6,146.1h-4c-0.1-0.5-0.3-0.9-0.5-1.3c-1.2-1.9-4-2.5-5.7-2.7c-0.7-0.1-1.2-0.1-1.2-0.1h6.9
				c1.8,0.2,2.9,1.2,3.6,2.2C75.4,145.2,75.6,146.1,75.6,146.1z"/>
			<path class="st2" d="M91.5,146.1h-4c-0.1-0.6-0.3-1-0.6-1.4c-1.8-2.6-6.7-2.6-6.7-2.6h6.9c1.5,0.2,2.5,0.9,3.2,1.7
				C91.2,144.9,91.5,146.1,91.5,146.1z"/>
			<path class="st2" d="M34,142.8h57.1c0.8,0,1.4-0.6,1.4-1.4v0c0-0.8-0.6-1.4-1.4-1.4H34c-0.8,0-1.4,0.6-1.4,1.4v0
				C32.7,142.2,33.3,142.8,34,142.8z"/>
			<path class="st2" d="M44.1,146.8h-5.9c-1.7,0-3-1.4-3-3v0c0-1.7,1.4-3,3-3h5.9c1.7,0,3,1.4,3,3l0,0
				C47.1,145.5,45.7,146.8,44.1,146.8z"/>
			<g>
				<path class="st7" d="M23.6,124.6c0,0-0.5,2.8-0.5,3.2c0,0.5,0.5,0.7,0.8,0.7L23.6,124.6z"/>
				<path class="st4" d="M24.6,128.5L24.6,128.5c-0.5,0-1-0.4-1-1v-2.2c0-0.5,0.4-1,1-1h0c0.5,0,1,0.4,1,1v2.2
					C25.5,128.1,25.1,128.5,24.6,128.5z"/>
				<path class="st6" d="M24.6,128.3L24.6,128.3c-0.4,0-0.8-0.4-0.8-0.8v-2.1c0-0.4,0.4-0.8,0.8-0.8h0c0.4,0,0.8,0.4,0.8,0.8v2.1
					C25.4,128,25,128.3,24.6,128.3z"/>
				<g>
					<path class="st7" d="M24.6,124.5C24.5,124.5,24.5,124.4,24.6,124.5l-0.1-1.2c0,0,0,0,0,0c0,0,0.1-0.7,0.8-0.7
						c0.6,0,0.9,0,0.9,0c0,0,0.1,0,0.1,0.1c0,0,0,0.1-0.1,0.1c0,0-0.3,0-0.9,0c-0.6,0-0.6,0.5-0.6,0.5L24.6,124.5
						C24.6,124.4,24.6,124.5,24.6,124.5z"/>
				</g>
			</g>
			<path class="st4" d="M31.4,129.1h-1.2c-0.2,0-0.3-0.1-0.3-0.3l0,0c0-0.2,0.1-0.3,0.3-0.3h1.2c0.2,0,0.3,0.1,0.3,0.3l0,0
				C31.7,129,31.5,129.1,31.4,129.1z"/>
			<g>
				<g>
					<g>
						<g>
							
								<rect x="78.3" y="135" transform="matrix(-1 -1.224647e-16 1.224647e-16 -1 161.7458 275.0645)" class="st1" width="5.1" height="5.1"/>
							
								<rect x="83.2" y="135" transform="matrix(-1 -1.224647e-16 1.224647e-16 -1 168.787 275.0645)" class="st4" width="2.3" height="5.1"/>
						</g>
					</g>
				</g>
			</g>
		</g>
		<path class="st4" d="M188.3,85c-4.2,0-7.6,3.4-7.6,7.6c0,4.2,7.6,13.5,7.6,13.5s7.6-9.3,7.6-13.5C195.9,88.4,192.5,85,188.3,85z
			 M188.3,96.1c-2,0-3.5-1.6-3.5-3.5c0-2,1.6-3.5,3.5-3.5c2,0,3.5,1.6,3.5,3.5C191.8,94.5,190.2,96.1,188.3,96.1z"/>
		<path class="st7" d="M13.4,102.8c-3.5,0-6.4,2.9-6.4,6.4c0,3.5,6.4,11.4,6.4,11.4s6.4-7.8,6.4-11.4
			C19.8,105.6,16.9,102.8,13.4,102.8z M13.4,112.1c-1.7,0-3-1.3-3-3c0-1.7,1.3-3,3-3s3,1.3,3,3C16.4,110.7,15,112.1,13.4,112.1z"/>
		<g>
			<g>
				<g>
					<g>
						<path class="st8" d="M65.6,148.4H58c0.1-0.3,0.3-0.7,1.2-0.9c1.2-0.2,3.2-0.9,3.6-2.4c0,0,0-0.1,0-0.1c0.4-1.6,3,0.5,3,0.5
							s0,0.1,0,0.2C65.9,146.3,66.1,148.2,65.6,148.4z"/>
						<path class="st9" d="M59.5,105.8c0,0,0.4,4.9,0.9,10.9c0.6,8.1,1.4,17.9,1.5,19.8c0.1,3.3,0.7,8.5,0.7,8.5s1.2,1.2,3.7,0.7
							c0,0,2.2-7.4,2.8-15.3c0-0.1,0-0.3,0-0.4c0.6-8,1.5-24.9,1.5-24.9L59.5,105.8z"/>
						<path class="st3" d="M59.5,105.8c0,0,0.4,4.9,0.9,10.9l8.7,13.7c0-0.1,0-0.3,0-0.4c0.6-8,1.5-24.9,1.5-24.9L59.5,105.8z"/>
						<path class="st9" d="M61.3,106.4c0,0,7.1,17.9,11.8,26.3c4.7,8.4,6.1,10.7,6.1,10.7s2.7-1.1,2.9-1.8c0,0-1.8-16.2-4.9-20.2
							c-1.8-2.2-3.9-8.9-4-11.3c-0.1-2.3-0.6-7-0.6-7L61.3,106.4z"/>
					</g>
					<path class="st10" d="M70.7,78.9c0,0-4.8,2.4-7.6,1.5c0,0,0.7-0.9,1.9-1.5c-0.1-0.6-0.2-1.1-0.2-1.5c-0.1-1-0.1-1.5-0.1-1.5
						l1.9-1.5l1.8-1.4C68.1,76.9,70.7,78.9,70.7,78.9z"/>
					<path class="st7" d="M73.2,104.1c0,0.3-0.6,0.6-0.9,0.8c-2.1,0.9-4,1.6-6.2,1.8c-2.6,0.3-5.6-0.3-6.7-0.3c-0.1,0-0.2,0-0.3-0.1
						c-0.1-0.1-0.1-3.2-0.1-7.2c0-0.2,0-0.3,0-0.5v-0.1c0-1.5,0.1-3.2,0.1-4.8c0.1-3.6,0.4-7,0.9-8.9c0.6-2.2,1.8-3.7,3-4.8l1-0.9
						c1,0.2,2,0.1,3-0.4c1.1-0.5,2.3-1.2,2.5-1c1.5,1.1,2.4,3.5,2.9,6.6c0.3,1.8,0.4,3.8,0.4,5.9c0,0.8,0,1.6-0.1,2.3
						c-0.3,4.2,0,7.9,0.1,10C73.2,103.3,73.2,103.7,73.2,104.1z"/>
					<path class="st2" d="M73.1,102.6c-23.4,0-4.3-17.4-4.3-17.4l3.8-0.8c0.3,1.8,0.4,3.8,0.4,5.9c0,0.8,0,1.6-0.1,2.3
						C72.7,96.8,73,100.5,73.1,102.6z"/>
					<g>
						
							<rect x="44.4" y="88" transform="matrix(-1 -1.224647e-16 1.224647e-16 -1 103.3404 190.5178)" class="st1" width="14.5" height="14.5"/>
						
							<rect x="58.3" y="88" transform="matrix(-1 -1.224647e-16 1.224647e-16 -1 123.3012 190.5178)" class="st4" width="6.6" height="14.5"/>
					</g>
					<path class="st10" d="M56.7,95.5l-0.9-0.3c0,0-0.6-2-2.7-1.1c0,0-0.8,0.4-0.5,1c0.4,0.5,0.3,0.2,0.8,1c0.5,0.8,1.3,1.1,1.9,0.8
						l0.7,0L56.7,95.5z"/>
					<path class="st7" d="M70.7,78.9c0,0,5.3,8.4-0.3,18.1c-1.8,3-15,0.2-15,0.2s-0.5-0.9,0.9-1.9c0,0,8.8-1.5,9.9-1.7
						c0.9-0.2,0.3-8.8,1.4-11.3C68.5,79.7,70.7,78.9,70.7,78.9z"/>
					<path class="st11" d="M68.3,74.5c0,0-1.2,2.3-3.5,2.9c-0.1-1-0.1-1.5-0.1-1.5l1.9-1.5L68.3,74.5z"/>
					<path class="st10" d="M63.8,75.8c0,0,4.6,0.8,5-2.1c0.4-2.9,1.3-4.7-1.6-5.3c-2.9-0.6-3.7,0.4-4,1.3
						C62.8,70.6,62.6,75.5,63.8,75.8z"/>
					<path class="st3" d="M68.8,73.9c0,0-0.1-3.8-4.3-4.5c-2.9-0.4-2.6-2.5-2.3-2.9c0,0,3.7,0,5.9,0.6C71.5,68,69.3,73.3,68.8,73.9z
						"/>
				</g>
			</g>
			<path class="st8" d="M82.2,142.2l-0.2-0.3l-2.5,1.4c0,0.5,0,1,0,1.5c0,0.3,0,0.7-0.1,1c-0.1,0.3-0.3,1.3-1.1,1.6
				c-0.9,0.3-1,1,0.6,1c0.3,0,0.5,0,0.8,0c0.9,0,1.8-0.6,2-1.6c0.1-0.4,0.3-0.8,0.6-1.2c0.4-0.5,0.9-0.9,1-1.4
				C83.5,143.4,82.2,142.2,82.2,142.2z"/>
		</g>
		<g>
			<g>
				<polygon class="st2" points="110.8,123.9 111.3,123.5 104.6,114.8 102.2,114.7 				"/>
			</g>
			<g>
				<polygon class="st2" points="119.5,123.9 120,123.5 114.4,114.8 112.4,114.7 				"/>
			</g>
			<g>
				<path class="st7" d="M160.4,101.1c0-1.7-1.3-3-2.9-3c-1.6,0-2.9,1.3-2.9,3c0,1.7,1.3,3,2.9,3
					C159.1,104.1,160.4,102.8,160.4,101.1z"/>
				<path class="st7" d="M123.2,141.6H153c0.3,0,0.6-0.3,0.6-0.6v-2.8c0-0.3-0.3-0.6-0.6-0.6h-26.4c-0.3,0-0.6,0.3-0.6,0.6
					L123.2,141.6z"/>
				<path class="st3" d="M122.9,139.4c0-4.9-4-8.9-8.9-8.9c-4.9,0-8.9,4-8.9,8.9s4,8.9,8.9,8.9C118.9,148.4,122.9,144.4,122.9,139.4
					z"/>
				<path class="st4" d="M118.5,139.4c0-2.5-2-4.5-4.5-4.5c-2.5,0-4.5,2-4.5,4.5c0,2.5,2,4.5,4.5,4.5
					C116.5,144,118.5,142,118.5,139.4z"/>
				<g>
					<path class="st7" d="M159.8,126.8c1.3-0.4,2.6-0.6,4-0.6c1,0,1.9,0.1,2.9,0.3c5.3,1.2,9.4,5.5,10.2,10.9c0.2,1-0.7,2-1.7,2
						h-0.1c-0.6,0-1-0.4-1.1-1c-0.5-5.2-4.9-9.3-10.2-9.3c-1.6,0-3.1,0.4-4.4,1c-3.4,1.7-5.8,5.2-5.8,9.2h-3
						C150.6,133.5,154.5,128.5,159.8,126.8z"/>
				</g>
				<g>
					<path class="st7" d="M146.2,137.6l4.5,1.8c3.1-6,6.3-9,9-10.4c4.9-2.6,8.2-0.4,7.1-2.5l-8.3-17.6c-0.8-1.1-1.8-1.9-2.9-2.5
						c-1.2-0.6-2.6-0.8-4-0.7c-1.6,0.1-2.6,1.8-2.1,3.3c1.1,3.3,1.5,6.5,1.5,9.7C150.8,129.1,146.2,137.6,146.2,137.6z"/>
				</g>
				<path class="st7" d="M150.7,107.8l3.4-1.3c0.5,0,1.3,0.4,1.3,0l-0.5-8.2c0-0.5-0.4-0.8-0.8-0.8h-2.2c-0.5,0-2.3,0.9-2.2,2.5
					l-0.6,8.3C149.2,108.7,150.3,107.8,150.7,107.8z"/>
				<path class="st2" d="M93.8,115.1h21.6c0.9,0,1.6-0.7,1.6-1.6v0c0-0.9-0.7-1.6-1.6-1.6H93.8c-0.9,0-1.6,0.7-1.6,1.6v0
					C92.2,114.4,92.9,115.1,93.8,115.1z"/>
				<circle class="st3" cx="163.8" cy="139.4" r="8.9"/>
				<path class="st4" d="M159.3,139.4c0,0.8,0.2,1.5,0.5,2.1c0,0,0,0.1,0.1,0.1c0.8,1.4,2.3,2.3,4,2.3c2.5,0,4.5-2,4.5-4.5
					c0-1.9-1.2-3.5-2.8-4.2c0,0,0,0-0.1,0c-0.5-0.2-1.1-0.3-1.7-0.3C161.3,134.9,159.3,136.9,159.3,139.4z"/>
				<path class="st7" d="M131.2,121.5c0,0-2.3,9.1,5.5,17.6l-19.1-1.4l2.4-18.4L131.2,121.5z"/>
				<path class="st7" d="M96,140.5c0,0.3,0.1,0.6,0.3,0.8c0.2,0.2,0.5,0.3,0.8,0.3h28.6c0.6,0,1.2-0.5,1.2-1.2l-0.4-18.7l-9.6-0.6
					C104.1,121.2,96,127.6,96,140.5z"/>
				<path class="st2" d="M154.5,101c0,0.3,0,0.6,0.1,0.8c0.4,2.1,2.3,3.8,4.5,3.8v-9.2C156.6,96.3,154.5,98.4,154.5,101z"/>
				<g>
					<path class="st3" d="M147.3,101.6c0,0,0.2,0,0.2,0l5.1-1.4c0.2,0,0.3-0.3,0.3-0.6c0-0.3-0.2-0.5-0.4-0.4l-5.1,1
						c-0.2,0-0.4,0.3-0.4,0.6C146.9,101.2,147.1,101.6,147.3,101.6z"/>
				</g>
				<path class="st7" d="M159.5,129.4c0,0.3-0.1,0.6-0.1,0.8c0,0,0,0,0,0c1.3-0.6,2.8-1,4.4-1c5.3,0,9.7,4.1,10.2,9.3
					c0.1,0.6,0.5,1,1.1,1h0.1c1.1,0,1.9-0.9,1.7-2c-0.8-5.4-4.9-9.7-10.1-10.9c0,0,0,0-0.1,0l-8.3-17.6c-0.8-1.1-1.8-1.9-2.9-2.5
					c1.4,2.4,5.3,10,4.4,20.4c-0.1,0.7-0.1,1.4-0.3,2.2C159.6,129.1,159.5,129.2,159.5,129.4z"/>
				<path class="st8" d="M112,117.8v2.8c0,0.5,0.4,0.9,0.9,0.9h18.3c0.5,0,0.9-0.4,0.9-0.9v-2.8c0-0.5-0.4-0.9-0.9-0.9h-18.3
					C112.4,116.9,112,117.3,112,117.8z"/>
				<path class="st2" d="M98.3,141.6h27.5c0,0,1.7-10.2-4.5-13.6c-1.5-0.8-3.4-1.1-5.4-0.9C109.4,127.7,101.3,133.2,98.3,141.6z"/>
				<path class="st2" d="M154.6,101.8c0.4,2.1,2.3,3.8,4.5,3.8V103C157.8,103,155.9,102.9,154.6,101.8z"/>
				<path class="st2" d="M159.5,129.4c0,0.3-0.1,0.6-0.1,0.8c0,0,0,0,0,0c1.6-1.5,5.1-2.9,7.3-3.6c0,0,0,0-0.1,0l-8.3-17.6
					c-0.8-1.1-1.8-1.9-2.9-2.5c1.4,2.4,5.3,10,4.4,20.4c-0.1,0.7-0.1,1.4-0.3,2.2C159.6,129.1,159.5,129.2,159.5,129.4z"/>
			</g>
			<g>
				<rect x="100.9" y="100.2" class="st8" width="14.3" height="11.8"/>
				<rect x="93.8" y="100.2" class="st12" width="14.3" height="11.8"/>
				<polygon class="st9" points="115.1,108.9 112.9,108.9 113.1,108.3 112.9,107.8 115.1,107.8 				"/>
				<polygon class="st3" points="93.8,102.8 96,102.8 95.8,102.2 96,101.7 93.8,101.7 				"/>
				<polygon class="st3" points="93.8,110 96,110 95.8,109.4 96,108.9 93.8,108.9 				"/>
			</g>
			<g>
				<path class="st10" d="M129.6,89.5c-2.5,1-7-1.1-7-1.1s1.5-1.3,1.8-3.8c0-0.1,0-0.3,0-0.4c0.3-0.1,0.7-0.3,1.3-0.5l2.2,1.5
					c0,0,0.1,0.7,0,2c0,0.2,0,0.5-0.1,0.7C128.9,88.4,129.6,89.5,129.6,89.5z"/>
				<path class="st11" d="M127.9,85.2c0,0,0.1,0.7,0,2c-2-0.4-3.1-2-3.5-2.7c0-0.1,0-0.3,0-0.4c0.3-0.1,0.7-0.3,1.3-0.5L127.9,85.2z
					"/>
				<path class="st10" d="M128.3,86.2c0,0-4.2-0.1-4.1-2.8c0.1-2.6-0.3-4.4,2.4-4.5c2.7,0,3.2,1,3.4,1.9
					C130.1,81.8,129.4,86.2,128.3,86.2z"/>
				<path class="st3" d="M124.4,84.5c0,0-0.2-0.9,0.3-1.5c0,0-0.3-0.9,0-1.1c0.3-0.2,0.5,0.5,0.6,0.4c0.1-0.1,0.8-0.8,1-1.6
					c0.2-0.9,3.1-0.2,3.5-0.1c0.3,0.1-2-4.2-4.4-3.2c-2.5,1-2.7,2.3-2.4,3.3C123.3,81.8,123.3,84.3,124.4,84.5z"/>
				<path class="st3" d="M120.3,109.7c0,0,0.3,5.2,1.5,6.7c1.2,1.5,23.8,0.9,23.8,0.9s0.1-3.3-0.8-4.2c-0.9-0.9-5-3.3-18.2-4.7
					L120.3,109.7z"/>
				<path class="st7" d="M120,98.9c0.4,4.5-0.1,11.2,0.3,12.4c0.4,1,4.5,0.4,6.1,0.1c0.6-0.1,1.3-0.3,2.1-0.5
					c2.1-0.6,4.4-1.4,4.7-2.1c0,0,0,0,0-0.1c0-0.1,0-0.2,0-0.3c-0.1-0.2-0.3-0.5-0.4-0.9c0-0.2-0.1-0.3-0.1-0.5c0-0.8,0-1.7-0.1-2.8
					c0-0.1,0-0.2,0-0.3c0-0.1,0-0.3,0-0.4l0,0c0,0,0,0,0-0.1c0-1.2-0.1-2.6-0.2-3.8c0-0.4-0.1-0.8-0.1-1.2c0-0.1,0-0.3,0-0.4
					c0-0.3,0-0.5-0.1-0.8c-0.2-2-0.4-3.8-0.8-4.9c-0.5-1.8-1.7-3-2.8-3.9l-0.8-0.6c-0.9,0.2-1.9,0.1-2.8-0.3c-1-0.4-1.4-0.7-1.5-0.6
					C121.3,88.5,119.6,93.4,120,98.9z"/>
				<path class="st8" d="M137.5,134.4c0,0,0.2,3.2,0.8,3.3c0.1,0,3.2,0,3.2,0l3.9,0c0,0,0-0.9-1.2-1.1c-1.2-0.2-3.1-1-3.8-2.5
					C139.7,132.3,137.5,134.4,137.5,134.4z"/>
				<path class="st3" d="M136.6,134.6c0,0,0.8,0.6,2.3,0.7c0.4,0,0.8,0,1.1,0c0.9-0.1,1.4-0.4,1.4-0.4l4.2-17.5c0,0-4.5-4-6.9-1.5
					c-0.3,0.3-0.6,0.9-0.8,1.6C136.4,122.2,136.6,134.6,136.6,134.6z"/>
				<path class="st2" d="M126.6,95.5c0,0,2.9,10.7,6.3,12c0-0.2-0.1-0.3-0.1-0.5c0-0.8,0-1.7-0.1-2.8c0-0.1,0-0.2,0-0.3
					c0-0.1,0-0.3,0-0.4l0,0c0,0,0,0,0-0.1c0-1.2-0.1-2.6-0.2-3.8c0-0.4-0.1-0.8-0.1-1.2C131,96.6,129,95.4,126.6,95.5z"/>
				<path class="st10" d="M144.2,99.6c0,0,1.3,0.1,1.6,0c0.3-0.1,1.9-1,2.4-0.8s2,1.6,1.6,2.3c0,0-0.7,0-1.3-0.6
					c-0.6-0.6-1.3-0.2-1.2-0.1c0.1,0.1,1,0.5,0.9,0.6c-0.2,0.2-1.4,0.1-1.7-0.1c-0.3-0.2-2.5,0-2.5,0L144.2,99.6z"/>
				<path class="st7" d="M126.6,89.9c0,0,7.9,6.8,10,7.4c2.1,0.7,9.5,2.1,9.5,2.1s0.2,1.7-0.5,2.4c0,0-9.5-0.5-10.7-0.8
					c-1.2-0.2-10-4.8-10.7-5.2C123.5,95.5,123.6,89.3,126.6,89.9z"/>
				<path class="st7" d="M122.4,81L122.4,81c0,0.2,0.1,0.2,0.1,0.3c0,0,0.1,0,0.1,0h10.1c0.1,0,0.2-0.1,0.2-0.3v0
					c0-0.1-0.1-0.3-0.2-0.3l-2.2-0.3c-0.2-1.7-1.3-3-2.8-3.5c0,0,0,0,0,0c-0.4-0.1-0.7-0.2-1.1-0.2c-2.1,0-3.8,1.7-3.9,3.9
					c0,0,0,0.1,0,0.1c0,0,0,0,0,0C122.4,80.8,122.4,80.9,122.4,81z"/>
				<path class="st2" d="M125.8,80.6c-0.7-4,1.7-3.7,1.8-3.7c-0.4-0.1-0.7-0.2-1.1-0.2c-2.1,0-3.8,1.7-3.9,3.9H125.8z"/>
			</g>
		</g>
		<g>
			<path class="st9" d="M102.7,37.5c-0.1,0-0.2-0.1-0.3-0.2c-0.1-0.2,0-0.4,0.1-0.5c0,0,0.2-0.1,0.5-0.3c0.2-0.1,0.4,0,0.5,0.1
				c0.1,0.2,0,0.4-0.1,0.5c-0.3,0.2-0.5,0.3-0.5,0.3C102.8,37.5,102.8,37.5,102.7,37.5z"/>
			<path class="st9" d="M189,79.5C189,79.5,189,79.5,189,79.5c-0.2,0-0.3-0.2-0.3-0.3c0-0.1,0-0.1,0-0.2c0-0.3,0-0.6,0-0.9
				c0-0.2,0.1-0.3,0.3-0.3c0.2,0,0.3,0.1,0.3,0.3c0,0.3,0,0.6,0,1c0,0.1,0,0.1,0,0.2C189.4,79.4,189.2,79.5,189,79.5z M189,77.2
				c-0.2,0-0.3-0.1-0.3-0.3c0-0.4,0-0.8-0.1-1.2c0-0.2,0.1-0.3,0.3-0.4c0.2,0,0.3,0.1,0.4,0.3c0,0.4,0.1,0.8,0.1,1.2
				C189.3,77,189.2,77.2,189,77.2C189,77.2,189,77.2,189,77.2z M188.8,74.9c-0.2,0-0.3-0.1-0.3-0.3c0-0.4-0.1-0.8-0.1-1.1
				c0-0.2,0.1-0.4,0.3-0.4c0.2,0,0.4,0.1,0.4,0.3c0,0.4,0.1,0.8,0.1,1.2C189.2,74.7,189,74.8,188.8,74.9
				C188.8,74.9,188.8,74.9,188.8,74.9z M188.5,72.6c-0.2,0-0.3-0.1-0.3-0.3c-0.1-0.4-0.1-0.8-0.2-1.1c0-0.2,0.1-0.4,0.3-0.4
				c0.2,0,0.4,0.1,0.4,0.3c0.1,0.4,0.1,0.8,0.2,1.2C188.9,72.4,188.8,72.5,188.5,72.6C188.6,72.6,188.6,72.6,188.5,72.6z
				 M188.2,70.3c-0.2,0-0.3-0.1-0.3-0.3c-0.1-0.4-0.1-0.8-0.2-1.1c0-0.2,0.1-0.4,0.3-0.4c0.2,0,0.4,0.1,0.4,0.3
				c0.1,0.4,0.2,0.8,0.2,1.1C188.5,70.1,188.4,70.2,188.2,70.3C188.2,70.3,188.2,70.3,188.2,70.3z M187.7,68c-0.2,0-0.3-0.1-0.3-0.3
				c-0.1-0.4-0.2-0.8-0.3-1.1c0-0.2,0.1-0.4,0.2-0.4c0.2,0,0.4,0.1,0.4,0.2c0.1,0.4,0.2,0.8,0.3,1.1C188.1,67.8,188,67.9,187.7,68
				C187.8,68,187.7,68,187.7,68z M187.1,65.7c-0.1,0-0.3-0.1-0.3-0.2c-0.1-0.4-0.2-0.7-0.3-1.1c-0.1-0.2,0-0.4,0.2-0.4
				c0.2-0.1,0.4,0,0.4,0.2c0.1,0.4,0.2,0.7,0.3,1.1C187.5,65.5,187.4,65.7,187.1,65.7C187.2,65.7,187.2,65.7,187.1,65.7z
				 M186.5,63.5c-0.1,0-0.3-0.1-0.3-0.2c-0.1-0.4-0.2-0.7-0.4-1.1c-0.1-0.2,0-0.4,0.2-0.4c0.2-0.1,0.4,0,0.4,0.2
				c0.1,0.4,0.3,0.7,0.4,1.1c0.1,0.2,0,0.4-0.2,0.4C186.5,63.5,186.5,63.5,186.5,63.5z M185.7,61.3c-0.1,0-0.3-0.1-0.3-0.2
				c-0.1-0.4-0.3-0.7-0.4-1.1c-0.1-0.2,0-0.4,0.2-0.4c0.2-0.1,0.4,0,0.4,0.2c0.1,0.4,0.3,0.7,0.4,1.1c0.1,0.2,0,0.4-0.2,0.4
				C185.8,61.3,185.7,61.3,185.7,61.3z M184.8,59.2c-0.1,0-0.3-0.1-0.3-0.2c-0.2-0.4-0.3-0.7-0.5-1.1c-0.1-0.2,0-0.4,0.2-0.4
				c0.2-0.1,0.4,0,0.4,0.2c0.2,0.4,0.3,0.7,0.5,1.1c0.1,0.2,0,0.4-0.2,0.4C184.9,59.2,184.9,59.2,184.8,59.2z M183.9,57.1
				c-0.1,0-0.2-0.1-0.3-0.2c-0.2-0.3-0.3-0.7-0.5-1c-0.1-0.2,0-0.4,0.1-0.5c0.2-0.1,0.4,0,0.5,0.1c0.2,0.3,0.4,0.7,0.5,1
				c0.1,0.2,0,0.4-0.2,0.4C184,57.1,183.9,57.1,183.9,57.1z M182.8,55c-0.1,0-0.2-0.1-0.3-0.2c-0.2-0.3-0.4-0.7-0.6-1
				c-0.1-0.2,0-0.4,0.1-0.5c0.2-0.1,0.4,0,0.5,0.1c0.2,0.3,0.4,0.7,0.6,1c0.1,0.2,0,0.4-0.1,0.5C182.9,55,182.9,55,182.8,55z
				 M181.6,53c-0.1,0-0.2-0.1-0.3-0.2c-0.2-0.3-0.4-0.7-0.6-1c-0.1-0.2-0.1-0.4,0.1-0.5c0.2-0.1,0.4-0.1,0.5,0.1
				c0.2,0.3,0.4,0.7,0.6,1c0.1,0.2,0,0.4-0.1,0.5C181.8,53,181.7,53,181.6,53z M180.4,51.1c-0.1,0-0.2-0.1-0.3-0.1
				c-0.2-0.3-0.4-0.6-0.7-0.9c-0.1-0.2-0.1-0.4,0.1-0.5c0.2-0.1,0.4-0.1,0.5,0.1c0.2,0.3,0.5,0.6,0.7,1c0.1,0.2,0.1,0.4-0.1,0.5
				C180.5,51,180.4,51.1,180.4,51.1z M179,49.2c-0.1,0-0.2,0-0.3-0.1c-0.2-0.3-0.5-0.6-0.7-0.9c-0.1-0.1-0.1-0.4,0.1-0.5
				c0.1-0.1,0.4-0.1,0.5,0.1c0.2,0.3,0.5,0.6,0.7,0.9c0.1,0.1,0.1,0.4-0.1,0.5C179.2,49.1,179.1,49.2,179,49.2z M177.6,47.4
				c-0.1,0-0.2,0-0.3-0.1c-0.2-0.3-0.5-0.6-0.8-0.9c-0.1-0.1-0.1-0.4,0-0.5c0.1-0.1,0.4-0.1,0.5,0c0.3,0.3,0.5,0.6,0.8,0.9
				c0.1,0.1,0.1,0.4,0,0.5C177.7,47.3,177.7,47.4,177.6,47.4z M176.1,45.6c-0.1,0-0.2,0-0.2-0.1c-0.3-0.3-0.5-0.6-0.8-0.8
				c-0.1-0.1-0.1-0.3,0-0.5c0.1-0.1,0.3-0.1,0.5,0c0.3,0.3,0.5,0.6,0.8,0.8c0.1,0.1,0.1,0.3,0,0.5C176.2,45.6,176.1,45.6,176.1,45.6
				z M174.4,43.9c-0.1,0-0.2,0-0.2-0.1c-0.3-0.3-0.6-0.5-0.8-0.8c-0.1-0.1-0.1-0.3,0-0.5c0.1-0.1,0.3-0.1,0.5,0
				c0.3,0.3,0.6,0.5,0.8,0.8c0.1,0.1,0.1,0.3,0,0.5C174.6,43.9,174.5,43.9,174.4,43.9z M172.7,42.4c-0.1,0-0.2,0-0.2-0.1
				c-0.3-0.3-0.6-0.5-0.9-0.8c-0.1-0.1-0.2-0.3,0-0.5c0.1-0.1,0.3-0.2,0.5,0c0.3,0.3,0.6,0.5,0.9,0.8c0.1,0.1,0.2,0.3,0,0.5
				C172.9,42.3,172.8,42.4,172.7,42.4z M171,40.9c-0.1,0-0.1,0-0.2-0.1c-0.3-0.2-0.6-0.5-0.9-0.7c-0.1-0.1-0.2-0.3-0.1-0.5
				c0.1-0.1,0.3-0.2,0.5-0.1c0.3,0.2,0.6,0.5,0.9,0.7c0.1,0.1,0.2,0.3,0,0.5C171.2,40.8,171.1,40.9,171,40.9z M169.1,39.4
				c-0.1,0-0.1,0-0.2-0.1c-0.3-0.2-0.6-0.5-0.9-0.7c-0.2-0.1-0.2-0.3-0.1-0.5c0.1-0.2,0.3-0.2,0.5-0.1c0.3,0.2,0.6,0.5,0.9,0.7
				c0.1,0.1,0.2,0.3,0.1,0.5C169.3,39.4,169.2,39.4,169.1,39.4z M167.2,38.1c-0.1,0-0.1,0-0.2-0.1c-0.3-0.2-0.6-0.4-1-0.6
				c-0.2-0.1-0.2-0.3-0.1-0.5c0.1-0.2,0.3-0.2,0.5-0.1c0.3,0.2,0.7,0.4,1,0.6c0.2,0.1,0.2,0.3,0.1,0.5
				C167.5,38.1,167.3,38.1,167.2,38.1z M165.3,36.9c-0.1,0-0.1,0-0.2,0c-0.3-0.2-0.7-0.4-1-0.6c-0.2-0.1-0.2-0.3-0.1-0.5
				c0.1-0.2,0.3-0.2,0.5-0.1c0.3,0.2,0.7,0.4,1,0.6c0.2,0.1,0.2,0.3,0.1,0.5C165.5,36.8,165.4,36.9,165.3,36.9z M104.2,36.7
				c-0.1,0-0.2-0.1-0.3-0.2c-0.1-0.2,0-0.4,0.1-0.5c0.3-0.2,0.7-0.4,1-0.5c0.2-0.1,0.4,0,0.4,0.2c0.1,0.2,0,0.4-0.2,0.4
				c-0.4,0.2-0.7,0.4-1,0.5C104.3,36.7,104.3,36.7,104.2,36.7z M163.3,35.7c-0.1,0-0.1,0-0.2,0c-0.3-0.2-0.7-0.4-1-0.5
				c-0.2-0.1-0.2-0.3-0.1-0.5c0.1-0.2,0.3-0.2,0.5-0.1c0.3,0.2,0.7,0.4,1,0.6c0.2,0.1,0.2,0.3,0.1,0.5
				C163.5,35.6,163.4,35.7,163.3,35.7z M106.3,35.7c-0.1,0-0.2-0.1-0.3-0.2c-0.1-0.2,0-0.4,0.2-0.4c0.3-0.2,0.7-0.3,1.1-0.5
				c0.2-0.1,0.4,0,0.4,0.2c0.1,0.2,0,0.4-0.2,0.4c-0.4,0.2-0.7,0.3-1,0.5C106.4,35.7,106.4,35.7,106.3,35.7z M108.4,34.7
				c-0.1,0-0.3-0.1-0.3-0.2c-0.1-0.2,0-0.4,0.2-0.4c0.4-0.2,0.7-0.3,1.1-0.5c0.2-0.1,0.4,0,0.4,0.2c0.1,0.2,0,0.4-0.2,0.4
				c-0.4,0.1-0.7,0.3-1.1,0.4C108.5,34.7,108.5,34.7,108.4,34.7z M161.2,34.6c-0.1,0-0.1,0-0.2,0c-0.3-0.2-0.7-0.3-1-0.5
				c-0.2-0.1-0.2-0.3-0.2-0.4c0.1-0.2,0.3-0.2,0.4-0.2c0.3,0.2,0.7,0.3,1,0.5c0.2,0.1,0.2,0.3,0.1,0.5
				C161.5,34.5,161.4,34.6,161.2,34.6z M110.6,33.8c-0.1,0-0.3-0.1-0.3-0.2c-0.1-0.2,0-0.4,0.2-0.4c0.4-0.1,0.7-0.3,1.1-0.4
				c0.2-0.1,0.4,0,0.4,0.2c0.1,0.2,0,0.4-0.2,0.4c-0.4,0.1-0.7,0.3-1.1,0.4C110.7,33.8,110.6,33.8,110.6,33.8z M159.1,33.6
				c0,0-0.1,0-0.1,0c-0.3-0.2-0.7-0.3-1.1-0.5c-0.2-0.1-0.2-0.3-0.2-0.4c0.1-0.2,0.3-0.2,0.4-0.2c0.4,0.2,0.7,0.3,1.1,0.5
				c0.2,0.1,0.2,0.3,0.2,0.4C159.4,33.5,159.3,33.6,159.1,33.6z M112.8,33c-0.1,0-0.3-0.1-0.3-0.2c-0.1-0.2,0-0.4,0.2-0.4
				c0.4-0.1,0.7-0.3,1.1-0.4c0.2-0.1,0.4,0,0.4,0.2c0.1,0.2,0,0.4-0.2,0.4c-0.4,0.1-0.7,0.3-1.1,0.4C112.8,33,112.8,33,112.8,33z
				 M157,32.7c0,0-0.1,0-0.1,0c-0.4-0.1-0.7-0.3-1.1-0.4c-0.2-0.1-0.3-0.3-0.2-0.4c0.1-0.2,0.3-0.3,0.4-0.2c0.4,0.1,0.7,0.3,1.1,0.4
				c0.2,0.1,0.3,0.3,0.2,0.4C157.3,32.6,157.1,32.7,157,32.7z M115,32.3c-0.1,0-0.3-0.1-0.3-0.2c-0.1-0.2,0-0.4,0.2-0.4
				c0.4-0.1,0.7-0.2,1.1-0.4c0.2-0.1,0.4,0,0.4,0.2c0.1,0.2,0,0.4-0.2,0.4c-0.4,0.1-0.7,0.2-1.1,0.3C115,32.3,115,32.3,115,32.3z
				 M154.8,31.9c0,0-0.1,0-0.1,0c-0.4-0.1-0.7-0.3-1.1-0.4c-0.2-0.1-0.3-0.2-0.2-0.4c0.1-0.2,0.2-0.3,0.4-0.2
				c0.4,0.1,0.7,0.2,1.1,0.4c0.2,0.1,0.3,0.3,0.2,0.4C155.1,31.8,155,31.9,154.8,31.9z M117.2,31.6c-0.1,0-0.3-0.1-0.3-0.2
				c-0.1-0.2,0.1-0.4,0.2-0.4c0.4-0.1,0.8-0.2,1.1-0.3c0.2,0,0.4,0.1,0.4,0.2c0,0.2-0.1,0.4-0.2,0.4C118,31.3,117.6,31.5,117.2,31.6
				C117.2,31.6,117.2,31.6,117.2,31.6z M152.6,31.2C152.6,31.2,152.6,31.2,152.6,31.2c-0.5-0.1-0.8-0.2-1.2-0.3
				c-0.2-0.1-0.3-0.2-0.2-0.4c0.1-0.2,0.2-0.3,0.4-0.2c0.4,0.1,0.8,0.2,1.1,0.3c0.2,0.1,0.3,0.2,0.2,0.4
				C152.9,31.1,152.8,31.2,152.6,31.2z M119.4,31c-0.1,0-0.3-0.1-0.3-0.3c0-0.2,0.1-0.4,0.2-0.4c0.4-0.1,0.8-0.2,1.1-0.3
				c0.2,0,0.4,0.1,0.4,0.2c0,0.2-0.1,0.4-0.2,0.4C120.2,30.8,119.9,30.9,119.4,31C119.5,31,119.4,31,119.4,31z M150.4,30.5
				C150.4,30.5,150.3,30.5,150.4,30.5c-0.5-0.1-0.8-0.2-1.2-0.3c-0.2,0-0.3-0.2-0.2-0.4c0-0.2,0.2-0.3,0.4-0.2
				c0.4,0.1,0.8,0.2,1.1,0.3c0.2,0,0.3,0.2,0.2,0.4C150.7,30.4,150.5,30.5,150.4,30.5z M121.7,30.4c-0.2,0-0.3-0.1-0.3-0.3
				c0-0.2,0.1-0.4,0.3-0.4c0.4-0.1,0.8-0.2,1.1-0.2c0.2,0,0.4,0.1,0.4,0.3c0,0.2-0.1,0.4-0.3,0.4C122.5,30.2,122.1,30.3,121.7,30.4
				C121.7,30.4,121.7,30.4,121.7,30.4z M148.1,30C148.1,30,148.1,30,148.1,30c-0.4-0.1-0.8-0.2-1.2-0.2c-0.2,0-0.3-0.2-0.3-0.4
				c0-0.2,0.2-0.3,0.4-0.3c0.4,0.1,0.8,0.2,1.1,0.2c0.2,0,0.3,0.2,0.3,0.4C148.4,29.9,148.3,30,148.1,30z M123.9,29.9
				c-0.2,0-0.3-0.1-0.3-0.3c0-0.2,0.1-0.4,0.3-0.4c0.4-0.1,0.8-0.1,1.1-0.2c0.2,0,0.4,0.1,0.4,0.3c0,0.2-0.1,0.4-0.3,0.4
				C124.8,29.8,124.4,29.9,123.9,29.9C124,29.9,124,29.9,123.9,29.9z M145.9,29.6C145.8,29.6,145.8,29.6,145.9,29.6
				c-0.4-0.1-0.8-0.1-1.2-0.2c-0.2,0-0.3-0.2-0.3-0.4c0-0.2,0.2-0.3,0.4-0.3c0.4,0.1,0.8,0.1,1.2,0.2c0.2,0,0.3,0.2,0.3,0.4
				C146.2,29.5,146,29.6,145.9,29.6z M126.2,29.6c-0.2,0-0.3-0.1-0.3-0.3c0-0.2,0.1-0.4,0.3-0.4c0.4-0.1,0.8-0.1,1.2-0.2
				c0.2,0,0.4,0.1,0.4,0.3c0,0.2-0.1,0.4-0.3,0.4C127,29.4,126.7,29.5,126.2,29.6C126.3,29.6,126.2,29.6,126.2,29.6z M143.6,29.2
				C143.5,29.2,143.5,29.2,143.6,29.2c-0.4-0.1-0.8-0.1-1.2-0.1c-0.2,0-0.3-0.2-0.3-0.4c0-0.2,0.2-0.3,0.4-0.3
				c0.4,0,0.8,0.1,1.2,0.1c0.2,0,0.3,0.2,0.3,0.4C143.9,29.1,143.7,29.2,143.6,29.2z M128.5,29.2c-0.2,0-0.3-0.1-0.3-0.3
				c0-0.2,0.1-0.4,0.3-0.4c0.4,0,0.8-0.1,1.2-0.1c0.2,0,0.3,0.1,0.4,0.3c0,0.2-0.1,0.3-0.3,0.4C129.3,29.1,128.9,29.2,128.5,29.2
				C128.5,29.2,128.5,29.2,128.5,29.2z M130.8,29c-0.2,0-0.3-0.1-0.3-0.3c0-0.2,0.1-0.3,0.3-0.4c0.4,0,0.8-0.1,1.2-0.1
				c0.2,0,0.3,0.1,0.4,0.3c0,0.2-0.1,0.3-0.3,0.4C131.6,28.9,131.2,29,130.8,29C130.8,29,130.8,29,130.8,29z M141.3,29
				C141.2,29,141.2,29,141.3,29c-0.4,0-0.8-0.1-1.2-0.1c-0.2,0-0.3-0.2-0.3-0.4c0-0.2,0.2-0.3,0.4-0.3c0.4,0,0.8,0.1,1.2,0.1
				c0.2,0,0.3,0.2,0.3,0.4C141.6,28.9,141.4,29,141.3,29z M133.1,28.8c-0.2,0-0.3-0.1-0.3-0.3c0-0.2,0.1-0.3,0.3-0.4
				c0.4,0,0.8,0,1.2,0c0.2,0,0.3,0.1,0.3,0.3c0,0.2-0.1,0.3-0.3,0.3C133.9,28.8,133.5,28.8,133.1,28.8
				C133.2,28.8,133.1,28.8,133.1,28.8z M138.9,28.8C138.9,28.8,138.9,28.8,138.9,28.8c-0.4,0-0.8,0-1.2,0c-0.2,0-0.3-0.2-0.3-0.3
				c0-0.2,0.2-0.3,0.3-0.3c0.4,0,0.8,0,1.2,0c0.2,0,0.3,0.2,0.3,0.4C139.3,28.7,139.1,28.8,138.9,28.8z M135.5,28.8
				c-0.2,0-0.3-0.1-0.3-0.3c0-0.2,0.1-0.3,0.3-0.3c0.4,0,0.8,0,1.2,0c0.2,0,0.3,0.2,0.3,0.3c0,0.2-0.2,0.3-0.3,0.3c0,0,0,0,0,0
				C136.2,28.8,135.8,28.8,135.5,28.8C135.5,28.8,135.5,28.8,135.5,28.8z"/>
			<path class="st9" d="M189,81.2C189,81.2,189,81.2,189,81.2c-0.2,0-0.4-0.2-0.3-0.4c0,0,0-0.2,0-0.6c0-0.2,0.2-0.3,0.3-0.3
				c0.2,0,0.3,0.2,0.3,0.3c0,0.4,0,0.6,0,0.6C189.3,81.1,189.2,81.2,189,81.2z"/>
		</g>
		<g>
			<path class="st9" d="M63.1,62.9C63.1,62.9,63.1,62.9,63.1,62.9c-0.2,0-0.3,0-0.5-0.1c-0.1,0-0.3-0.1-0.2-0.3
				c0-0.1,0.1-0.3,0.3-0.2c0.2,0,0.3,0,0.5,0.1c0.1,0,0.3,0.1,0.2,0.3C63.3,62.8,63.2,62.9,63.1,62.9z"/>
			<path class="st9" d="M13.2,97.5C13.2,97.5,13.2,97.5,13.2,97.5c-0.2,0-0.3-0.2-0.3-0.3c0-0.3,0.1-0.6,0.1-0.9
				c0-0.1,0.2-0.2,0.3-0.2c0.1,0,0.2,0.2,0.2,0.3c0,0.3-0.1,0.6-0.1,0.9C13.4,97.4,13.3,97.5,13.2,97.5z M13.5,95.6
				C13.5,95.6,13.4,95.6,13.5,95.6c-0.2,0-0.3-0.2-0.3-0.3c0.1-0.3,0.1-0.6,0.2-0.9c0-0.1,0.2-0.2,0.3-0.2c0.1,0,0.2,0.2,0.2,0.3
				c-0.1,0.3-0.1,0.6-0.2,0.9C13.7,95.5,13.6,95.6,13.5,95.6z M13.8,93.8C13.8,93.8,13.8,93.8,13.8,93.8c-0.2,0-0.3-0.2-0.3-0.3
				c0.1-0.3,0.1-0.6,0.2-0.9c0-0.1,0.2-0.2,0.3-0.2c0.1,0,0.2,0.2,0.2,0.3c-0.1,0.3-0.1,0.6-0.2,0.9C14.1,93.8,14,93.8,13.8,93.8z
				 M14.3,92C14.3,92,14.2,92,14.3,92c-0.2,0-0.3-0.2-0.3-0.3c0.1-0.3,0.2-0.6,0.2-0.9c0-0.1,0.2-0.2,0.3-0.2c0.1,0,0.2,0.2,0.2,0.3
				c-0.1,0.3-0.2,0.6-0.2,0.9C14.5,92,14.4,92,14.3,92z M14.8,90.3C14.8,90.3,14.7,90.3,14.8,90.3c-0.2-0.1-0.3-0.2-0.3-0.3
				c0.1-0.3,0.2-0.6,0.3-0.9c0-0.1,0.2-0.2,0.3-0.2c0.1,0,0.2,0.2,0.2,0.3c-0.1,0.3-0.2,0.6-0.3,0.9C15,90.2,14.9,90.3,14.8,90.3z
				 M15.4,88.5C15.3,88.5,15.3,88.5,15.4,88.5c-0.2-0.1-0.3-0.2-0.3-0.4c0.1-0.3,0.2-0.6,0.3-0.9c0.1-0.1,0.2-0.2,0.3-0.2
				c0.1,0.1,0.2,0.2,0.2,0.3c-0.1,0.3-0.2,0.6-0.3,0.9C15.6,88.5,15.5,88.5,15.4,88.5z M16,86.8C16,86.8,15.9,86.8,16,86.8
				c-0.2-0.1-0.3-0.2-0.2-0.4c0.1-0.3,0.2-0.6,0.3-0.9c0.1-0.1,0.2-0.2,0.3-0.1c0.1,0.1,0.2,0.2,0.1,0.4c-0.1,0.3-0.2,0.6-0.3,0.8
				C16.2,86.7,16.1,86.8,16,86.8z M16.7,85.1c0,0-0.1,0-0.1,0c-0.1-0.1-0.2-0.2-0.1-0.4c0.1-0.3,0.3-0.6,0.4-0.8
				c0.1-0.1,0.2-0.2,0.4-0.1c0.1,0.1,0.2,0.2,0.1,0.4c-0.1,0.3-0.3,0.6-0.4,0.8C16.9,85.1,16.8,85.1,16.7,85.1z M17.5,83.5
				c0,0-0.1,0-0.1,0c-0.1-0.1-0.2-0.2-0.1-0.4c0.1-0.3,0.3-0.6,0.4-0.8c0.1-0.1,0.2-0.2,0.4-0.1c0.1,0.1,0.2,0.2,0.1,0.4
				c-0.1,0.3-0.3,0.5-0.4,0.8C17.7,83.4,17.6,83.5,17.5,83.5z M18.3,81.8c0,0-0.1,0-0.1,0c-0.1-0.1-0.2-0.2-0.1-0.4
				c0.1-0.3,0.3-0.5,0.5-0.8c0.1-0.1,0.2-0.2,0.4-0.1c0.1,0.1,0.2,0.2,0.1,0.4c-0.2,0.3-0.3,0.5-0.5,0.8
				C18.5,81.8,18.4,81.8,18.3,81.8z M19.3,80.2c0,0-0.1,0-0.1,0C19,80.1,19,80,19,79.8c0.2-0.3,0.3-0.5,0.5-0.8
				c0.1-0.1,0.2-0.2,0.4-0.1c0.1,0.1,0.2,0.2,0.1,0.4c-0.2,0.3-0.3,0.5-0.5,0.8C19.4,80.2,19.4,80.2,19.3,80.2z M20.3,78.7
				c-0.1,0-0.1,0-0.2,0C20,78.6,20,78.4,20,78.3c0.2-0.3,0.4-0.5,0.5-0.8c0.1-0.1,0.3-0.1,0.4-0.1c0.1,0.1,0.1,0.3,0.1,0.4
				c-0.2,0.2-0.4,0.5-0.5,0.7C20.4,78.7,20.4,78.7,20.3,78.7z M21.3,77.2c-0.1,0-0.1,0-0.2-0.1c-0.1-0.1-0.1-0.3-0.1-0.4
				c0.2-0.2,0.4-0.5,0.6-0.7c0.1-0.1,0.3-0.1,0.4,0c0.1,0.1,0.1,0.3,0,0.4c-0.2,0.2-0.4,0.5-0.6,0.7C21.5,77.2,21.4,77.2,21.3,77.2z
				 M22.5,75.8c-0.1,0-0.1,0-0.2-0.1c-0.1-0.1-0.1-0.3,0-0.4c0.2-0.2,0.4-0.5,0.6-0.7c0.1-0.1,0.3-0.1,0.4,0c0.1,0.1,0.1,0.3,0,0.4
				c-0.2,0.2-0.4,0.5-0.6,0.7C22.6,75.7,22.6,75.8,22.5,75.8z M23.7,74.4c-0.1,0-0.1,0-0.2-0.1c-0.1-0.1-0.1-0.3,0-0.4
				c0.2-0.2,0.4-0.5,0.6-0.7c0.1-0.1,0.3-0.1,0.4,0c0.1,0.1,0.1,0.3,0,0.4c-0.2,0.2-0.4,0.4-0.6,0.7C23.8,74.4,23.8,74.4,23.7,74.4z
				 M25,73.1c-0.1,0-0.1,0-0.2-0.1c-0.1-0.1-0.1-0.3,0-0.4c0.2-0.2,0.4-0.4,0.7-0.6c0.1-0.1,0.3-0.1,0.4,0c0.1,0.1,0.1,0.3,0,0.4
				c-0.2,0.2-0.4,0.4-0.7,0.6C25.1,73.1,25,73.1,25,73.1z M26.3,71.8c-0.1,0-0.1,0-0.2-0.1c-0.1-0.1-0.1-0.3,0-0.4
				c0.2-0.2,0.5-0.4,0.7-0.6c0.1-0.1,0.3-0.1,0.4,0c0.1,0.1,0.1,0.3,0,0.4c-0.2,0.2-0.5,0.4-0.7,0.6C26.4,71.8,26.4,71.8,26.3,71.8z
				 M27.7,70.7c-0.1,0-0.2,0-0.2-0.1c-0.1-0.1-0.1-0.3,0-0.4c0.2-0.2,0.5-0.4,0.7-0.6c0.1-0.1,0.3-0.1,0.4,0.1
				c0.1,0.1,0.1,0.3-0.1,0.4c-0.2,0.2-0.5,0.4-0.7,0.6C27.8,70.6,27.8,70.7,27.7,70.7z M29.2,69.6c-0.1,0-0.2,0-0.2-0.1
				c-0.1-0.1-0.1-0.3,0.1-0.4c0.3-0.2,0.5-0.4,0.8-0.5c0.1-0.1,0.3,0,0.4,0.1c0.1,0.1,0,0.3-0.1,0.4c-0.3,0.2-0.5,0.3-0.8,0.5
				C29.3,69.5,29.3,69.6,29.2,69.6z M30.7,68.5c-0.1,0-0.2,0-0.2-0.1c-0.1-0.1,0-0.3,0.1-0.4c0.3-0.2,0.5-0.3,0.8-0.5
				c0.1-0.1,0.3,0,0.4,0.1c0.1,0.1,0,0.3-0.1,0.4c-0.3,0.2-0.5,0.3-0.8,0.5C30.8,68.5,30.8,68.5,30.7,68.5z M32.3,67.6
				c-0.1,0-0.2,0-0.2-0.1c-0.1-0.1,0-0.3,0.1-0.4c0.3-0.1,0.5-0.3,0.8-0.4c0.1-0.1,0.3,0,0.4,0.1c0.1,0.1,0,0.3-0.1,0.4
				c-0.3,0.1-0.5,0.3-0.8,0.4C32.4,67.6,32.3,67.6,32.3,67.6z M33.9,66.8c-0.1,0-0.2-0.1-0.2-0.1c-0.1-0.1,0-0.3,0.1-0.4
				c0.3-0.1,0.6-0.3,0.8-0.4c0.1-0.1,0.3,0,0.4,0.1c0.1,0.1,0,0.3-0.1,0.4c-0.3,0.1-0.6,0.3-0.8,0.4C34,66.7,34,66.8,33.9,66.8z
				 M35.6,66c-0.1,0-0.2-0.1-0.2-0.2c-0.1-0.1,0-0.3,0.1-0.4c0.3-0.1,0.6-0.2,0.9-0.4c0.1-0.1,0.3,0,0.3,0.1c0.1,0.1,0,0.3-0.1,0.3
				c-0.3,0.1-0.6,0.2-0.8,0.4C35.7,66,35.6,66,35.6,66z M37.3,65.3c-0.1,0-0.2-0.1-0.2-0.2c-0.1-0.1,0-0.3,0.2-0.3
				c0.3-0.1,0.6-0.2,0.9-0.3c0.1,0,0.3,0,0.3,0.2c0,0.1,0,0.3-0.2,0.3C37.9,65.1,37.7,65.2,37.3,65.3C37.3,65.3,37.3,65.3,37.3,65.3
				z M39,64.7c-0.1,0-0.2-0.1-0.3-0.2c0-0.1,0-0.3,0.2-0.3c0.3-0.1,0.6-0.2,0.9-0.3c0.1,0,0.3,0,0.3,0.2c0,0.1,0,0.3-0.2,0.3
				C39.7,64.5,39.4,64.6,39,64.7C39.1,64.7,39,64.7,39,64.7z M40.8,64.1c-0.1,0-0.2-0.1-0.3-0.2c0-0.1,0-0.3,0.2-0.3
				c0.3-0.1,0.6-0.2,0.9-0.2c0.1,0,0.3,0,0.3,0.2c0,0.1,0,0.3-0.2,0.3C41.4,64,41.1,64.1,40.8,64.1C40.8,64.1,40.8,64.1,40.8,64.1z
				 M42.5,63.7c-0.1,0-0.2-0.1-0.3-0.2c0-0.1,0.1-0.3,0.2-0.3c0.3-0.1,0.6-0.1,0.9-0.2c0.1,0,0.3,0.1,0.3,0.2c0,0.1-0.1,0.3-0.2,0.3
				C43.2,63.5,42.9,63.6,42.5,63.7C42.6,63.7,42.6,63.7,42.5,63.7z M44.3,63.3c-0.1,0-0.2-0.1-0.3-0.2c0-0.1,0.1-0.3,0.2-0.3
				c0.3-0.1,0.6-0.1,0.9-0.2c0.1,0,0.3,0.1,0.3,0.2c0,0.1-0.1,0.3-0.2,0.3C45,63.2,44.7,63.2,44.3,63.3
				C44.4,63.3,44.4,63.3,44.3,63.3z M46.1,63c-0.1,0-0.2-0.1-0.3-0.2c0-0.1,0.1-0.3,0.2-0.3c0.3,0,0.6-0.1,0.9-0.1
				c0.1,0,0.3,0.1,0.3,0.2c0,0.1-0.1,0.3-0.2,0.3C46.8,62.9,46.5,62.9,46.1,63C46.2,63,46.2,63,46.1,63z M48,62.7
				c-0.1,0-0.2-0.1-0.3-0.2c0-0.1,0.1-0.3,0.2-0.3c0.3,0,0.6-0.1,0.9-0.1c0.1,0,0.3,0.1,0.3,0.2c0,0.1-0.1,0.3-0.2,0.3
				C48.6,62.7,48.3,62.7,48,62.7C48,62.7,48,62.7,48,62.7z M61.7,62.7C61.7,62.7,61.7,62.7,61.7,62.7c-0.3,0-0.6-0.1-0.9-0.1
				c-0.1,0-0.3-0.1-0.2-0.3c0-0.1,0.1-0.3,0.3-0.2c0.3,0,0.6,0.1,0.9,0.1c0.1,0,0.3,0.1,0.2,0.3C62,62.6,61.8,62.7,61.7,62.7z
				 M59.9,62.6C59.9,62.6,59.9,62.6,59.9,62.6c-0.3,0-0.6,0-0.9-0.1c-0.1,0-0.3-0.1-0.3-0.3c0-0.1,0.1-0.3,0.3-0.3
				c0.3,0,0.6,0,0.9,0.1c0.1,0,0.3,0.1,0.2,0.3C60.1,62.5,60,62.6,59.9,62.6z M49.8,62.6c-0.1,0-0.3-0.1-0.3-0.2
				c0-0.1,0.1-0.3,0.2-0.3c0.3,0,0.6,0,0.9-0.1c0.1,0,0.3,0.1,0.3,0.2c0,0.1-0.1,0.3-0.2,0.3C50.4,62.5,50.1,62.5,49.8,62.6
				C49.8,62.6,49.8,62.6,49.8,62.6z M58,62.4C58,62.4,58,62.4,58,62.4c-0.3,0-0.6,0-0.9,0c-0.1,0-0.3-0.1-0.3-0.3
				c0-0.1,0.1-0.3,0.3-0.3c0.3,0,0.6,0,0.9,0c0.1,0,0.3,0.1,0.3,0.3C58.3,62.3,58.2,62.4,58,62.4z M51.6,62.4
				c-0.1,0-0.3-0.1-0.3-0.3c0-0.1,0.1-0.3,0.3-0.3c0.3,0,0.6,0,0.9,0c0.1,0,0.3,0.1,0.3,0.3c0,0.1-0.1,0.3-0.3,0.3
				C52.2,62.4,51.9,62.4,51.6,62.4C51.6,62.4,51.6,62.4,51.6,62.4z M56.2,62.4C56.2,62.4,56.2,62.4,56.2,62.4c-0.3,0-0.6,0-0.9,0
				c-0.1,0-0.3-0.1-0.3-0.3c0-0.1,0.1-0.3,0.3-0.3c0.3,0,0.6,0,0.9,0c0.1,0,0.3,0.1,0.3,0.3C56.5,62.3,56.4,62.4,56.2,62.4z
				 M53.5,62.4c-0.1,0-0.3-0.1-0.3-0.3c0-0.1,0.1-0.3,0.3-0.3c0.3,0,0.6,0,0.9,0c0,0,0,0,0,0c0.1,0,0.3,0.1,0.3,0.3
				c0,0.1-0.1,0.3-0.3,0.3C54.1,62.4,53.8,62.4,53.5,62.4C53.5,62.4,53.5,62.4,53.5,62.4z"/>
			<path class="st9" d="M13,98.8C13,98.8,13,98.8,13,98.8c-0.2,0-0.3-0.1-0.3-0.3c0,0,0-0.2,0-0.5c0-0.1,0.1-0.3,0.3-0.2
				c0.1,0,0.3,0.1,0.2,0.3c0,0.3,0,0.4,0,0.4C13.3,98.7,13.2,98.8,13,98.8z"/>
		</g>
	</g>
	<path class="st3" d="M198.1,148.9H1.9c-0.1,0-0.2-0.1-0.2-0.3l0,0c0-0.2,0.1-0.3,0.2-0.3h196.1c0.1,0,0.2,0.1,0.2,0.3v0
		C198.3,148.8,198.2,148.9,198.1,148.9z"/>
</g>
<g>
	<path class="st13" d="M105.8,105.4"/>
	<path class="st13" d="M105.8,105.4"/>
	<path class="st13" d="M105.6,103.3c-0.1-0.1-0.2,0.1-0.1,0.2c2.2,1.6,1.1,5.1-1.6,5.1v-0.5c1.1,0.3,2.3-0.9,1.9-2
		c0,0,0-0.1-0.1-0.1c-0.2,0-0.3-0.1-0.5,0c0.5-0.4,0.8-1.1,0.6-1.7c0,0,0-0.1-0.1-0.1c-0.4-0.1-0.9,0-1.3,0.2
		c0.1-0.2,0.1-0.5,0.1-0.8c0-0.6-0.3-1.1-0.8-1.4c0,0-0.1,0-0.1,0c-0.5,0.3-0.8,0.8-0.8,1.4c0,0.3,0,0.5,0.1,0.8
		c-0.4-0.2-0.8-0.3-1.3-0.2c0,0-0.1,0-0.1,0.1c-0.2,0.6,0.1,1.3,0.6,1.7c-0.2,0-0.3,0-0.5,0c0,0-0.1,0-0.1,0.1
		c-0.3,1.1,0.8,2.3,1.9,2v0.5c-2.7-0.1-3.8-3.5-1.6-5.1c0,0,0.1-0.1,0-0.1c0,0-0.1-0.1-0.1,0c-0.8,0.6-1.2,1.5-1.2,2.4
		c0,1.7,1.4,3.1,3.1,3.1C106.7,108.8,108,105.1,105.6,103.3z M105.7,106.2c0.2,1-0.8,2-1.7,1.7C103.7,106.9,104.7,105.9,105.7,106.2
		z M105.7,104.4c0.2,1-0.8,2-1.7,1.7C103.7,105.1,104.7,104.1,105.7,104.4z M103.2,103.6c0-0.5,0.2-0.9,0.6-1.2
		c0.4,0.3,0.7,0.8,0.6,1.3c0,0.5-0.2,0.9-0.6,1.2C103.4,104.6,103.1,104.1,103.2,103.6z M101.9,104.4c1-0.2,2,0.8,1.7,1.7
		C102.7,106.3,101.7,105.3,101.9,104.4z M103.7,107.9c-1,0.2-2-0.8-1.7-1.7C102.9,105.9,103.9,106.9,103.7,107.9z"/>
	<g>
		<g>
			<path class="st13" d="M101.1,110L101.1,110C101.2,110.1,101.1,110.1,101.1,110c-1.2,0.5-1.2-1.2,0-0.8l0,0c0,0.1,0,0.1,0,0.2
				h-0.1c0-0.1,0-0.1-0.1-0.2c-0.4-0.1-0.6,0.4-0.4,0.7C100.7,110.1,101,110.1,101.1,110z"/>
			<path class="st13" d="M101.2,110.2L101.2,110.2C101.3,110.1,101.3,110.1,101.2,110.2C101.3,110.1,101.3,110.1,101.2,110.2
				c0.1-0.2,0.1-0.4,0.1-0.5c0,0,0,0-0.1,0v-0.1c0.1,0,0.2,0,0.2,0l0.1,0c0,0,0,0,0,0c0,0,0,0.1,0,0.1c0.1-0.1,0.1-0.2,0.2-0.1
				c0,0,0,0.1,0,0.2l0,0c0-0.1-0.2-0.1-0.2,0c0,0,0,0.3,0,0.3c0,0,0,0,0.1,0v0.1C101.5,110.2,101.4,110.2,101.2,110.2z"/>
			<path class="st13" d="M101.8,109.9c0-0.2,0.1-0.3,0.3-0.3c0.2,0,0.3,0.1,0.3,0.3C102.5,110.3,101.8,110.3,101.8,109.9z
				 M102,109.8c0,0.1,0,0.2,0,0.3c0,0.1,0.2,0.1,0.2,0c0,0,0-0.1,0-0.2c0-0.1,0-0.2,0-0.3c0-0.1-0.2-0.1-0.2,0
				C102,109.7,102,109.7,102,109.8z"/>
			<path class="st13" d="M102.6,109.6L102.6,109.6c0.1-0.1,0.1-0.1,0.2-0.1l0.1,0c0,0,0,0,0,0.1l0,0.1l0.1-0.1
				c0.2-0.1,0.4,0,0.4,0.2c0,0.1,0,0.2-0.1,0.3c-0.1,0.1-0.2,0.1-0.3,0.1l0,0.2c0,0.1,0,0.1,0.1,0.1v0.1c-0.1,0-0.3,0-0.4,0v-0.1
				c0,0,0.1,0,0.1,0c0-0.1,0-0.4,0-0.4c0,0,0-0.3,0-0.3C102.7,109.7,102.7,109.7,102.6,109.6C102.6,109.6,102.6,109.6,102.6,109.6z
				 M102.8,110c0.1,0.2,0.3,0,0.3-0.2c0-0.2-0.2-0.3-0.3-0.2V110z"/>
			<path class="st13" d="M103.5,110C103.5,110,103.5,110.1,103.5,110c0.1,0.2,0.3,0.2,0.3,0.1c0-0.1,0-0.1-0.1-0.1
				C103.6,109.9,103.5,109.9,103.5,110c-0.1-0.1-0.1-0.3,0-0.3c0.1-0.1,0.3-0.1,0.4-0.1c0,0,0,0.1,0,0.2h-0.1c0,0,0-0.1,0-0.1
				c-0.1-0.1-0.3,0-0.2,0.1c0,0,0.2,0,0.2,0.1c0.1,0.1,0.1,0.3,0,0.3c-0.1,0.1-0.3,0.1-0.4,0l0,0C103.4,110.1,103.4,110,103.5,110
				L103.5,110z"/>
			<path class="st13" d="M104.4,110.2L104.4,110.2c0.1-0.1,0.1,0,0.1-0.1c0,0,0-0.1,0-0.2c0-0.1,0-0.5,0-0.6c0,0,0,0-0.1,0v-0.1
				c0.2,0,0.3,0,0.4,0v0.1c-0.1,0-0.1,0-0.1,0c0,0.1,0,0.2,0,0.3c0.1,0,0.3,0,0.4,0c0-0.2,0-0.3,0-0.3c0,0,0,0-0.1,0v-0.1
				c0.2,0,0.3,0,0.4,0v0.1c-0.1,0-0.1,0-0.1,0c0,0,0,0,0,0c0,0.2,0,0.5,0,0.7c0,0.1,0,0.1,0.1,0.2v0.1c-0.2,0-0.3,0-0.4,0v-0.1
				c0.1,0,0.1,0,0.1,0c0-0.1,0-0.2,0-0.4c-0.1,0-0.3,0-0.4,0c0,0.1,0,0.3,0,0.3c0,0.1,0,0.1,0.1,0.1v0.1c-0.1,0-0.2,0-0.2,0
				L104.4,110.2z"/>
			<path class="st13" d="M106.2,110.1L106.2,110.1c-0.1,0.1-0.2,0-0.3,0.1l0,0l0-0.1l-0.1,0.1c-0.1,0-0.1,0-0.2,0
				c-0.1-0.1-0.1-0.2,0-0.3c0,0,0.1-0.1,0.3-0.1c0-0.1-0.1-0.2-0.2-0.1l0,0.1l0,0l0,0c0,0,0,0,0-0.1c0.1-0.1,0.3-0.1,0.4,0
				C106.1,109.7,106.1,110,106.2,110.1C106.1,110.1,106.1,110.1,106.2,110.1z M105.9,109.8c-0.1,0-0.1,0-0.2,0.1
				c-0.1,0.1,0,0.2,0.2,0.1V109.8z"/>
			<path class="st13" d="M106.9,110.1L106.9,110.1c-0.1,0.1-0.2,0-0.3,0.1l0,0l0-0.1l-0.1,0.1c-0.1,0-0.1,0-0.2,0
				c-0.1-0.1-0.1-0.2,0-0.3c0,0,0.1-0.1,0.3-0.1c0-0.1-0.1-0.2-0.2-0.1l0,0.1l0,0l0,0c0,0,0,0,0-0.1c0.1-0.1,0.3-0.1,0.4,0
				C106.8,109.7,106.8,110,106.9,110.1C106.8,110.1,106.8,110.1,106.9,110.1z M106.6,109.8c-0.1,0-0.1,0-0.2,0.1
				c-0.1,0.1,0,0.2,0.2,0.1V109.8z"/>
			<path class="st13" d="M106.9,109.6L106.9,109.6c0.1-0.1,0.1-0.2,0.1-0.3c0.1,0,0.1,0,0.2-0.1l0,0c0,0.1,0,0.2,0,0.3
				c0.1,0,0.1,0,0.2,0l0,0c0,0,0,0.1,0,0.1c-0.1,0-0.1,0-0.2,0c0,0.1,0,0.4,0,0.4c0,0,0.1,0,0.1,0l0,0c0,0-0.1,0.1-0.1,0.1
				c-0.1,0-0.2,0-0.2-0.1C107,110,107,109.8,106.9,109.6L106.9,109.6C107,109.7,106.9,109.7,106.9,109.6L106.9,109.6z"/>
		</g>
	</g>
</g>
<g>
	<path class="st13" d="M45.2,119"/>
	<path class="st13" d="M45.2,119"/>
	<path class="st13" d="M44.9,116.2c-0.1-0.1-0.3,0.1-0.2,0.2c2.8,2.1,1.4,6.6-2.1,6.7v-0.7c1.5,0.4,3-1.2,2.5-2.7c0,0,0-0.1-0.1-0.1
		c-0.2-0.1-0.4-0.1-0.7-0.1c0.6-0.5,1-1.4,0.8-2.2c0,0,0-0.1-0.1-0.1c-0.6-0.2-1.2,0-1.7,0.3c0.1-0.3,0.2-0.7,0.2-1
		c0-0.7-0.4-1.4-1-1.8c0,0-0.1,0-0.1,0c-0.6,0.4-1,1-1,1.8c0,0.3,0,0.7,0.2,1c-0.5-0.3-1.1-0.4-1.7-0.3c0,0-0.1,0-0.1,0.1
		c-0.2,0.8,0.1,1.7,0.8,2.2c-0.2,0-0.4,0-0.7,0.1c0,0-0.1,0-0.1,0.1c-0.4,1.5,1.1,3,2.5,2.7v0.7c-3.5-0.1-4.9-4.6-2.1-6.7
		c0.1,0,0.1-0.1,0-0.2c0-0.1-0.1-0.1-0.2,0c-1,0.8-1.6,1.9-1.6,3.2c0,2.2,1.8,4,4,4C46.4,123.4,48,118.5,44.9,116.2z M45,119.9
		c0.3,1.3-1,2.6-2.3,2.3C42.4,120.9,43.7,119.6,45,119.9z M45,117.6c0.3,1.3-1,2.6-2.3,2.3C42.4,118.6,43.7,117.3,45,117.6z
		 M41.7,116.6c0-0.6,0.3-1.2,0.8-1.5c0.6,0.4,0.9,1,0.8,1.7c0,0.6-0.3,1.2-0.8,1.5C42,118,41.7,117.3,41.7,116.6z M40.1,117.6
		c1.3-0.3,2.6,1,2.3,2.3C41.1,120.2,39.8,118.9,40.1,117.6z M42.4,122.2c-1.3,0.3-2.6-1-2.3-2.3C41.4,119.6,42.7,120.9,42.4,122.2z"
		/>
	<g>
		<g>
			<path class="st13" d="M39.1,125L39.1,125c0,0.1,0,0.1,0,0.1c-1.5,0.6-1.6-1.7,0-1.1l0,0c0,0.1,0,0.2,0,0.3H39
				c0-0.2,0-0.2-0.2-0.3c-0.6-0.2-0.8,0.5-0.5,0.9C38.5,125.1,38.8,125.1,39.1,125z"/>
			<path class="st13" d="M39.2,125.2L39.2,125.2c0.1-0.1,0.1-0.1,0.1-0.1c0,0,0,0,0,0c0-0.1,0-0.5,0-0.6c0-0.1,0,0-0.1,0v-0.1
				c0.1,0,0.2,0,0.3,0l0.1,0c0,0,0,0,0,0c0,0,0,0.1,0,0.2c0.1-0.1,0.2-0.2,0.3-0.2c0,0.1,0,0.1,0,0.2l0,0c0-0.1-0.2-0.1-0.2,0
				c0,0,0,0.4,0,0.4c0,0.1,0.1,0,0.2,0.1v0.1C39.5,125.2,39.3,125.2,39.2,125.2z"/>
			<path class="st13" d="M39.9,124.8c0-0.3,0.2-0.4,0.4-0.4c0.3,0,0.4,0.1,0.4,0.4C40.8,125.3,39.9,125.4,39.9,124.8z M40.2,124.7
				c0,0.2,0,0.3,0.1,0.3c0.1,0.1,0.2,0.1,0.3,0c0,0,0-0.1,0-0.2c0-0.2,0-0.3-0.1-0.3c-0.1-0.1-0.2-0.1-0.3,0
				C40.2,124.5,40.2,124.6,40.2,124.7z"/>
			<path class="st13" d="M40.9,124.5L40.9,124.5c0.1-0.1,0.2-0.1,0.3-0.1l0.1,0c0,0,0,0,0,0.1l0,0.1l0.1-0.1c0.2-0.1,0.5,0,0.5,0.3
				c0,0.2,0,0.3-0.2,0.4c-0.2,0.2-0.2,0.2-0.4,0.1l0,0.3c0,0.1,0,0.1,0.2,0.1v0.1c-0.2,0-0.4,0-0.5,0v-0.1c0.1,0,0.1,0,0.1,0
				c0-0.1,0-0.5,0-0.5c0,0,0-0.4,0-0.4c0-0.1,0-0.2,0-0.2C41,124.5,41,124.5,40.9,124.5z M41.3,125c0.2,0.2,0.4,0.1,0.4-0.2
				c0-0.3-0.2-0.4-0.4-0.2V125z"/>
			<path class="st13" d="M42.1,124.9c0,0.1,0,0.1,0,0.1c0.1,0.1,0.4,0.1,0.4,0c0-0.1-0.1-0.1-0.2-0.1c-0.1,0-0.2,0-0.2-0.1
				c-0.1-0.1-0.1-0.2-0.1-0.3c0.1-0.2,0.4-0.2,0.6-0.1c0,0,0,0.1,0,0.2h-0.1c0-0.1,0-0.1,0-0.1c-0.1-0.1-0.4,0-0.3,0.1
				c0,0,0.3,0.1,0.3,0.1c0.2,0.1,0.2,0.3,0,0.4c-0.2,0.1-0.4,0.1-0.5,0l0,0C42.1,125.1,42.1,125,42.1,124.9L42.1,124.9z"/>
			<path class="st13" d="M43.3,125.2L43.3,125.2c0.1-0.1,0.1-0.1,0.2-0.1c0,0,0-0.1,0-0.2c0-0.1,0-0.7,0-0.8c0,0-0.1,0-0.2,0v-0.1
				c0.2,0,0.4,0,0.6,0v0.1c-0.1,0-0.1,0-0.1,0c0,0.1,0,0.3,0,0.4c0.1,0,0.5,0,0.6,0c0-0.2,0-0.3,0-0.4c0,0-0.1,0-0.1,0v-0.1
				c0.3,0,0.3,0,0.6,0v0.1c-0.1,0-0.1,0-0.1,0c0,0,0,0,0,0c0,0.2,0,0.6,0,0.9c0,0.2,0,0.2,0.2,0.2v0.1c-0.2,0-0.4,0-0.6,0v-0.1
				c0.1,0,0.1,0,0.1,0c0-0.1,0-0.2,0-0.5c-0.2,0-0.4,0-0.6,0c0,0.1,0,0.3,0,0.4c0,0.1,0,0.1,0.2,0.1v0.1c-0.1,0-0.2,0-0.3,0
				L43.3,125.2z"/>
			<path class="st13" d="M45.6,125.1L45.6,125.1c-0.1,0.1-0.2,0.1-0.3,0.1l0,0l0-0.1l-0.2,0.1c-0.1,0-0.2,0-0.2,0
				c-0.1-0.1-0.1-0.3,0-0.4c0.1,0,0.2-0.1,0.4-0.1c0-0.2-0.1-0.3-0.3-0.2l0,0.1l-0.1,0l0,0c0,0,0-0.1,0-0.1c0.2-0.1,0.4-0.2,0.6,0
				c0.1,0.2,0,0.5,0,0.6C45.5,125.1,45.6,125.1,45.6,125.1z M45.3,124.7c-0.1,0-0.2,0-0.2,0.1c-0.1,0.2,0.1,0.3,0.2,0.1V124.7z"/>
			<path class="st13" d="M46.5,125.1L46.5,125.1c-0.1,0.1-0.2,0.1-0.3,0.1l0,0l0-0.1l-0.2,0.1c-0.1,0-0.2,0-0.2,0
				c-0.1-0.1-0.1-0.3,0-0.4c0.1,0,0.2-0.1,0.4-0.1c0-0.2-0.1-0.3-0.3-0.2l0,0.1l-0.1,0l0,0c0,0,0-0.1,0-0.1c0.2-0.1,0.4-0.2,0.6,0
				c0.1,0.2,0,0.5,0,0.6C46.4,125.1,46.5,125.1,46.5,125.1z M46.2,124.7c-0.1,0-0.2,0-0.2,0.1c-0.1,0.2,0.1,0.3,0.2,0.1V124.7z"/>
			<path class="st13" d="M46.6,124.5l0.1-0.1c0-0.1,0-0.2,0-0.3c0.1,0,0.2-0.1,0.2-0.1l0,0c0,0.1,0,0.2,0,0.3c0.1,0,0.2,0,0.2,0l0,0
				c0,0,0,0.1,0,0.1c-0.1,0-0.1,0-0.2,0c0,0.1,0,0.5,0,0.5c0,0.1,0.1,0,0.2,0l0,0c0,0-0.1,0.1-0.1,0.1c-0.1,0-0.3,0-0.3-0.1
				c-0.1-0.1,0-0.4,0-0.6L46.6,124.5C46.7,124.5,46.6,124.5,46.6,124.5L46.6,124.5z"/>
		</g>
	</g>
</g>
<g>
	<path class="st3" d="M49.2,91.4"/>
	<path class="st3" d="M49.2,91.4"/>
	<path class="st3" d="M49.1,89.9C49,89.9,48.9,90,49,90c1.5,1.1,0.7,3.5-1.1,3.6v-0.4c0.8,0.2,1.6-0.6,1.3-1.4c0,0,0,0,0,0
		c-0.1,0-0.2,0-0.4,0c0.3-0.3,0.5-0.7,0.4-1.2c0,0,0,0,0,0c-0.3-0.1-0.6,0-0.9,0.1c0.1-0.2,0.1-0.4,0.1-0.5c0-0.4-0.2-0.7-0.5-0.9
		c0,0,0,0-0.1,0c-0.3,0.2-0.5,0.6-0.5,0.9c0,0.2,0,0.4,0.1,0.5c-0.3-0.2-0.6-0.2-0.9-0.1c0,0,0,0,0,0c-0.1,0.4,0.1,0.9,0.4,1.2
		c-0.1,0-0.2,0-0.4,0c0,0,0,0,0,0c-0.2,0.8,0.6,1.6,1.3,1.4v0.4c-1.9-0.1-2.6-2.5-1.1-3.6c0,0,0-0.1,0-0.1c0,0-0.1,0-0.1,0
		c-0.5,0.4-0.8,1-0.8,1.7c0,1.2,0.9,2.1,2.1,2.1C49.8,93.7,50.7,91.1,49.1,89.9z M49.1,91.9c0.2,0.7-0.5,1.4-1.2,1.2
		C47.7,92.4,48.4,91.7,49.1,91.9z M49.1,90.6c0.2,0.7-0.5,1.4-1.2,1.2C47.7,91.2,48.4,90.5,49.1,90.6z M47.4,90.1
		c0-0.3,0.2-0.6,0.4-0.8c0.3,0.2,0.5,0.5,0.4,0.9c0,0.3-0.2,0.6-0.4,0.8C47.5,90.8,47.3,90.5,47.4,90.1z M46.5,90.6
		c0.7-0.2,1.4,0.5,1.2,1.2C47,92,46.3,91.3,46.5,90.6z M47.7,93.1c-0.7,0.2-1.4-0.5-1.2-1.2C47.2,91.7,47.9,92.4,47.7,93.1z"/>
	<g>
		<g>
			<path class="st3" d="M45.9,94.6L45.9,94.6C45.9,94.6,45.9,94.6,45.9,94.6c-0.8,0.4-0.8-0.8,0-0.5l0,0c0,0.1,0,0.1,0,0.2h0
				c0-0.1,0-0.1-0.1-0.1c-0.3-0.1-0.4,0.3-0.3,0.5C45.6,94.6,45.8,94.6,45.9,94.6z"/>
			<path class="st3" d="M46,94.7L46,94.7C46,94.6,46,94.6,46,94.7C46.1,94.6,46.1,94.6,46,94.7c0.1-0.1,0.1-0.3,0.1-0.4
				c0,0,0,0-0.1,0v0c0.1,0,0.1,0,0.1,0l0,0c0,0,0,0,0,0c0,0,0,0.1,0,0.1c0,0,0.1-0.1,0.2-0.1c0,0,0,0.1,0,0.1l0,0c0-0.1-0.1,0-0.1,0
				c0,0,0,0.2,0,0.2c0,0,0,0,0.1,0v0C46.2,94.7,46.1,94.7,46,94.7z"/>
			<path class="st3" d="M46.4,94.5c0-0.2,0.1-0.2,0.2-0.2c0.2,0,0.2,0.1,0.2,0.2C46.9,94.8,46.4,94.8,46.4,94.5z M46.5,94.4
				c0,0.1,0,0.1,0,0.2c0,0.1,0.1,0.1,0.1,0c0,0,0-0.1,0-0.1c0-0.1,0-0.1,0-0.2c0,0-0.1-0.1-0.1,0C46.5,94.3,46.5,94.4,46.5,94.4z"/>
			<path class="st3" d="M46.9,94.3L46.9,94.3c0.1,0,0.1,0,0.1-0.1l0.1,0c0,0,0,0,0,0l0,0l0.1-0.1c0.1-0.1,0.3,0,0.3,0.2
				c0,0.1,0,0.2-0.1,0.2c-0.1,0.1-0.1,0.1-0.2,0.1l0,0.1c0,0.1,0,0.1,0.1,0.1v0c-0.1,0-0.2,0-0.3,0v0c0,0,0.1,0,0.1,0
				c0,0,0-0.2,0-0.3c0,0,0-0.2,0-0.2C47,94.3,47,94.3,46.9,94.3C47,94.3,47,94.3,46.9,94.3z M47.1,94.6c0.1,0.1,0.2,0,0.2-0.1
				c0-0.1-0.1-0.2-0.2-0.1V94.6z"/>
			<path class="st3" d="M47.6,94.5C47.6,94.6,47.6,94.6,47.6,94.5c0,0.1,0.2,0.1,0.2,0c0-0.1,0-0.1-0.1-0.1
				C47.6,94.5,47.6,94.5,47.6,94.5c-0.1-0.1-0.1-0.2,0-0.2c0.1-0.1,0.2-0.1,0.3,0c0,0,0,0.1,0,0.1h0c0,0,0-0.1,0-0.1
				c0-0.1-0.2,0-0.1,0.1c0,0,0.1,0,0.2,0c0.1,0,0.1,0.2,0,0.2c-0.1,0.1-0.2,0-0.3,0l0,0C47.5,94.6,47.5,94.6,47.6,94.5L47.6,94.5z"
				/>
			<path class="st3" d="M48.2,94.7L48.2,94.7C48.3,94.6,48.3,94.6,48.2,94.7c0.1-0.1,0.1-0.1,0.1-0.2c0-0.1,0-0.4,0-0.4
				c0,0,0,0-0.1,0v0c0.1,0,0.2,0,0.3,0v0c0,0-0.1,0-0.1,0c0,0.1,0,0.2,0,0.2c0.1,0,0.2,0,0.3,0c0-0.1,0-0.2,0-0.2c0,0,0,0-0.1,0v0
				c0.1,0,0.2,0,0.3,0v0c0,0-0.1,0-0.1,0c0,0,0,0,0,0c0,0.1,0,0.3,0,0.5c0,0.1,0,0.1,0.1,0.1v0c-0.1,0-0.2,0-0.3,0v0
				c0,0,0.1,0,0.1,0c0-0.1,0-0.1,0-0.3c-0.1,0-0.2,0-0.3,0c0,0.1,0,0.2,0,0.2c0,0.1,0,0,0.1,0.1v0c0,0-0.1,0-0.2,0L48.2,94.7z"/>
			<path class="st3" d="M49.4,94.6L49.4,94.6c-0.1,0-0.1,0-0.2,0l0,0l0-0.1l-0.1,0.1c0,0-0.1,0-0.1,0c0,0,0-0.2,0-0.2
				c0,0,0.1,0,0.2-0.1c0-0.1-0.1-0.1-0.2-0.1l0,0.1l0,0l0,0c0,0,0,0,0,0c0.1-0.1,0.2-0.1,0.3,0C49.4,94.4,49.4,94.5,49.4,94.6
				C49.4,94.6,49.4,94.6,49.4,94.6z M49.3,94.4c-0.1,0-0.1,0-0.1,0c-0.1,0.1,0,0.2,0.1,0.1V94.4z"/>
			<path class="st3" d="M49.9,94.6L49.9,94.6c-0.1,0-0.1,0-0.2,0l0,0l0-0.1l-0.1,0.1c0,0-0.1,0-0.1,0c0,0,0-0.2,0-0.2
				c0,0,0.1,0,0.2-0.1c0-0.1-0.1-0.1-0.2-0.1l0,0.1l0,0l0,0c0,0,0,0,0,0c0.1-0.1,0.2-0.1,0.3,0C49.9,94.4,49.8,94.5,49.9,94.6
				C49.9,94.6,49.9,94.6,49.9,94.6z M49.7,94.4c-0.1,0-0.1,0-0.1,0c-0.1,0.1,0,0.2,0.1,0.1V94.4z"/>
			<path class="st3" d="M49.9,94.3L49.9,94.3c0.1-0.1,0.1-0.1,0.1-0.2c0,0,0.1,0,0.1,0l0,0c0,0,0,0.1,0,0.2c0,0,0.1,0,0.1,0l0,0
				c0,0,0,0,0,0.1c-0.1,0-0.1,0-0.1,0c0,0.1,0,0.3,0,0.3c0,0,0.1,0,0.1,0l0,0c0,0,0,0-0.1,0.1c-0.1,0-0.1,0-0.2,0
				C50,94.6,50,94.4,49.9,94.3L49.9,94.3C50,94.3,50,94.3,49.9,94.3L49.9,94.3z"/>
		</g>
	</g>
</g>
</svg>
